<?xml version="1.0" encoding="utf-8"?>
<!-- Generator: Adobe Illustrator 12.0.0, SVG Export Plug-In  -->
<!DOCTYPE svg PUBLIC "-//W3C//DTD SVG 1.1//EN" "http://www.w3.org/Graphics/SVG/1.1/DTD/svg11.dtd" [
	<!ENTITY ns_flows "http://ns.adobe.com/Flows/1.0/">
	<!ENTITY ns_svg "http://www.w3.org/2000/svg">
	<!ENTITY ns_xlink "http://www.w3.org/1999/xlink">
]>
<svg  version="1.1" xmlns="&ns_svg;" xmlns:xlink="&ns_xlink;" xmlns:a="http://ns.adobe.com/AdobeSVGViewerExtensions/3.0/"
	 width="301" height="200" viewBox="0 0 301 200" enable-background="new 0 0 301 200" xml:space="preserve">
<defs>
</defs>
<rect fill="#88B92A" fill-opacity="0" width="300.574" height="200"/>
<polyline fill="none" stroke="#FFFFFF" stroke-width="6" points="181.48,180.381 150.446,180.381 149.544,3.438 300,3.438 "/>
<path fill="#FFFFFF" d="M289.695,186.604c0,0-16.684,16.539-57.711,11.41c0,0,2.068-7.009,1.799-11.273
	c0,0,15.082-45.502,40.293-12.543C274.076,174.195,288.895,185.805,289.695,186.604z"/>
<path fill="#FFFFFF" d="M221.113,193.012c0,0,12.271-24.017-22.422-63.246c0,0-7.715,28.375-4.791,40.205
	C193.9,169.971,194.686,188.206,221.113,193.012z"/>
<path fill="#FFFFFF" d="M226.449,72.386c0,0-15.479,25.887-24.024,52.033C202.425,124.419,243.788,124.419,226.449,72.386z"/>
<path fill="#FFFFFF" d="M239.984,85.198c0,0,23.855,1.174,24.871-18.093c0,0-2.135-7.452-19.504-8.697c0,0-2.967,2.236-9.904,7.041
	C235.447,65.448,241.322,79.053,239.984,85.198z"/>
<path fill="#FFFFFF" d="M274.218,76.65c0,0,16.81,28.297,22.415,48.838C296.633,125.488,269.684,134.029,274.218,76.65z"/>
<path fill="#FFFFFF" d="M300,177.709c-0.298,0.498-0.619,0.975-0.965,1.428c0,0-41.364-22.152-14.946-51.244
	c0,0,9.069,4.272,13.612,1.873c0,0,1.082,3.295,2.298,8.264L300,177.709z"/>
<path fill="#FFFFFF" d="M233.115,172.988c0,0,13.605-28.018,33.095-16.813c0,0-6.405-15.479,8.009-30.687
	c0,0-12.012-7.735-11.211-41.1c0,0-8.009,10.41-23.755,9.348c0,0,2.401,29.881-29.353,34.688
	C209.902,128.425,224.848,141.497,233.115,172.988z"/>
</svg>
