<?xml version="1.0" encoding="utf-8"?>
<!-- Generator: Adobe Illustrator 12.0.0, SVG Export Plug-In  -->
<!DOCTYPE svg PUBLIC "-//W3C//DTD SVG 1.1//EN" "http://www.w3.org/Graphics/SVG/1.1/DTD/svg11.dtd" [
	<!ENTITY ns_flows "http://ns.adobe.com/Flows/1.0/">
	<!ENTITY ns_svg "http://www.w3.org/2000/svg">
	<!ENTITY ns_xlink "http://www.w3.org/1999/xlink">
]>
<svg  version="1.1" xmlns="&ns_svg;" xmlns:xlink="&ns_xlink;" xmlns:a="http://ns.adobe.com/AdobeSVGViewerExtensions/3.0/"
	 width="229" height="31" viewBox="-0.01 -0.776 229 31" enable-background="new -0.01 -0.776 229 31" xml:space="preserve">
<defs>
</defs>
<rect fill="#FFFFFF" fill-opacity="0" width="228.912" height="30.001"/>
<path fill="#1A171B" d="M63.348,18.915H59.05l-1.02,2.941h-1.577l4.118-11.419h1.325l4.031,11.419h-1.576L63.348,18.915z
	 M59.497,17.621h3.411l-1.663-4.902h-0.047L59.497,17.621z"/>
<path fill="#1A171B" d="M76.031,10.437v7.584c0,1.255-0.408,2.235-1.224,2.941c-0.815,0.705-1.867,1.059-3.152,1.059
	c-1.24,0-2.254-0.354-3.044-1.063c-0.789-0.709-1.185-1.688-1.185-2.938v-7.584h1.546v7.584c0,0.873,0.249,1.557,0.749,2.051
	c0.499,0.494,1.144,0.741,1.934,0.741c0.836,0,1.518-0.247,2.043-0.741s0.788-1.178,0.788-2.051v-7.584H76.031z"/>
<path fill="#1A171B" d="M84.567,18.978c0-0.518-0.187-0.952-0.558-1.303c-0.371-0.35-1.024-0.648-1.96-0.894
	c-1.161-0.288-2.067-0.711-2.719-1.271c-0.65-0.56-0.976-1.263-0.976-2.11c0-0.894,0.351-1.639,1.051-2.235
	c0.7-0.596,1.61-0.894,2.729-0.894c1.202,0,2.16,0.341,2.874,1.023s1.061,1.479,1.04,2.388l-0.023,0.047h-1.475
	c0-0.647-0.227-1.184-0.679-1.607c-0.452-0.423-1.032-0.635-1.737-0.635c-0.722,0-1.274,0.175-1.659,0.525
	c-0.384,0.35-0.576,0.805-0.576,1.364c0,0.497,0.21,0.911,0.632,1.243c0.42,0.332,1.104,0.624,2.051,0.875
	c1.15,0.298,2.025,0.737,2.627,1.317s0.902,1.297,0.902,2.149c0,0.92-0.362,1.66-1.087,2.219c-0.724,0.561-1.669,0.84-2.835,0.84
	c-1.104,0-2.077-0.309-2.922-0.926c-0.844-0.617-1.253-1.443-1.227-2.479l0.016-0.047h1.475c0,0.717,0.271,1.27,0.815,1.658
	c0.544,0.391,1.157,0.585,1.843,0.585c0.732,0,1.311-0.165,1.737-0.494C84.354,19.99,84.567,19.542,84.567,18.978z"/>
<path fill="#1A171B" d="M94.388,18.978c0-0.518-0.186-0.952-0.557-1.303c-0.371-0.35-1.024-0.648-1.961-0.894
	c-1.16-0.288-2.066-0.711-2.717-1.271c-0.651-0.56-0.977-1.263-0.977-2.11c0-0.894,0.35-1.639,1.051-2.235
	c0.701-0.596,1.61-0.894,2.729-0.894c1.202,0,2.16,0.341,2.874,1.023s1.061,1.479,1.039,2.388l-0.023,0.047h-1.475
	c0-0.647-0.226-1.184-0.678-1.607c-0.453-0.423-1.031-0.635-1.737-0.635c-0.722,0-1.274,0.175-1.659,0.525
	c-0.384,0.35-0.576,0.805-0.576,1.364c0,0.497,0.211,0.911,0.631,1.243c0.422,0.332,1.105,0.624,2.052,0.875
	c1.149,0.298,2.025,0.737,2.627,1.317s0.902,1.297,0.902,2.149c0,0.92-0.362,1.66-1.087,2.219c-0.724,0.561-1.669,0.84-2.835,0.84
	c-1.104,0-2.077-0.309-2.921-0.926c-0.845-0.617-1.254-1.443-1.229-2.479l0.017-0.047h1.474c0,0.717,0.272,1.27,0.816,1.658
	c0.543,0.391,1.158,0.585,1.843,0.585c0.731,0,1.312-0.165,1.737-0.494S94.388,19.542,94.388,18.978z"/>
<path fill="#1A171B" d="M106.107,11.652h-3.765v10.204h-1.545V11.652H97.08v-1.215h9.027V11.652z"/>
<path fill="#1A171B" d="M113.968,16.562h-4.689v4.086h5.489v1.208h-7.035V10.437h6.949v1.215h-5.403v3.694h4.689V16.562z"/>
<path fill="#1A171B" d="M118.142,20.648h5.569v1.208h-7.114V10.437h1.545V20.648z"/>
<path fill="#1A171B" d="M126.976,20.648h5.568v1.208h-7.114V10.437h1.546V20.648z"/>
<path fill="#1A171B" d="M142.687,10.437v7.584c0,1.255-0.408,2.235-1.224,2.941c-0.815,0.705-1.866,1.059-3.153,1.059
	c-1.238,0-2.253-0.354-3.043-1.063c-0.789-0.709-1.184-1.688-1.184-2.938v-7.584h1.545v7.584c0,0.873,0.249,1.557,0.749,2.051
	c0.499,0.494,1.144,0.741,1.933,0.741c0.837,0,1.518-0.247,2.043-0.741s0.789-1.178,0.789-2.051v-7.584H142.687z"/>
<path fill="#1A171B" d="M153.771,21.856h-1.546l-5.497-8.722l-0.048,0.016v8.706h-1.545V10.437h1.545l5.498,8.713l0.047-0.016
	v-8.697h1.546V21.856z"/>
<path fill="#1A171B" d="M164.659,20.319c-0.271,0.424-0.744,0.813-1.416,1.169s-1.543,0.533-2.615,0.533
	c-1.318,0-2.408-0.437-3.271-1.311c-0.863-0.873-1.294-2.002-1.294-3.388V14.97c0-1.386,0.415-2.516,1.247-3.389
	c0.831-0.873,1.903-1.31,3.216-1.31c1.27,0,2.273,0.339,3.012,1.016c0.736,0.677,1.095,1.538,1.074,2.584l-0.016,0.047h-1.482
	c0-0.695-0.225-1.274-0.675-1.737c-0.449-0.462-1.087-0.693-1.913-0.693c-0.874,0-1.577,0.326-2.11,0.98
	c-0.533,0.653-0.8,1.482-0.8,2.486v2.368c0,1.015,0.282,1.85,0.847,2.506c0.565,0.656,1.286,0.984,2.165,0.984
	c0.674,0,1.209-0.088,1.604-0.263c0.395-0.176,0.689-0.383,0.883-0.624v-2.572h-2.588v-1.208h4.133V20.319z"/>
<path fill="#1A171B" d="M173.563,16.562h-4.689v4.086h5.489v1.208h-7.035V10.437h6.949v1.215h-5.403v3.694h4.689V16.562z"/>
<path fill="#1A171B" d="M184.828,21.856h-1.546l-5.497-8.722l-0.048,0.016v8.706h-1.545V10.437h1.545l5.498,8.713l0.047-0.016
	v-8.697h1.546V21.856z"/>
<polyline fill="none" stroke="#000000" stroke-width="0.5" points="21.215,24.975 17.393,24.975 17.281,3.181 41.232,3.181 
	41.232,25.417 37.912,25.417 "/>
<path d="M34.79,25.742c0,0-2.055,2.037-7.108,1.405c0,0,0.255-0.863,0.222-1.389c0,0,1.857-5.604,4.963-1.545
	C32.866,24.213,34.691,25.643,34.79,25.742z"/>
<path d="M26.343,26.531c0,0,1.512-2.958-2.762-7.79c0,0-0.95,3.495-0.59,4.952C22.991,23.693,23.088,25.939,26.343,26.531z"/>
<path d="M27,11.673c0,0-1.906,3.188-2.959,6.409C24.041,18.083,29.136,18.083,27,11.673z"/>
<path d="M28.544,13.251c0,0,2.938,0.145,3.063-2.229c0,0-0.263-0.918-2.402-1.071c0,0-0.365,0.275-1.22,0.867
	C27.985,10.819,28.709,12.495,28.544,13.251z"/>
<path d="M32.884,12.199c0,0,2.07,3.485,2.761,6.016C35.645,18.214,32.325,19.266,32.884,12.199z"/>
<path d="M35.776,18.741c0,0,1.446,4.404,0.164,6.081c0,0-5.095-2.729-1.841-6.312C34.1,18.51,35.217,19.037,35.776,18.741z"/>
<path d="M27.821,24.065c0,0,1.676-3.451,4.076-2.071c0,0-0.789-1.906,0.986-3.779c0,0-1.479-0.953-1.381-5.063
	c0,0-0.986,1.282-2.926,1.151c0,0,0.296,3.681-3.615,4.272C24.962,18.576,26.803,20.186,27.821,24.065z"/>
</svg>
