<?xml version="1.0" encoding="utf-8"?>
<!-- Generator: Adobe Illustrator 13.0.0, SVG Export Plug-In  -->
<!DOCTYPE svg PUBLIC "-//W3C//DTD SVG 1.1//EN" "http://www.w3.org/Graphics/SVG/1.1/DTD/svg11.dtd" [
	<!ENTITY ns_flows "http://ns.adobe.com/Flows/1.0/">
]>
<svg version="1.1"
	 xmlns="http://www.w3.org/2000/svg" xmlns:xlink="http://www.w3.org/1999/xlink" xmlns:a="http://ns.adobe.com/AdobeSVGViewerExtensions/3.0/"
	 x="0px" y="0px" width="600px" height="90px" viewBox="0 0 600 90" enable-background="new 0 0 600 90" xml:space="preserve">
<defs>
</defs>
<rect fill="#3B5999" width="577.334" height="78.667"/>
<path fill="#FFFFFF" d="M130.504,50.782V25.899h8.118c2.598,0,4.631,0.562,6.101,1.684s2.205,2.806,2.205,5.05
	c0,1.071-0.331,2.031-0.991,2.88c-0.661,0.849-1.538,1.495-2.632,1.939c1.629,0.229,2.919,0.935,3.871,2.119
	c0.951,1.186,1.427,2.58,1.427,4.188c0,2.278-0.741,4.019-2.222,5.221c-1.481,1.202-3.486,1.803-6.016,1.803H130.504z
	 M133.871,36.478h5.452c1.253,0,2.273-0.344,3.059-1.033s1.179-1.649,1.179-2.88c0-1.344-0.425-2.35-1.273-3.017
	c-0.849-0.666-2.071-1-3.666-1h-4.751V36.478z M133.871,39.11v9.04h6.494c1.538,0,2.731-0.379,3.581-1.137
	c0.848-0.757,1.273-1.831,1.273-3.222c0-1.378-0.433-2.488-1.299-3.332c-0.866-0.843-2.034-1.293-3.503-1.35h-0.222H133.871z"/>
<path fill="#FFFFFF" d="M159.95,51.142c-2.655,0-4.725-0.849-6.212-2.547c-1.486-1.697-2.23-3.931-2.23-6.699v-0.752
	c0-2.654,0.766-4.851,2.298-6.588s3.404-2.606,5.614-2.606c2.472,0,4.326,0.769,5.563,2.308c1.236,1.537,1.854,3.583,1.854,6.135
	v1.777h-11.826l-0.051,0.086c0,1.856,0.41,3.363,1.23,4.52c0.82,1.157,2.073,1.734,3.76,1.734c1.139,0,2.139-0.162,3-0.486
	c0.86-0.325,1.598-0.771,2.213-1.342l1.316,2.188c-0.661,0.639-1.533,1.177-2.615,1.615
	C162.781,50.922,161.477,51.142,159.95,51.142z M159.42,34.599c-1.174,0-2.145,0.452-2.914,1.358
	c-0.769,0.905-1.239,2.065-1.41,3.478l0.034,0.086h8.34v-0.273c0-1.345-0.331-2.455-0.991-3.333
	C161.818,35.037,160.799,34.599,159.42,34.599z"/>
<path fill="#FFFFFF" d="M174.254,27.557h-3.367v-3.435h3.367V27.557z M174.254,50.782h-3.367V32.291h3.367V50.782z"/>
<path fill="#FFFFFF" d="M202.453,39.776h-10.493v11.006h-3.367V25.899h15.603v2.649h-12.236v8.58h10.493V39.776z"/>
<path fill="#FFFFFF" d="M218.227,50.782c-0.114-0.558-0.203-1.051-0.265-1.479c-0.063-0.427-0.1-0.856-0.111-1.29
	c-0.627,0.889-1.444,1.632-2.453,2.23c-1.008,0.598-2.093,0.897-3.255,0.897c-1.926,0-3.392-0.493-4.401-1.479
	c-1.008-0.985-1.512-2.344-1.512-4.076c0-1.766,0.715-3.147,2.145-4.145c1.429-0.996,3.369-1.495,5.819-1.495h3.657v-1.829
	c0-1.082-0.331-1.939-0.991-2.571c-0.661-0.633-1.595-0.948-2.803-0.948c-1.094,0-1.977,0.273-2.649,0.82
	c-0.672,0.547-1.008,1.202-1.008,1.965l-3.196,0.034l-0.034-0.103c-0.08-1.344,0.549-2.574,1.889-3.691
	c1.338-1.116,3.067-1.675,5.187-1.675c2.096,0,3.782,0.533,5.059,1.598c1.276,1.065,1.914,2.601,1.914,4.606v8.903
	c0,0.661,0.034,1.299,0.103,1.914s0.193,1.22,0.376,1.812H218.227z M212.638,48.321c1.219,0,2.318-0.313,3.298-0.939
	c0.979-0.627,1.618-1.345,1.914-2.154V42.22h-3.777c-1.356,0-2.441,0.342-3.256,1.025s-1.222,1.487-1.222,2.41
	c0,0.82,0.256,1.47,0.769,1.948S211.635,48.321,212.638,48.321z"/>
<path fill="#FFFFFF" d="M233.455,48.509c1.036,0,1.941-0.344,2.717-1.033c0.774-0.689,1.162-1.535,1.162-2.538h3.042l0.052,0.103
	c0.045,1.596-0.639,3.011-2.051,4.247c-1.413,1.236-3.054,1.854-4.922,1.854c-2.598,0-4.604-0.883-6.016-2.649
	c-1.413-1.766-2.119-3.965-2.119-6.597v-0.718c0-2.608,0.709-4.799,2.127-6.571c1.419-1.771,3.421-2.657,6.008-2.657
	c2.062,0,3.751,0.638,5.066,1.914c1.316,1.276,1.951,2.843,1.906,4.7l-0.035,0.102h-3.059c0-1.127-0.367-2.087-1.103-2.879
	c-0.734-0.792-1.66-1.188-2.776-1.188c-1.652,0-2.857,0.641-3.615,1.922c-0.758,1.282-1.137,2.835-1.137,4.657v0.718
	c0,1.857,0.373,3.424,1.12,4.699C230.569,47.871,231.779,48.509,233.455,48.509z"/>
<path fill="#FFFFFF" d="M252.082,51.142c-2.654,0-4.725-0.849-6.212-2.547c-1.486-1.697-2.229-3.931-2.229-6.699v-0.752
	c0-2.654,0.766-4.851,2.298-6.588s3.403-2.606,5.614-2.606c2.472,0,4.326,0.769,5.563,2.308c1.236,1.537,1.854,3.583,1.854,6.135
	v1.777h-11.826l-0.052,0.086c0,1.856,0.41,3.363,1.23,4.52c0.82,1.157,2.074,1.734,3.76,1.734c1.14,0,2.14-0.162,3-0.486
	c0.859-0.325,1.598-0.771,2.213-1.342l1.316,2.188c-0.661,0.639-1.533,1.177-2.615,1.615
	C254.913,50.922,253.609,51.142,252.082,51.142z M251.552,34.599c-1.174,0-2.145,0.452-2.914,1.358
	c-0.769,0.905-1.238,2.065-1.41,3.478l0.035,0.086h8.34v-0.273c0-1.345-0.331-2.455-0.992-3.333
	C253.951,35.037,252.93,34.599,251.552,34.599z"/>
<path fill="#FFFFFF" d="M278.537,42.237c0,2.666-0.641,4.816-1.922,6.451c-1.282,1.636-3.045,2.453-5.289,2.453
	c-1.23,0-2.299-0.243-3.205-0.727c-0.905-0.484-1.655-1.199-2.247-2.145l-0.547,2.512h-2.581v-26.66h3.367v10.356
	c0.581-0.82,1.302-1.447,2.162-1.88c0.859-0.433,1.865-0.649,3.016-0.649c2.279,0,4.057,0.912,5.332,2.734
	c1.276,1.823,1.914,4.222,1.914,7.194V42.237z M275.17,41.878c0-2.119-0.391-3.848-1.171-5.187c-0.78-1.338-1.968-2.008-3.563-2.008
	c-1.037,0-1.912,0.254-2.624,0.761s-1.279,1.188-1.7,2.042v8.015c0.433,0.912,1,1.624,1.7,2.137c0.701,0.513,1.587,0.77,2.657,0.77
	c1.584,0,2.763-0.564,3.538-1.692c0.774-1.128,1.162-2.62,1.162-4.478V41.878z"/>
<path fill="#FFFFFF" d="M281.853,41.366c0-2.734,0.74-4.987,2.221-6.76c1.481-1.771,3.492-2.657,6.033-2.657
	c2.563,0,4.589,0.883,6.075,2.649c1.487,1.766,2.23,4.021,2.23,6.768v0.375c0,2.758-0.741,5.014-2.222,6.768
	c-1.481,1.755-3.498,2.633-6.05,2.633c-2.553,0-4.571-0.881-6.059-2.641c-1.486-1.761-2.229-4.014-2.229-6.76V41.366z
	 M285.219,41.741c0,1.96,0.413,3.578,1.239,4.854c0.825,1.276,2.053,1.914,3.683,1.914c1.606,0,2.825-0.638,3.657-1.914
	c0.831-1.275,1.248-2.894,1.248-4.854v-0.375c0-1.938-0.419-3.549-1.257-4.837c-0.837-1.287-2.065-1.931-3.683-1.931
	c-1.606,0-2.823,0.644-3.648,1.931c-0.826,1.288-1.239,2.899-1.239,4.837V41.741z"/>
<path fill="#FFFFFF" d="M301.746,41.366c0-2.734,0.74-4.987,2.221-6.76c1.48-1.771,3.492-2.657,6.033-2.657
	c2.563,0,4.588,0.883,6.074,2.649c1.488,1.766,2.23,4.021,2.23,6.768v0.375c0,2.758-0.74,5.014-2.221,6.768
	c-1.482,1.755-3.498,2.633-6.051,2.633s-4.57-0.881-6.059-2.641c-1.486-1.761-2.229-4.014-2.229-6.76V41.366z M305.111,41.741
	c0,1.96,0.414,3.578,1.24,4.854c0.824,1.276,2.053,1.914,3.682,1.914c1.607,0,2.826-0.638,3.658-1.914
	c0.83-1.275,1.248-2.894,1.248-4.854v-0.375c0-1.938-0.42-3.549-1.258-4.837c-0.836-1.287-2.064-1.931-3.682-1.931
	c-1.607,0-2.824,0.644-3.648,1.931c-0.826,1.288-1.24,2.899-1.24,4.837V41.741z"/>
<path fill="#FFFFFF" d="M327.533,42.255h-1.725v8.527h-3.367v-26.66h3.367v15.449h1.691l5.555-7.28h4.033l-6.717,8.528l7.297,9.963
	h-3.982L327.533,42.255z"/>
<path fill="#FFFFFF" d="M364.824,42.237c0,2.666-0.639,4.816-1.914,6.451c-1.277,1.636-3.037,2.453-5.281,2.453
	c-1.141,0-2.141-0.191-3-0.573c-0.859-0.381-1.592-0.954-2.195-1.718v9.041h-3.367V32.291h2.58l0.531,2.393
	c0.604-0.889,1.355-1.566,2.256-2.034c0.898-0.467,1.947-0.701,3.145-0.701c2.289,0,4.068,0.909,5.34,2.726
	c1.27,1.817,1.906,4.219,1.906,7.203V42.237z M361.457,41.878c0-2.096-0.414-3.819-1.24-5.169c-0.826-1.351-2.041-2.025-3.648-2.025
	c-0.969,0-1.793,0.22-2.477,0.658s-1.238,1.04-1.658,1.803v8.938c0.42,0.763,0.975,1.358,1.658,1.785
	c0.684,0.428,1.52,0.641,2.512,0.641c1.594,0,2.803-0.583,3.623-1.751s1.23-2.675,1.23-4.521V41.878z"/>
<path fill="#FFFFFF" d="M368.174,41.366c0-2.734,0.74-4.987,2.221-6.76c1.48-1.771,3.492-2.657,6.033-2.657
	c2.563,0,4.588,0.883,6.074,2.649c1.488,1.766,2.23,4.021,2.23,6.768v0.375c0,2.758-0.74,5.014-2.221,6.768
	c-1.482,1.755-3.498,2.633-6.051,2.633s-4.57-0.881-6.059-2.641c-1.486-1.761-2.229-4.014-2.229-6.76V41.366z M371.539,41.741
	c0,1.96,0.414,3.578,1.24,4.854c0.824,1.276,2.053,1.914,3.682,1.914c1.607,0,2.826-0.638,3.658-1.914
	c0.83-1.275,1.248-2.894,1.248-4.854v-0.375c0-1.938-0.42-3.549-1.258-4.837c-0.836-1.287-2.064-1.931-3.682-1.931
	c-1.607,0-2.824,0.644-3.648,1.931c-0.826,1.288-1.24,2.899-1.24,4.837V41.741z"/>
<path fill="#FFFFFF" d="M399.602,45.81c0-0.741-0.283-1.345-0.846-1.813c-0.564-0.467-1.633-0.877-3.205-1.23
	c-2.176-0.467-3.848-1.121-5.016-1.965c-1.168-0.843-1.752-1.971-1.752-3.384c0-1.504,0.641-2.791,1.922-3.862
	c1.283-1.071,2.943-1.606,4.982-1.606c2.096,0,3.795,0.57,5.094,1.709c1.299,1.14,1.918,2.467,1.861,3.981l-0.033,0.104h-3.213
	c0-0.798-0.352-1.521-1.051-2.171c-0.701-0.649-1.588-0.974-2.658-0.974c-1.186,0-2.07,0.268-2.658,0.803
	c-0.586,0.536-0.879,1.174-0.879,1.914c0,0.729,0.252,1.293,0.76,1.691c0.508,0.399,1.553,0.764,3.137,1.094
	c2.266,0.479,3.986,1.157,5.16,2.034c1.174,0.878,1.762,2.022,1.762,3.435c0,1.641-0.664,2.98-1.992,4.017
	c-1.328,1.037-3.063,1.556-5.203,1.556c-2.359,0-4.217-0.599-5.572-1.795s-1.998-2.592-1.93-4.188l0.033-0.102h3.213
	c0.057,1.195,0.502,2.07,1.334,2.623c0.83,0.553,1.805,0.828,2.922,0.828c1.195,0,2.133-0.253,2.811-0.76
	S399.602,46.595,399.602,45.81z"/>
<path fill="#FFFFFF" d="M411.838,27.831v4.46h3.502v2.495h-3.502v11.229c0,0.865,0.178,1.476,0.537,1.828
	c0.359,0.354,0.834,0.529,1.428,0.529c0.193,0,0.41-0.025,0.648-0.076c0.24-0.052,0.439-0.105,0.6-0.162l0.461,2.307
	c-0.252,0.205-0.621,0.373-1.111,0.504s-0.975,0.197-1.453,0.197c-1.367,0-2.455-0.413-3.264-1.239s-1.213-2.122-1.213-3.888V34.786
	h-2.939v-2.495h2.939v-4.46H411.838z"/>
<path fill="#FFFFFF" d="M426.604,51.142c-2.654,0-4.725-0.849-6.213-2.547c-1.486-1.697-2.229-3.931-2.229-6.699v-0.752
	c0-2.654,0.766-4.851,2.297-6.588c1.533-1.737,3.404-2.606,5.615-2.606c2.471,0,4.326,0.769,5.563,2.308
	c1.236,1.537,1.854,3.583,1.854,6.135v1.777h-11.826l-0.051,0.086c0,1.856,0.41,3.363,1.23,4.52c0.82,1.157,2.074,1.734,3.76,1.734
	c1.139,0,2.139-0.162,3-0.486c0.859-0.325,1.598-0.771,2.213-1.342l1.316,2.188c-0.662,0.639-1.533,1.177-2.615,1.615
	C429.434,50.922,428.131,51.142,426.604,51.142z M426.074,34.599c-1.174,0-2.145,0.452-2.914,1.358
	c-0.77,0.905-1.238,2.065-1.41,3.478l0.035,0.086h8.34v-0.273c0-1.345-0.332-2.455-0.992-3.333
	C428.473,35.037,427.451,34.599,426.074,34.599z"/>
<path fill="#FFFFFF" d="M440.275,32.291l0.24,2.751c0.615-0.979,1.387-1.74,2.314-2.281c0.928-0.541,1.984-0.812,3.17-0.812
	c1.994,0,3.539,0.584,4.633,1.752s1.641,2.971,1.641,5.409v11.672h-3.367V39.179c0-1.63-0.322-2.786-0.967-3.47
	c-0.643-0.684-1.625-1.025-2.947-1.025c-1.037,0-1.918,0.208-2.641,0.624s-1.297,1-1.717,1.752v13.723h-3.367V32.291H440.275z"/>
<path fill="#FFFFFF" d="M68.936,58.082H50.342c0,0-2.01,0.035-2.01-2.012V21.576c0,0,0.287-2.01,1.938-2.01
	c1.651,0,34.818,0,34.818,0s1.867,0.466,1.867,2.01c0,1.545,0,34.531,0,34.531s-0.145,1.938-1.867,1.938h-10.05V43.222h4.881
	l0.754-5.779h-5.708v-4.236c0,0-0.251-2.44,2.297-2.44h3.59V25.74c0,0-3.016-0.431-5.563-0.252c0,0-5.528,0.181-6.246,6.643v5.383
	h-5.025v5.636h4.989L68.936,58.082z"/>
</svg>
