<?xml version="1.0" encoding="utf-8"?>
<!-- Generator: Adobe Illustrator 13.0.0, SVG Export Plug-In  -->
<!DOCTYPE svg PUBLIC "-//W3C//DTD SVG 1.1//EN" "http://www.w3.org/Graphics/SVG/1.1/DTD/svg11.dtd" [
	<!ENTITY ns_flows "http://ns.adobe.com/Flows/1.0/">
]>
<svg version="1.1"
	 xmlns="http://www.w3.org/2000/svg" xmlns:xlink="http://www.w3.org/1999/xlink" xmlns:a="http://ns.adobe.com/AdobeSVGViewerExtensions/3.0/"
	 x="0px" y="0px" width="36px" height="38px" viewBox="0 0 36 38" enable-background="new 0 0 36 38" xml:space="preserve">
<defs>
</defs>
<rect fill="#FFFFFF" fill-opacity="0" width="35.143" height="37.678"/>
<g>
	<g>
		<path fill="#FFFFFF" d="M27.518,19.275c-0.957-0.981-9.955-9.956-9.955-9.956s-0.168-0.335-0.79-0.335h-7.61
			c0,0-1.819,0.144-1.843,1.868l-0.024,7.61c0,0-0.048,0.503,0.479,0.958l9.716,9.716c0,0,1.053,1.052,2.13,0.046
			c1.077-1.003,7.921-7.967,7.921-7.967S28.475,20.256,27.518,19.275z M11.49,15.34c-1.18,0-2.137-0.958-2.137-2.137
			c0-1.18,0.957-2.136,2.137-2.136c1.181,0,2.137,0.957,2.137,2.136C13.627,14.382,12.671,15.34,11.49,15.34z"/>
	</g>
</g>
</svg>
