<?xml version="1.0" encoding="utf-8"?>
<!-- Generator: Adobe Illustrator 13.0.0, SVG Export Plug-In  -->
<!DOCTYPE svg PUBLIC "-//W3C//DTD SVG 1.1//EN" "http://www.w3.org/Graphics/SVG/1.1/DTD/svg11.dtd" [
	<!ENTITY ns_flows "http://ns.adobe.com/Flows/1.0/">
]>
<svg version="1.1"
	 xmlns="http://www.w3.org/2000/svg" xmlns:xlink="http://www.w3.org/1999/xlink" xmlns:a="http://ns.adobe.com/AdobeSVGViewerExtensions/3.0/"
	 x="0px" y="0px" width="209px" height="71px" viewBox="16 -1.524 209 71" enable-background="new 16 -1.524 209 71"
	 xml:space="preserve">
<defs>
</defs>
<rect fill="none" width="268.417" height="125.406"/>
<path fill="none" stroke="#FFFFFF" stroke-width="0.5" stroke-miterlimit="3.8637" d="M17.142,42.361l0.002,9.518 M21.475,42.875
	l0.011,9.506 M23.991,43.171l-0.009,9.496 M26.703,43.492l-0.004,9.49 M16.287,30.036l-0.004,9.347 M17.177,30.187v9.286
	 M18.112,30.245v9.338"/>
<line fill="none" stroke="#FFFFFF" stroke-width="0.5" stroke-miterlimit="3.8637" x1="16.921" y1="54.773" x2="16.921" y2="55.051"/>
<path fill="none" stroke="#FFFFFF" stroke-width="0.5" stroke-miterlimit="3.8637" d="M35.33,32.281v9.273 M51.254,46.393
	l-0.003,9.428 M50.3,46.281l0.001,9.43 M48.862,46.111l-0.001,9.434 M47.137,45.908l-0.001,9.438 M44.858,45.639l0.003,9.442
	 M42.146,45.316l0.003,9.451 M38.921,44.935l0.003,9.459 M35.33,44.514l-0.016,9.471 M30.967,43.994l-0.003,9.48 M52.205,59.283
	v-0.162 M51.767,59.283l-0.008-0.184 M51.254,59.039v0.244 M50.3,58.928v0.354 M48.862,58.761v0.521 M47.146,58.56v0.723
	 M44.875,58.296v0.986 M42.146,57.98l-0.001,1.303 M38.923,57.605v1.678 M35.33,57.187v2.096 M52.207,34.275v9.274 M51.254,34.179
	v9.258 M48.861,33.88l0.001,9.36 M47.134,33.676l0.026,9.198 M44.873,33.468l0.01,9.216 M42.135,33.078l0.011,9.283 M38.921,32.705
	l0.002,9.273 M30.967,31.764v9.274 M26.708,31.262l-0.003,9.272 M19.527,30.414v9.393 M21.47,30.643v9.272 M23.99,30.942
	l-0.006,9.272 M16.298,42.287v9.531 M18.112,42.476v9.514 M19.532,42.646l0.003,9.51 M30.967,56.682v2.603 M26.692,56.185
	l-0.003,3.098 M23.992,55.871l-0.002,3.414 M21.48,55.58l-0.003,3.705 M16.259,54.93l-0.009,4.354 M17.135,55.076v4.207
	 M18.109,55.187v4.096 M19.527,55.353l0.003,3.932 M50.294,34.049l0.005,9.274 M52.204,46.484l0.005,9.418"/>
<path fill="none" stroke="#FFFFFF" stroke-width="0.5" stroke-miterlimit="3.8637" d="M17.854,54.557l0.002,0.603 M19.155,54.25
	v1.062 M20.96,53.824l0.003,1.695 M23.417,53.248l0.004,2.558 M25.949,52.894l-0.005,3.2 M29.886,53.351l0.004,3.205 M34.125,53.841
	l-0.001,3.207 M38.063,54.296l0.001,3.21 M44.228,55.009l0.005,2.703"/>
<line fill="none" stroke="#FFFFFF" stroke-width="0.5" stroke-miterlimit="3.8637" x1="16.479" y1="54.875" x2="16.479" y2="55"/>
<path fill="none" stroke="#FFFFFF" stroke-width="0.5" stroke-miterlimit="3.8637" d="M41.369,54.678l0.001,3.211 M46.623,55.287
	l0.001,1.896 M48.477,55.5v1.273 M49.95,55.669l-0.003,0.775 M51.063,56.201l0.003-0.402 M25.95,40.445l-0.005,2.959 M17.852,42.023
	l-0.001,0.422 M20.958,41.292l-0.002,1.521 M23.412,40.717v2.387 M19.153,41.718l0.003,0.884"/>
<line fill="none" stroke="#FFFFFF" stroke-width="0.5" stroke-miterlimit="3.8637" x1="16.929" y1="42.24" x2="16.927" y2="42.337"/>
<path fill="none" stroke="#FFFFFF" stroke-width="0.5" stroke-miterlimit="3.8637" d="M29.896,40.912l-0.006,2.957 M34.108,41.43
	l0.014,2.938 M38.034,41.875l-0.006,2.957 M41.351,42.236l0.02,2.99 M44.228,42.605l-0.015,2.807 M46.626,42.889l-0.01,1.991
	 M48.478,43.109l-0.017,1.361 M49.957,43.283l-0.006,0.857 M51.072,43.414l-0.009,0.48 M20.956,28.875l0.001,1.707 M23.416,28.294
	l-0.001,2.578 M25.953,27.689l0.012,3.458 M34.119,25.748l0.003,6.39"/>
<line fill="none" stroke="#FFFFFF" stroke-width="0.5" stroke-miterlimit="3.8637" x1="39.758" y1="24.416" x2="39.758" y2="32.773"/>
<path fill="none" stroke="#FFFFFF" stroke-width="0.5" stroke-miterlimit="3.8637" d="M29.878,26.758l-0.002,4.878 M19.141,29.307
	l-0.017,1.071"/>
<line fill="none" stroke="#FFFFFF" stroke-width="0.5" stroke-miterlimit="3.8637" x1="16.916" y1="29.835" x2="16.928" y2="30.106"/>
<line fill="none" stroke="#FFFFFF" stroke-width="0.5" stroke-miterlimit="3.8637" x1="16.473" y1="29.927" x2="16.481" y2="30.053"/>
<line fill="none" stroke="#FFFFFF" stroke-width="0.5" stroke-miterlimit="3.8637" x1="17.859" y1="29.611" x2="17.87" y2="30.221"/>
<path fill="none" stroke="#FFFFFF" stroke-width="0.5" stroke-miterlimit="3.8637" d="M49.241,22.156l-0.007,10.289 M62.671,19.384
	l0.001,10.427"/>
<path fill="#FFFFFF" d="M74.118,59.533H72.05l-7.361-11.677l-0.063,0.021v11.655h-2.068V44.245h2.068l7.361,11.665l0.063-0.021
	V44.245h2.068V59.533z"/>
<path fill="#FFFFFF" d="M86.047,52.445h-6.279v5.471h7.35v1.617h-9.418V44.245h9.303v1.627h-7.235v4.946h6.279V52.445z"/>
<path fill="#FFFFFF" d="M97.46,55.595h-5.754l-1.365,3.938h-2.11l5.513-15.288h1.774l5.397,15.288h-2.11L97.46,55.595z
	 M92.305,53.863h4.568L94.646,47.3h-0.063L92.305,53.863z"/>
<path fill="#FFFFFF" d="M114.723,59.533h-2.068l-7.36-11.677l-0.063,0.021v11.655h-2.068V44.245h2.068l7.36,11.665l0.063-0.021
	V44.245h2.068V59.533z"/>
<path fill="#FFFFFF" d="M118.304,59.533V44.245h4.809c1.995,0,3.601,0.614,4.814,1.843c1.215,1.229,1.822,2.815,1.822,4.762v2.09
	c0,1.953-0.607,3.54-1.822,4.762c-1.214,1.222-2.819,1.832-4.814,1.832H118.304z M120.372,45.872v12.044h2.74
	c1.414,0,2.529-0.465,3.345-1.396c0.815-0.931,1.224-2.124,1.224-3.58v-2.111c0-1.441-0.408-2.628-1.224-3.56
	c-0.815-0.931-1.931-1.396-3.345-1.396H120.372z"/>
<path fill="#FFFFFF" d="M141.215,52.445h-6.279v5.471h7.351v1.617h-9.419V44.245h9.303v1.627h-7.234v4.946h6.279V52.445z"/>
<path fill="#FFFFFF" d="M146.801,52.907v6.626h-2.068V44.254h5.229c1.673,0,2.95,0.371,3.832,1.113s1.323,1.82,1.323,3.234
	c0,0.784-0.205,1.467-0.614,2.048s-1.007,1.043-1.79,1.386c0.84,0.272,1.443,0.716,1.811,1.328c0.368,0.612,0.552,1.37,0.552,2.273
	v1.438c0,0.477,0.053,0.903,0.157,1.281c0.105,0.378,0.287,0.686,0.546,0.924v0.252h-2.131c-0.273-0.238-0.448-0.588-0.525-1.05
	s-0.115-0.938-0.115-1.429v-1.396c0-0.825-0.242-1.49-0.725-1.995c-0.483-0.504-1.131-0.756-1.942-0.756H146.801z M146.801,51.28
	h2.95c1.169,0,2.012-0.223,2.525-0.667c0.515-0.444,0.772-1.122,0.772-2.032c0-0.86-0.251-1.527-0.751-2
	c-0.501-0.473-1.279-0.709-2.336-0.709h-3.161V51.28z"/>
<path fill="#FFFFFF" d="M168.264,45.872h-5.04v13.661h-2.069V45.872h-4.977v-1.627h12.086V45.872z"/>
<path fill="#FFFFFF" d="M181.998,59.533h-2.068v-6.752h-7.424v6.752h-2.068V44.245h2.068v6.909h7.424v-6.909h2.068V59.533z"/>
<path fill="#FFFFFF" d="M193.653,55.595h-5.755l-1.364,3.938h-2.111l5.513-15.288h1.774l5.397,15.288h-2.11L193.653,55.595z
	 M188.497,53.863h4.567l-2.226-6.563h-0.063L188.497,53.863z"/>
<path fill="#FFFFFF" d="M201.423,57.916h7.455v1.617h-9.523V44.245h2.068V57.916z"/>
<path fill="#FFFFFF" d="M218.513,40.091h6.233v2.78h-6.233v7.171h-3.077v-7.171h-6.28v-2.78h6.28v-6.608h3.077V40.091z"/>
</svg>
