<?xml version="1.0" encoding="utf-8"?>
<!-- Generator: Adobe Illustrator 13.0.0, SVG Export Plug-In  -->
<!DOCTYPE svg PUBLIC "-//W3C//DTD SVG 1.1//EN" "http://www.w3.org/Graphics/SVG/1.1/DTD/svg11.dtd" [
	<!ENTITY ns_flows "http://ns.adobe.com/Flows/1.0/">
]>
<svg version="1.1"
	 xmlns="http://www.w3.org/2000/svg" xmlns:xlink="http://www.w3.org/1999/xlink" xmlns:a="http://ns.adobe.com/AdobeSVGViewerExtensions/3.0/"
	 x="0px" y="0px" width="500px" height="700px" viewBox="-10.694 -82.912 500 700" enable-background="new -10.694 -82.912 500 700"
	 xml:space="preserve">
<defs>
</defs>
<g>
	<g>
		<path fill="#FFFFFF" d="M236.233,96.813c-84.395,0-152.81,68.415-152.81,152.809s68.415,152.809,152.81,152.809
			c84.394,0,152.809-68.415,152.809-152.809S320.627,96.813,236.233,96.813z M235.625,387.476
			c-75.706,0-137.078-61.372-137.078-137.079s61.373-137.079,137.078-137.079c75.707,0,137.079,61.372,137.079,137.079
			S311.332,387.476,235.625,387.476z"/>
	</g>
</g>
<path fill="#FFFFFF" d="M14.413,466.865h12.042v2.612H11.072v-24.693h3.341V466.865z"/>
<path fill="#FFFFFF" d="M40.989,469.478c-0.113-0.554-0.201-1.043-0.263-1.467c-0.063-0.424-0.099-0.851-0.11-1.28
	c-0.622,0.882-1.433,1.619-2.434,2.213c-1.001,0.594-2.078,0.891-3.231,0.891c-1.911,0-3.367-0.489-4.367-1.468
	c-1.001-0.978-1.501-2.326-1.501-4.045c0-1.752,0.709-3.123,2.128-4.112s3.344-1.484,5.775-1.484h3.629v-1.814
	c0-1.074-0.328-1.925-0.984-2.553c-0.656-0.627-1.583-0.941-2.781-0.941c-1.085,0-1.962,0.271-2.629,0.814s-1,1.193-1,1.95
	l-3.171,0.034l-0.034-0.102c-0.079-1.334,0.545-2.556,1.874-3.664c1.329-1.107,3.044-1.661,5.147-1.661
	c2.08,0,3.754,0.528,5.02,1.585c1.267,1.058,1.9,2.581,1.9,4.571v8.836c0,0.656,0.034,1.289,0.102,1.899s0.192,1.21,0.373,1.798
	H40.989z M35.443,467.035c1.21,0,2.301-0.311,3.273-0.933c0.972-0.622,1.605-1.334,1.899-2.137v-2.985h-3.748
	c-1.346,0-2.423,0.339-3.231,1.018c-0.809,0.679-1.213,1.476-1.213,2.392c0,0.814,0.254,1.458,0.763,1.934
	C33.696,466.798,34.448,467.035,35.443,467.035z"/>
<path fill="#FFFFFF" d="M59.476,464.542c0-0.734-0.28-1.334-0.84-1.798c-0.56-0.463-1.62-0.87-3.18-1.221
	c-2.16-0.464-3.819-1.113-4.978-1.95s-1.738-1.956-1.738-3.358c0-1.492,0.636-2.771,1.908-3.833s2.919-1.594,4.944-1.594
	c2.08,0,3.765,0.565,5.054,1.695c1.289,1.131,1.905,2.448,1.849,3.952l-0.034,0.102h-3.188c0-0.791-0.348-1.51-1.043-2.154
	s-1.575-0.967-2.637-0.967c-1.176,0-2.055,0.267-2.638,0.798c-0.582,0.531-0.873,1.164-0.873,1.899c0,0.724,0.251,1.283,0.754,1.679
	c0.503,0.396,1.541,0.758,3.112,1.086c2.25,0.475,3.957,1.147,5.122,2.018c1.164,0.871,1.747,2.008,1.747,3.409
	c0,1.628-0.659,2.957-1.976,3.985c-1.317,1.029-3.039,1.544-5.165,1.544c-2.34,0-4.184-0.594-5.529-1.781
	c-1.346-1.188-1.984-2.572-1.917-4.155l0.034-0.102h3.188c0.057,1.188,0.498,2.055,1.323,2.604c0.825,0.549,1.792,0.822,2.9,0.822
	c1.188,0,2.117-0.251,2.79-0.755C59.139,465.964,59.476,465.322,59.476,464.542z"/>
<path fill="#FFFFFF" d="M77.64,464.542c0-0.734-0.28-1.334-0.84-1.798c-0.56-0.463-1.62-0.87-3.18-1.221
	c-2.16-0.464-3.819-1.113-4.978-1.95s-1.738-1.956-1.738-3.358c0-1.492,0.636-2.771,1.908-3.833s2.919-1.594,4.944-1.594
	c2.08,0,3.765,0.565,5.054,1.695c1.289,1.131,1.905,2.448,1.849,3.952l-0.034,0.102h-3.188c0-0.791-0.348-1.51-1.043-2.154
	s-1.575-0.967-2.637-0.967c-1.176,0-2.055,0.267-2.638,0.798c-0.582,0.531-0.873,1.164-0.873,1.899c0,0.724,0.251,1.283,0.754,1.679
	c0.503,0.396,1.541,0.758,3.112,1.086c2.25,0.475,3.957,1.147,5.122,2.018c1.164,0.871,1.747,2.008,1.747,3.409
	c0,1.628-0.659,2.957-1.976,3.985c-1.317,1.029-3.039,1.544-5.165,1.544c-2.34,0-4.184-0.594-5.529-1.781
	c-1.346-1.188-1.984-2.572-1.917-4.155l0.034-0.102h3.188c0.057,1.188,0.498,2.055,1.323,2.604c0.825,0.549,1.792,0.822,2.9,0.822
	c1.188,0,2.117-0.251,2.79-0.755C77.303,465.964,77.64,465.322,77.64,464.542z"/>
<path fill="#FFFFFF" d="M92.734,469.834c-2.635,0-4.689-0.843-6.165-2.527s-2.213-3.9-2.213-6.648v-0.746
	c0-2.635,0.76-4.813,2.281-6.538c1.521-1.724,3.377-2.586,5.571-2.586c2.454,0,4.293,0.763,5.521,2.289
	c1.227,1.526,1.84,3.556,1.84,6.089v1.764H87.833l-0.051,0.085c0,1.843,0.407,3.338,1.221,4.485
	c0.814,1.148,2.058,1.722,3.731,1.722c1.13,0,2.123-0.161,2.977-0.483c0.854-0.322,1.585-0.766,2.196-1.331l1.306,2.171
	c-0.656,0.633-1.521,1.168-2.595,1.603C95.544,469.616,94.25,469.834,92.734,469.834z M92.208,453.416
	c-1.165,0-2.128,0.45-2.892,1.349c-0.763,0.899-1.229,2.05-1.399,3.451l0.034,0.085h8.276v-0.271c0-1.334-0.328-2.437-0.984-3.307
	C94.588,453.852,93.577,453.416,92.208,453.416z"/>
<path fill="#FFFFFF" d="M106.302,451.127l0.237,2.73c0.611-0.973,1.376-1.727,2.298-2.265c0.921-0.536,1.97-0.805,3.146-0.805
	c1.979,0,3.511,0.579,4.596,1.738s1.628,2.948,1.628,5.367v11.584h-3.341v-11.516c0-1.617-0.32-2.765-0.958-3.443
	c-0.639-0.678-1.614-1.018-2.925-1.018c-1.029,0-1.902,0.207-2.621,0.619c-0.718,0.413-1.286,0.992-1.704,1.738v13.619h-3.341
	v-18.351H106.302z"/>
<path fill="#FFFFFF" d="M145.31,463.253c0-1.119-0.401-2.058-1.204-2.815c-0.803-0.757-2.216-1.401-4.24-1.933
	c-2.51-0.622-4.469-1.538-5.877-2.748c-1.407-1.21-2.111-2.73-2.111-4.563c0-1.934,0.757-3.544,2.272-4.833s3.482-1.934,5.902-1.934
	c2.601,0,4.672,0.737,6.216,2.213s2.292,3.197,2.247,5.165l-0.051,0.102h-3.188c0-1.402-0.489-2.562-1.467-3.478
	c-0.978-0.915-2.23-1.373-3.756-1.373c-1.561,0-2.756,0.379-3.587,1.136c-0.831,0.758-1.247,1.741-1.247,2.951
	c0,1.074,0.455,1.971,1.365,2.688c0.91,0.718,2.388,1.349,4.435,1.891c2.487,0.645,4.381,1.595,5.682,2.85
	c1.3,1.255,1.95,2.805,1.95,4.647c0,1.989-0.783,3.59-2.349,4.799c-1.566,1.21-3.61,1.815-6.131,1.815
	c-2.386,0-4.492-0.667-6.317-2.002c-1.826-1.334-2.711-3.12-2.654-5.359l0.034-0.102h3.188c0,1.55,0.588,2.745,1.764,3.587
	c1.176,0.843,2.504,1.264,3.985,1.264c1.583,0,2.835-0.356,3.757-1.068C144.85,465.441,145.31,464.475,145.31,463.253z"/>
<path fill="#FFFFFF" d="M156.538,446.429h-3.341v-3.409h3.341V446.429z M156.538,469.478h-3.341v-18.351h3.341V469.478z"/>
<path fill="#FFFFFF" d="M169.274,469.834c-2.635,0-4.689-0.843-6.165-2.527s-2.213-3.9-2.213-6.648v-0.746
	c0-2.635,0.76-4.813,2.281-6.538c1.521-1.724,3.377-2.586,5.571-2.586c2.454,0,4.293,0.763,5.521,2.289
	c1.227,1.526,1.84,3.556,1.84,6.089v1.764h-11.736l-0.051,0.085c0,1.843,0.407,3.338,1.221,4.485
	c0.814,1.148,2.058,1.722,3.731,1.722c1.13,0,2.123-0.161,2.977-0.483c0.854-0.322,1.585-0.766,2.196-1.331l1.306,2.171
	c-0.656,0.633-1.521,1.168-2.595,1.603C172.084,469.616,170.79,469.834,169.274,469.834z M168.749,453.416
	c-1.165,0-2.128,0.45-2.892,1.349c-0.763,0.899-1.229,2.05-1.399,3.451l0.034,0.085h8.276v-0.271c0-1.334-0.328-2.437-0.984-3.307
	C171.128,453.852,170.117,453.416,168.749,453.416z"/>
<path fill="#FFFFFF" d="M199.158,464.542c0-0.734-0.28-1.334-0.84-1.798c-0.56-0.463-1.62-0.87-3.18-1.221
	c-2.16-0.464-3.819-1.113-4.978-1.95s-1.738-1.956-1.738-3.358c0-1.492,0.636-2.771,1.908-3.833s2.919-1.594,4.944-1.594
	c2.08,0,3.765,0.565,5.054,1.695c1.289,1.131,1.905,2.448,1.849,3.952l-0.034,0.102h-3.188c0-0.791-0.348-1.51-1.043-2.154
	s-1.575-0.967-2.637-0.967c-1.176,0-2.055,0.267-2.638,0.798c-0.582,0.531-0.873,1.164-0.873,1.899c0,0.724,0.251,1.283,0.754,1.679
	c0.503,0.396,1.541,0.758,3.112,1.086c2.25,0.475,3.957,1.147,5.122,2.018c1.164,0.871,1.747,2.008,1.747,3.409
	c0,1.628-0.659,2.957-1.976,3.985c-1.317,1.029-3.039,1.544-5.165,1.544c-2.34,0-4.184-0.594-5.529-1.781
	c-1.346-1.188-1.984-2.572-1.917-4.155l0.034-0.102h3.188c0.057,1.188,0.498,2.055,1.323,2.604c0.825,0.549,1.792,0.822,2.9,0.822
	c1.188,0,2.117-0.251,2.79-0.755C198.821,465.964,199.158,465.322,199.158,464.542z"/>
<path fill="#FFFFFF" d="M210.267,446.429h-3.341v-3.409h3.341V446.429z M210.267,469.478h-3.341v-18.351h3.341V469.478z"/>
<path fill="#FFFFFF" d="M222.698,467.222c1.029,0,1.928-0.342,2.697-1.026c0.769-0.684,1.153-1.523,1.153-2.519h3.019l0.051,0.103
	c0.045,1.583-0.633,2.987-2.035,4.214c-1.402,1.228-3.03,1.841-4.885,1.841c-2.577,0-4.567-0.876-5.97-2.629
	s-2.103-3.935-2.103-6.547v-0.712c0-2.589,0.704-4.763,2.112-6.521c1.407-1.758,3.395-2.637,5.961-2.637
	c2.047,0,3.723,0.633,5.029,1.899c1.306,1.266,1.936,2.821,1.891,4.664l-0.034,0.102h-3.035c0-1.119-0.365-2.072-1.095-2.858
	c-0.729-0.785-1.647-1.179-2.756-1.179c-1.64,0-2.835,0.637-3.587,1.908c-0.752,1.272-1.128,2.813-1.128,4.622v0.712
	c0,1.843,0.37,3.398,1.111,4.664C219.835,466.589,221.036,467.222,222.698,467.222z"/>
<path fill="#FFFFFF" d="M236.928,453.586c0.633-0.882,1.41-1.568,2.332-2.061c0.921-0.492,1.941-0.737,3.062-0.737
	c1.955,0,3.479,0.588,4.57,1.764c1.091,1.176,1.637,2.984,1.637,5.427v11.499h-3.341v-11.533c0-1.515-0.325-2.634-0.976-3.357
	s-1.62-1.086-2.909-1.086c-0.994,0-1.859,0.195-2.595,0.585c-0.734,0.391-1.328,0.937-1.78,1.637v13.755h-3.342V443.02h3.342
	V453.586z"/>
<path fill="#FFFFFF" d="M273.612,466.764c-0.577,0.984-1.317,1.741-2.222,2.272c-0.905,0.532-1.951,0.798-3.138,0.798
	c-2.002,0-3.562-0.639-4.682-1.917c-1.119-1.277-1.679-3.268-1.679-5.97v-10.82h3.341v10.854c0,1.956,0.289,3.302,0.865,4.036
	c0.577,0.735,1.476,1.103,2.696,1.103c1.188,0,2.168-0.24,2.943-0.721c0.774-0.48,1.359-1.162,1.755-2.044v-13.229h3.341v18.351
	h-3.002L273.612,466.764z M267.252,448.074h-3.714v-3.393h3.714V448.074z M275.224,448.074h-3.715v-3.393h3.715V448.074z"/>
<path fill="#FFFFFF" d="M297.374,460.997c0,2.646-0.637,4.78-1.908,6.403c-1.272,1.622-3.021,2.434-5.249,2.434
	c-1.222,0-2.281-0.24-3.181-0.721c-0.898-0.48-1.642-1.19-2.229-2.129l-0.543,2.493h-2.562V443.02h3.342v10.278
	c0.576-0.814,1.291-1.436,2.146-1.866c0.854-0.429,1.851-0.644,2.993-0.644c2.262,0,4.025,0.904,5.292,2.713
	c1.266,1.81,1.899,4.189,1.899,7.141V460.997z M294.032,460.642c0-2.104-0.387-3.819-1.161-5.147
	c-0.775-1.328-1.954-1.993-3.536-1.993c-1.029,0-1.897,0.252-2.604,0.755c-0.707,0.503-1.27,1.179-1.688,2.026v7.955
	c0.43,0.904,0.992,1.61,1.688,2.119s1.574,0.764,2.637,0.764c1.572,0,2.742-0.56,3.511-1.679c0.77-1.12,1.153-2.601,1.153-4.444
	V460.642z"/>
<path fill="#FFFFFF" d="M309.042,469.834c-2.635,0-4.689-0.843-6.165-2.527s-2.213-3.9-2.213-6.648v-0.746
	c0-2.635,0.76-4.813,2.28-6.538c1.521-1.724,3.378-2.586,5.572-2.586c2.453,0,4.293,0.763,5.521,2.289
	c1.227,1.526,1.84,3.556,1.84,6.089v1.764h-11.736l-0.051,0.085c0,1.843,0.407,3.338,1.221,4.485
	c0.814,1.148,2.058,1.722,3.731,1.722c1.131,0,2.123-0.161,2.977-0.483s1.586-0.766,2.196-1.331l1.306,2.171
	c-0.655,0.633-1.521,1.168-2.595,1.603C311.852,469.616,310.557,469.834,309.042,469.834z M308.517,453.416
	c-1.165,0-2.129,0.45-2.893,1.349c-0.763,0.899-1.229,2.05-1.398,3.451l0.033,0.085h8.277v-0.271c0-1.334-0.328-2.437-0.984-3.307
	C310.896,453.852,309.884,453.416,308.517,453.416z"/>
<path fill="#FFFFFF" d="M328.308,454.078l-1.713-0.102c-0.882,0-1.625,0.209-2.229,0.627c-0.605,0.419-1.072,1.007-1.399,1.764
	v13.11h-3.342v-18.351h2.985l0.322,2.68c0.52-0.95,1.162-1.69,1.925-2.222c0.764-0.531,1.643-0.797,2.638-0.797
	c0.248,0,0.485,0.02,0.712,0.059c0.227,0.04,0.413,0.082,0.56,0.128L328.308,454.078z"/>
<path fill="#FFFFFF" d="M340.469,454.078l-1.713-0.102c-0.882,0-1.625,0.209-2.229,0.627c-0.605,0.419-1.072,1.007-1.399,1.764
	v13.11h-3.342v-18.351h2.985l0.322,2.68c0.52-0.95,1.162-1.69,1.925-2.222c0.764-0.531,1.643-0.797,2.638-0.797
	c0.248,0,0.485,0.02,0.712,0.059c0.227,0.04,0.413,0.082,0.56,0.128L340.469,454.078z"/>
<path fill="#FFFFFF" d="M355.225,469.478c-0.113-0.554-0.201-1.043-0.264-1.467c-0.062-0.424-0.099-0.851-0.11-1.28
	c-0.621,0.882-1.433,1.619-2.434,2.213c-1,0.594-2.077,0.891-3.23,0.891c-1.911,0-3.366-0.489-4.367-1.468
	c-1.001-0.978-1.501-2.326-1.501-4.045c0-1.752,0.709-3.123,2.128-4.112s3.344-1.484,5.775-1.484h3.629v-1.814
	c0-1.074-0.327-1.925-0.983-2.553c-0.655-0.627-1.583-0.941-2.781-0.941c-1.085,0-1.962,0.271-2.629,0.814s-1.001,1.193-1.001,1.95
	l-3.171,0.034l-0.034-0.102c-0.079-1.334,0.546-2.556,1.874-3.664c1.328-1.107,3.045-1.661,5.147-1.661
	c2.08,0,3.754,0.528,5.021,1.585c1.266,1.058,1.899,2.581,1.899,4.571v8.836c0,0.656,0.034,1.289,0.102,1.899
	s0.192,1.21,0.373,1.798H355.225z M349.679,467.035c1.209,0,2.3-0.311,3.272-0.933s1.605-1.334,1.899-2.137v-2.985h-3.748
	c-1.346,0-2.422,0.339-3.23,1.018s-1.213,1.476-1.213,2.392c0,0.814,0.255,1.458,0.764,1.934
	C347.932,466.798,348.684,467.035,349.679,467.035z"/>
<path fill="#FFFFFF" d="M373.71,464.542c0-0.734-0.279-1.334-0.839-1.798c-0.56-0.463-1.62-0.87-3.181-1.221
	c-2.159-0.464-3.818-1.113-4.978-1.95s-1.738-1.956-1.738-3.358c0-1.492,0.636-2.771,1.908-3.833
	c1.271-1.063,2.92-1.594,4.943-1.594c2.08,0,3.766,0.565,5.055,1.695c1.289,1.131,1.904,2.448,1.849,3.952l-0.034,0.102h-3.188
	c0-0.791-0.348-1.51-1.043-2.154s-1.575-0.967-2.638-0.967c-1.176,0-2.055,0.267-2.637,0.798c-0.583,0.531-0.874,1.164-0.874,1.899
	c0,0.724,0.252,1.283,0.755,1.679c0.503,0.396,1.541,0.758,3.112,1.086c2.25,0.475,3.957,1.147,5.122,2.018
	c1.164,0.871,1.747,2.008,1.747,3.409c0,1.628-0.659,2.957-1.977,3.985c-1.317,1.029-3.038,1.544-5.164,1.544
	c-2.341,0-4.184-0.594-5.529-1.781c-1.345-1.188-1.983-2.572-1.916-4.155l0.034-0.102h3.188c0.057,1.188,0.497,2.055,1.322,2.604
	s1.792,0.822,2.9,0.822c1.188,0,2.117-0.251,2.79-0.755C373.374,465.964,373.71,465.322,373.71,464.542z"/>
<path fill="#FFFFFF" d="M388.499,467.222c1.029,0,1.928-0.342,2.697-1.026c0.769-0.684,1.153-1.523,1.153-2.519h3.019l0.051,0.103
	c0.045,1.583-0.633,2.987-2.035,4.214c-1.402,1.228-3.03,1.841-4.885,1.841c-2.577,0-4.567-0.876-5.97-2.629
	s-2.103-3.935-2.103-6.547v-0.712c0-2.589,0.703-4.763,2.111-6.521c1.407-1.758,3.395-2.637,5.961-2.637
	c2.047,0,3.723,0.633,5.029,1.899c1.306,1.266,1.936,2.821,1.891,4.664l-0.034,0.102h-3.035c0-1.119-0.365-2.072-1.095-2.858
	c-0.729-0.785-1.647-1.179-2.756-1.179c-1.64,0-2.835,0.637-3.587,1.908c-0.752,1.272-1.128,2.813-1.128,4.622v0.712
	c0,1.843,0.37,3.398,1.111,4.664C385.636,466.589,386.837,467.222,388.499,467.222z"/>
<path fill="#FFFFFF" d="M402.729,453.586c0.633-0.882,1.41-1.568,2.332-2.061c0.921-0.492,1.941-0.737,3.062-0.737
	c1.955,0,3.479,0.588,4.57,1.764c1.091,1.176,1.637,2.984,1.637,5.427v11.499h-3.341v-11.533c0-1.515-0.325-2.634-0.976-3.357
	s-1.62-1.086-2.909-1.086c-0.994,0-1.859,0.195-2.595,0.585c-0.734,0.391-1.328,0.937-1.78,1.637v13.755h-3.342V443.02h3.342
	V453.586z"/>
<path fill="#FFFFFF" d="M426.728,469.834c-2.635,0-4.689-0.843-6.165-2.527s-2.213-3.9-2.213-6.648v-0.746
	c0-2.635,0.76-4.813,2.28-6.538c1.521-1.724,3.378-2.586,5.572-2.586c2.453,0,4.293,0.763,5.521,2.289
	c1.227,1.526,1.84,3.556,1.84,6.089v1.764h-11.736l-0.051,0.085c0,1.843,0.407,3.338,1.221,4.485
	c0.814,1.148,2.058,1.722,3.731,1.722c1.131,0,2.123-0.161,2.977-0.483s1.586-0.766,2.196-1.331l1.306,2.171
	c-0.655,0.633-1.521,1.168-2.595,1.603C429.537,469.616,428.242,469.834,426.728,469.834z M426.202,453.416
	c-1.165,0-2.129,0.45-2.893,1.349c-0.763,0.899-1.229,2.05-1.398,3.451l0.033,0.085h8.277v-0.271c0-1.334-0.328-2.437-0.984-3.307
	C428.582,453.852,427.569,453.416,426.202,453.416z"/>
<path fill="#FFFFFF" d="M440.295,451.127l0.237,2.73c0.61-0.973,1.377-1.727,2.298-2.265c0.922-0.536,1.971-0.805,3.146-0.805
	c1.979,0,3.511,0.579,4.597,1.738c1.085,1.159,1.628,2.948,1.628,5.367v11.584h-3.342v-11.516c0-1.617-0.319-2.765-0.958-3.443
	c-0.639-0.678-1.614-1.018-2.926-1.018c-1.028,0-1.902,0.207-2.62,0.619c-0.718,0.413-1.286,0.992-1.704,1.738v13.619h-3.342
	v-18.351H440.295z"/>
<path fill="#FFFFFF" d="M460.697,469.478h-3.341v-3.426h3.341V469.478z"/>
<path fill="#FFFFFF" d="M469.992,469.478h-3.341v-3.426h3.341V469.478z"/>
<path fill="#FFFFFF" d="M479.286,469.478h-3.341v-3.426h3.341V469.478z"/>
<path fill="#FFFFFF" d="M14.569,504.567l0.769,2.881h0.073l0.769-2.881l4.199-13.623h0.732l4.175,13.623l0.757,2.881h0.073
	l0.793-2.881l3.662-13.623h0.72l-4.785,17.773h-0.745l-4.407-14.819l-0.586-1.77h-0.073l-0.562,1.77l-4.443,14.819h-0.745
	l-4.797-17.773h0.732L14.569,504.567z"/>
<path fill="#FFFFFF" d="M38.397,508.975c-1.555,0-2.867-0.603-3.937-1.807c-1.07-1.205-1.605-2.723-1.605-4.554v-0.781
	c0-1.912,0.531-3.485,1.593-4.718c1.063-1.233,2.399-1.85,4.01-1.85c1.465,0,2.632,0.482,3.503,1.446
	c0.871,0.965,1.306,2.281,1.306,3.949v1.013h-9.753v0.159v0.781c0,1.611,0.456,2.965,1.367,4.059
	c0.911,1.095,2.083,1.642,3.516,1.642c0.789,0,1.548-0.146,2.276-0.439c0.729-0.293,1.32-0.684,1.776-1.172l0.354,0.514
	c-0.464,0.512-1.062,0.934-1.794,1.263C40.277,508.81,39.406,508.975,38.397,508.975z M38.458,495.925
	c-1.367,0-2.488,0.475-3.363,1.422c-0.875,0.948-1.37,2.146-1.483,3.595l0.037,0.074h8.96v-0.403c0-1.359-0.371-2.479-1.111-3.363
	C40.757,496.366,39.744,495.925,38.458,495.925z"/>
<path fill="#FFFFFF" d="M47.016,495.51l0.085,2.661c0.407-0.92,0.993-1.634,1.758-2.143c0.765-0.508,1.705-0.763,2.82-0.763
	c1.44,0,2.521,0.454,3.241,1.361c0.72,0.907,1.08,2.346,1.08,4.314v7.776h-0.659v-7.8c0-1.832-0.328-3.121-0.982-3.87
	c-0.655-0.749-1.544-1.123-2.667-1.123c-1.384,0-2.441,0.403-3.174,1.208c-0.732,0.807-1.201,1.844-1.404,3.113v8.472h-0.659v-6.763
	h-0.037c0-0.154,0.002-0.312,0.006-0.47c0.004-0.159,0.014-0.319,0.03-0.482v-5.493H47.016z"/>
<path fill="#FFFFFF" d="M60.7,495.51l0.085,2.661c0.407-0.92,0.993-1.634,1.758-2.143c0.765-0.508,1.705-0.763,2.82-0.763
	c1.44,0,2.521,0.454,3.241,1.361c0.721,0.907,1.081,2.346,1.081,4.314v7.776h-0.659v-7.8c0-1.832-0.328-3.121-0.983-3.87
	c-0.655-0.749-1.544-1.123-2.667-1.123c-1.384,0-2.441,0.403-3.174,1.208c-0.732,0.807-1.201,1.844-1.404,3.113v8.472h-0.659v-6.763
	h-0.037c0-0.154,0.002-0.312,0.006-0.47c0.004-0.159,0.014-0.319,0.031-0.482v-5.493H60.7z"/>
<path fill="#FFFFFF" d="M90.644,504.531c0-1.018-0.417-1.838-1.251-2.46c-0.834-0.623-2.257-1.264-4.267-1.923
	c-2.002-0.61-3.477-1.258-4.425-1.941c-0.948-0.684-1.422-1.696-1.422-3.039c0-1.335,0.555-2.415,1.667-3.241
	c1.11-0.825,2.521-1.239,4.229-1.239c1.774,0,3.2,0.456,4.278,1.367c1.079,0.912,1.601,2.186,1.569,3.821l-0.024,0.073h-0.562
	c0-1.326-0.488-2.425-1.465-3.296s-2.242-1.306-3.796-1.306c-1.604,0-2.877,0.376-3.821,1.129c-0.944,0.753-1.416,1.642-1.416,2.667
	s0.38,1.857,1.141,2.496c0.761,0.64,2.179,1.264,4.254,1.874c2.018,0.635,3.52,1.294,4.504,1.978
	c0.984,0.684,1.477,1.688,1.477,3.015c0,1.352-0.582,2.434-1.746,3.248c-1.164,0.813-2.6,1.221-4.309,1.221
	c-1.782,0-3.316-0.417-4.602-1.252c-1.286-0.834-1.909-2.146-1.868-3.937l0.024-0.073h0.549c0,1.611,0.594,2.781,1.782,3.51
	c1.188,0.729,2.559,1.092,4.114,1.092c1.554,0,2.84-0.359,3.857-1.08C90.135,506.515,90.644,505.613,90.644,504.531z"/>
<path fill="#FFFFFF" d="M95.551,491.359h-0.659v-1.685h0.659V491.359z M95.551,508.718h-0.659V495.51h0.659V508.718z"/>
<path fill="#FFFFFF" d="M104.511,508.975c-1.555,0-2.867-0.603-3.937-1.807c-1.07-1.205-1.605-2.723-1.605-4.554v-0.781
	c0-1.912,0.531-3.485,1.593-4.718c1.063-1.233,2.399-1.85,4.01-1.85c1.465,0,2.632,0.482,3.503,1.446
	c0.871,0.965,1.306,2.281,1.306,3.949v1.013h-9.753v0.159v0.781c0,1.611,0.456,2.965,1.367,4.059
	c0.911,1.095,2.083,1.642,3.516,1.642c0.789,0,1.548-0.146,2.276-0.439c0.729-0.293,1.32-0.684,1.776-1.172l0.354,0.514
	c-0.464,0.512-1.062,0.934-1.794,1.263C106.391,508.81,105.52,508.975,104.511,508.975z M104.572,495.925
	c-1.367,0-2.488,0.475-3.363,1.422c-0.875,0.948-1.37,2.146-1.483,3.595l0.037,0.074h8.96v-0.403c0-1.359-0.371-2.479-1.111-3.363
	C106.871,496.366,105.857,495.925,104.572,495.925z"/>
<path fill="#FFFFFF" d="M119.367,491.359h-0.659v-1.685h0.659V491.359z M119.367,508.718h-0.659V495.51h0.659V508.718z"/>
<path fill="#FFFFFF" d="M124.164,495.51l0.085,2.661c0.407-0.92,0.98-1.634,1.721-2.143c0.74-0.508,1.644-0.763,2.71-0.763
	c1.123,0,2.039,0.283,2.747,0.849s1.2,1.442,1.477,2.63c0.366-1.098,0.942-1.954,1.728-2.569c0.785-0.614,1.764-0.921,2.936-0.921
	c1.457,0,2.563,0.476,3.32,1.428s1.135,2.449,1.135,4.492v7.531h-0.671v-7.556c0-1.912-0.342-3.264-1.025-4.053
	s-1.595-1.185-2.734-1.185c-1.359,0-2.395,0.399-3.106,1.197c-0.712,0.797-1.17,1.83-1.374,3.1c0.008,0.163,0.016,0.328,0.024,0.495
	c0.008,0.167,0.012,0.335,0.012,0.507v7.507h-0.671v-6.763h-0.037c0-0.154,0.002-0.31,0.006-0.464
	c0.004-0.154,0.014-0.306,0.031-0.452c-0.024-1.871-0.375-3.191-1.05-3.961c-0.676-0.769-1.583-1.153-2.722-1.153
	c-1.343,0-2.366,0.389-3.07,1.166c-0.704,0.777-1.162,1.784-1.373,3.021v8.606h-0.671v-6.763h-0.024
	c0-0.114,0.002-0.228,0.006-0.342c0.004-0.114,0.01-0.256,0.018-0.428v-5.676H124.164z"/>
<path fill="#FFFFFF" d="M160.749,507.668h0.073l7.422-16.724h0.745v17.773h-0.659v-16.149l-0.073-0.013l-7.202,16.162h-0.525
	l-7.361-16.517l-0.073,0.013v16.504h-0.659v-17.773h0.916L160.749,507.668z"/>
<path fill="#FFFFFF" d="M182.379,506.398c-0.415,0.813-1.005,1.446-1.77,1.898c-0.765,0.451-1.693,0.678-2.783,0.678
	c-1.359,0-2.423-0.482-3.192-1.447c-0.769-0.964-1.153-2.459-1.153-4.486v-7.531h0.659v7.557c0,1.79,0.33,3.112,0.989,3.967
	s1.55,1.281,2.673,1.281c1.343,0,2.382-0.327,3.119-0.982c0.736-0.654,1.214-1.52,1.434-2.594v-9.229h0.671v7.775h0.024
	c0,0.106-0.004,0.208-0.012,0.306c-0.008,0.098-0.012,0.212-0.012,0.342v4.785h-0.549L182.379,506.398z"/>
<path fill="#FFFFFF" d="M195.307,505.482c0-0.699-0.299-1.336-0.897-1.91c-0.598-0.573-1.642-1.023-3.131-1.349
	c-1.571-0.334-2.708-0.763-3.412-1.288c-0.704-0.524-1.056-1.304-1.056-2.338c0-0.943,0.398-1.734,1.196-2.374
	c0.797-0.639,1.872-0.958,3.223-0.958c1.457,0,2.604,0.342,3.442,1.025c0.838,0.684,1.237,1.574,1.196,2.674l-0.024,0.072h-0.562
	c0-0.862-0.364-1.597-1.093-2.203c-0.728-0.605-1.715-0.909-2.96-0.909c-1.237,0-2.173,0.267-2.808,0.8s-0.952,1.149-0.952,1.85
	c0,0.691,0.269,1.281,0.806,1.77s1.603,0.916,3.198,1.281c1.473,0.342,2.59,0.809,3.351,1.398c0.761,0.59,1.142,1.414,1.142,2.472
	c0,1.033-0.423,1.872-1.27,2.515c-0.847,0.643-1.97,0.965-3.369,0.965c-1.538,0-2.745-0.344-3.619-1.032
	c-0.875-0.688-1.284-1.523-1.227-2.509l0.024-0.072h0.537c0.065,1.041,0.513,1.794,1.343,2.258s1.811,0.695,2.942,0.695
	c1.221,0,2.189-0.284,2.905-0.854C194.948,506.891,195.307,506.231,195.307,505.482z"/>
<path fill="#FFFFFF" d="M204.279,508.975c-1.555,0-2.867-0.603-3.937-1.807c-1.07-1.205-1.605-2.723-1.605-4.554v-0.781
	c0-1.912,0.531-3.485,1.593-4.718c1.062-1.233,2.398-1.85,4.01-1.85c1.465,0,2.632,0.482,3.503,1.446
	c0.871,0.965,1.306,2.281,1.306,3.949v1.013h-9.753v0.159v0.781c0,1.611,0.456,2.965,1.367,4.059
	c0.911,1.095,2.083,1.642,3.516,1.642c0.789,0,1.548-0.146,2.277-0.439c0.728-0.293,1.32-0.684,1.776-1.172l0.354,0.514
	c-0.464,0.512-1.062,0.934-1.794,1.263C206.159,508.81,205.288,508.975,204.279,508.975z M204.34,495.925
	c-1.367,0-2.488,0.475-3.363,1.422c-0.875,0.948-1.369,2.146-1.483,3.595l0.037,0.074h8.96v-0.403c0-1.359-0.371-2.479-1.111-3.363
	C206.639,496.366,205.625,495.925,204.34,495.925z"/>
<path fill="#FFFFFF" d="M221.186,506.398c-0.415,0.813-1.005,1.446-1.77,1.898c-0.765,0.451-1.693,0.678-2.783,0.678
	c-1.359,0-2.423-0.482-3.192-1.447c-0.77-0.964-1.154-2.459-1.154-4.486v-7.531h0.659v7.557c0,1.79,0.33,3.112,0.989,3.967
	s1.55,1.281,2.673,1.281c1.343,0,2.382-0.327,3.119-0.982c0.737-0.654,1.215-1.52,1.435-2.594v-9.229h0.671v7.775h0.024
	c0,0.106-0.004,0.208-0.012,0.306c-0.008,0.098-0.012,0.212-0.012,0.342v4.785h-0.549L221.186,506.398z"/>
<path fill="#FFFFFF" d="M226.483,495.51l0.085,2.661c0.407-0.92,0.98-1.634,1.721-2.143c0.74-0.508,1.644-0.763,2.71-0.763
	c1.123,0,2.039,0.283,2.747,0.849s1.2,1.442,1.477,2.63c0.366-1.098,0.942-1.954,1.728-2.569c0.785-0.614,1.764-0.921,2.936-0.921
	c1.456,0,2.563,0.476,3.32,1.428s1.136,2.449,1.136,4.492v7.531h-0.672v-7.556c0-1.912-0.342-3.264-1.025-4.053
	s-1.596-1.185-2.734-1.185c-1.359,0-2.395,0.399-3.106,1.197c-0.712,0.797-1.17,1.83-1.374,3.1c0.008,0.163,0.016,0.328,0.024,0.495
	c0.008,0.167,0.012,0.335,0.012,0.507v7.507h-0.671v-6.763h-0.037c0-0.154,0.002-0.31,0.006-0.464
	c0.004-0.154,0.014-0.306,0.031-0.452c-0.024-1.871-0.375-3.191-1.05-3.961c-0.676-0.769-1.583-1.153-2.722-1.153
	c-1.343,0-2.366,0.389-3.07,1.166c-0.704,0.777-1.162,1.784-1.373,3.021v8.606h-0.671v-6.763h-0.024
	c0-0.114,0.002-0.228,0.006-0.342c0.004-0.114,0.01-0.256,0.018-0.428v-5.676H226.483z"/>
<path fill="#FFFFFF" d="M256.524,505.482c0-0.699-0.299-1.336-0.896-1.91c-0.599-0.573-1.643-1.023-3.131-1.349
	c-1.571-0.334-2.709-0.763-3.412-1.288c-0.704-0.524-1.057-1.304-1.057-2.338c0-0.943,0.399-1.734,1.197-2.374
	c0.797-0.639,1.871-0.958,3.223-0.958c1.456,0,2.604,0.342,3.441,1.025c0.839,0.684,1.237,1.574,1.197,2.674l-0.025,0.072h-0.561
	c0-0.862-0.365-1.597-1.093-2.203c-0.729-0.605-1.716-0.909-2.96-0.909c-1.237,0-2.174,0.267-2.809,0.8s-0.951,1.149-0.951,1.85
	c0,0.691,0.268,1.281,0.805,1.77s1.604,0.916,3.199,1.281c1.473,0.342,2.589,0.809,3.351,1.398c0.761,0.59,1.142,1.414,1.142,2.472
	c0,1.033-0.424,1.872-1.27,2.515c-0.847,0.643-1.97,0.965-3.369,0.965c-1.539,0-2.745-0.344-3.62-1.032
	c-0.875-0.688-1.283-1.523-1.227-2.509l0.024-0.072h0.537c0.065,1.041,0.513,1.794,1.343,2.258s1.811,0.695,2.942,0.695
	c1.221,0,2.188-0.284,2.904-0.854C256.167,506.891,256.524,506.231,256.524,505.482z"/>
<path fill="#FFFFFF" d="M273.077,503.273l0.024,0.073c0.032,1.823-0.519,3.217-1.654,4.181c-1.135,0.965-2.63,1.447-4.485,1.447
	c-1.945,0-3.504-0.719-4.676-2.155c-1.172-1.436-1.758-3.322-1.758-5.657V498.5c0-2.327,0.586-4.211,1.758-5.651
	s2.73-2.161,4.676-2.161c1.855,0,3.351,0.484,4.485,1.453c1.136,0.969,1.687,2.352,1.654,4.15l-0.024,0.073h-0.562
	c0-1.604-0.499-2.84-1.495-3.711c-0.997-0.871-2.35-1.306-4.059-1.306c-1.734,0-3.13,0.654-4.188,1.965s-1.587,3.031-1.587,5.164
	v2.686c0,2.156,0.529,3.888,1.587,5.193c1.058,1.307,2.453,1.959,4.188,1.959c1.709,0,3.062-0.419,4.059-1.257
	c0.996-0.838,1.495-2.1,1.495-3.784H273.077z"/>
<path fill="#FFFFFF" d="M285.358,506.276c-0.456,0.798-1.136,1.446-2.039,1.947c-0.903,0.5-1.998,0.751-3.283,0.751
	c-1.229,0-2.193-0.336-2.894-1.008c-0.7-0.671-1.05-1.576-1.05-2.716c0-1.106,0.522-2.034,1.568-2.783s2.354-1.123,3.925-1.123
	h3.772v-1.929c0-1.099-0.353-1.955-1.057-2.569s-1.694-0.922-2.973-0.922c-1.195,0-2.158,0.289-2.887,0.866
	c-0.729,0.578-1.092,1.323-1.092,2.234l-0.55-0.024l-0.024-0.062c-0.049-1.025,0.35-1.894,1.196-2.605s1.966-1.068,3.356-1.068
	c1.416,0,2.552,0.358,3.406,1.074s1.281,1.75,1.281,3.101v6.616c0,0.464,0.026,0.916,0.08,1.355
	c0.053,0.439,0.141,0.874,0.262,1.306h-0.732c-0.105-0.578-0.177-1.011-0.213-1.3c-0.037-0.289-0.055-0.601-0.055-0.934V506.276z
	 M280.036,508.327c1.31,0,2.418-0.289,3.326-0.866c0.907-0.578,1.572-1.404,1.996-2.479v-2.967h-3.736
	c-1.367,0-2.521,0.316-3.46,0.946c-0.94,0.631-1.41,1.41-1.41,2.338c0,0.887,0.299,1.613,0.897,2.179
	C278.247,508.045,279.043,508.327,280.036,508.327z"/>
<path fill="#FFFFFF" d="M291.266,508.718v-12.536h-2.295v-0.672h2.295v-2.173c0-1.245,0.303-2.21,0.909-2.894
	s1.455-1.025,2.545-1.025c0.27,0,0.535,0.017,0.8,0.049c0.265,0.033,0.519,0.086,0.763,0.159l-0.098,0.635
	c-0.26-0.065-0.49-0.111-0.689-0.141c-0.199-0.028-0.453-0.042-0.763-0.042c-0.879,0-1.566,0.288-2.063,0.866
	c-0.496,0.578-0.744,1.375-0.744,2.393v2.173h3.491v0.672h-3.491v12.536H291.266z"/>
<path fill="#FFFFFF" d="M302.472,508.975c-1.554,0-2.866-0.603-3.937-1.807c-1.07-1.205-1.604-2.723-1.604-4.554v-0.781
	c0-1.912,0.53-3.485,1.593-4.718c1.062-1.233,2.398-1.85,4.01-1.85c1.465,0,2.633,0.482,3.503,1.446
	c0.871,0.965,1.307,2.281,1.307,3.949v1.013h-9.754v0.159v0.781c0,1.611,0.456,2.965,1.367,4.059
	c0.912,1.095,2.084,1.642,3.516,1.642c0.79,0,1.549-0.146,2.277-0.439c0.728-0.293,1.32-0.684,1.775-1.172l0.354,0.514
	c-0.464,0.512-1.062,0.934-1.794,1.263C304.353,508.81,303.481,508.975,302.472,508.975z M302.533,495.925
	c-1.367,0-2.488,0.475-3.363,1.422c-0.875,0.948-1.369,2.146-1.483,3.595l0.037,0.074h8.96v-0.403c0-1.359-0.37-2.479-1.11-3.363
	C304.832,496.366,303.819,495.925,302.533,495.925z M304.657,489.906h0.952l0.024,0.062l-2.82,3.187h-0.817l-0.024-0.062
	L304.657,489.906z"/>
<path fill="#FFFFFF" d="M324.604,505.482c0-0.699-0.3-1.336-0.897-1.91c-0.599-0.573-1.642-1.023-3.132-1.349
	c-1.57-0.334-2.708-0.763-3.411-1.288c-0.704-0.524-1.056-1.304-1.056-2.338c0-0.943,0.398-1.734,1.195-2.374
	c0.798-0.639,1.872-0.958,3.223-0.958c1.457,0,2.604,0.342,3.443,1.025c0.838,0.684,1.236,1.574,1.195,2.674l-0.023,0.072h-0.563
	c0-0.862-0.364-1.597-1.092-2.203c-0.729-0.605-1.715-0.909-2.961-0.909c-1.236,0-2.172,0.267-2.807,0.8s-0.953,1.149-0.953,1.85
	c0,0.691,0.27,1.281,0.807,1.77s1.603,0.916,3.197,1.281c1.474,0.342,2.59,0.809,3.352,1.398c0.761,0.59,1.141,1.414,1.141,2.472
	c0,1.033-0.423,1.872-1.27,2.515c-0.846,0.643-1.969,0.965-3.369,0.965c-1.537,0-2.744-0.344-3.619-1.032
	c-0.875-0.688-1.283-1.523-1.227-2.509l0.024-0.072h0.537c0.065,1.041,0.513,1.794,1.343,2.258s1.811,0.695,2.941,0.695
	c1.221,0,2.189-0.284,2.906-0.854C324.246,506.891,324.604,506.231,324.604,505.482z"/>
<path fill="#FFFFFF" d="M329.767,491.359h-0.658v-1.685h0.658V491.359z M329.767,508.718h-0.658V495.51h0.658V508.718z"/>
<path fill="#FFFFFF" d="M334.662,495.51l0.085,2.661c0.407-0.92,0.993-1.634,1.758-2.143c0.766-0.508,1.705-0.763,2.82-0.763
	c1.44,0,2.521,0.454,3.241,1.361c0.72,0.907,1.08,2.346,1.08,4.314v7.776h-0.659v-7.8c0-1.832-0.328-3.121-0.982-3.87
	c-0.655-0.749-1.545-1.123-2.668-1.123c-1.383,0-2.441,0.403-3.174,1.208c-0.732,0.807-1.2,1.844-1.403,3.113v8.472h-0.659v-6.763
	h-0.037c0-0.154,0.002-0.312,0.007-0.47c0.004-0.159,0.014-0.319,0.03-0.482v-5.493H334.662z"/>
<path fill="#FFFFFF" d="M347.174,502.102c0-2.092,0.439-3.754,1.318-4.986c0.879-1.233,2.1-1.85,3.662-1.85
	c1.025,0,1.914,0.23,2.667,0.689c0.753,0.46,1.354,1.089,1.801,1.887v-8.167h0.659v9.899c0,0.017,0,0.029,0,0.037
	s0.004,0.012,0.013,0.012v5.384c-0.009,0.017-0.013,0.028-0.013,0.036c0,0.009,0,0.017,0,0.025v3.649h-0.635l-0.024-2.038
	c-0.439,0.707-1.042,1.268-1.807,1.678c-0.765,0.411-1.66,0.617-2.686,0.617c-1.555,0-2.77-0.595-3.644-1.783
	c-0.875-1.188-1.313-2.799-1.313-4.834V502.102z M347.857,502.357c0,1.823,0.36,3.271,1.08,4.346
	c0.721,1.074,1.78,1.611,3.181,1.611c1.146,0,2.1-0.258,2.855-0.774c0.758-0.517,1.307-1.207,1.648-2.069v-6.25
	c-0.325-0.936-0.841-1.719-1.544-2.35c-0.704-0.631-1.683-0.946-2.937-0.946c-1.399,0-2.464,0.572-3.191,1.715
	c-0.729,1.144-1.093,2.631-1.093,4.462V502.357z"/>
<path fill="#FFFFFF" d="M362.237,508.815l-0.854,3.052h-0.623l0.818-3.003v-2.087h0.658V508.815z"/>
<path fill="#FFFFFF" d="M376.753,508.975c-1.555,0-2.867-0.603-3.938-1.807c-1.07-1.205-1.605-2.723-1.605-4.554v-0.781
	c0-1.912,0.531-3.485,1.594-4.718c1.062-1.233,2.398-1.85,4.01-1.85c1.465,0,2.633,0.482,3.504,1.446
	c0.87,0.965,1.306,2.281,1.306,3.949v1.013h-9.753v0.159v0.781c0,1.611,0.455,2.965,1.367,4.059
	c0.911,1.095,2.083,1.642,3.516,1.642c0.789,0,1.548-0.146,2.276-0.439c0.728-0.293,1.32-0.684,1.776-1.172l0.354,0.514
	c-0.464,0.512-1.063,0.934-1.795,1.263C378.632,508.81,377.762,508.975,376.753,508.975z M376.813,495.925
	c-1.367,0-2.488,0.475-3.363,1.422c-0.875,0.948-1.369,2.146-1.482,3.595l0.036,0.074h8.96v-0.403c0-1.359-0.37-2.479-1.111-3.363
	C379.112,496.366,378.1,495.925,376.813,495.925z"/>
<path fill="#FFFFFF" d="M390.632,495.986l-0.855-0.074c-1.18,0-2.138,0.381-2.874,1.142c-0.737,0.762-1.215,1.765-1.435,3.009v8.655
	h-0.659V495.51h0.537l0.122,2.295v0.451c0.366-0.943,0.911-1.678,1.636-2.203c0.725-0.524,1.615-0.787,2.673-0.787
	c0.188,0,0.36,0.015,0.52,0.043c0.158,0.028,0.295,0.059,0.408,0.092L390.632,495.986z"/>
<path fill="#FFFFFF" d="M401.265,505.482c0-0.699-0.3-1.336-0.897-1.91c-0.599-0.573-1.642-1.023-3.132-1.349
	c-1.57-0.334-2.708-0.763-3.411-1.288c-0.704-0.524-1.056-1.304-1.056-2.338c0-0.943,0.398-1.734,1.195-2.374
	c0.798-0.639,1.872-0.958,3.223-0.958c1.457,0,2.604,0.342,3.443,1.025c0.838,0.684,1.236,1.574,1.195,2.674l-0.023,0.072h-0.563
	c0-0.862-0.364-1.597-1.092-2.203c-0.729-0.605-1.715-0.909-2.961-0.909c-1.236,0-2.172,0.267-2.807,0.8s-0.953,1.149-0.953,1.85
	c0,0.691,0.27,1.281,0.807,1.77s1.603,0.916,3.197,1.281c1.474,0.342,2.59,0.809,3.352,1.398c0.761,0.59,1.141,1.414,1.141,2.472
	c0,1.033-0.423,1.872-1.27,2.515c-0.846,0.643-1.969,0.965-3.369,0.965c-1.537,0-2.744-0.344-3.619-1.032
	c-0.875-0.688-1.283-1.523-1.227-2.509l0.024-0.072H393c0.065,1.041,0.513,1.794,1.343,2.258s1.811,0.695,2.941,0.695
	c1.221,0,2.189-0.284,2.906-0.854C400.906,506.891,401.265,506.231,401.265,505.482z"/>
<path fill="#FFFFFF" d="M410.089,508.314c1.115,0,2.1-0.305,2.955-0.915c0.854-0.61,1.281-1.526,1.281-2.747h0.562l0.024,0.074
	c0.032,1.293-0.441,2.325-1.422,3.094c-0.981,0.77-2.114,1.154-3.4,1.154c-1.684,0-3.005-0.606-3.961-1.819
	s-1.434-2.808-1.434-4.785v-0.513c0-1.97,0.476-3.561,1.428-4.773c0.952-1.212,2.267-1.818,3.943-1.818
	c1.367,0,2.524,0.401,3.473,1.202c0.947,0.802,1.405,1.931,1.373,3.388l-0.024,0.073h-0.562c0-1.294-0.415-2.284-1.245-2.973
	c-0.83-0.688-1.835-1.031-3.015-1.031c-1.547,0-2.719,0.554-3.516,1.66c-0.798,1.106-1.197,2.531-1.197,4.272v0.513
	c0,1.758,0.399,3.188,1.197,4.291C407.347,507.764,408.526,508.314,410.089,508.314z"/>
<path fill="#FFFFFF" d="M418.951,498.256c0.415-0.943,1.018-1.678,1.807-2.203c0.789-0.524,1.75-0.787,2.881-0.787
	c1.375,0,2.419,0.436,3.131,1.307c0.712,0.87,1.068,2.241,1.068,4.113v8.032h-0.671v-8.057c0-1.733-0.32-2.956-0.959-3.668
	s-1.491-1.068-2.557-1.068c-1.4,0-2.48,0.411-3.241,1.233c-0.762,0.821-1.247,1.875-1.459,3.161v8.398h-0.659v-6.763h-0.024
	c0-0.171,0-0.313,0-0.428c0-0.113,0.008-0.228,0.024-0.342v-11.511h0.659V498.256z"/>
<path fill="#FFFFFF" d="M436.603,508.975c-1.554,0-2.866-0.603-3.937-1.807c-1.07-1.205-1.604-2.723-1.604-4.554v-0.781
	c0-1.912,0.53-3.485,1.593-4.718c1.062-1.233,2.398-1.85,4.01-1.85c1.465,0,2.633,0.482,3.503,1.446
	c0.871,0.965,1.307,2.281,1.307,3.949v1.013h-9.754v0.159v0.781c0,1.611,0.456,2.965,1.367,4.059
	c0.912,1.095,2.084,1.642,3.516,1.642c0.79,0,1.549-0.146,2.277-0.439c0.728-0.293,1.32-0.684,1.775-1.172l0.354,0.514
	c-0.464,0.512-1.062,0.934-1.794,1.263C438.483,508.81,437.612,508.975,436.603,508.975z M436.664,495.925
	c-1.367,0-2.488,0.475-3.363,1.422c-0.875,0.948-1.369,2.146-1.483,3.595l0.037,0.074h8.96v-0.403c0-1.359-0.37-2.479-1.11-3.363
	C438.963,496.366,437.95,495.925,436.664,495.925z"/>
<path fill="#FFFFFF" d="M445.478,491.359h-0.66v-1.685h0.66V491.359z M445.478,508.718h-0.66V495.51h0.66V508.718z"/>
<path fill="#FFFFFF" d="M450.373,495.51l0.085,2.661c0.407-0.92,0.993-1.634,1.758-2.143c0.766-0.508,1.705-0.763,2.82-0.763
	c1.44,0,2.521,0.454,3.241,1.361c0.72,0.907,1.08,2.346,1.08,4.314v7.776h-0.659v-7.8c0-1.832-0.328-3.121-0.982-3.87
	c-0.655-0.749-1.545-1.123-2.668-1.123c-1.383,0-2.441,0.403-3.174,1.208c-0.732,0.807-1.2,1.844-1.403,3.113v8.472h-0.659v-6.763
	h-0.037c0-0.154,0.002-0.312,0.007-0.47c0.004-0.159,0.014-0.319,0.03-0.482v-5.493H450.373z"/>
<path fill="#FFFFFF" d="M464.862,491.945v3.564h3.247v0.672h-3.247v9.131c0,1.082,0.184,1.854,0.549,2.313
	c0.367,0.46,0.851,0.689,1.453,0.689c0.22,0,0.415-0.008,0.586-0.023c0.171-0.017,0.407-0.045,0.708-0.086l0.122,0.598
	c-0.203,0.065-0.415,0.11-0.635,0.135s-0.468,0.037-0.744,0.037c-0.888,0-1.562-0.289-2.021-0.867c-0.46-0.578-0.69-1.51-0.69-2.795
	v-9.131h-2.441v-0.672h2.441v-3.564H464.862z"/>
<path fill="#FFFFFF" d="M0.684,528.256c0.415-0.943,1.017-1.678,1.807-2.203c0.789-0.524,1.75-0.787,2.881-0.787
	c1.375,0,2.419,0.436,3.131,1.307c0.712,0.87,1.068,2.241,1.068,4.113v8.032H8.899v-8.057c0-1.733-0.319-2.956-0.958-3.668
	c-0.639-0.712-1.491-1.068-2.557-1.068c-1.4,0-2.48,0.411-3.241,1.233c-0.761,0.821-1.248,1.875-1.459,3.161v8.398H0.024v-6.763H0
	c0-0.171,0-0.313,0-0.428c0-0.113,0.008-0.228,0.024-0.342v-11.511h0.659V528.256z"/>
<path fill="#FFFFFF" d="M14.526,521.359h-0.659v-1.685h0.659V521.359z M14.526,538.718h-0.659V525.51h0.659V538.718z"/>
<path fill="#FFFFFF" d="M23.486,538.975c-1.555,0-2.867-0.603-3.937-1.807c-1.07-1.205-1.605-2.723-1.605-4.554v-0.781
	c0-1.912,0.531-3.485,1.593-4.718c1.063-1.233,2.399-1.85,4.01-1.85c1.465,0,2.632,0.482,3.503,1.446
	c0.871,0.965,1.306,2.281,1.306,3.949v1.013h-9.753v0.159v0.781c0,1.611,0.456,2.965,1.367,4.059
	c0.911,1.095,2.083,1.642,3.516,1.642c0.789,0,1.548-0.146,2.276-0.439c0.729-0.293,1.32-0.684,1.776-1.172l0.354,0.514
	c-0.464,0.512-1.062,0.934-1.794,1.263C25.366,538.81,24.495,538.975,23.486,538.975z M23.547,525.925
	c-1.367,0-2.488,0.475-3.363,1.422c-0.875,0.948-1.37,2.146-1.483,3.595l0.037,0.074h8.96v-0.403c0-1.359-0.371-2.479-1.111-3.363
	C25.846,526.366,24.833,525.925,23.547,525.925z"/>
<path fill="#FFFFFF" d="M37.366,525.986l-0.854-0.074c-1.18,0-2.138,0.381-2.875,1.142c-0.737,0.762-1.215,1.765-1.435,3.009v8.655
	h-0.659V525.51h0.537l0.122,2.295v0.451c0.366-0.943,0.911-1.678,1.636-2.203c0.724-0.524,1.615-0.787,2.673-0.787
	c0.187,0,0.36,0.015,0.519,0.043c0.158,0.028,0.294,0.059,0.409,0.092L37.366,525.986z"/>
<path fill="#FFFFFF" d="M54.175,536.276c-0.456,0.798-1.135,1.446-2.039,1.947c-0.903,0.5-1.998,0.751-3.284,0.751
	c-1.229,0-2.193-0.336-2.893-1.008c-0.7-0.671-1.05-1.576-1.05-2.716c0-1.106,0.523-2.034,1.569-2.783
	c1.045-0.749,2.354-1.123,3.924-1.123h3.772v-1.929c0-1.099-0.352-1.955-1.056-2.569c-0.704-0.614-1.695-0.922-2.973-0.922
	c-1.196,0-2.159,0.289-2.887,0.866c-0.729,0.578-1.093,1.323-1.093,2.234l-0.549-0.024l-0.024-0.062
	c-0.049-1.025,0.35-1.894,1.196-2.605c0.846-0.712,1.965-1.068,3.357-1.068c1.416,0,2.551,0.358,3.406,1.074s1.282,1.75,1.282,3.101
	v6.616c0,0.464,0.026,0.916,0.079,1.355c0.053,0.439,0.141,0.874,0.263,1.306h-0.732c-0.106-0.578-0.177-1.011-0.214-1.3
	c-0.036-0.289-0.055-0.601-0.055-0.934V536.276z M48.853,538.327c1.31,0,2.419-0.289,3.326-0.866
	c0.908-0.578,1.573-1.404,1.996-2.479v-2.967h-3.735c-1.367,0-2.521,0.316-3.461,0.946c-0.939,0.631-1.41,1.41-1.41,2.338
	c0,0.887,0.299,1.613,0.897,2.179C47.064,538.045,47.859,538.327,48.853,538.327z"/>
<path fill="#FFFFFF" d="M67.932,536.398c-0.415,0.813-1.005,1.446-1.77,1.898c-0.765,0.451-1.693,0.678-2.783,0.678
	c-1.359,0-2.423-0.482-3.192-1.447c-0.769-0.964-1.153-2.459-1.153-4.486v-7.531h0.659v7.557c0,1.79,0.33,3.112,0.989,3.967
	s1.55,1.281,2.673,1.281c1.343,0,2.382-0.327,3.119-0.982c0.736-0.654,1.214-1.52,1.434-2.594v-9.229h0.671v7.775h0.024
	c0,0.106-0.004,0.208-0.012,0.306c-0.008,0.098-0.012,0.212-0.012,0.342v4.785H68.03L67.932,536.398z"/>
<path fill="#FFFFFF" d="M74.133,521.945v3.564h3.247v0.672h-3.247v9.131c0,1.082,0.183,1.854,0.549,2.313
	c0.366,0.46,0.85,0.689,1.453,0.689c0.22,0,0.415-0.008,0.586-0.023c0.171-0.017,0.407-0.045,0.708-0.086l0.122,0.598
	c-0.204,0.065-0.415,0.11-0.635,0.135s-0.468,0.037-0.745,0.037c-0.887,0-1.561-0.289-2.021-0.867
	c-0.459-0.578-0.689-1.51-0.689-2.795v-9.131h-2.441v-0.672h2.441v-3.564H74.133z"/>
<path fill="#FFFFFF" d="M79.456,531.857c0-1.937,0.535-3.52,1.605-4.748c1.07-1.229,2.46-1.844,4.169-1.844
	c1.717,0,3.111,0.614,4.181,1.844c1.07,1.229,1.605,2.812,1.605,4.748v0.513c0,1.945-0.535,3.532-1.605,4.761
	c-1.07,1.229-2.456,1.844-4.156,1.844c-1.717,0-3.113-0.615-4.187-1.844s-1.611-2.815-1.611-4.761V531.857z M80.115,532.37
	c0,1.66,0.464,3.066,1.392,4.218s2.177,1.727,3.748,1.727c1.546,0,2.783-0.577,3.711-1.732c0.928-1.156,1.392-2.56,1.392-4.212
	v-0.513c0-1.619-0.468-3.013-1.404-4.181c-0.936-1.168-2.177-1.752-3.723-1.752c-1.555,0-2.795,0.584-3.723,1.752
	s-1.392,2.562-1.392,4.181V532.37z"/>
<path fill="#FFFFFF" d="M94.641,525.51l0.085,2.661c0.407-0.92,0.98-1.634,1.721-2.143c0.74-0.508,1.644-0.763,2.71-0.763
	c1.123,0,2.039,0.283,2.747,0.849s1.2,1.442,1.477,2.63c0.366-1.098,0.942-1.954,1.727-2.569c0.786-0.614,1.764-0.921,2.936-0.921
	c1.457,0,2.563,0.476,3.32,1.428s1.135,2.449,1.135,4.492v7.531h-0.671v-7.556c0-1.912-0.342-3.264-1.025-4.053
	s-1.595-1.185-2.734-1.185c-1.359,0-2.395,0.399-3.107,1.197c-0.712,0.797-1.17,1.83-1.373,3.1c0.008,0.163,0.016,0.328,0.024,0.495
	c0.008,0.167,0.012,0.335,0.012,0.507v7.507h-0.671v-6.763h-0.037c0-0.154,0.002-0.31,0.006-0.464
	c0.004-0.154,0.014-0.306,0.03-0.452c-0.024-1.871-0.375-3.191-1.05-3.961c-0.676-0.769-1.583-1.153-2.722-1.153
	c-1.343,0-2.366,0.389-3.07,1.166c-0.704,0.777-1.162,1.784-1.374,3.021v8.606h-0.671v-6.763h-0.024
	c0-0.114,0.002-0.228,0.006-0.342c0.004-0.114,0.01-0.256,0.019-0.428v-5.676H94.641z"/>
<path fill="#FFFFFF" d="M124.878,536.276c-0.456,0.798-1.135,1.446-2.039,1.947c-0.903,0.5-1.998,0.751-3.284,0.751
	c-1.229,0-2.193-0.336-2.893-1.008c-0.7-0.671-1.05-1.576-1.05-2.716c0-1.106,0.523-2.034,1.569-2.783
	c1.045-0.749,2.354-1.123,3.924-1.123h3.772v-1.929c0-1.099-0.352-1.955-1.056-2.569c-0.704-0.614-1.695-0.922-2.973-0.922
	c-1.196,0-2.159,0.289-2.887,0.866c-0.729,0.578-1.093,1.323-1.093,2.234l-0.549-0.024l-0.024-0.062
	c-0.049-1.025,0.35-1.894,1.196-2.605c0.846-0.712,1.965-1.068,3.357-1.068c1.416,0,2.551,0.358,3.406,1.074s1.282,1.75,1.282,3.101
	v6.616c0,0.464,0.026,0.916,0.079,1.355c0.053,0.439,0.141,0.874,0.263,1.306h-0.732c-0.106-0.578-0.177-1.011-0.214-1.3
	c-0.036-0.289-0.055-0.601-0.055-0.934V536.276z M119.556,538.327c1.31,0,2.419-0.289,3.326-0.866
	c0.908-0.578,1.573-1.404,1.996-2.479v-2.967h-3.735c-1.367,0-2.521,0.316-3.461,0.946c-0.939,0.631-1.41,1.41-1.41,2.338
	c0,0.887,0.299,1.613,0.897,2.179C117.768,538.045,118.563,538.327,119.556,538.327z"/>
<path fill="#FFFFFF" d="M131.152,521.945v3.564h3.247v0.672h-3.247v9.131c0,1.082,0.183,1.854,0.549,2.313
	c0.366,0.46,0.85,0.689,1.453,0.689c0.22,0,0.415-0.008,0.586-0.023c0.171-0.017,0.407-0.045,0.708-0.086l0.122,0.598
	c-0.204,0.065-0.415,0.11-0.635,0.135s-0.468,0.037-0.745,0.037c-0.887,0-1.561-0.289-2.02-0.867c-0.46-0.578-0.69-1.51-0.69-2.795
	v-9.131h-2.441v-0.672h2.441v-3.564H131.152z"/>
<path fill="#FFFFFF" d="M138.33,521.359h-0.659v-1.685h0.659V521.359z M138.33,538.718h-0.659V525.51h0.659V538.718z"/>
<path fill="#FFFFFF" d="M150.757,535.482c0-0.699-0.299-1.336-0.897-1.91c-0.598-0.573-1.642-1.023-3.131-1.349
	c-1.571-0.334-2.708-0.763-3.412-1.288c-0.704-0.524-1.056-1.304-1.056-2.338c0-0.943,0.398-1.734,1.196-2.374
	c0.797-0.639,1.872-0.958,3.223-0.958c1.457,0,2.604,0.342,3.442,1.025c0.838,0.684,1.237,1.574,1.196,2.674l-0.024,0.072h-0.562
	c0-0.862-0.364-1.597-1.093-2.203c-0.728-0.605-1.715-0.909-2.96-0.909c-1.237,0-2.173,0.267-2.808,0.8s-0.952,1.149-0.952,1.85
	c0,0.691,0.269,1.281,0.806,1.77s1.603,0.916,3.198,1.281c1.473,0.342,2.59,0.809,3.351,1.398c0.761,0.59,1.142,1.414,1.142,2.472
	c0,1.033-0.423,1.872-1.27,2.515c-0.847,0.643-1.97,0.965-3.369,0.965c-1.538,0-2.745-0.344-3.619-1.032
	c-0.875-0.688-1.284-1.523-1.227-2.509l0.024-0.072h0.537c0.065,1.041,0.513,1.794,1.343,2.258s1.811,0.695,2.942,0.695
	c1.221,0,2.189-0.284,2.905-0.854C150.398,536.891,150.757,536.231,150.757,535.482z"/>
<path fill="#FFFFFF" d="M159.583,538.314c1.115,0,2.1-0.305,2.954-0.915s1.282-1.526,1.282-2.747h0.562l0.024,0.074
	c0.032,1.293-0.441,2.325-1.422,3.094c-0.981,0.77-2.114,1.154-3.4,1.154c-1.685,0-3.005-0.606-3.961-1.819
	c-0.956-1.213-1.434-2.808-1.434-4.785v-0.513c0-1.97,0.476-3.561,1.428-4.773c0.952-1.212,2.266-1.818,3.943-1.818
	c1.367,0,2.525,0.401,3.473,1.202c0.948,0.802,1.405,1.931,1.373,3.388l-0.024,0.073h-0.562c0-1.294-0.415-2.284-1.245-2.973
	c-0.83-0.688-1.835-1.031-3.015-1.031c-1.546,0-2.718,0.554-3.516,1.66c-0.798,1.106-1.196,2.531-1.196,4.272v0.513
	c0,1.758,0.398,3.188,1.196,4.291C156.84,537.764,158.02,538.314,159.583,538.314z"/>
<path fill="#FFFFFF" d="M168.445,528.256c0.415-0.943,1.017-1.678,1.807-2.203c0.789-0.524,1.75-0.787,2.881-0.787
	c1.375,0,2.419,0.436,3.131,1.307c0.712,0.87,1.068,2.241,1.068,4.113v8.032h-0.671v-8.057c0-1.733-0.319-2.956-0.958-3.668
	c-0.639-0.712-1.492-1.068-2.558-1.068c-1.4,0-2.48,0.411-3.241,1.233c-0.761,0.821-1.247,1.875-1.458,3.161v8.398h-0.659v-6.763
	h-0.024c0-0.171,0-0.313,0-0.428c0-0.113,0.008-0.228,0.024-0.342v-11.511h0.659V528.256z"/>
<path fill="#FFFFFF" d="M192.078,538.975c-1.555,0-2.867-0.603-3.937-1.807c-1.07-1.205-1.605-2.723-1.605-4.554v-0.781
	c0-1.912,0.531-3.485,1.593-4.718c1.062-1.233,2.398-1.85,4.01-1.85c1.465,0,2.632,0.482,3.503,1.446
	c0.871,0.965,1.306,2.281,1.306,3.949v1.013h-9.753v0.159v0.781c0,1.611,0.456,2.965,1.367,4.059
	c0.911,1.095,2.083,1.642,3.516,1.642c0.789,0,1.548-0.146,2.277-0.439c0.728-0.293,1.32-0.684,1.776-1.172l0.354,0.514
	c-0.464,0.512-1.062,0.934-1.794,1.263C193.958,538.81,193.086,538.975,192.078,538.975z M192.139,525.925
	c-1.367,0-2.488,0.475-3.363,1.422c-0.875,0.948-1.369,2.146-1.483,3.595l0.037,0.074h8.96v-0.403c0-1.359-0.371-2.479-1.111-3.363
	C194.438,526.366,193.424,525.925,192.139,525.925z"/>
<path fill="#FFFFFF" d="M200.952,521.359h-0.659v-1.685h0.659V521.359z M200.952,538.718h-0.659V525.51h0.659V538.718z"/>
<path fill="#FFFFFF" d="M205.847,525.51l0.085,2.661c0.407-0.92,0.993-1.634,1.758-2.143c0.765-0.508,1.705-0.763,2.82-0.763
	c1.44,0,2.521,0.454,3.241,1.361c0.721,0.907,1.081,2.346,1.081,4.314v7.776h-0.659v-7.8c0-1.832-0.328-3.121-0.983-3.87
	c-0.655-0.749-1.544-1.123-2.667-1.123c-1.384,0-2.441,0.403-3.174,1.208c-0.732,0.807-1.201,1.844-1.404,3.113v8.472h-0.659v-6.763
	h-0.037c0-0.154,0.002-0.312,0.006-0.47c0.004-0.159,0.014-0.319,0.031-0.482v-5.493H205.847z"/>
<path fill="#FFFFFF" d="M235.046,532.357c0,2.035-0.439,3.646-1.318,4.834c-0.879,1.188-2.092,1.783-3.638,1.783
	c-1.034,0-1.935-0.208-2.704-0.623c-0.77-0.415-1.37-0.973-1.801-1.672l-0.085,2.038h-0.549v-3.601
	c-0.008-0.025-0.014-0.045-0.019-0.062c-0.004-0.017-0.006-0.032-0.006-0.049v-5.384c0-0.008,0-0.014,0-0.018
	s0.008-0.031,0.024-0.08v-9.851h0.659v8.154c0.439-0.798,1.033-1.424,1.782-1.88c0.749-0.456,1.64-0.684,2.673-0.684
	c1.554,0,2.773,0.616,3.656,1.85c0.883,1.232,1.325,2.895,1.325,4.986V532.357z M234.363,532.102c0-1.831-0.366-3.318-1.099-4.462
	c-0.732-1.143-1.794-1.715-3.186-1.715c-1.253,0-2.232,0.313-2.936,0.94c-0.704,0.626-1.215,1.399-1.532,2.318v6.324
	c0.333,0.854,0.879,1.536,1.636,2.044c0.757,0.509,1.709,0.763,2.856,0.763c1.392,0,2.449-0.537,3.174-1.611
	c0.724-1.074,1.086-2.522,1.086-4.346V532.102z"/>
<path fill="#FFFFFF" d="M243.262,538.975c-1.555,0-2.866-0.603-3.937-1.807c-1.07-1.205-1.605-2.723-1.605-4.554v-0.781
	c0-1.912,0.531-3.485,1.593-4.718c1.063-1.233,2.399-1.85,4.011-1.85c1.465,0,2.632,0.482,3.503,1.446
	c0.871,0.965,1.306,2.281,1.306,3.949v1.013h-9.753v0.159v0.781c0,1.611,0.456,2.965,1.367,4.059
	c0.911,1.095,2.083,1.642,3.516,1.642c0.789,0,1.548-0.146,2.276-0.439s1.32-0.684,1.776-1.172l0.354,0.514
	c-0.465,0.512-1.063,0.934-1.795,1.263C245.142,538.81,244.271,538.975,243.262,538.975z M243.323,525.925
	c-1.367,0-2.488,0.475-3.363,1.422c-0.875,0.948-1.37,2.146-1.483,3.595l0.037,0.074h8.96v-0.403c0-1.359-0.371-2.479-1.111-3.363
	C245.622,526.366,244.608,525.925,243.323,525.925z"/>
<path fill="#FFFFFF" d="M259.411,535.482c0-0.699-0.299-1.336-0.896-1.91c-0.599-0.573-1.643-1.023-3.131-1.349
	c-1.571-0.334-2.709-0.763-3.412-1.288c-0.704-0.524-1.057-1.304-1.057-2.338c0-0.943,0.399-1.734,1.197-2.374
	c0.797-0.639,1.871-0.958,3.223-0.958c1.456,0,2.604,0.342,3.441,1.025c0.839,0.684,1.237,1.574,1.197,2.674l-0.025,0.072h-0.561
	c0-0.862-0.365-1.597-1.093-2.203c-0.729-0.605-1.716-0.909-2.96-0.909c-1.237,0-2.174,0.267-2.809,0.8s-0.951,1.149-0.951,1.85
	c0,0.691,0.268,1.281,0.805,1.77s1.604,0.916,3.199,1.281c1.473,0.342,2.589,0.809,3.351,1.398c0.761,0.59,1.142,1.414,1.142,2.472
	c0,1.033-0.424,1.872-1.27,2.515c-0.847,0.643-1.97,0.965-3.369,0.965c-1.539,0-2.745-0.344-3.62-1.032
	c-0.875-0.688-1.283-1.523-1.227-2.509l0.024-0.072h0.537c0.065,1.041,0.513,1.794,1.343,2.258s1.811,0.695,2.942,0.695
	c1.221,0,2.188-0.284,2.904-0.854C259.054,536.891,259.411,536.231,259.411,535.482z"/>
<path fill="#FFFFFF" d="M262.72,531.857c0-1.937,0.534-3.52,1.604-4.748c1.07-1.229,2.46-1.844,4.169-1.844
	c1.717,0,3.11,0.614,4.181,1.844c1.07,1.229,1.605,2.812,1.605,4.748v0.513c0,1.945-0.535,3.532-1.605,4.761
	s-2.455,1.844-4.156,1.844c-1.717,0-3.112-0.615-4.187-1.844s-1.611-2.815-1.611-4.761V531.857z M263.378,532.37
	c0,1.66,0.465,3.066,1.393,4.218s2.177,1.727,3.747,1.727c1.546,0,2.783-0.577,3.711-1.732c0.928-1.156,1.392-2.56,1.392-4.212
	v-0.513c0-1.619-0.468-3.013-1.404-4.181c-0.936-1.168-2.177-1.752-3.723-1.752c-1.555,0-2.795,0.584-3.723,1.752
	s-1.393,2.562-1.393,4.181V532.37z"/>
<path fill="#FFFFFF" d="M278.003,525.51l0.086,2.661c0.406-0.92,0.992-1.634,1.758-2.143c0.765-0.508,1.704-0.763,2.819-0.763
	c1.44,0,2.521,0.454,3.241,1.361c0.72,0.907,1.08,2.346,1.08,4.314v7.776h-0.659v-7.8c0-1.832-0.328-3.121-0.982-3.87
	c-0.655-0.749-1.544-1.123-2.667-1.123c-1.384,0-2.441,0.403-3.174,1.208c-0.732,0.807-1.201,1.844-1.404,3.113v8.472h-0.659v-6.763
	h-0.036c0-0.154,0.001-0.312,0.006-0.47c0.004-0.159,0.014-0.319,0.03-0.482v-5.493H278.003z"/>
<path fill="#FFFFFF" d="M290.516,532.102c0-2.092,0.439-3.754,1.318-4.986c0.879-1.233,2.1-1.85,3.662-1.85
	c1.025,0,1.914,0.23,2.667,0.689c0.753,0.46,1.354,1.089,1.801,1.887v-8.167h0.659v9.899c0,0.017,0,0.029,0,0.037
	s0.004,0.012,0.013,0.012v5.384c-0.009,0.017-0.013,0.028-0.013,0.036c0,0.009,0,0.017,0,0.025v3.649h-0.635l-0.024-2.038
	c-0.439,0.707-1.042,1.268-1.807,1.678c-0.765,0.411-1.66,0.617-2.686,0.617c-1.555,0-2.77-0.595-3.644-1.783
	c-0.875-1.188-1.313-2.799-1.313-4.834V532.102z M291.199,532.357c0,1.823,0.36,3.271,1.08,4.346
	c0.721,1.074,1.78,1.611,3.181,1.611c1.146,0,2.1-0.258,2.855-0.774c0.758-0.517,1.307-1.207,1.648-2.069v-6.25
	c-0.325-0.936-0.841-1.719-1.544-2.35c-0.704-0.631-1.683-0.946-2.937-0.946c-1.399,0-2.464,0.572-3.191,1.715
	c-0.729,1.144-1.093,2.631-1.093,4.462V532.357z"/>
<path fill="#FFFFFF" d="M309.437,538.975c-1.555,0-2.867-0.603-3.938-1.807c-1.07-1.205-1.605-2.723-1.605-4.554v-0.781
	c0-1.912,0.531-3.485,1.594-4.718c1.062-1.233,2.398-1.85,4.01-1.85c1.465,0,2.633,0.482,3.504,1.446
	c0.87,0.965,1.306,2.281,1.306,3.949v1.013h-9.753v0.159v0.781c0,1.611,0.455,2.965,1.367,4.059
	c0.911,1.095,2.083,1.642,3.516,1.642c0.789,0,1.548-0.146,2.276-0.439c0.728-0.293,1.32-0.684,1.776-1.172l0.354,0.514
	c-0.464,0.512-1.063,0.934-1.795,1.263C311.315,538.81,310.445,538.975,309.437,538.975z M309.497,525.925
	c-1.367,0-2.488,0.475-3.363,1.422c-0.875,0.948-1.369,2.146-1.482,3.595l0.036,0.074h8.96v-0.403c0-1.359-0.37-2.479-1.111-3.363
	C311.796,526.366,310.783,525.925,309.497,525.925z"/>
<path fill="#FFFFFF" d="M323.315,525.986l-0.854-0.074c-1.181,0-2.139,0.381-2.875,1.142c-0.737,0.762-1.215,1.765-1.435,3.009
	v8.655h-0.659V525.51h0.537l0.122,2.295v0.451c0.366-0.943,0.911-1.678,1.636-2.203c0.725-0.524,1.615-0.787,2.674-0.787
	c0.187,0,0.359,0.015,0.519,0.043c0.158,0.028,0.295,0.059,0.409,0.092L323.315,525.986z"/>
<path fill="#FFFFFF" d="M330.249,538.975c-1.555,0-2.867-0.603-3.938-1.807c-1.07-1.205-1.605-2.723-1.605-4.554v-0.781
	c0-1.912,0.531-3.485,1.594-4.718c1.062-1.233,2.398-1.85,4.01-1.85c1.465,0,2.633,0.482,3.504,1.446
	c0.87,0.965,1.306,2.281,1.306,3.949v1.013h-9.753v0.159v0.781c0,1.611,0.455,2.965,1.367,4.059
	c0.911,1.095,2.083,1.642,3.516,1.642c0.789,0,1.548-0.146,2.276-0.439c0.728-0.293,1.32-0.684,1.776-1.172l0.354,0.514
	c-0.464,0.512-1.063,0.934-1.795,1.263C332.128,538.81,331.258,538.975,330.249,538.975z M330.31,525.925
	c-1.367,0-2.488,0.475-3.363,1.422c-0.875,0.948-1.369,2.146-1.482,3.595l0.036,0.074h8.96v-0.403c0-1.359-0.37-2.479-1.111-3.363
	C332.608,526.366,331.596,525.925,330.31,525.925z"/>
<path fill="#FFFFFF" d="M346.399,535.482c0-0.699-0.3-1.336-0.897-1.91c-0.599-0.573-1.642-1.023-3.132-1.349
	c-1.57-0.334-2.708-0.763-3.411-1.288c-0.704-0.524-1.056-1.304-1.056-2.338c0-0.943,0.398-1.734,1.195-2.374
	c0.798-0.639,1.872-0.958,3.223-0.958c1.457,0,2.604,0.342,3.443,1.025c0.838,0.684,1.236,1.574,1.195,2.674l-0.023,0.072h-0.563
	c0-0.862-0.364-1.597-1.092-2.203c-0.729-0.605-1.715-0.909-2.961-0.909c-1.236,0-2.172,0.267-2.807,0.8s-0.953,1.149-0.953,1.85
	c0,0.691,0.27,1.281,0.807,1.77s1.603,0.916,3.197,1.281c1.474,0.342,2.59,0.809,3.352,1.398c0.761,0.59,1.141,1.414,1.141,2.472
	c0,1.033-0.423,1.872-1.27,2.515c-0.846,0.643-1.969,0.965-3.369,0.965c-1.537,0-2.744-0.344-3.619-1.032
	c-0.875-0.688-1.283-1.523-1.227-2.509l0.024-0.072h0.537c0.065,1.041,0.513,1.794,1.343,2.258s1.811,0.695,2.941,0.695
	c1.221,0,2.189-0.284,2.906-0.854C346.041,536.891,346.399,536.231,346.399,535.482z"/>
<path fill="#FFFFFF" d="M366.431,533.408h-8.68l-1.99,5.31h-0.72l6.641-17.773h0.806l6.652,17.773h-0.72L366.431,533.408z
	 M357.995,532.748h8.191l-3.724-9.948l-0.342-1.038h-0.073l-0.33,1.038L357.995,532.748z"/>
<path fill="#FFFFFF" d="M372.217,525.51l0.085,2.661c0.407-0.92,0.993-1.634,1.758-2.143c0.766-0.508,1.705-0.763,2.82-0.763
	c1.44,0,2.521,0.454,3.241,1.361c0.72,0.907,1.08,2.346,1.08,4.314v7.776h-0.659v-7.8c0-1.832-0.328-3.121-0.982-3.87
	c-0.655-0.749-1.545-1.123-2.668-1.123c-1.383,0-2.441,0.403-3.174,1.208c-0.732,0.807-1.2,1.844-1.403,3.113v8.472h-0.659v-6.763
	h-0.037c0-0.154,0.002-0.312,0.007-0.47c0.004-0.159,0.014-0.319,0.03-0.482v-5.493H372.217z"/>
<path fill="#FFFFFF" d="M384.729,532.102c0-2.092,0.439-3.754,1.318-4.986c0.879-1.233,2.1-1.85,3.662-1.85
	c1.025,0,1.914,0.232,2.667,0.695c0.753,0.465,1.354,1.1,1.801,1.904l0.098-2.355h0.562v4.064c0,0.017,0,0.029,0,0.037
	s0.004,0.012,0.013,0.012v5.384c-0.009,0.017-0.013,0.028-0.013,0.036c0,0.009,0,0.017,0,0.025v3.723
	c0,1.677-0.441,2.973-1.324,3.888c-0.884,0.916-2.106,1.374-3.669,1.374c-0.643,0-1.312-0.067-2.008-0.202
	c-0.695-0.134-1.304-0.319-1.824-0.556l0.195-0.658c0.594,0.26,1.167,0.453,1.721,0.579s1.184,0.189,1.893,0.189
	c1.424,0,2.504-0.396,3.24-1.19c0.736-0.793,1.105-1.935,1.105-3.424v-2.088c-0.448,0.7-1.053,1.254-1.813,1.66
	c-0.761,0.407-1.649,0.611-2.667,0.611c-1.555,0-2.77-0.595-3.644-1.783c-0.875-1.188-1.313-2.799-1.313-4.834V532.102z
	 M385.399,532.357c0,1.823,0.362,3.271,1.087,4.346s1.786,1.611,3.187,1.611c1.131,0,2.074-0.254,2.832-0.763
	c0.756-0.508,1.31-1.19,1.66-2.044v-6.324c-0.326-0.919-0.841-1.692-1.545-2.318c-0.704-0.627-1.678-0.94-2.924-0.94
	c-1.399,0-2.465,0.572-3.197,1.715c-0.732,1.144-1.1,2.631-1.1,4.462V532.357z"/>
<path fill="#FFFFFF" d="M403.649,538.975c-1.554,0-2.866-0.603-3.937-1.807c-1.07-1.205-1.604-2.723-1.604-4.554v-0.781
	c0-1.912,0.53-3.485,1.593-4.718c1.062-1.233,2.398-1.85,4.01-1.85c1.465,0,2.633,0.482,3.503,1.446
	c0.871,0.965,1.307,2.281,1.307,3.949v1.013h-9.754v0.159v0.781c0,1.611,0.456,2.965,1.367,4.059
	c0.912,1.095,2.084,1.642,3.516,1.642c0.79,0,1.549-0.146,2.277-0.439c0.728-0.293,1.32-0.684,1.775-1.172l0.354,0.514
	c-0.464,0.512-1.062,0.934-1.794,1.263C405.53,538.81,404.659,538.975,403.649,538.975z M403.711,525.925
	c-1.367,0-2.488,0.475-3.363,1.422c-0.875,0.948-1.369,2.146-1.483,3.595l0.037,0.074h8.96v-0.403c0-1.359-0.37-2.479-1.11-3.363
	C406.01,526.366,404.997,525.925,403.711,525.925z"/>
<path fill="#FFFFFF" d="M421.802,532.357c0,2.035-0.439,3.646-1.318,4.834c-0.879,1.188-2.092,1.783-3.639,1.783
	c-1.033,0-1.935-0.208-2.703-0.623c-0.77-0.415-1.369-0.973-1.801-1.672l-0.086,2.038h-0.549v-3.601
	c-0.008-0.025-0.015-0.045-0.019-0.062s-0.006-0.032-0.006-0.049v-5.384c0-0.008,0-0.014,0-0.018s0.008-0.031,0.024-0.08v-9.851
	h0.659v8.154c0.439-0.798,1.033-1.424,1.782-1.88s1.64-0.684,2.674-0.684c1.554,0,2.772,0.616,3.655,1.85
	c0.883,1.232,1.325,2.895,1.325,4.986V532.357z M421.118,532.102c0-1.831-0.367-3.318-1.1-4.462
	c-0.732-1.143-1.794-1.715-3.186-1.715c-1.253,0-2.232,0.313-2.936,0.94c-0.704,0.626-1.215,1.399-1.532,2.318v6.324
	c0.334,0.854,0.879,1.536,1.636,2.044c0.757,0.509,1.709,0.763,2.856,0.763c1.392,0,2.449-0.537,3.174-1.611
	s1.087-2.522,1.087-4.346V532.102z"/>
<path fill="#FFFFFF" d="M424.353,531.857c0-1.937,0.535-3.52,1.605-4.748c1.07-1.229,2.46-1.844,4.169-1.844
	c1.717,0,3.11,0.614,4.181,1.844c1.07,1.229,1.605,2.812,1.605,4.748v0.513c0,1.945-0.535,3.532-1.605,4.761
	s-2.455,1.844-4.156,1.844c-1.717,0-3.113-0.615-4.188-1.844s-1.611-2.815-1.611-4.761V531.857z M425.013,532.37
	c0,1.66,0.463,3.066,1.391,4.218s2.178,1.727,3.748,1.727c1.546,0,2.783-0.577,3.711-1.732c0.928-1.156,1.392-2.56,1.392-4.212
	v-0.513c0-1.619-0.468-3.013-1.403-4.181c-0.937-1.168-2.178-1.752-3.724-1.752c-1.555,0-2.796,0.584-3.724,1.752
	s-1.391,2.562-1.391,4.181V532.37z"/>
<path fill="#FFFFFF" d="M440.442,521.945v3.564h3.247v0.672h-3.247v9.131c0,1.082,0.184,1.854,0.549,2.313
	c0.367,0.46,0.851,0.689,1.453,0.689c0.22,0,0.415-0.008,0.586-0.023c0.171-0.017,0.407-0.045,0.708-0.086l0.122,0.598
	c-0.203,0.065-0.415,0.11-0.635,0.135s-0.468,0.037-0.744,0.037c-0.888,0-1.562-0.289-2.021-0.867c-0.46-0.578-0.69-1.51-0.69-2.795
	v-9.131h-2.441v-0.672h2.441v-3.564H440.442z"/>
<path fill="#FFFFFF" d="M453.784,538.718v-12.536h-2.295v-0.672h2.295v-2.173c0-1.245,0.303-2.21,0.909-2.894
	s1.455-1.025,2.546-1.025c0.268,0,0.534,0.017,0.799,0.049c0.265,0.033,0.52,0.086,0.764,0.159l-0.098,0.635
	c-0.261-0.065-0.491-0.111-0.69-0.141c-0.199-0.028-0.453-0.042-0.763-0.042c-0.879,0-1.566,0.288-2.063,0.866
	c-0.497,0.578-0.745,1.375-0.745,2.393v2.173h3.491v0.672h-3.491v12.536H453.784z"/>
<path fill="#FFFFFF" d="M469.507,536.398c-0.414,0.813-1.005,1.446-1.77,1.898c-0.765,0.451-1.692,0.678-2.783,0.678
	c-1.359,0-2.423-0.482-3.192-1.447c-0.769-0.964-1.153-2.459-1.153-4.486v-7.531h0.659v7.557c0,1.79,0.329,3.112,0.989,3.967
	c0.658,0.854,1.55,1.281,2.673,1.281c1.343,0,2.382-0.327,3.119-0.982c0.736-0.654,1.214-1.52,1.435-2.594v-9.229h0.671v7.775h0.024
	c0,0.106-0.004,0.208-0.012,0.306c-0.009,0.098-0.013,0.212-0.013,0.342v4.785h-0.55L469.507,536.398z M463.709,522.471h-1.673
	v-1.441h1.673V522.471z M469.435,522.471h-1.66v-1.441h1.66V522.471z"/>
<path fill="#FFFFFF" d="M480.163,525.986l-0.854-0.074c-1.181,0-2.139,0.381-2.875,1.142c-0.737,0.762-1.215,1.765-1.435,3.009
	v8.655h-0.659V525.51h0.537l0.122,2.295v0.451c0.366-0.943,0.911-1.678,1.636-2.203c0.725-0.524,1.615-0.787,2.674-0.787
	c0.187,0,0.359,0.015,0.519,0.043c0.158,0.028,0.295,0.059,0.409,0.092L480.163,525.986z"/>
<path fill="#FFFFFF" d="M25.531,564.531c0-1.018-0.417-1.838-1.251-2.46c-0.834-0.623-2.257-1.264-4.267-1.923
	c-2.002-0.61-3.477-1.258-4.425-1.941c-0.948-0.684-1.422-1.696-1.422-3.039c0-1.335,0.555-2.415,1.667-3.241
	c1.11-0.825,2.521-1.239,4.229-1.239c1.774,0,3.2,0.456,4.278,1.367c1.079,0.912,1.601,2.186,1.569,3.821l-0.024,0.073h-0.562
	c0-1.326-0.488-2.425-1.465-3.296s-2.242-1.306-3.796-1.306c-1.604,0-2.877,0.376-3.821,1.129c-0.944,0.753-1.416,1.642-1.416,2.667
	s0.38,1.857,1.141,2.496c0.761,0.64,2.179,1.264,4.254,1.874c2.018,0.635,3.52,1.294,4.504,1.978
	c0.984,0.684,1.477,1.688,1.477,3.015c0,1.352-0.582,2.434-1.746,3.248c-1.164,0.813-2.6,1.221-4.309,1.221
	c-1.782,0-3.316-0.417-4.602-1.252c-1.286-0.834-1.909-2.146-1.868-3.937l0.024-0.073h0.549c0,1.611,0.594,2.781,1.782,3.51
	c1.188,0.729,2.559,1.092,4.114,1.092c1.554,0,2.84-0.359,3.857-1.08C25.022,566.515,25.531,565.613,25.531,564.531z"/>
<path fill="#FFFFFF" d="M30.438,551.359h-0.659v-1.685h0.659V551.359z M30.438,568.718h-0.659V555.51h0.659V568.718z"/>
<path fill="#FFFFFF" d="M39.398,568.975c-1.555,0-2.867-0.603-3.937-1.807c-1.07-1.205-1.605-2.723-1.605-4.554v-0.781
	c0-1.912,0.531-3.485,1.593-4.718c1.063-1.233,2.399-1.85,4.01-1.85c1.465,0,2.632,0.482,3.503,1.446
	c0.871,0.965,1.306,2.281,1.306,3.949v1.013h-9.753v0.159v0.781c0,1.611,0.456,2.965,1.367,4.059
	c0.911,1.095,2.083,1.642,3.516,1.642c0.789,0,1.548-0.146,2.276-0.439c0.729-0.293,1.32-0.684,1.776-1.172l0.354,0.514
	c-0.464,0.512-1.062,0.934-1.794,1.263C41.278,568.81,40.407,568.975,39.398,568.975z M39.459,555.925
	c-1.367,0-2.488,0.475-3.363,1.422c-0.875,0.948-1.37,2.146-1.483,3.595l0.037,0.074h8.96v-0.403c0-1.359-0.371-2.479-1.111-3.363
	C41.758,556.366,40.745,555.925,39.459,555.925z"/>
<path fill="#FFFFFF" d="M48.517,568.718h-1.05v-1.587h1.05V568.718z"/>
<path fill="#FFFFFF" d="M59.137,568.718v-17.773h4.675c1.839,0,3.267,0.378,4.285,1.136c1.017,0.756,1.526,1.896,1.526,3.418
	c0,0.992-0.242,1.839-0.727,2.539c-0.484,0.699-1.17,1.167-2.057,1.403l-0.012,0.073c1.05,0.139,1.933,0.621,2.649,1.446
	c0.716,0.826,1.074,1.78,1.074,2.862c0,1.555-0.502,2.76-1.508,3.613c-1.005,0.855-2.333,1.282-3.985,1.282H59.137z M59.796,559.281
	h4.492c1.538-0.023,2.7-0.354,3.485-0.988c0.786-0.635,1.178-1.583,1.178-2.844c0-1.27-0.433-2.229-1.3-2.875
	c-0.866-0.647-2.146-0.971-3.839-0.971h-4.016V559.281z M59.796,559.941v8.117h5.261c1.497,0,2.677-0.37,3.54-1.111
	c0.862-0.74,1.294-1.773,1.294-3.1c0-1.172-0.436-2.116-1.306-2.832c-0.871-0.717-2.047-1.074-3.528-1.074H59.796z"/>
<path fill="#FFFFFF" d="M74.628,551.359h-0.659v-1.685h0.659V551.359z M74.628,568.718h-0.659V555.51h0.659V568.718z"/>
<path fill="#FFFFFF" d="M80.329,551.945v3.564h3.247v0.672h-3.247v9.131c0,1.082,0.183,1.854,0.549,2.313
	c0.366,0.46,0.85,0.689,1.453,0.689c0.22,0,0.415-0.008,0.586-0.023c0.171-0.017,0.407-0.045,0.708-0.086l0.122,0.598
	c-0.204,0.065-0.415,0.11-0.635,0.135s-0.468,0.037-0.745,0.037c-0.887,0-1.561-0.289-2.021-0.867
	c-0.459-0.578-0.689-1.51-0.689-2.795v-9.131h-2.441v-0.672h2.441v-3.564H80.329z"/>
<path fill="#FFFFFF" d="M88.056,551.945v3.564h3.247v0.672h-3.247v9.131c0,1.082,0.183,1.854,0.549,2.313
	c0.366,0.46,0.85,0.689,1.453,0.689c0.22,0,0.415-0.008,0.586-0.023c0.171-0.017,0.407-0.045,0.708-0.086l0.122,0.598
	c-0.204,0.065-0.415,0.11-0.635,0.135s-0.468,0.037-0.745,0.037c-0.887,0-1.561-0.289-2.02-0.867c-0.46-0.578-0.69-1.51-0.69-2.795
	v-9.131h-2.441v-0.672h2.441v-3.564H88.056z"/>
<path fill="#FFFFFF" d="M99.042,568.975c-1.555,0-2.867-0.603-3.937-1.807c-1.07-1.205-1.605-2.723-1.605-4.554v-0.781
	c0-1.912,0.531-3.485,1.593-4.718c1.063-1.233,2.399-1.85,4.01-1.85c1.465,0,2.632,0.482,3.503,1.446
	c0.871,0.965,1.306,2.281,1.306,3.949v1.013h-9.753v0.159v0.781c0,1.611,0.456,2.965,1.367,4.059
	c0.911,1.095,2.083,1.642,3.516,1.642c0.789,0,1.548-0.146,2.276-0.439c0.729-0.293,1.32-0.684,1.776-1.172l0.354,0.514
	c-0.464,0.512-1.062,0.934-1.794,1.263C100.922,568.81,100.051,568.975,99.042,568.975z M99.103,555.925
	c-1.367,0-2.488,0.475-3.363,1.422c-0.875,0.948-1.37,2.146-1.483,3.595l0.037,0.074h8.96v-0.403c0-1.359-0.371-2.479-1.111-3.363
	C101.402,556.366,100.389,555.925,99.103,555.925z"/>
<path fill="#FFFFFF" d="M121.369,566.276c-0.456,0.798-1.135,1.446-2.039,1.947c-0.903,0.5-1.998,0.751-3.284,0.751
	c-1.229,0-2.193-0.336-2.893-1.008c-0.7-0.671-1.05-1.576-1.05-2.716c0-1.106,0.523-2.034,1.568-2.783
	c1.046-0.749,2.354-1.123,3.925-1.123h3.772v-1.929c0-1.099-0.352-1.955-1.056-2.569c-0.704-0.614-1.695-0.922-2.972-0.922
	c-1.196,0-2.159,0.289-2.887,0.866c-0.728,0.578-1.092,1.323-1.092,2.234l-0.549-0.024l-0.024-0.062
	c-0.049-1.025,0.35-1.894,1.196-2.605c0.846-0.712,1.965-1.068,3.357-1.068c1.416,0,2.551,0.358,3.406,1.074s1.282,1.75,1.282,3.101
	v6.616c0,0.464,0.026,0.916,0.08,1.355c0.053,0.439,0.14,0.874,0.262,1.306h-0.732c-0.106-0.578-0.177-1.011-0.213-1.3
	c-0.037-0.289-0.055-0.601-0.055-0.934V566.276z M116.046,568.327c1.31,0,2.419-0.289,3.327-0.866
	c0.907-0.578,1.572-1.404,1.996-2.479v-2.967h-3.735c-1.367,0-2.521,0.316-3.46,0.946c-0.94,0.631-1.41,1.41-1.41,2.338
	c0,0.887,0.299,1.613,0.897,2.179C114.258,568.045,115.053,568.327,116.046,568.327z"/>
<path fill="#FFFFFF" d="M130.756,568.314c1.115,0,2.1-0.305,2.954-0.915s1.282-1.526,1.282-2.747h0.562l0.024,0.074
	c0.032,1.293-0.441,2.325-1.422,3.094c-0.98,0.77-2.114,1.154-3.399,1.154c-1.685,0-3.005-0.606-3.961-1.819
	c-0.957-1.213-1.435-2.808-1.435-4.785v-0.513c0-1.97,0.476-3.561,1.428-4.773c0.952-1.212,2.266-1.818,3.943-1.818
	c1.367,0,2.525,0.401,3.473,1.202c0.948,0.802,1.406,1.931,1.374,3.388l-0.024,0.073h-0.562c0-1.294-0.415-2.284-1.245-2.973
	c-0.83-0.688-1.835-1.031-3.015-1.031c-1.546,0-2.718,0.554-3.516,1.66c-0.798,1.106-1.196,2.531-1.196,4.272v0.513
	c0,1.758,0.398,3.188,1.196,4.291C128.013,567.764,129.193,568.314,130.756,568.314z"/>
<path fill="#FFFFFF" d="M139.618,558.256c0.415-0.943,1.017-1.678,1.807-2.203c0.789-0.524,1.75-0.787,2.881-0.787
	c1.375,0,2.419,0.436,3.131,1.307c0.712,0.87,1.068,2.241,1.068,4.113v8.032h-0.671v-8.057c0-1.733-0.319-2.956-0.958-3.668
	c-0.639-0.712-1.491-1.068-2.557-1.068c-1.4,0-2.48,0.411-3.241,1.233c-0.761,0.821-1.248,1.875-1.459,3.161v8.398h-0.659v-6.763
	h-0.024c0-0.171,0-0.313,0-0.428c0-0.113,0.008-0.228,0.024-0.342v-11.511h0.659V558.256z"/>
<path fill="#FFFFFF" d="M154.01,551.945v3.564h3.247v0.672h-3.247v9.131c0,1.082,0.183,1.854,0.549,2.313
	c0.366,0.46,0.85,0.689,1.453,0.689c0.22,0,0.415-0.008,0.586-0.023c0.171-0.017,0.407-0.045,0.708-0.086l0.122,0.598
	c-0.204,0.065-0.415,0.11-0.635,0.135s-0.468,0.037-0.745,0.037c-0.887,0-1.561-0.289-2.021-0.867
	c-0.459-0.578-0.689-1.51-0.689-2.795v-9.131h-2.441v-0.672h2.441v-3.564H154.01z"/>
<path fill="#FFFFFF" d="M164.997,568.975c-1.555,0-2.867-0.603-3.937-1.807c-1.07-1.205-1.605-2.723-1.605-4.554v-0.781
	c0-1.912,0.531-3.485,1.593-4.718c1.062-1.233,2.398-1.85,4.01-1.85c1.465,0,2.632,0.482,3.503,1.446
	c0.871,0.965,1.306,2.281,1.306,3.949v1.013h-9.753v0.159v0.781c0,1.611,0.456,2.965,1.367,4.059
	c0.911,1.095,2.083,1.642,3.516,1.642c0.789,0,1.548-0.146,2.277-0.439c0.728-0.293,1.32-0.684,1.776-1.172l0.354,0.514
	c-0.464,0.512-1.062,0.934-1.794,1.263C166.876,568.81,166.005,568.975,164.997,568.975z M165.058,555.925
	c-1.367,0-2.488,0.475-3.363,1.422c-0.875,0.948-1.369,2.146-1.483,3.595l0.037,0.074h8.96v-0.403c0-1.359-0.371-2.479-1.111-3.363
	C167.356,556.366,166.343,555.925,165.058,555.925z"/>
<path fill="#FFFFFF" d="M173.615,555.51l0.085,2.661c0.407-0.92,0.993-1.634,1.758-2.143c0.765-0.508,1.705-0.763,2.82-0.763
	c1.44,0,2.521,0.454,3.241,1.361c0.721,0.907,1.081,2.346,1.081,4.314v7.776h-0.659v-7.8c0-1.832-0.328-3.121-0.983-3.87
	c-0.655-0.749-1.544-1.123-2.667-1.123c-1.384,0-2.441,0.403-3.174,1.208c-0.732,0.807-1.201,1.844-1.404,3.113v8.472h-0.659v-6.763
	h-0.037c0-0.154,0.002-0.312,0.006-0.47c0.004-0.159,0.014-0.319,0.031-0.482v-5.493H173.615z"/>
<path fill="#FFFFFF" d="M203.559,564.531c0-1.018-0.417-1.838-1.251-2.46c-0.834-0.623-2.257-1.264-4.267-1.923
	c-2.002-0.61-3.477-1.258-4.425-1.941c-0.948-0.684-1.422-1.696-1.422-3.039c0-1.335,0.555-2.415,1.667-3.241
	c1.11-0.825,2.521-1.239,4.229-1.239c1.774,0,3.2,0.456,4.278,1.367c1.079,0.912,1.601,2.186,1.569,3.821l-0.024,0.073h-0.562
	c0-1.326-0.488-2.425-1.465-3.296s-2.242-1.306-3.796-1.306c-1.604,0-2.877,0.376-3.821,1.129c-0.944,0.753-1.416,1.642-1.416,2.667
	s0.38,1.857,1.141,2.496c0.761,0.64,2.179,1.264,4.254,1.874c2.018,0.635,3.52,1.294,4.504,1.978
	c0.984,0.684,1.477,1.688,1.477,3.015c0,1.352-0.582,2.434-1.746,3.248c-1.164,0.813-2.6,1.221-4.309,1.221
	c-1.782,0-3.316-0.417-4.602-1.252c-1.286-0.834-1.909-2.146-1.868-3.937l0.024-0.073h0.549c0,1.611,0.594,2.781,1.782,3.51
	c1.188,0.729,2.559,1.092,4.114,1.092c1.554,0,2.84-0.359,3.857-1.08C203.05,566.515,203.559,565.613,203.559,564.531z"/>
<path fill="#FFFFFF" d="M208.466,551.359h-0.659v-1.685h0.659V551.359z M208.466,568.718h-0.659V555.51h0.659V568.718z"/>
<path fill="#FFFFFF" d="M217.426,568.975c-1.555,0-2.867-0.603-3.937-1.807c-1.07-1.205-1.605-2.723-1.605-4.554v-0.781
	c0-1.912,0.531-3.485,1.593-4.718c1.063-1.233,2.399-1.85,4.01-1.85c1.465,0,2.632,0.482,3.503,1.446
	c0.871,0.965,1.306,2.281,1.306,3.949v1.013h-9.753v0.159v0.781c0,1.611,0.456,2.965,1.367,4.059
	c0.911,1.095,2.083,1.642,3.516,1.642c0.789,0,1.548-0.146,2.276-0.439c0.729-0.293,1.32-0.684,1.776-1.172l0.354,0.514
	c-0.464,0.512-1.062,0.934-1.794,1.263C219.306,568.81,218.435,568.975,217.426,568.975z M217.487,555.925
	c-1.367,0-2.488,0.475-3.363,1.422c-0.875,0.948-1.37,2.146-1.483,3.595l0.037,0.074h8.96v-0.403c0-1.359-0.371-2.479-1.111-3.363
	C219.786,556.366,218.772,555.925,217.487,555.925z"/>
<path fill="#FFFFFF" d="M230.854,562.102c0-2.092,0.439-3.754,1.318-4.986c0.879-1.233,2.1-1.85,3.662-1.85
	c1.025,0,1.915,0.23,2.667,0.689c0.753,0.46,1.354,1.089,1.801,1.887v-8.167h0.659v9.899c0,0.017,0,0.029,0,0.037
	s0.004,0.012,0.013,0.012v5.384c-0.009,0.017-0.013,0.028-0.013,0.036c0,0.009,0,0.017,0,0.025v3.649h-0.635l-0.024-2.038
	c-0.439,0.707-1.042,1.268-1.807,1.678c-0.765,0.411-1.66,0.617-2.686,0.617c-1.555,0-2.769-0.595-3.644-1.783
	c-0.875-1.188-1.313-2.799-1.313-4.834V562.102z M231.537,562.357c0,1.823,0.36,3.271,1.08,4.346c0.721,1.074,1.78,1.611,3.18,1.611
	c1.147,0,2.1-0.258,2.856-0.774s1.306-1.207,1.648-2.069v-6.25c-0.326-0.936-0.84-1.719-1.544-2.35
	c-0.704-0.631-1.683-0.946-2.936-0.946c-1.4,0-2.464,0.572-3.192,1.715c-0.729,1.144-1.093,2.631-1.093,4.462V562.357z"/>
<path fill="#FFFFFF" d="M253.437,566.276c-0.456,0.798-1.136,1.446-2.039,1.947c-0.903,0.5-1.998,0.751-3.283,0.751
	c-1.229,0-2.193-0.336-2.894-1.008c-0.7-0.671-1.05-1.576-1.05-2.716c0-1.106,0.522-2.034,1.568-2.783s2.354-1.123,3.925-1.123
	h3.772v-1.929c0-1.099-0.353-1.955-1.057-2.569s-1.694-0.922-2.973-0.922c-1.195,0-2.158,0.289-2.887,0.866
	c-0.729,0.578-1.092,1.323-1.092,2.234l-0.55-0.024l-0.024-0.062c-0.049-1.025,0.35-1.894,1.196-2.605s1.966-1.068,3.356-1.068
	c1.416,0,2.552,0.358,3.406,1.074s1.281,1.75,1.281,3.101v6.616c0,0.464,0.026,0.916,0.08,1.355
	c0.053,0.439,0.141,0.874,0.262,1.306h-0.732c-0.105-0.578-0.177-1.011-0.213-1.3c-0.037-0.289-0.055-0.601-0.055-0.934V566.276z
	 M248.114,568.327c1.31,0,2.418-0.289,3.326-0.866c0.907-0.578,1.572-1.404,1.996-2.479v-2.967H249.7
	c-1.367,0-2.521,0.316-3.46,0.946c-0.94,0.631-1.41,1.41-1.41,2.338c0,0.887,0.299,1.613,0.897,2.179
	C246.325,568.045,247.121,568.327,248.114,568.327z"/>
<path fill="#FFFFFF" d="M264.167,555.986l-0.855-0.074c-1.18,0-2.138,0.381-2.874,1.142c-0.737,0.762-1.215,1.765-1.435,3.009v8.655
	h-0.659V555.51h0.537l0.122,2.295v0.451c0.366-0.943,0.911-1.678,1.636-2.203c0.725-0.524,1.615-0.787,2.673-0.787
	c0.188,0,0.36,0.015,0.52,0.043c0.158,0.028,0.295,0.059,0.408,0.092L264.167,555.986z"/>
<path fill="#FFFFFF" d="M274.995,566.276c-0.456,0.798-1.136,1.446-2.039,1.947c-0.903,0.5-1.998,0.751-3.283,0.751
	c-1.229,0-2.193-0.336-2.894-1.008c-0.7-0.671-1.05-1.576-1.05-2.716c0-1.106,0.522-2.034,1.568-2.783s2.354-1.123,3.925-1.123
	h3.772v-1.929c0-1.099-0.353-1.955-1.057-2.569s-1.694-0.922-2.973-0.922c-1.195,0-2.158,0.289-2.887,0.866
	c-0.729,0.578-1.092,1.323-1.092,2.234l-0.55-0.024l-0.024-0.062c-0.049-1.025,0.35-1.894,1.196-2.605s1.966-1.068,3.356-1.068
	c1.416,0,2.552,0.358,3.406,1.074s1.281,1.75,1.281,3.101v6.616c0,0.464,0.026,0.916,0.08,1.355
	c0.053,0.439,0.141,0.874,0.262,1.306h-0.732c-0.105-0.578-0.177-1.011-0.213-1.3c-0.037-0.289-0.055-0.601-0.055-0.934V566.276z
	 M269.673,568.327c1.31,0,2.418-0.289,3.326-0.866c0.907-0.578,1.572-1.404,1.996-2.479v-2.967h-3.736
	c-1.367,0-2.521,0.316-3.46,0.946c-0.94,0.631-1.41,1.41-1.41,2.338c0,0.887,0.299,1.613,0.897,2.179
	C267.884,568.045,268.68,568.327,269.673,568.327z"/>
<path fill="#FFFFFF" d="M288.751,566.398c-0.414,0.813-1.005,1.446-1.77,1.898c-0.765,0.451-1.692,0.678-2.783,0.678
	c-1.359,0-2.423-0.482-3.192-1.447c-0.769-0.964-1.153-2.459-1.153-4.486v-7.531h0.659v7.557c0,1.79,0.329,3.112,0.989,3.967
	c0.658,0.854,1.55,1.281,2.673,1.281c1.343,0,2.382-0.327,3.119-0.982c0.736-0.654,1.214-1.52,1.435-2.594v-9.229h0.671v7.775h0.024
	c0,0.106-0.004,0.208-0.012,0.306c-0.009,0.098-0.013,0.212-0.013,0.342v4.785h-0.55L288.751,566.398z"/>
<path fill="#FFFFFF" d="M294.586,568.718v-12.536h-2.295v-0.672h2.295v-2.173c0-1.245,0.303-2.21,0.909-2.894
	s1.455-1.025,2.545-1.025c0.27,0,0.535,0.017,0.8,0.049c0.265,0.033,0.519,0.086,0.763,0.159l-0.098,0.635
	c-0.26-0.065-0.49-0.111-0.689-0.141c-0.199-0.028-0.453-0.042-0.763-0.042c-0.879,0-1.566,0.288-2.063,0.866
	c-0.496,0.578-0.744,1.375-0.744,2.393v2.173h3.491v0.672h-3.491v12.536H294.586z"/>
<path fill="#FFFFFF" d="M302.228,568.815l-0.854,3.052h-0.623l0.818-3.003v-2.087h0.658V568.815z"/>
<path fill="#FFFFFF" d="M311.506,562.102c0-2.092,0.439-3.754,1.318-4.986c0.879-1.233,2.1-1.85,3.662-1.85
	c1.025,0,1.914,0.23,2.667,0.689c0.753,0.46,1.354,1.089,1.801,1.887v-8.167h0.659v9.899c0,0.017,0,0.029,0,0.037
	s0.004,0.012,0.013,0.012v5.384c-0.009,0.017-0.013,0.028-0.013,0.036c0,0.009,0,0.017,0,0.025v3.649h-0.635l-0.024-2.038
	c-0.439,0.707-1.042,1.268-1.807,1.678c-0.765,0.411-1.66,0.617-2.686,0.617c-1.555,0-2.77-0.595-3.644-1.783
	c-0.875-1.188-1.313-2.799-1.313-4.834V562.102z M312.189,562.357c0,1.823,0.36,3.271,1.08,4.346
	c0.721,1.074,1.78,1.611,3.181,1.611c1.146,0,2.1-0.258,2.855-0.774c0.758-0.517,1.307-1.207,1.648-2.069v-6.25
	c-0.325-0.936-0.841-1.719-1.544-2.35c-0.704-0.631-1.683-0.946-2.937-0.946c-1.399,0-2.464,0.572-3.191,1.715
	c-0.729,1.144-1.093,2.631-1.093,4.462V562.357z"/>
<path fill="#FFFFFF" d="M334.089,566.276c-0.456,0.798-1.136,1.446-2.039,1.947c-0.903,0.5-1.998,0.751-3.283,0.751
	c-1.229,0-2.193-0.336-2.894-1.008c-0.7-0.671-1.05-1.576-1.05-2.716c0-1.106,0.522-2.034,1.568-2.783s2.354-1.123,3.925-1.123
	h3.772v-1.929c0-1.099-0.353-1.955-1.057-2.569s-1.694-0.922-2.973-0.922c-1.195,0-2.158,0.289-2.887,0.866
	c-0.729,0.578-1.092,1.323-1.092,2.234l-0.55-0.024l-0.024-0.062c-0.049-1.025,0.35-1.894,1.196-2.605s1.966-1.068,3.356-1.068
	c1.416,0,2.552,0.358,3.406,1.074s1.281,1.75,1.281,3.101v6.616c0,0.464,0.026,0.916,0.08,1.355
	c0.053,0.439,0.141,0.874,0.262,1.306h-0.732c-0.105-0.578-0.177-1.011-0.213-1.3c-0.037-0.289-0.055-0.601-0.055-0.934V566.276z
	 M328.767,568.327c1.31,0,2.418-0.289,3.326-0.866c0.907-0.578,1.572-1.404,1.996-2.479v-2.967h-3.736
	c-1.367,0-2.521,0.316-3.46,0.946c-0.94,0.631-1.41,1.41-1.41,2.338c0,0.887,0.299,1.613,0.897,2.179
	C326.978,568.045,327.773,568.327,328.767,568.327z"/>
<path fill="#FFFFFF" d="M347.089,565.482c0-0.699-0.3-1.336-0.897-1.91c-0.599-0.573-1.642-1.023-3.132-1.349
	c-1.57-0.334-2.708-0.763-3.411-1.288c-0.704-0.524-1.056-1.304-1.056-2.338c0-0.943,0.398-1.734,1.195-2.374
	c0.798-0.639,1.872-0.958,3.223-0.958c1.457,0,2.604,0.342,3.443,1.025c0.838,0.684,1.236,1.574,1.195,2.674l-0.023,0.072h-0.563
	c0-0.862-0.364-1.597-1.092-2.203c-0.729-0.605-1.715-0.909-2.961-0.909c-1.236,0-2.172,0.267-2.807,0.8s-0.953,1.149-0.953,1.85
	c0,0.691,0.27,1.281,0.807,1.77s1.603,0.916,3.197,1.281c1.474,0.342,2.59,0.809,3.352,1.398c0.761,0.59,1.141,1.414,1.141,2.472
	c0,1.033-0.423,1.872-1.27,2.515c-0.846,0.643-1.969,0.965-3.369,0.965c-1.537,0-2.744-0.344-3.619-1.032
	c-0.875-0.688-1.283-1.523-1.227-2.509l0.024-0.072h0.537c0.065,1.041,0.513,1.794,1.343,2.258s1.811,0.695,2.941,0.695
	c1.221,0,2.189-0.284,2.906-0.854C346.73,566.891,347.089,566.231,347.089,565.482z"/>
<path fill="#FFFFFF" d="M359.528,565.482c0-0.699-0.3-1.336-0.897-1.91c-0.599-0.573-1.642-1.023-3.132-1.349
	c-1.57-0.334-2.708-0.763-3.411-1.288c-0.704-0.524-1.056-1.304-1.056-2.338c0-0.943,0.398-1.734,1.195-2.374
	c0.798-0.639,1.872-0.958,3.223-0.958c1.457,0,2.604,0.342,3.443,1.025c0.838,0.684,1.236,1.574,1.195,2.674l-0.023,0.072h-0.563
	c0-0.862-0.364-1.597-1.092-2.203c-0.729-0.605-1.715-0.909-2.961-0.909c-1.236,0-2.172,0.267-2.807,0.8s-0.953,1.149-0.953,1.85
	c0,0.691,0.27,1.281,0.807,1.77s1.603,0.916,3.197,1.281c1.474,0.342,2.59,0.809,3.352,1.398c0.761,0.59,1.141,1.414,1.141,2.472
	c0,1.033-0.423,1.872-1.27,2.515c-0.846,0.643-1.969,0.965-3.369,0.965c-1.537,0-2.744-0.344-3.619-1.032
	c-0.875-0.688-1.283-1.523-1.227-2.509l0.024-0.072h0.537c0.065,1.041,0.513,1.794,1.343,2.258s1.811,0.695,2.941,0.695
	c1.221,0,2.189-0.284,2.906-0.854C359.17,566.891,359.528,566.231,359.528,565.482z"/>
<path fill="#FFFFFF" d="M378.144,566.276c-0.456,0.798-1.136,1.446-2.039,1.947c-0.903,0.5-1.998,0.751-3.283,0.751
	c-1.229,0-2.193-0.336-2.894-1.008c-0.7-0.671-1.05-1.576-1.05-2.716c0-1.106,0.522-2.034,1.568-2.783s2.354-1.123,3.925-1.123
	h3.772v-1.929c0-1.099-0.353-1.955-1.057-2.569s-1.694-0.922-2.973-0.922c-1.195,0-2.158,0.289-2.887,0.866
	c-0.729,0.578-1.092,1.323-1.092,2.234l-0.55-0.024l-0.024-0.062c-0.049-1.025,0.35-1.894,1.196-2.605s1.966-1.068,3.356-1.068
	c1.416,0,2.552,0.358,3.406,1.074s1.281,1.75,1.281,3.101v6.616c0,0.464,0.026,0.916,0.08,1.355
	c0.053,0.439,0.141,0.874,0.262,1.306h-0.732c-0.105-0.578-0.177-1.011-0.213-1.3c-0.037-0.289-0.055-0.601-0.055-0.934V566.276z
	 M372.821,568.327c1.31,0,2.418-0.289,3.326-0.866c0.907-0.578,1.572-1.404,1.996-2.479v-2.967h-3.736
	c-1.367,0-2.521,0.316-3.46,0.946c-0.94,0.631-1.41,1.41-1.41,2.338c0,0.887,0.299,1.613,0.897,2.179
	C371.032,568.045,371.828,568.327,372.821,568.327z"/>
<path fill="#FFFFFF" d="M391.901,566.398c-0.416,0.813-1.006,1.446-1.771,1.898c-0.765,0.451-1.692,0.678-2.783,0.678
	c-1.359,0-2.423-0.482-3.192-1.447c-0.769-0.964-1.153-2.459-1.153-4.486v-7.531h0.659v7.557c0,1.79,0.33,3.112,0.988,3.967
	c0.66,0.854,1.551,1.281,2.674,1.281c1.343,0,2.382-0.327,3.119-0.982c0.736-0.654,1.215-1.52,1.434-2.594v-9.229h0.672v7.775h0.024
	c0,0.106-0.004,0.208-0.013,0.306c-0.008,0.098-0.012,0.212-0.012,0.342v4.785h-0.549L391.901,566.398z"/>
<path fill="#FFFFFF" d="M397.736,568.718v-12.536h-2.295v-0.672h2.295v-2.173c0-1.245,0.303-2.21,0.909-2.894
	s1.455-1.025,2.545-1.025c0.27,0,0.535,0.017,0.8,0.049c0.265,0.033,0.519,0.086,0.763,0.159l-0.098,0.635
	c-0.26-0.065-0.49-0.111-0.689-0.141c-0.199-0.028-0.453-0.042-0.763-0.042c-0.879,0-1.566,0.288-2.063,0.866
	c-0.496,0.578-0.744,1.375-0.744,2.393v2.173h3.491v0.672h-3.491v12.536H397.736z"/>
<path fill="#FFFFFF" d="M412.079,568.718h-0.659v-17.773h0.659V568.718z"/>
<path fill="#FFFFFF" d="M417.768,558.256c0.415-0.943,1.018-1.678,1.807-2.203c0.789-0.524,1.75-0.787,2.881-0.787
	c1.375,0,2.419,0.436,3.131,1.307c0.712,0.87,1.068,2.241,1.068,4.113v8.032h-0.671v-8.057c0-1.733-0.32-2.956-0.959-3.668
	s-1.491-1.068-2.557-1.068c-1.4,0-2.48,0.411-3.241,1.233c-0.762,0.821-1.247,1.875-1.459,3.161v8.398h-0.659v-6.763h-0.024
	c0-0.171,0-0.313,0-0.428c0-0.113,0.008-0.228,0.024-0.342v-11.511h0.659V558.256z"/>
<path fill="#FFFFFF" d="M436.614,555.986l-0.854-0.074c-1.181,0-2.139,0.381-2.875,1.142c-0.737,0.762-1.215,1.765-1.435,3.009
	v8.655h-0.659V555.51h0.537l0.122,2.295v0.451c0.366-0.943,0.911-1.678,1.636-2.203c0.725-0.524,1.615-0.787,2.674-0.787
	c0.187,0,0.359,0.015,0.519,0.043c0.158,0.028,0.295,0.059,0.409,0.092L436.614,555.986z"/>
<path fill="#FFFFFF" d="M443.55,568.975c-1.555,0-2.867-0.603-3.938-1.807c-1.07-1.205-1.605-2.723-1.605-4.554v-0.781
	c0-1.912,0.531-3.485,1.594-4.718c1.062-1.233,2.398-1.85,4.01-1.85c1.465,0,2.633,0.482,3.504,1.446
	c0.87,0.965,1.306,2.281,1.306,3.949v1.013h-9.753v0.159v0.781c0,1.611,0.455,2.965,1.367,4.059
	c0.911,1.095,2.083,1.642,3.516,1.642c0.789,0,1.548-0.146,2.276-0.439c0.728-0.293,1.32-0.684,1.776-1.172l0.354,0.514
	c-0.464,0.512-1.063,0.934-1.795,1.263C445.429,568.81,444.559,568.975,443.55,568.975z M443.61,555.925
	c-1.367,0-2.488,0.475-3.363,1.422c-0.875,0.948-1.369,2.146-1.482,3.595l0.036,0.074h8.96v-0.403c0-1.359-0.37-2.479-1.111-3.363
	C445.909,556.366,444.896,555.925,443.61,555.925z"/>
<path fill="#FFFFFF" d="M452.069,555.51l0.086,2.661c0.406-0.92,0.98-1.634,1.721-2.143c0.74-0.508,1.644-0.763,2.71-0.763
	c1.123,0,2.038,0.283,2.747,0.849c0.707,0.565,1.2,1.442,1.477,2.63c0.366-1.098,0.941-1.954,1.728-2.569
	c0.785-0.614,1.764-0.921,2.936-0.921c1.457,0,2.563,0.476,3.32,1.428s1.136,2.449,1.136,4.492v7.531h-0.672v-7.556
	c0-1.912-0.342-3.264-1.025-4.053s-1.595-1.185-2.734-1.185c-1.359,0-2.395,0.399-3.106,1.197c-0.713,0.797-1.17,1.83-1.374,3.1
	c0.009,0.163,0.017,0.328,0.025,0.495c0.008,0.167,0.012,0.335,0.012,0.507v7.507h-0.672v-6.763h-0.036
	c0-0.154,0.002-0.31,0.006-0.464s0.015-0.306,0.03-0.452c-0.023-1.871-0.374-3.191-1.049-3.961
	c-0.676-0.769-1.583-1.153-2.723-1.153c-1.343,0-2.366,0.389-3.07,1.166s-1.161,1.784-1.373,3.021v8.606h-0.672v-6.763h-0.023
	c0-0.114,0.001-0.228,0.006-0.342c0.004-0.114,0.01-0.256,0.018-0.428v-5.676H452.069z"/>
<path fill="#FFFFFF" d="M87.317,594.531c0-1.018-0.417-1.838-1.251-2.46c-0.834-0.623-2.257-1.264-4.267-1.923
	c-2.002-0.61-3.477-1.258-4.425-1.941c-0.948-0.684-1.422-1.696-1.422-3.039c0-1.335,0.555-2.415,1.667-3.241
	c1.11-0.825,2.521-1.239,4.229-1.239c1.774,0,3.2,0.456,4.278,1.367c1.079,0.912,1.601,2.186,1.569,3.821l-0.024,0.073H87.11
	c0-1.326-0.488-2.425-1.465-3.296s-2.242-1.306-3.796-1.306c-1.604,0-2.877,0.376-3.821,1.129c-0.944,0.753-1.416,1.642-1.416,2.667
	s0.38,1.857,1.141,2.496c0.761,0.64,2.179,1.264,4.254,1.874c2.018,0.635,3.52,1.294,4.504,1.978
	c0.984,0.684,1.477,1.688,1.477,3.015c0,1.352-0.582,2.434-1.746,3.248c-1.164,0.813-2.6,1.221-4.309,1.221
	c-1.782,0-3.316-0.417-4.602-1.252c-1.286-0.834-1.909-2.146-1.868-3.937l0.024-0.073h0.549c0,1.611,0.594,2.781,1.782,3.51
	c1.188,0.729,2.559,1.092,4.114,1.092c1.554,0,2.84-0.359,3.857-1.08C86.809,596.515,87.317,595.613,87.317,594.531z"/>
<path fill="#FFFFFF" d="M91.871,585.51l0.085,2.661c0.407-0.92,0.98-1.634,1.721-2.143c0.74-0.508,1.644-0.763,2.71-0.763
	c1.123,0,2.039,0.283,2.747,0.849s1.2,1.442,1.477,2.63c0.366-1.098,0.942-1.954,1.727-2.569c0.786-0.614,1.764-0.921,2.936-0.921
	c1.457,0,2.563,0.476,3.32,1.428s1.135,2.449,1.135,4.492v7.531h-0.671v-7.556c0-1.912-0.342-3.264-1.025-4.053
	s-1.595-1.185-2.734-1.185c-1.359,0-2.395,0.399-3.107,1.197c-0.712,0.797-1.17,1.83-1.373,3.1c0.008,0.163,0.016,0.328,0.024,0.495
	c0.008,0.167,0.012,0.335,0.012,0.507v7.507h-0.671v-6.763h-0.037c0-0.154,0.002-0.31,0.006-0.464
	c0.004-0.154,0.014-0.306,0.03-0.452c-0.024-1.871-0.375-3.191-1.05-3.961c-0.676-0.769-1.583-1.153-2.722-1.153
	c-1.343,0-2.366,0.389-3.07,1.166c-0.704,0.777-1.162,1.784-1.374,3.021v8.606h-0.671v-6.763h-0.024
	c0-0.114,0.002-0.228,0.006-0.342c0.004-0.114,0.01-0.256,0.019-0.428v-5.676H91.871z"/>
<path fill="#FFFFFF" d="M122.107,596.276c-0.456,0.798-1.135,1.446-2.039,1.947c-0.903,0.5-1.998,0.751-3.284,0.751
	c-1.229,0-2.193-0.336-2.893-1.008c-0.7-0.671-1.05-1.576-1.05-2.716c0-1.106,0.523-2.034,1.569-2.783
	c1.045-0.749,2.354-1.123,3.924-1.123h3.772v-1.929c0-1.099-0.352-1.955-1.056-2.569c-0.704-0.614-1.695-0.922-2.973-0.922
	c-1.196,0-2.159,0.289-2.887,0.866c-0.729,0.578-1.093,1.323-1.093,2.234l-0.549-0.024l-0.024-0.062
	c-0.049-1.025,0.35-1.894,1.196-2.605c0.846-0.712,1.965-1.068,3.357-1.068c1.416,0,2.551,0.358,3.406,1.074s1.282,1.75,1.282,3.101
	v6.616c0,0.464,0.026,0.916,0.079,1.355c0.053,0.439,0.141,0.874,0.263,1.306h-0.732c-0.106-0.578-0.177-1.011-0.214-1.3
	c-0.036-0.289-0.055-0.601-0.055-0.934V596.276z M116.785,598.327c1.31,0,2.419-0.289,3.326-0.866
	c0.908-0.578,1.573-1.404,1.996-2.479v-2.967h-3.735c-1.367,0-2.521,0.316-3.461,0.946c-0.939,0.631-1.41,1.41-1.41,2.338
	c0,0.887,0.299,1.613,0.897,2.179C114.997,598.045,115.792,598.327,116.785,598.327z"/>
<path fill="#FFFFFF" d="M132.837,585.986l-0.854-0.074c-1.18,0-2.138,0.381-2.875,1.142c-0.737,0.762-1.215,1.765-1.435,3.009v8.655
	h-0.659V585.51h0.537l0.122,2.295v0.451c0.366-0.943,0.911-1.678,1.636-2.203c0.724-0.524,1.615-0.787,2.673-0.787
	c0.187,0,0.36,0.015,0.519,0.043c0.158,0.028,0.294,0.059,0.409,0.092L132.837,585.986z"/>
<path fill="#FFFFFF" d="M136.951,581.945v3.564h3.247v0.672h-3.247v9.131c0,1.082,0.183,1.854,0.549,2.313
	c0.366,0.46,0.85,0.689,1.453,0.689c0.22,0,0.415-0.008,0.586-0.023c0.171-0.017,0.407-0.045,0.708-0.086l0.122,0.598
	c-0.204,0.065-0.415,0.11-0.635,0.135s-0.468,0.037-0.745,0.037c-0.887,0-1.561-0.289-2.02-0.867c-0.46-0.578-0.69-1.51-0.69-2.795
	v-9.131h-2.441v-0.672h2.441v-3.564H136.951z"/>
<path fill="#FFFFFF" d="M153.406,592.357c0,2.035-0.439,3.646-1.318,4.834c-0.879,1.188-2.092,1.783-3.638,1.783
	c-1.025,0-1.918-0.204-2.68-0.611c-0.761-0.406-1.361-0.96-1.8-1.66v7.093h-0.659v-8.691c-0.008-0.024-0.014-0.045-0.018-0.062
	c-0.004-0.016-0.006-0.032-0.006-0.049v-5.371c0-0.008,0-0.014,0-0.018s0.008-0.031,0.024-0.08v-4.016h0.513l0.134,2.332
	c0.439-0.798,1.038-1.427,1.794-1.887c0.757-0.459,1.648-0.689,2.673-0.689c1.554,0,2.773,0.616,3.656,1.85
	c0.883,1.232,1.324,2.895,1.324,4.986V592.357z M152.735,592.102c0-1.831-0.368-3.318-1.105-4.462
	c-0.736-1.143-1.8-1.715-3.192-1.715c-1.253,0-2.232,0.313-2.936,0.94c-0.704,0.626-1.214,1.399-1.532,2.318v6.312
	c0.333,0.862,0.879,1.549,1.636,2.057c0.757,0.509,1.709,0.763,2.856,0.763c1.392,0,2.452-0.537,3.18-1.611
	c0.728-1.074,1.092-2.522,1.092-4.346V592.102z"/>
<path fill="#FFFFFF" d="M157.654,588.256c0.415-0.943,1.017-1.678,1.807-2.203c0.789-0.524,1.75-0.787,2.881-0.787
	c1.375,0,2.419,0.436,3.131,1.307c0.712,0.87,1.068,2.241,1.068,4.113v8.032h-0.671v-8.057c0-1.733-0.319-2.956-0.958-3.668
	c-0.639-0.712-1.491-1.068-2.557-1.068c-1.4,0-2.48,0.411-3.241,1.233c-0.761,0.821-1.248,1.875-1.459,3.161v8.398h-0.659v-6.763
	h-0.024c0-0.171,0-0.313,0-0.428c0-0.113,0.008-0.228,0.024-0.342v-11.511h0.659V588.256z"/>
<path fill="#FFFFFF" d="M169.642,591.857c0-1.937,0.535-3.52,1.605-4.748c1.07-1.229,2.459-1.844,4.168-1.844
	c1.717,0,3.111,0.614,4.181,1.844c1.07,1.229,1.605,2.812,1.605,4.748v0.513c0,1.945-0.535,3.532-1.605,4.761
	c-1.07,1.229-2.456,1.844-4.157,1.844c-1.717,0-3.113-0.615-4.187-1.844s-1.611-2.815-1.611-4.761V591.857z M170.301,592.37
	c0,1.66,0.464,3.066,1.392,4.218s2.177,1.727,3.748,1.727c1.546,0,2.783-0.577,3.711-1.732c0.928-1.156,1.392-2.56,1.392-4.212
	v-0.513c0-1.619-0.468-3.013-1.404-4.181c-0.936-1.168-2.177-1.752-3.723-1.752c-1.555,0-2.795,0.584-3.723,1.752
	s-1.392,2.562-1.392,4.181V592.37z"/>
<path fill="#FFFFFF" d="M184.925,585.51l0.085,2.661c0.407-0.92,0.993-1.634,1.758-2.143c0.765-0.508,1.705-0.763,2.82-0.763
	c1.44,0,2.521,0.454,3.241,1.361c0.72,0.907,1.08,2.346,1.08,4.314v7.776h-0.659v-7.8c0-1.832-0.328-3.121-0.982-3.87
	c-0.655-0.749-1.544-1.123-2.667-1.123c-1.384,0-2.441,0.403-3.174,1.208c-0.732,0.807-1.201,1.844-1.404,3.113v8.472h-0.659v-6.763
	h-0.037c0-0.154,0.002-0.312,0.006-0.47c0.004-0.159,0.014-0.319,0.03-0.482v-5.493H184.925z"/>
<path fill="#FFFFFF" d="M202.674,598.975c-1.555,0-2.867-0.603-3.937-1.807c-1.07-1.205-1.605-2.723-1.605-4.554v-0.781
	c0-1.912,0.531-3.485,1.593-4.718c1.063-1.233,2.399-1.85,4.01-1.85c1.465,0,2.632,0.482,3.503,1.446
	c0.871,0.965,1.306,2.281,1.306,3.949v1.013h-9.753v0.159v0.781c0,1.611,0.456,2.965,1.367,4.059
	c0.911,1.095,2.083,1.642,3.516,1.642c0.789,0,1.548-0.146,2.276-0.439c0.729-0.293,1.32-0.684,1.776-1.172l0.354,0.514
	c-0.464,0.512-1.062,0.934-1.794,1.263C204.554,598.81,203.683,598.975,202.674,598.975z M202.735,585.925
	c-1.367,0-2.488,0.475-3.363,1.422c-0.875,0.948-1.37,2.146-1.483,3.595l0.037,0.074h8.96v-0.403c0-1.359-0.371-2.479-1.111-3.363
	C205.034,586.366,204.021,585.925,202.735,585.925z"/>
<path fill="#FFFFFF" d="M217.054,598.718v-17.773h4.675c1.839,0,3.267,0.378,4.285,1.136c1.017,0.756,1.526,1.896,1.526,3.418
	c0,0.992-0.242,1.839-0.726,2.539c-0.484,0.699-1.17,1.167-2.057,1.403l-0.012,0.073c1.05,0.139,1.933,0.621,2.649,1.446
	c0.716,0.826,1.074,1.78,1.074,2.862c0,1.555-0.502,2.76-1.507,3.613c-1.005,0.855-2.334,1.282-3.986,1.282H217.054z
	 M217.713,589.281h4.492c1.538-0.023,2.7-0.354,3.485-0.988c0.785-0.635,1.178-1.583,1.178-2.844c0-1.27-0.434-2.229-1.3-2.875
	c-0.867-0.647-2.147-0.971-3.839-0.971h-4.016V589.281z M217.713,589.941v8.117h5.261c1.497,0,2.677-0.37,3.54-1.111
	c0.862-0.74,1.294-1.773,1.294-3.1c0-1.172-0.436-2.116-1.306-2.832c-0.871-0.717-2.047-1.074-3.528-1.074H217.713z"/>
<path fill="#FFFFFF" d="M232.544,598.718h-0.659v-19.043h0.659V598.718z"/>
<path fill="#FFFFFF" d="M245.728,596.398c-0.414,0.813-1.005,1.446-1.77,1.898c-0.765,0.451-1.692,0.678-2.783,0.678
	c-1.359,0-2.423-0.482-3.192-1.447c-0.769-0.964-1.153-2.459-1.153-4.486v-7.531h0.659v7.557c0,1.79,0.33,3.112,0.989,3.967
	s1.55,1.281,2.673,1.281c1.343,0,2.382-0.327,3.119-0.982c0.736-0.654,1.214-1.52,1.435-2.594v-9.229h0.671v7.775h0.024
	c0,0.106-0.004,0.208-0.012,0.306c-0.009,0.098-0.013,0.212-0.013,0.342v4.785h-0.55L245.728,596.398z"/>
<path fill="#FFFFFF" d="M255.188,598.975c-1.555,0-2.867-0.603-3.938-1.807c-1.07-1.205-1.605-2.723-1.605-4.554v-0.781
	c0-1.912,0.531-3.485,1.594-4.718c1.062-1.233,2.398-1.85,4.01-1.85c1.465,0,2.633,0.482,3.504,1.446
	c0.87,0.965,1.306,2.281,1.306,3.949v1.013h-9.753v0.159v0.781c0,1.611,0.455,2.965,1.367,4.059
	c0.911,1.095,2.083,1.642,3.516,1.642c0.789,0,1.548-0.146,2.276-0.439c0.728-0.293,1.32-0.684,1.776-1.172l0.354,0.514
	c-0.464,0.512-1.063,0.934-1.795,1.263C257.067,598.81,256.197,598.975,255.188,598.975z M255.249,585.925
	c-1.367,0-2.488,0.475-3.363,1.422c-0.875,0.948-1.369,2.146-1.482,3.595l0.036,0.074h8.96v-0.403c0-1.359-0.37-2.479-1.111-3.363
	C257.548,586.366,256.535,585.925,255.249,585.925z"/>
<path fill="#FFFFFF" d="M264.612,581.945v3.564h3.247v0.672h-3.247v9.131c0,1.082,0.184,1.854,0.549,2.313
	c0.367,0.46,0.851,0.689,1.453,0.689c0.22,0,0.415-0.008,0.586-0.023c0.171-0.017,0.407-0.045,0.708-0.086l0.122,0.598
	c-0.203,0.065-0.415,0.11-0.635,0.135s-0.468,0.037-0.744,0.037c-0.888,0-1.562-0.289-2.021-0.867c-0.46-0.578-0.69-1.51-0.69-2.795
	v-9.131h-2.441v-0.672h2.441v-3.564H264.612z"/>
<path fill="#FFFFFF" d="M269.935,591.857c0-1.937,0.534-3.52,1.604-4.748c1.07-1.229,2.46-1.844,4.169-1.844
	c1.717,0,3.11,0.614,4.181,1.844c1.07,1.229,1.605,2.812,1.605,4.748v0.513c0,1.945-0.535,3.532-1.605,4.761
	s-2.455,1.844-4.156,1.844c-1.717,0-3.112-0.615-4.187-1.844s-1.611-2.815-1.611-4.761V591.857z M270.593,592.37
	c0,1.66,0.465,3.066,1.393,4.218s2.177,1.727,3.747,1.727c1.546,0,2.783-0.577,3.711-1.732c0.928-1.156,1.392-2.56,1.392-4.212
	v-0.513c0-1.619-0.468-3.013-1.404-4.181c-0.936-1.168-2.177-1.752-3.723-1.752c-1.555,0-2.795,0.584-3.723,1.752
	s-1.393,2.562-1.393,4.181V592.37z"/>
<path fill="#FFFFFF" d="M283.618,591.857c0-1.937,0.535-3.52,1.605-4.748c1.07-1.229,2.46-1.844,4.169-1.844
	c1.717,0,3.11,0.614,4.181,1.844c1.07,1.229,1.605,2.812,1.605,4.748v0.513c0,1.945-0.535,3.532-1.605,4.761
	s-2.455,1.844-4.156,1.844c-1.717,0-3.113-0.615-4.188-1.844s-1.611-2.815-1.611-4.761V591.857z M284.278,592.37
	c0,1.66,0.463,3.066,1.391,4.218s2.178,1.727,3.748,1.727c1.546,0,2.783-0.577,3.711-1.732c0.928-1.156,1.392-2.56,1.392-4.212
	v-0.513c0-1.619-0.468-3.013-1.403-4.181c-0.937-1.168-2.178-1.752-3.724-1.752c-1.555,0-2.796,0.584-3.724,1.752
	s-1.391,2.562-1.391,4.181V592.37z"/>
<path fill="#FFFFFF" d="M299.708,581.945v3.564h3.247v0.672h-3.247v9.131c0,1.082,0.184,1.854,0.549,2.313
	c0.367,0.46,0.851,0.689,1.453,0.689c0.22,0,0.415-0.008,0.586-0.023c0.171-0.017,0.407-0.045,0.708-0.086l0.122,0.598
	c-0.203,0.065-0.415,0.11-0.635,0.135s-0.468,0.037-0.744,0.037c-0.888,0-1.562-0.289-2.021-0.867c-0.46-0.578-0.69-1.51-0.69-2.795
	v-9.131h-2.441v-0.672h2.441v-3.564H299.708z"/>
<path fill="#FFFFFF" d="M306.727,588.256c0.415-0.943,1.018-1.678,1.807-2.203c0.789-0.524,1.75-0.787,2.881-0.787
	c1.375,0,2.419,0.436,3.131,1.307c0.712,0.87,1.068,2.241,1.068,4.113v8.032h-0.671v-8.057c0-1.733-0.32-2.956-0.959-3.668
	s-1.491-1.068-2.557-1.068c-1.4,0-2.48,0.411-3.241,1.233c-0.762,0.821-1.247,1.875-1.459,3.161v8.398h-0.659v-6.763h-0.024
	c0-0.171,0-0.313,0-0.428c0-0.113,0.008-0.228,0.024-0.342v-11.511h0.659V588.256z"/>
<path fill="#FFFFFF" d="M334.022,596.276c-0.456,0.798-1.136,1.446-2.039,1.947c-0.903,0.5-1.998,0.751-3.283,0.751
	c-1.229,0-2.193-0.336-2.894-1.008c-0.7-0.671-1.05-1.576-1.05-2.716c0-1.106,0.522-2.034,1.568-2.783s2.354-1.123,3.925-1.123
	h3.772v-1.929c0-1.099-0.353-1.955-1.057-2.569s-1.694-0.922-2.973-0.922c-1.195,0-2.158,0.289-2.887,0.866
	c-0.729,0.578-1.092,1.323-1.092,2.234l-0.55-0.024l-0.024-0.062c-0.049-1.025,0.35-1.894,1.196-2.605s1.966-1.068,3.356-1.068
	c1.416,0,2.552,0.358,3.406,1.074s1.281,1.75,1.281,3.101v6.616c0,0.464,0.026,0.916,0.08,1.355
	c0.053,0.439,0.141,0.874,0.262,1.306h-0.732c-0.105-0.578-0.177-1.011-0.213-1.3c-0.037-0.289-0.055-0.601-0.055-0.934V596.276z
	 M328.7,598.327c1.31,0,2.418-0.289,3.326-0.866c0.907-0.578,1.572-1.404,1.996-2.479v-2.967h-3.736
	c-1.367,0-2.521,0.316-3.46,0.946c-0.94,0.631-1.41,1.41-1.41,2.338c0,0.887,0.299,1.613,0.897,2.179
	C326.911,598.045,327.707,598.327,328.7,598.327z"/>
<path fill="#FFFFFF" d="M341.395,591.967h-1.807v6.751h-0.659v-19.043h0.659v11.634h1.55l6.006-5.799h0.77l0.024,0.073l-6.055,5.944
	l6.519,7.129l-0.024,0.062h-0.769L341.395,591.967z"/>
<path fill="#FFFFFF" d="M352.124,581.945v3.564h3.247v0.672h-3.247v9.131c0,1.082,0.184,1.854,0.549,2.313
	c0.367,0.46,0.851,0.689,1.453,0.689c0.22,0,0.415-0.008,0.586-0.023c0.171-0.017,0.407-0.045,0.708-0.086l0.122,0.598
	c-0.203,0.065-0.415,0.11-0.635,0.135s-0.468,0.037-0.744,0.037c-0.888,0-1.562-0.289-2.021-0.867c-0.46-0.578-0.69-1.51-0.69-2.795
	v-9.131h-2.441v-0.672h2.441v-3.564H352.124z"/>
<path fill="#FFFFFF" d="M359.302,581.359h-0.658v-1.685h0.658V581.359z M359.302,598.718h-0.658V585.51h0.658V598.718z"/>
<path fill="#FFFFFF" d="M366.847,595.922l0.622,1.783h0.073l0.635-1.783l4.064-10.412h0.709l-5.14,13.195l0.013,0.013h-0.635
	l-5.127-13.208h0.707L366.847,595.922z"/>
<path fill="#FFFFFF" d="M382.374,581.359h-0.66v-1.685h0.66V581.359z M382.374,598.718h-0.66V585.51h0.66V598.718z"/>
<path fill="#FFFFFF" d="M394.8,595.482c0-0.699-0.299-1.336-0.896-1.91c-0.599-0.573-1.643-1.023-3.131-1.349
	c-1.571-0.334-2.709-0.763-3.412-1.288c-0.704-0.524-1.057-1.304-1.057-2.338c0-0.943,0.399-1.734,1.197-2.374
	c0.797-0.639,1.871-0.958,3.223-0.958c1.456,0,2.604,0.342,3.441,1.025c0.839,0.684,1.237,1.574,1.197,2.674l-0.025,0.072h-0.561
	c0-0.862-0.365-1.597-1.093-2.203c-0.729-0.605-1.716-0.909-2.96-0.909c-1.237,0-2.174,0.267-2.809,0.8s-0.951,1.149-0.951,1.85
	c0,0.691,0.268,1.281,0.805,1.77s1.604,0.916,3.199,1.281c1.473,0.342,2.589,0.809,3.351,1.398c0.761,0.59,1.142,1.414,1.142,2.472
	c0,1.033-0.424,1.872-1.27,2.515c-0.847,0.643-1.97,0.965-3.369,0.965c-1.539,0-2.745-0.344-3.62-1.032
	c-0.875-0.688-1.283-1.523-1.227-2.509l0.024-0.072h0.537c0.065,1.041,0.513,1.794,1.343,2.258s1.811,0.695,2.942,0.695
	c1.221,0,2.188-0.284,2.904-0.854C394.442,596.891,394.8,596.231,394.8,595.482z"/>
<path fill="#FFFFFF" d="M400.513,581.945v3.564h3.247v0.672h-3.247v9.131c0,1.082,0.184,1.854,0.549,2.313
	c0.367,0.46,0.851,0.689,1.453,0.689c0.22,0,0.415-0.008,0.586-0.023c0.171-0.017,0.407-0.045,0.708-0.086l0.122,0.598
	c-0.203,0.065-0.415,0.11-0.635,0.135s-0.468,0.037-0.744,0.037c-0.888,0-1.562-0.289-2.021-0.867c-0.46-0.578-0.69-1.51-0.69-2.795
	v-9.131h-2.441v-0.672h2.441v-3.564H400.513z"/>
<path fill="#FFFFFF" d="M407.935,598.718h-1.049v-1.587h1.049V598.718z"/>
<path fill="#FFFFFF" d="M108.294,34.309h0.138l13.953-31.44h1.4v33.414h-1.239V5.921l-0.138-0.023l-13.54,30.385h-0.987
	L94.042,5.232l-0.138,0.023v31.027h-1.239V2.869h1.721L108.294,34.309z"/>
<path fill="#FFFFFF" d="M148.96,31.922c-0.78,1.53-1.89,2.719-3.328,3.569c-1.438,0.849-3.183,1.273-5.232,1.273
	c-2.555,0-4.556-0.906-6.001-2.72c-1.446-1.813-2.169-4.624-2.169-8.434v-14.16h1.239v14.206c0,3.366,0.62,5.852,1.859,7.458
	s2.915,2.41,5.026,2.41c2.524,0,4.479-0.616,5.863-1.848c1.385-1.231,2.284-2.857,2.697-4.876v-17.35h1.262V26.07h0.046
	c0,0.199-0.008,0.39-0.023,0.574c-0.016,0.184-0.023,0.398-0.023,0.643v8.996h-1.033L148.96,31.922z"/>
<path fill="#FFFFFF" d="M173.263,30.201c0-1.315-0.563-2.513-1.687-3.592c-1.125-1.078-3.087-1.923-5.887-2.536
	c-2.953-0.627-5.091-1.434-6.414-2.421c-1.324-0.986-1.985-2.451-1.985-4.395c0-1.774,0.75-3.262,2.249-4.464
	c1.499-1.201,3.519-1.801,6.059-1.801c2.738,0,4.896,0.643,6.472,1.928c1.576,1.285,2.325,2.96,2.249,5.026l-0.046,0.138h-1.056
	c0-1.622-0.685-3.002-2.054-4.143c-1.37-1.139-3.225-1.709-5.565-1.709c-2.326,0-4.085,0.501-5.278,1.503s-1.79,2.161-1.79,3.477
	c0,1.301,0.505,2.41,1.515,3.328s3.014,1.721,6.013,2.41c2.769,0.643,4.869,1.519,6.3,2.628c1.43,1.109,2.146,2.658,2.146,4.647
	c0,1.943-0.796,3.519-2.387,4.728c-1.591,1.209-3.703,1.813-6.334,1.813c-2.892,0-5.16-0.646-6.805-1.939
	c-1.645-1.292-2.414-2.864-2.306-4.716l0.046-0.138h1.01c0.122,1.958,0.964,3.374,2.524,4.246s3.404,1.308,5.531,1.308
	c2.295,0,4.115-0.535,5.462-1.606C172.59,32.848,173.263,31.609,173.263,30.201z"/>
<path fill="#FFFFFF" d="M190.131,36.765c-2.922,0-5.39-1.132-7.401-3.396c-2.012-2.264-3.018-5.118-3.018-8.56v-1.469
	c0-3.595,0.999-6.552,2.995-8.87c1.997-2.318,4.51-3.477,7.539-3.477c2.754,0,4.949,0.907,6.586,2.719
	c1.637,1.813,2.456,4.288,2.456,7.424v1.905h-18.336v0.298v1.469c0,3.029,0.856,5.573,2.57,7.63
	c1.713,2.058,3.917,3.087,6.609,3.087c1.484,0,2.911-0.275,4.28-0.826s2.482-1.285,3.339-2.203l0.666,0.964
	c-0.872,0.964-1.997,1.756-3.374,2.375C193.665,36.455,192.028,36.765,190.131,36.765z M190.246,12.232
	c-2.57,0-4.678,0.892-6.322,2.673c-1.645,1.783-2.575,4.036-2.789,6.759l0.069,0.138h16.845v-0.757c0-2.555-0.696-4.662-2.088-6.323
	C194.567,13.062,192.663,12.232,190.246,12.232z"/>
<path fill="#FFFFFF" d="M221.916,31.922c-0.78,1.53-1.89,2.719-3.328,3.569c-1.438,0.849-3.183,1.273-5.232,1.273
	c-2.555,0-4.555-0.906-6.001-2.72c-1.445-1.813-2.168-4.624-2.168-8.434v-14.16h1.239v14.206c0,3.366,0.62,5.852,1.859,7.458
	s2.915,2.41,5.026,2.41c2.524,0,4.479-0.616,5.864-1.848c1.384-1.231,2.283-2.857,2.696-4.876v-17.35h1.262V26.07h0.046
	c0,0.199-0.008,0.39-0.023,0.574c-0.016,0.184-0.023,0.398-0.023,0.643v8.996h-1.033L221.916,31.922z"/>
<path fill="#FFFFFF" d="M231.875,11.452l0.161,5.003c0.765-1.729,1.843-3.071,3.236-4.028c1.392-0.956,3.09-1.434,5.094-1.434
	c2.111,0,3.833,0.532,5.164,1.595s2.256,2.712,2.777,4.945c0.688-2.065,1.77-3.675,3.246-4.831c1.477-1.155,3.316-1.732,5.52-1.732
	c2.738,0,4.82,0.895,6.242,2.685c1.424,1.79,2.135,4.605,2.135,8.445v14.16h-1.262V22.054c0-3.595-0.643-6.135-1.928-7.619
	c-1.285-1.484-3-2.226-5.141-2.226c-2.556,0-4.502,0.75-5.842,2.249c-1.338,1.5-2.199,3.442-2.581,5.829
	c0.015,0.306,0.03,0.616,0.046,0.93s0.023,0.631,0.023,0.952v14.114h-1.263V23.569h-0.069c0-0.291,0.004-0.581,0.012-0.872
	c0.008-0.291,0.027-0.574,0.058-0.849c-0.046-3.519-0.704-6.001-1.974-7.447c-1.27-1.445-2.977-2.168-5.117-2.168
	c-2.525,0-4.449,0.731-5.772,2.192c-1.324,1.461-2.185,3.354-2.582,5.68v16.179h-1.262V23.569h-0.046
	c0-0.214,0.003-0.428,0.011-0.643c0.008-0.214,0.019-0.482,0.035-0.803V11.452H231.875z"/>
<path fill="#FFFFFF" d="M288.354,30.201c0-1.315-0.562-2.513-1.687-3.592c-1.125-1.078-3.087-1.923-5.887-2.536
	c-2.953-0.627-5.092-1.434-6.414-2.421c-1.324-0.986-1.985-2.451-1.985-4.395c0-1.774,0.749-3.262,2.249-4.464
	c1.499-1.201,3.519-1.801,6.059-1.801c2.738,0,4.896,0.643,6.472,1.928c1.575,1.285,2.325,2.96,2.249,5.026l-0.046,0.138h-1.056
	c0-1.622-0.686-3.002-2.055-4.143c-1.369-1.139-3.224-1.709-5.564-1.709c-2.326,0-4.085,0.501-5.278,1.503s-1.79,2.161-1.79,3.477
	c0,1.301,0.505,2.41,1.515,3.328s3.014,1.721,6.013,2.41c2.77,0.643,4.869,1.519,6.299,2.628c1.432,1.109,2.146,2.658,2.146,4.647
	c0,1.943-0.796,3.519-2.387,4.728c-1.592,1.209-3.703,1.813-6.334,1.813c-2.892,0-5.16-0.646-6.805-1.939
	c-1.645-1.292-2.414-2.864-2.307-4.716l0.047-0.138h1.01c0.121,1.958,0.963,3.374,2.523,4.246s3.404,1.308,5.531,1.308
	c2.295,0,4.115-0.535,5.462-1.606C287.681,32.848,288.354,31.609,288.354,30.201z"/>
<path fill="#FFFFFF" d="M319.473,26.047l0.046,0.138c0.061,3.427-0.975,6.047-3.109,7.86c-2.135,1.813-4.945,2.72-8.434,2.72
	c-3.657,0-6.587-1.35-8.79-4.051c-2.203-2.7-3.305-6.246-3.305-10.637v-5.003c0-4.375,1.102-7.917,3.305-10.625
	s5.133-4.062,8.79-4.062c3.488,0,6.299,0.911,8.434,2.731c2.135,1.821,3.17,4.422,3.109,7.803l-0.046,0.138h-1.056
	c0-3.014-0.938-5.339-2.811-6.977c-1.875-1.637-4.418-2.456-7.631-2.456c-3.26,0-5.883,1.232-7.872,3.695
	c-1.989,2.463-2.983,5.699-2.983,9.708v5.049c0,4.055,0.994,7.31,2.983,9.765c1.989,2.456,4.612,3.684,7.872,3.684
	c3.213,0,5.756-0.788,7.631-2.364c1.873-1.576,2.811-3.947,2.811-7.114H319.473z"/>
<path fill="#FFFFFF" d="M342.56,31.693c-0.857,1.5-2.135,2.719-3.832,3.661c-1.699,0.94-3.757,1.411-6.174,1.411
	c-2.311,0-4.123-0.631-5.439-1.894c-1.315-1.262-1.973-2.964-1.973-5.106c0-2.081,0.982-3.825,2.949-5.232
	c1.965-1.407,4.424-2.111,7.377-2.111h7.092v-3.626c0-2.065-0.662-3.675-1.984-4.831c-1.324-1.155-3.188-1.733-5.589-1.733
	c-2.249,0-4.059,0.543-5.427,1.629c-1.37,1.086-2.055,2.486-2.055,4.2l-1.033-0.046l-0.045-0.115
	c-0.092-1.928,0.657-3.561,2.248-4.899c1.592-1.339,3.695-2.008,6.312-2.008c2.662,0,4.796,0.673,6.403,2.02
	c1.605,1.347,2.409,3.29,2.409,5.829V31.28c0,0.872,0.05,1.721,0.149,2.547s0.264,1.645,0.493,2.456h-1.377
	c-0.199-1.086-0.333-1.901-0.401-2.444s-0.104-1.128-0.104-1.756V31.693z M332.554,35.548c2.463,0,4.547-0.543,6.254-1.629
	c1.705-1.086,2.956-2.639,3.752-4.659v-5.577h-7.022c-2.57,0-4.739,0.593-6.507,1.778c-1.766,1.186-2.65,2.651-2.65,4.395
	c0,1.668,0.563,3.033,1.688,4.096C329.192,35.017,330.687,35.548,332.554,35.548z"/>
<path fill="#FFFFFF" d="M353.667,36.283V12.714h-4.314v-1.262h4.314V7.367c0-2.341,0.57-4.154,1.709-5.439
	C356.517,0.643,358.111,0,360.161,0c0.506,0,1.006,0.031,1.504,0.092c0.496,0.062,0.975,0.161,1.434,0.298l-0.184,1.193
	c-0.489-0.122-0.922-0.21-1.297-0.264c-0.375-0.053-0.853-0.08-1.434-0.08c-1.652,0-2.945,0.543-3.879,1.629
	c-0.934,1.086-1.399,2.586-1.399,4.498v4.085h6.563v1.262h-6.563v23.569H353.667z"/>
<path fill="#FFFFFF" d="M374.734,36.765c-2.923,0-5.39-1.132-7.401-3.396c-2.012-2.264-3.018-5.118-3.018-8.56v-1.469
	c0-3.595,0.998-6.552,2.994-8.87c1.998-2.318,4.51-3.477,7.539-3.477c2.754,0,4.949,0.907,6.587,2.719
	c1.637,1.813,2.456,4.288,2.456,7.424v1.905h-18.337v0.298v1.469c0,3.029,0.856,5.573,2.57,7.63
	c1.714,2.058,3.917,3.087,6.609,3.087c1.483,0,2.911-0.275,4.28-0.826s2.482-1.285,3.339-2.203l0.665,0.964
	c-0.871,0.964-1.996,1.756-3.373,2.375C378.269,36.455,376.632,36.765,374.734,36.765z M374.849,12.232
	c-2.57,0-4.678,0.892-6.322,2.673c-1.645,1.783-2.574,4.036-2.788,6.759l0.069,0.138h16.844v-0.757c0-2.555-0.695-4.662-2.088-6.323
	C379.171,13.062,377.267,12.232,374.849,12.232z M378.843,0.918h1.789l0.047,0.115l-5.302,5.99h-1.538l-0.045-0.115L378.843,0.918z"
	/>
<path fill="#FFFFFF" d="M124.306,329.838c0,0-45-61-21-115l-5.5-1.5l-8.5,21c0,0-1.25,24.5-1.25,26s3.5,27.5,4.25,28.5
	s12.5,28,12.5,28l16,18.5L124.306,329.838z"/>
<path fill="#75B728" d="M223.843,296.618c0.089-13.117,1.221-22.21,3.393-27.277c2.171-5.066,7.871-11.76,17.099-20.085
	c8.957-10.585,15.335-18.728,19.135-24.428s5.7-12.574,5.7-20.627c0-9.589-2.558-16.964-7.668-22.121
	c-5.112-5.157-12.417-7.735-21.917-7.735c-8.234,0-15.246,2.239-21.035,6.717c-5.791,4.479-8.685,11.061-8.685,19.746h-25.513
	l-0.407-0.814c-0.271-14.565,4.862-26.236,15.403-35.013c10.539-8.774,23.953-13.164,40.238-13.164
	c17.823,0,31.665,4.546,41.527,13.639c9.86,9.093,14.792,21.781,14.792,38.066c0,11.671-3.188,22.347-9.567,32.027
	c-6.378,9.682-14.815,19.588-25.31,29.72c-4.886,4.885-7.851,9.275-8.89,13.164c-1.041,3.891-1.561,9.953-1.561,18.185H223.843z
	 M251.528,352.259h-27.957v-28.228h27.957V352.259z"/>
</svg>
