<?xml version="1.0" encoding="utf-8"?>
<!-- Generator: Adobe Illustrator 13.0.0, SVG Export Plug-In  -->
<!DOCTYPE svg PUBLIC "-//W3C//DTD SVG 1.1//EN" "http://www.w3.org/Graphics/SVG/1.1/DTD/svg11.dtd" [
	<!ENTITY ns_flows "http://ns.adobe.com/Flows/1.0/">
]>
<svg version="1.1"
	 xmlns="http://www.w3.org/2000/svg" xmlns:xlink="http://www.w3.org/1999/xlink" xmlns:a="http://ns.adobe.com/AdobeSVGViewerExtensions/3.0/"
	 x="0px" y="0px" width="500px" height="700px" viewBox="-43.423 -82.912 500 700" enable-background="new -43.423 -82.912 500 700"
	 xml:space="preserve">
<defs>
</defs>
<g>
	<g>
		<path fill="#FFFFFF" d="M203.505,96.813c-84.395,0-152.81,68.415-152.81,152.809s68.415,152.809,152.81,152.809
			c84.394,0,152.809-68.415,152.809-152.809S287.898,96.813,203.505,96.813z M202.896,387.476
			c-75.706,0-137.078-61.372-137.078-137.079s61.373-137.079,137.078-137.079c75.707,0,137.079,61.372,137.079,137.079
			S278.604,387.476,202.896,387.476z"/>
	</g>
</g>
<path fill="#FFFFFF" d="M6.21,457.983l0.365,2.791l0.088,0.015l0.497-2.806l3.77-13.896h2.82l3.799,13.896l0.497,2.85h0.088
	l0.394-2.85l3.04-13.896h3.127l-5.144,21.274h-2.572l-4.252-14.758l-0.321-1.914h-0.087l-0.307,1.914L7.7,465.362H5.129L0,444.088
	h3.112L6.21,457.983z"/>
<path fill="#FFFFFF" d="M30.421,445.505h-2.878v-2.937h2.878V445.505z M30.421,465.362h-2.878v-15.81h2.878V465.362z"/>
<path fill="#FFFFFF" d="M41.395,465.669c-2.27,0-4.04-0.726-5.311-2.177c-1.271-1.451-1.907-3.36-1.907-5.728v-0.644
	c0-2.27,0.655-4.146,1.965-5.633c1.31-1.485,2.91-2.228,4.8-2.228c2.113,0,3.699,0.657,4.756,1.972
	c1.057,1.315,1.585,3.064,1.585,5.246v1.52H37.172l-0.044,0.073c0,1.588,0.351,2.876,1.052,3.864
	c0.701,0.989,1.773,1.483,3.214,1.483c0.974,0,1.829-0.139,2.564-0.416c0.735-0.278,1.366-0.66,1.892-1.147l1.125,1.87
	c-0.565,0.546-1.311,1.006-2.236,1.381S42.7,465.669,41.395,465.669z M40.942,451.525c-1.003,0-1.834,0.387-2.491,1.161
	c-0.658,0.774-1.06,1.766-1.206,2.974l0.029,0.073h7.13v-0.234c0-1.148-0.283-2.099-0.848-2.849S42.12,451.525,40.942,451.525z"/>
<path fill="#FFFFFF" d="M53.084,449.553l0.205,2.353c0.526-0.838,1.186-1.488,1.98-1.951c0.793-0.462,1.697-0.693,2.71-0.693
	c1.705,0,3.024,0.499,3.959,1.497c0.935,0.999,1.403,2.54,1.403,4.625v9.979h-2.878v-9.921c0-1.394-0.275-2.382-0.826-2.967
	c-0.55-0.584-1.391-0.876-2.521-0.876c-0.886,0-1.639,0.178-2.257,0.533c-0.619,0.355-1.108,0.854-1.469,1.497v11.733h-2.878v-15.81
	H53.084z"/>
<path fill="#FFFFFF" d="M74.066,465.669c-2.27,0-4.04-0.726-5.311-2.177c-1.271-1.451-1.907-3.36-1.907-5.728v-0.644
	c0-2.27,0.655-4.146,1.965-5.633c1.31-1.485,2.91-2.228,4.8-2.228c2.113,0,3.699,0.657,4.756,1.972
	c1.057,1.315,1.585,3.064,1.585,5.246v1.52H69.843l-0.044,0.073c0,1.588,0.351,2.876,1.052,3.864
	c0.701,0.989,1.773,1.483,3.214,1.483c0.974,0,1.829-0.139,2.564-0.416c0.735-0.278,1.366-0.66,1.892-1.147l1.125,1.87
	c-0.565,0.546-1.311,1.006-2.236,1.381S75.371,465.669,74.066,465.669z M73.613,451.525c-1.003,0-1.834,0.387-2.491,1.161
	c-0.658,0.774-1.06,1.766-1.206,2.974l0.029,0.073h7.13v-0.234c0-1.148-0.283-2.099-0.848-2.849S74.792,451.525,73.613,451.525z"/>
<path fill="#FFFFFF" d="M90.665,452.095l-1.476-0.088c-0.76,0-1.4,0.181-1.921,0.541s-0.923,0.867-1.206,1.52v11.295h-2.878v-15.81
	h2.572l0.277,2.309c0.448-0.818,1.001-1.456,1.659-1.914s1.415-0.687,2.272-0.687c0.214,0,0.419,0.017,0.614,0.051
	s0.355,0.07,0.482,0.109L90.665,452.095z"/>
<path fill="#FFFFFF" d="M105.759,457.983l0.365,2.791l0.088,0.015l0.497-2.806l3.77-13.896h2.82l3.799,13.896l0.497,2.85h0.088
	l0.394-2.85l3.04-13.896h3.127l-5.144,21.274h-2.572l-4.252-14.758l-0.321-1.914h-0.087l-0.307,1.914l-4.311,14.758h-2.571
	l-5.129-21.274h3.112L105.759,457.983z"/>
<path fill="#FFFFFF" d="M136.618,463.024c-0.497,0.848-1.135,1.5-1.914,1.958s-1.68,0.687-2.703,0.687
	c-1.724,0-3.068-0.55-4.033-1.651c-0.964-1.101-1.446-2.814-1.446-5.143v-9.322h2.878v9.352c0,1.685,0.248,2.844,0.745,3.478
	c0.497,0.633,1.271,0.949,2.323,0.949c1.022,0,1.868-0.207,2.535-0.621c0.667-0.414,1.171-1.001,1.512-1.761v-11.396h2.878v15.81
	h-2.586L136.618,463.024z M131.139,446.923h-3.2V444h3.2V446.923z M138.006,446.923h-3.2V444h3.2V446.923z"/>
<path fill="#FFFFFF" d="M151.069,452.095l-1.476-0.088c-0.76,0-1.4,0.181-1.921,0.541s-0.923,0.867-1.206,1.52v11.295h-2.878v-15.81
	h2.572l0.277,2.309c0.448-0.818,1.001-1.456,1.659-1.914s1.415-0.687,2.272-0.687c0.214,0,0.419,0.017,0.614,0.051
	s0.355,0.07,0.482,0.109L151.069,452.095z"/>
<path fill="#FFFFFF" d="M163.255,461.11c0-0.633-0.241-1.149-0.723-1.549c-0.482-0.399-1.396-0.75-2.74-1.052
	c-1.86-0.399-3.29-0.96-4.288-1.681c-0.999-0.721-1.498-1.686-1.498-2.893c0-1.286,0.548-2.387,1.644-3.303
	c1.096-0.915,2.515-1.373,4.259-1.373c1.792,0,3.244,0.486,4.354,1.461c1.11,0.974,1.641,2.109,1.593,3.404l-0.029,0.088h-2.747
	c0-0.682-0.3-1.301-0.898-1.855c-0.6-0.556-1.357-0.833-2.272-0.833c-1.014,0-1.771,0.229-2.272,0.687
	c-0.502,0.458-0.752,1.003-0.752,1.637c0,0.623,0.216,1.105,0.65,1.446s1.328,0.652,2.681,0.936
	c1.938,0.409,3.409,0.988,4.413,1.738c1.003,0.75,1.505,1.729,1.505,2.938c0,1.402-0.567,2.547-1.702,3.434
	c-1.135,0.886-2.618,1.329-4.449,1.329c-2.017,0-3.604-0.511-4.764-1.534c-1.159-1.022-1.709-2.216-1.651-3.58l0.029-0.087h2.747
	c0.049,1.022,0.429,1.771,1.14,2.242c0.71,0.473,1.543,0.709,2.499,0.709c1.022,0,1.824-0.217,2.403-0.65
	S163.255,461.782,163.255,461.11z"/>
<path fill="#FFFFFF" d="M173.718,445.739v3.813h2.996v2.133h-2.996v9.601c0,0.74,0.153,1.261,0.461,1.563
	c0.307,0.303,0.713,0.453,1.22,0.453c0.165,0,0.351-0.021,0.555-0.065c0.205-0.044,0.375-0.09,0.512-0.139l0.395,1.973
	c-0.214,0.175-0.531,0.318-0.949,0.431c-0.419,0.112-0.833,0.168-1.242,0.168c-1.169,0-2.1-0.353-2.791-1.06
	c-0.691-0.706-1.037-1.813-1.037-3.323v-9.601h-2.514v-2.133h2.514v-3.813H173.718z"/>
<path fill="#FFFFFF" d="M186.079,463.419c0.887,0,1.661-0.295,2.323-0.884c0.663-0.59,0.994-1.313,0.994-2.17h2.601l0.044,0.088
	c0.039,1.363-0.546,2.574-1.753,3.631c-1.208,1.057-2.611,1.585-4.209,1.585c-2.221,0-3.936-0.755-5.143-2.265
	c-1.208-1.51-1.813-3.39-1.813-5.64v-0.614c0-2.23,0.606-4.104,1.819-5.618s2.925-2.271,5.136-2.271
	c1.764,0,3.208,0.545,4.333,1.636c1.125,1.092,1.668,2.431,1.629,4.019l-0.029,0.088h-2.615c0-0.965-0.314-1.785-0.942-2.462
	c-0.629-0.678-1.42-1.016-2.375-1.016c-1.412,0-2.442,0.548-3.09,1.644c-0.648,1.096-0.972,2.423-0.972,3.981v0.614
	c0,1.588,0.318,2.927,0.957,4.018C183.612,462.874,184.647,463.419,186.079,463.419z"/>
<path fill="#FFFFFF" d="M198.339,451.671c0.546-0.76,1.215-1.352,2.009-1.775c0.794-0.423,1.674-0.635,2.638-0.635
	c1.686,0,2.998,0.506,3.938,1.52c0.94,1.013,1.41,2.571,1.41,4.676v9.906h-2.878v-9.936c0-1.306-0.28-2.27-0.841-2.894
	c-0.56-0.623-1.395-0.935-2.506-0.935c-0.856,0-1.603,0.168-2.235,0.504s-1.145,0.806-1.534,1.41v11.85h-2.878v-22.794h2.878
	V451.671z"/>
<path fill="#FFFFFF" d="M219.015,465.669c-2.271,0-4.04-0.726-5.312-2.177s-1.907-3.36-1.907-5.728v-0.644
	c0-2.27,0.655-4.146,1.966-5.633c1.31-1.485,2.91-2.228,4.8-2.228c2.113,0,3.699,0.657,4.756,1.972
	c1.057,1.315,1.585,3.064,1.585,5.246v1.52h-10.11l-0.044,0.073c0,1.588,0.351,2.876,1.052,3.864
	c0.701,0.989,1.772,1.483,3.215,1.483c0.974,0,1.828-0.139,2.564-0.416c0.735-0.278,1.366-0.66,1.892-1.147l1.125,1.87
	c-0.564,0.546-1.31,1.006-2.235,1.381S220.319,465.669,219.015,465.669z M218.562,451.525c-1.004,0-1.834,0.387-2.491,1.161
	c-0.658,0.774-1.06,1.766-1.206,2.974l0.029,0.073h7.131v-0.234c0-1.148-0.283-2.099-0.848-2.849
	C220.611,451.9,219.74,451.525,218.562,451.525z"/>
<path fill="#FFFFFF" d="M230.704,449.553l0.204,2.353c0.526-0.838,1.187-1.488,1.98-1.951c0.794-0.462,1.697-0.693,2.71-0.693
	c1.705,0,3.025,0.499,3.96,1.497c0.936,0.999,1.402,2.54,1.402,4.625v9.979h-2.878v-9.921c0-1.394-0.275-2.382-0.825-2.967
	c-0.551-0.584-1.391-0.876-2.521-0.876c-0.887,0-1.64,0.178-2.258,0.533c-0.619,0.355-1.108,0.854-1.469,1.497v11.733h-2.878v-15.81
	H230.704z"/>
<path fill="#FFFFFF" d="M255.69,445.505h-2.879v-2.937h2.879V445.505z M255.69,465.362h-2.879v-15.81h2.879V465.362z"/>
<path fill="#FFFFFF" d="M262.689,449.553l0.204,2.074c0.517-0.75,1.172-1.331,1.966-1.746c0.794-0.413,1.717-0.62,2.769-0.62
	s1.956,0.243,2.711,0.73s1.322,1.218,1.702,2.191c0.506-0.906,1.166-1.619,1.979-2.141c0.813-0.521,1.766-0.781,2.856-0.781
	c1.607,0,2.879,0.553,3.813,1.658c0.936,1.105,1.403,2.769,1.403,4.989v9.454h-2.879v-9.483c0-1.558-0.268-2.661-0.804-3.309
	c-0.535-0.648-1.334-0.972-2.396-0.972c-0.984,0-1.781,0.341-2.39,1.022s-0.967,1.544-1.074,2.586v0.117v10.038h-2.893v-9.483
	c0-1.48-0.275-2.563-0.825-3.251c-0.551-0.687-1.343-1.029-2.375-1.029c-0.877,0-1.598,0.18-2.162,0.54
	c-0.565,0.36-0.999,0.867-1.301,1.52v11.704h-2.878v-15.81H262.689z"/>
<path fill="#FFFFFF" d="M294.104,465.362v-21.274h6.94c2.221,0,3.959,0.479,5.216,1.439c1.257,0.959,1.885,2.398,1.885,4.317
	c0,0.916-0.282,1.736-0.848,2.462c-0.564,0.726-1.314,1.278-2.25,1.658c1.394,0.195,2.496,0.799,3.31,1.813
	c0.813,1.013,1.221,2.206,1.221,3.58c0,1.948-0.634,3.436-1.899,4.463c-1.267,1.028-2.981,1.542-5.144,1.542H294.104z
	 M296.982,453.133h4.661c1.071,0,1.943-0.295,2.615-0.885c0.673-0.589,1.009-1.409,1.009-2.462c0-1.149-0.363-2.009-1.089-2.579
	c-0.726-0.569-1.771-0.854-3.134-0.854h-4.063V453.133z M296.982,455.383v7.729h5.553c1.314,0,2.335-0.324,3.061-0.972
	s1.089-1.565,1.089-2.755c0-1.178-0.37-2.128-1.11-2.849s-1.739-1.105-2.995-1.154h-0.19H296.982z"/>
<path fill="#FFFFFF" d="M320.215,452.095l-1.476-0.088c-0.76,0-1.4,0.181-1.921,0.541c-0.521,0.36-0.924,0.867-1.206,1.52v11.295
	h-2.878v-15.81h2.571l0.277,2.309c0.448-0.818,1.001-1.456,1.658-1.914c0.658-0.458,1.415-0.687,2.272-0.687
	c0.214,0,0.419,0.017,0.614,0.051c0.194,0.034,0.355,0.07,0.481,0.109L320.215,452.095z"/>
<path fill="#FFFFFF" d="M322.245,457.312c0-2.338,0.634-4.265,1.899-5.779c1.267-1.515,2.986-2.271,5.158-2.271
	c2.191,0,3.923,0.755,5.194,2.265s1.907,3.438,1.907,5.786v0.321c0,2.357-0.634,4.286-1.899,5.786c-1.267,1.5-2.991,2.25-5.173,2.25
	s-3.908-0.752-5.18-2.257c-1.271-1.506-1.907-3.432-1.907-5.779V457.312z M327.506,446.615h-3.2v-2.922h3.2V446.615z
	 M325.124,457.633c0,1.676,0.353,3.059,1.06,4.149c0.706,1.092,1.755,1.637,3.148,1.637c1.373,0,2.416-0.545,3.127-1.637
	c0.711-1.091,1.066-2.474,1.066-4.149v-0.321c0-1.656-0.357-3.034-1.074-4.136c-0.716-1.101-1.766-1.65-3.148-1.65
	c-1.373,0-2.413,0.55-3.119,1.65c-0.707,1.102-1.06,2.479-1.06,4.136V457.633z M334.373,446.615h-3.2v-2.922h3.2V446.615z"/>
<path fill="#FFFFFF" d="M343.929,445.739v3.813h2.996v2.133h-2.996v9.601c0,0.74,0.153,1.261,0.461,1.563
	c0.307,0.303,0.713,0.453,1.22,0.453c0.165,0,0.351-0.021,0.555-0.065c0.205-0.044,0.375-0.09,0.512-0.139l0.395,1.973
	c-0.214,0.175-0.531,0.318-0.949,0.431c-0.419,0.112-0.833,0.168-1.242,0.168c-1.169,0-2.1-0.353-2.791-1.06
	c-0.691-0.706-1.037-1.813-1.037-3.323v-9.601h-2.514v-2.133h2.514v-3.813H343.929z"/>
<path fill="#FFFFFF" d="M356.29,463.419c0.887,0,1.661-0.295,2.323-0.884c0.663-0.59,0.994-1.313,0.994-2.17h2.601l0.044,0.088
	c0.039,1.363-0.546,2.574-1.753,3.631c-1.208,1.057-2.611,1.585-4.209,1.585c-2.221,0-3.936-0.755-5.143-2.265
	c-1.208-1.51-1.813-3.39-1.813-5.64v-0.614c0-2.23,0.606-4.104,1.819-5.618s2.925-2.271,5.136-2.271
	c1.764,0,3.208,0.545,4.333,1.636c1.125,1.092,1.668,2.431,1.629,4.019l-0.029,0.088h-2.615c0-0.965-0.314-1.785-0.942-2.462
	c-0.629-0.678-1.42-1.016-2.375-1.016c-1.412,0-2.442,0.548-3.09,1.644c-0.648,1.096-0.972,2.423-0.972,3.981v0.614
	c0,1.588,0.318,2.927,0.957,4.018C353.823,462.874,354.858,463.419,356.29,463.419z"/>
<path fill="#FFFFFF" d="M368.55,451.671c0.546-0.76,1.215-1.352,2.009-1.775c0.794-0.423,1.674-0.635,2.638-0.635
	c1.686,0,2.998,0.506,3.938,1.52c0.94,1.013,1.41,2.571,1.41,4.676v9.906h-2.878v-9.936c0-1.306-0.28-2.27-0.841-2.894
	c-0.56-0.623-1.395-0.935-2.506-0.935c-0.856,0-1.603,0.168-2.235,0.504s-1.145,0.806-1.534,1.41v11.85h-2.878v-22.794h2.878
	V451.671z"/>
<path fill="#FFFFFF" d="M389.226,465.669c-2.271,0-4.04-0.726-5.312-2.177s-1.907-3.36-1.907-5.728v-0.644
	c0-2.27,0.655-4.146,1.966-5.633c1.31-1.485,2.91-2.228,4.8-2.228c2.113,0,3.699,0.657,4.756,1.972
	c1.057,1.315,1.585,3.064,1.585,5.246v1.52h-10.11l-0.044,0.073c0,1.588,0.351,2.876,1.052,3.864
	c0.701,0.989,1.772,1.483,3.215,1.483c0.974,0,1.828-0.139,2.564-0.416c0.735-0.278,1.366-0.66,1.892-1.147l1.125,1.87
	c-0.564,0.546-1.31,1.006-2.235,1.381S390.53,465.669,389.226,465.669z M388.772,451.525c-1.004,0-1.834,0.387-2.491,1.161
	c-0.658,0.774-1.06,1.766-1.206,2.974l0.029,0.073h7.131v-0.234c0-1.148-0.283-2.099-0.848-2.849
	C390.822,451.9,389.951,451.525,388.772,451.525z"/>
<path fill="#FFFFFF" d="M400.915,449.553l0.204,2.353c0.526-0.838,1.187-1.488,1.98-1.951c0.794-0.462,1.697-0.693,2.71-0.693
	c1.705,0,3.025,0.499,3.96,1.497c0.936,0.999,1.402,2.54,1.402,4.625v9.979h-2.878v-9.921c0-1.394-0.275-2.382-0.825-2.967
	c-0.551-0.584-1.391-0.876-2.521-0.876c-0.887,0-1.64,0.178-2.258,0.533c-0.619,0.355-1.108,0.854-1.469,1.497v11.733h-2.878v-15.81
	H400.915z"/>
<path fill="#FFFFFF" d="M2.385,508.059h11.743v0.659H1.482v-0.537l11.34-16.589H1.97v-0.647h11.768v0.464L2.385,508.059z"/>
<path fill="#FFFFFF" d="M21.746,508.975c-1.555,0-2.867-0.603-3.937-1.807c-1.07-1.205-1.605-2.723-1.605-4.554v-0.781
	c0-1.912,0.531-3.485,1.593-4.718c1.062-1.233,2.398-1.85,4.01-1.85c1.465,0,2.632,0.482,3.503,1.446
	c0.871,0.965,1.306,2.281,1.306,3.949v1.013h-9.753v0.159v0.781c0,1.611,0.456,2.965,1.367,4.059
	c0.911,1.095,2.083,1.642,3.516,1.642c0.789,0,1.548-0.146,2.277-0.439c0.728-0.293,1.32-0.684,1.776-1.172l0.354,0.514
	c-0.464,0.512-1.062,0.934-1.794,1.263C23.625,508.81,22.754,508.975,21.746,508.975z M21.807,495.925
	c-1.367,0-2.488,0.475-3.363,1.422c-0.875,0.948-1.369,2.146-1.483,3.595l0.037,0.074h8.96v-0.403c0-1.359-0.371-2.479-1.111-3.363
	C24.105,496.366,23.092,495.925,21.807,495.925z"/>
<path fill="#FFFFFF" d="M30.62,491.359h-0.659v-1.685h0.659V491.359z M30.62,508.718h-0.659V495.51h0.659V508.718z"/>
<path fill="#FFFFFF" d="M34.343,502.102c0-2.092,0.439-3.754,1.318-4.986c0.879-1.233,2.1-1.85,3.662-1.85
	c1.025,0,1.915,0.232,2.667,0.695c0.752,0.465,1.353,1.1,1.8,1.904l0.098-2.355h0.562v4.064c0,0.017,0,0.029,0,0.037
	s0.004,0.012,0.012,0.012v5.384c-0.008,0.017-0.012,0.028-0.012,0.036c0,0.009,0,0.017,0,0.025v3.723
	c0,1.677-0.441,2.973-1.325,3.888c-0.883,0.916-2.105,1.374-3.668,1.374c-0.643,0-1.313-0.067-2.008-0.202
	c-0.696-0.134-1.305-0.319-1.825-0.556l0.195-0.658c0.594,0.26,1.167,0.453,1.721,0.579c0.553,0.126,1.184,0.189,1.892,0.189
	c1.424,0,2.504-0.396,3.241-1.19c0.736-0.793,1.104-1.935,1.104-3.424v-2.088c-0.448,0.7-1.052,1.254-1.813,1.66
	c-0.761,0.407-1.65,0.611-2.667,0.611c-1.555,0-2.769-0.595-3.644-1.783c-0.875-1.188-1.312-2.799-1.312-4.834V502.102z
	 M35.015,502.357c0,1.823,0.362,3.271,1.086,4.346c0.724,1.074,1.786,1.611,3.186,1.611c1.131,0,2.075-0.254,2.832-0.763
	c0.757-0.508,1.31-1.19,1.66-2.044v-6.324c-0.326-0.919-0.84-1.692-1.544-2.318c-0.704-0.627-1.679-0.94-2.924-0.94
	c-1.4,0-2.466,0.572-3.198,1.715c-0.732,1.144-1.099,2.631-1.099,4.462V502.357z"/>
<path fill="#FFFFFF" d="M53.264,508.975c-1.555,0-2.867-0.603-3.937-1.807c-1.07-1.205-1.605-2.723-1.605-4.554v-0.781
	c0-1.912,0.531-3.485,1.593-4.718c1.062-1.233,2.398-1.85,4.01-1.85c1.465,0,2.632,0.482,3.503,1.446
	c0.871,0.965,1.306,2.281,1.306,3.949v1.013h-9.753v0.159v0.781c0,1.611,0.456,2.965,1.367,4.059
	c0.911,1.095,2.083,1.642,3.516,1.642c0.789,0,1.548-0.146,2.277-0.439c0.728-0.293,1.32-0.684,1.776-1.172l0.354,0.514
	c-0.464,0.512-1.062,0.934-1.794,1.263C55.144,508.81,54.273,508.975,53.264,508.975z M53.325,495.925
	c-1.367,0-2.488,0.475-3.363,1.422c-0.875,0.948-1.369,2.146-1.483,3.595l0.037,0.074h8.96v-0.403c0-1.359-0.371-2.479-1.111-3.363
	C55.624,496.366,54.611,495.925,53.325,495.925z"/>
<path fill="#FFFFFF" d="M61.882,495.51l0.085,2.661c0.407-0.92,0.993-1.634,1.758-2.143c0.765-0.508,1.705-0.763,2.82-0.763
	c1.44,0,2.521,0.454,3.241,1.361c0.721,0.907,1.081,2.346,1.081,4.314v7.776h-0.659v-7.8c0-1.832-0.328-3.121-0.983-3.87
	c-0.655-0.749-1.544-1.123-2.667-1.123c-1.384,0-2.441,0.403-3.174,1.208c-0.732,0.807-1.201,1.844-1.404,3.113v8.472h-0.659v-6.763
	h-0.037c0-0.154,0.002-0.312,0.006-0.47c0.004-0.159,0.014-0.319,0.031-0.482v-5.493H61.882z"/>
<path fill="#FFFFFF" d="M91.826,504.531c0-1.018-0.417-1.838-1.251-2.46c-0.834-0.623-2.257-1.264-4.267-1.923
	c-2.002-0.61-3.477-1.258-4.425-1.941c-0.948-0.684-1.422-1.696-1.422-3.039c0-1.335,0.555-2.415,1.667-3.241
	c1.11-0.825,2.521-1.239,4.229-1.239c1.774,0,3.2,0.456,4.278,1.367c1.079,0.912,1.601,2.186,1.569,3.821l-0.024,0.073h-0.562
	c0-1.326-0.488-2.425-1.465-3.296s-2.242-1.306-3.796-1.306c-1.604,0-2.877,0.376-3.821,1.129c-0.944,0.753-1.416,1.642-1.416,2.667
	s0.38,1.857,1.141,2.496c0.761,0.64,2.179,1.264,4.254,1.874c2.018,0.635,3.52,1.294,4.504,1.978
	c0.984,0.684,1.477,1.688,1.477,3.015c0,1.352-0.582,2.434-1.746,3.248c-1.164,0.813-2.6,1.221-4.309,1.221
	c-1.782,0-3.316-0.417-4.602-1.252c-1.286-0.834-1.909-2.146-1.868-3.937l0.024-0.073h0.549c0,1.611,0.594,2.781,1.782,3.51
	c1.188,0.729,2.559,1.092,4.114,1.092c1.554,0,2.84-0.359,3.857-1.08C91.317,506.515,91.826,505.613,91.826,504.531z"/>
<path fill="#FFFFFF" d="M96.733,491.359h-0.659v-1.685h0.659V491.359z M96.733,508.718h-0.659V495.51h0.659V508.718z"/>
<path fill="#FFFFFF" d="M105.693,508.975c-1.555,0-2.867-0.603-3.937-1.807c-1.07-1.205-1.605-2.723-1.605-4.554v-0.781
	c0-1.912,0.531-3.485,1.593-4.718c1.063-1.233,2.399-1.85,4.01-1.85c1.465,0,2.632,0.482,3.503,1.446
	c0.871,0.965,1.306,2.281,1.306,3.949v1.013h-9.753v0.159v0.781c0,1.611,0.456,2.965,1.367,4.059
	c0.911,1.095,2.083,1.642,3.516,1.642c0.789,0,1.548-0.146,2.276-0.439c0.729-0.293,1.32-0.684,1.776-1.172l0.354,0.514
	c-0.464,0.512-1.062,0.934-1.794,1.263C107.573,508.81,106.702,508.975,105.693,508.975z M105.754,495.925
	c-1.367,0-2.488,0.475-3.363,1.422c-0.875,0.948-1.37,2.146-1.483,3.595l0.037,0.074h8.96v-0.403c0-1.359-0.371-2.479-1.111-3.363
	C108.053,496.366,107.04,495.925,105.754,495.925z"/>
<path fill="#FFFFFF" d="M121.221,508.718h-0.659v-17.773h0.659V508.718z"/>
<path fill="#FFFFFF" d="M126.909,498.256c0.415-0.943,1.017-1.678,1.807-2.203c0.789-0.524,1.75-0.787,2.881-0.787
	c1.375,0,2.419,0.436,3.131,1.307c0.712,0.87,1.068,2.241,1.068,4.113v8.032h-0.671v-8.057c0-1.733-0.319-2.956-0.958-3.668
	c-0.639-0.712-1.491-1.068-2.557-1.068c-1.4,0-2.48,0.411-3.241,1.233c-0.761,0.821-1.248,1.875-1.459,3.161v8.398h-0.659v-6.763
	h-0.024c0-0.171,0-0.313,0-0.428c0-0.113,0.008-0.228,0.024-0.342v-11.511h0.659V498.256z"/>
<path fill="#FFFFFF" d="M145.757,495.986l-0.854-0.074c-1.18,0-2.138,0.381-2.875,1.142c-0.736,0.762-1.214,1.765-1.434,3.009v8.655
	h-0.659V495.51h0.537l0.122,2.295v0.451c0.366-0.943,0.911-1.678,1.636-2.203c0.724-0.524,1.615-0.787,2.673-0.787
	c0.187,0,0.36,0.015,0.519,0.043c0.159,0.028,0.295,0.059,0.409,0.092L145.757,495.986z"/>
<path fill="#FFFFFF" d="M165.117,504.531c0-1.018-0.417-1.838-1.251-2.46c-0.834-0.623-2.257-1.264-4.267-1.923
	c-2.002-0.61-3.477-1.258-4.425-1.941c-0.948-0.684-1.422-1.696-1.422-3.039c0-1.335,0.555-2.415,1.667-3.241
	c1.11-0.825,2.521-1.239,4.229-1.239c1.774,0,3.2,0.456,4.278,1.367c1.079,0.912,1.601,2.186,1.569,3.821l-0.024,0.073h-0.562
	c0-1.326-0.488-2.425-1.465-3.296s-2.242-1.306-3.796-1.306c-1.604,0-2.877,0.376-3.821,1.129c-0.944,0.753-1.416,1.642-1.416,2.667
	s0.38,1.857,1.141,2.496c0.761,0.64,2.179,1.264,4.254,1.874c2.018,0.635,3.52,1.294,4.504,1.978
	c0.984,0.684,1.477,1.688,1.477,3.015c0,1.352-0.582,2.434-1.746,3.248c-1.164,0.813-2.6,1.221-4.309,1.221
	c-1.782,0-3.316-0.417-4.602-1.252c-1.286-0.834-1.909-2.146-1.868-3.937l0.024-0.073h0.549c0,1.611,0.594,2.781,1.782,3.51
	c1.188,0.729,2.559,1.092,4.114,1.092c1.554,0,2.84-0.359,3.857-1.08C164.608,506.515,165.117,505.613,165.117,504.531z"/>
<path fill="#FFFFFF" d="M169.67,495.51l0.085,2.661c0.407-0.92,0.98-1.634,1.721-2.143c0.74-0.508,1.644-0.763,2.71-0.763
	c1.123,0,2.039,0.283,2.747,0.849s1.2,1.442,1.477,2.63c0.366-1.098,0.942-1.954,1.727-2.569c0.786-0.614,1.764-0.921,2.936-0.921
	c1.457,0,2.563,0.476,3.32,1.428s1.135,2.449,1.135,4.492v7.531h-0.671v-7.556c0-1.912-0.342-3.264-1.025-4.053
	s-1.595-1.185-2.734-1.185c-1.359,0-2.395,0.399-3.107,1.197c-0.712,0.797-1.17,1.83-1.373,3.1c0.008,0.163,0.016,0.328,0.024,0.495
	c0.008,0.167,0.012,0.335,0.012,0.507v7.507h-0.671v-6.763h-0.037c0-0.154,0.002-0.31,0.006-0.464
	c0.004-0.154,0.014-0.306,0.03-0.452c-0.024-1.871-0.375-3.191-1.05-3.961c-0.676-0.769-1.583-1.153-2.722-1.153
	c-1.343,0-2.366,0.389-3.07,1.166c-0.704,0.777-1.162,1.784-1.374,3.021v8.606h-0.671v-6.763h-0.024
	c0-0.114,0.002-0.228,0.006-0.342c0.004-0.114,0.01-0.256,0.019-0.428v-5.676H169.67z"/>
<path fill="#FFFFFF" d="M199.907,506.276c-0.456,0.798-1.135,1.446-2.039,1.947c-0.903,0.5-1.998,0.751-3.284,0.751
	c-1.229,0-2.193-0.336-2.893-1.008c-0.7-0.671-1.05-1.576-1.05-2.716c0-1.106,0.523-2.034,1.569-2.783
	c1.045-0.749,2.354-1.123,3.924-1.123h3.772v-1.929c0-1.099-0.352-1.955-1.056-2.569c-0.704-0.614-1.695-0.922-2.973-0.922
	c-1.196,0-2.159,0.289-2.887,0.866c-0.729,0.578-1.093,1.323-1.093,2.234l-0.549-0.024l-0.024-0.062
	c-0.049-1.025,0.35-1.894,1.196-2.605c0.846-0.712,1.965-1.068,3.357-1.068c1.416,0,2.551,0.358,3.406,1.074s1.282,1.75,1.282,3.101
	v6.616c0,0.464,0.026,0.916,0.079,1.355c0.053,0.439,0.141,0.874,0.263,1.306h-0.732c-0.106-0.578-0.177-1.011-0.214-1.3
	c-0.036-0.289-0.055-0.601-0.055-0.934V506.276z M194.585,508.327c1.31,0,2.419-0.289,3.326-0.866
	c0.908-0.578,1.573-1.404,1.996-2.479v-2.967h-3.735c-1.367,0-2.521,0.316-3.461,0.946c-0.939,0.631-1.41,1.41-1.41,2.338
	c0,0.887,0.299,1.613,0.897,2.179C192.797,508.045,193.592,508.327,194.585,508.327z"/>
<path fill="#FFFFFF" d="M210.638,495.986l-0.855-0.074c-1.18,0-2.138,0.381-2.874,1.142c-0.737,0.762-1.215,1.765-1.435,3.009v8.655
	h-0.659V495.51h0.537l0.122,2.295v0.451c0.366-0.943,0.911-1.678,1.636-2.203c0.724-0.524,1.615-0.787,2.673-0.787
	c0.188,0,0.36,0.015,0.52,0.043c0.158,0.028,0.295,0.059,0.408,0.092L210.638,495.986z"/>
<path fill="#FFFFFF" d="M214.751,491.945v3.564h3.247v0.672h-3.247v9.131c0,1.082,0.184,1.854,0.549,2.313
	c0.367,0.46,0.851,0.689,1.453,0.689c0.22,0,0.415-0.008,0.586-0.023c0.171-0.017,0.407-0.045,0.708-0.086l0.122,0.598
	c-0.203,0.065-0.415,0.11-0.635,0.135s-0.468,0.037-0.744,0.037c-0.888,0-1.562-0.289-2.021-0.867c-0.46-0.578-0.69-1.51-0.69-2.795
	v-9.131h-2.441v-0.672h2.441v-3.564H214.751z"/>
<path fill="#FFFFFF" d="M231.206,502.357c0,2.035-0.439,3.646-1.318,4.834c-0.879,1.188-2.092,1.783-3.639,1.783
	c-1.025,0-1.918-0.204-2.679-0.611c-0.762-0.406-1.361-0.96-1.801-1.66v7.093h-0.659v-8.691c-0.008-0.024-0.015-0.045-0.019-0.062
	c-0.004-0.016-0.006-0.032-0.006-0.049v-5.371c0-0.008,0-0.014,0-0.018s0.008-0.031,0.024-0.08v-4.016h0.513l0.134,2.332
	c0.439-0.798,1.038-1.427,1.795-1.887c0.757-0.459,1.648-0.689,2.674-0.689c1.554,0,2.772,0.616,3.655,1.85
	c0.883,1.232,1.325,2.895,1.325,4.986V502.357z M230.534,502.102c0-1.831-0.368-3.318-1.104-4.462
	c-0.737-1.143-1.801-1.715-3.192-1.715c-1.253,0-2.232,0.313-2.936,0.94c-0.704,0.626-1.215,1.399-1.532,2.318v6.312
	c0.334,0.862,0.879,1.549,1.636,2.057c0.757,0.509,1.709,0.763,2.856,0.763c1.392,0,2.451-0.537,3.18-1.611s1.093-2.522,1.093-4.346
	V502.102z"/>
<path fill="#FFFFFF" d="M235.453,498.256c0.415-0.943,1.018-1.678,1.807-2.203c0.789-0.524,1.75-0.787,2.881-0.787
	c1.375,0,2.419,0.436,3.131,1.307c0.712,0.87,1.068,2.241,1.068,4.113v8.032h-0.671v-8.057c0-1.733-0.32-2.956-0.959-3.668
	s-1.491-1.068-2.557-1.068c-1.4,0-2.48,0.411-3.241,1.233c-0.762,0.821-1.247,1.875-1.459,3.161v8.398h-0.659v-6.763h-0.024
	c0-0.171,0-0.313,0-0.428c0-0.113,0.008-0.228,0.024-0.342v-11.511h0.659V498.256z"/>
<path fill="#FFFFFF" d="M247.44,501.857c0-1.937,0.534-3.52,1.604-4.748c1.07-1.229,2.46-1.844,4.169-1.844
	c1.717,0,3.11,0.614,4.181,1.844c1.07,1.229,1.605,2.812,1.605,4.748v0.513c0,1.945-0.535,3.532-1.605,4.761
	s-2.455,1.844-4.156,1.844c-1.717,0-3.112-0.615-4.187-1.844s-1.611-2.815-1.611-4.761V501.857z M248.099,502.37
	c0,1.66,0.465,3.066,1.393,4.218s2.177,1.727,3.747,1.727c1.546,0,2.783-0.577,3.711-1.732c0.928-1.156,1.392-2.56,1.392-4.212
	v-0.513c0-1.619-0.468-3.013-1.404-4.181c-0.936-1.168-2.177-1.752-3.723-1.752c-1.555,0-2.795,0.584-3.723,1.752
	s-1.393,2.562-1.393,4.181V502.37z"/>
<path fill="#FFFFFF" d="M262.723,495.51l0.085,2.661c0.407-0.92,0.993-1.634,1.758-2.143c0.766-0.508,1.705-0.763,2.82-0.763
	c1.44,0,2.521,0.454,3.241,1.361c0.72,0.907,1.08,2.346,1.08,4.314v7.776h-0.659v-7.8c0-1.832-0.328-3.121-0.982-3.87
	c-0.655-0.749-1.545-1.123-2.668-1.123c-1.383,0-2.441,0.403-3.174,1.208c-0.732,0.807-1.2,1.844-1.403,3.113v8.472h-0.659v-6.763
	h-0.037c0-0.154,0.002-0.312,0.007-0.47c0.004-0.159,0.014-0.319,0.03-0.482v-5.493H262.723z"/>
<path fill="#FFFFFF" d="M280.472,508.975c-1.555,0-2.867-0.603-3.938-1.807c-1.07-1.205-1.605-2.723-1.605-4.554v-0.781
	c0-1.912,0.531-3.485,1.594-4.718c1.062-1.233,2.398-1.85,4.01-1.85c1.465,0,2.633,0.482,3.504,1.446
	c0.87,0.965,1.306,2.281,1.306,3.949v1.013h-9.753v0.159v0.781c0,1.611,0.455,2.965,1.367,4.059
	c0.911,1.095,2.083,1.642,3.516,1.642c0.789,0,1.548-0.146,2.276-0.439c0.728-0.293,1.32-0.684,1.776-1.172l0.354,0.514
	c-0.464,0.512-1.063,0.934-1.795,1.263C282.351,508.81,281.48,508.975,280.472,508.975z M280.532,495.925
	c-1.367,0-2.488,0.475-3.363,1.422c-0.875,0.948-1.369,2.146-1.482,3.595l0.036,0.074h8.96v-0.403c0-1.359-0.37-2.479-1.111-3.363
	C282.831,496.366,281.818,495.925,280.532,495.925z"/>
<path fill="#FFFFFF" d="M294.974,495.51l0.086,2.661c0.406-0.92,0.98-1.634,1.721-2.143c0.74-0.508,1.644-0.763,2.71-0.763
	c1.123,0,2.038,0.283,2.747,0.849c0.707,0.565,1.2,1.442,1.477,2.63c0.366-1.098,0.941-1.954,1.728-2.569
	c0.785-0.614,1.764-0.921,2.936-0.921c1.457,0,2.563,0.476,3.32,1.428s1.136,2.449,1.136,4.492v7.531h-0.672v-7.556
	c0-1.912-0.342-3.264-1.025-4.053s-1.595-1.185-2.734-1.185c-1.359,0-2.395,0.399-3.106,1.197c-0.713,0.797-1.17,1.83-1.374,3.1
	c0.009,0.163,0.017,0.328,0.025,0.495c0.008,0.167,0.012,0.335,0.012,0.507v7.507h-0.672v-6.763h-0.036
	c0-0.154,0.002-0.31,0.006-0.464s0.015-0.306,0.03-0.452c-0.023-1.871-0.374-3.191-1.049-3.961
	c-0.676-0.769-1.583-1.153-2.723-1.153c-1.343,0-2.366,0.389-3.07,1.166s-1.161,1.784-1.373,3.021v8.606h-0.672v-6.763h-0.023
	c0-0.114,0.001-0.228,0.006-0.342c0.004-0.114,0.01-0.256,0.018-0.428v-5.676H294.974z"/>
<path fill="#FFFFFF" d="M317.739,491.359h-0.658v-1.685h0.658V491.359z M317.739,508.718h-0.658V495.51h0.658V508.718z"/>
<path fill="#FFFFFF" d="M323.44,491.945v3.564h3.247v0.672h-3.247v9.131c0,1.082,0.184,1.854,0.549,2.313
	c0.367,0.46,0.851,0.689,1.453,0.689c0.22,0,0.415-0.008,0.586-0.023c0.171-0.017,0.407-0.045,0.708-0.086l0.122,0.598
	c-0.203,0.065-0.415,0.11-0.635,0.135s-0.468,0.037-0.744,0.037c-0.888,0-1.562-0.289-2.021-0.867c-0.46-0.578-0.69-1.51-0.69-2.795
	v-9.131h-2.441v-0.672h2.441v-3.564H323.44z"/>
<path fill="#FFFFFF" d="M335.171,502.102c0-2.092,0.439-3.754,1.318-4.986c0.879-1.233,2.1-1.85,3.662-1.85
	c1.025,0,1.914,0.23,2.667,0.689c0.753,0.46,1.354,1.089,1.801,1.887v-8.167h0.659v9.899c0,0.017,0,0.029,0,0.037
	s0.004,0.012,0.012,0.012v5.384c-0.008,0.017-0.012,0.028-0.012,0.036c0,0.009,0,0.017,0,0.025v3.649h-0.635l-0.024-2.038
	c-0.439,0.707-1.042,1.268-1.807,1.678c-0.765,0.411-1.66,0.617-2.686,0.617c-1.555,0-2.77-0.595-3.644-1.783
	c-0.875-1.188-1.313-2.799-1.313-4.834V502.102z M335.854,502.357c0,1.823,0.36,3.271,1.08,4.346c0.721,1.074,1.78,1.611,3.18,1.611
	c1.148,0,2.1-0.258,2.857-0.774c0.756-0.517,1.306-1.207,1.647-2.069v-6.25c-0.325-0.936-0.841-1.719-1.544-2.35
	c-0.704-0.631-1.683-0.946-2.936-0.946c-1.4,0-2.465,0.572-3.192,1.715c-0.729,1.144-1.093,2.631-1.093,4.462V502.357z"/>
<path fill="#FFFFFF" d="M350.284,491.359h-0.66v-1.685h0.66V491.359z M350.284,508.718h-0.66V495.51h0.66V508.718z"/>
<path fill="#FFFFFF" d="M359.243,508.975c-1.554,0-2.866-0.603-3.937-1.807c-1.07-1.205-1.604-2.723-1.604-4.554v-0.781
	c0-1.912,0.53-3.485,1.593-4.718c1.062-1.233,2.398-1.85,4.01-1.85c1.465,0,2.633,0.482,3.503,1.446
	c0.871,0.965,1.307,2.281,1.307,3.949v1.013h-9.754v0.159v0.781c0,1.611,0.456,2.965,1.367,4.059
	c0.912,1.095,2.084,1.642,3.516,1.642c0.79,0,1.549-0.146,2.277-0.439c0.728-0.293,1.32-0.684,1.775-1.172l0.354,0.514
	c-0.464,0.512-1.062,0.934-1.794,1.263C361.124,508.81,360.253,508.975,359.243,508.975z M359.305,495.925
	c-1.367,0-2.488,0.475-3.363,1.422c-0.875,0.948-1.369,2.146-1.483,3.595l0.037,0.074h8.96v-0.403c0-1.359-0.37-2.479-1.11-3.363
	C361.604,496.366,360.591,495.925,359.305,495.925z"/>
<path fill="#FFFFFF" d="M375.394,505.482c0-0.699-0.3-1.336-0.897-1.91c-0.599-0.573-1.642-1.023-3.132-1.349
	c-1.57-0.334-2.708-0.763-3.411-1.288c-0.704-0.524-1.056-1.304-1.056-2.338c0-0.943,0.398-1.734,1.195-2.374
	c0.798-0.639,1.872-0.958,3.223-0.958c1.457,0,2.604,0.342,3.443,1.025c0.838,0.684,1.236,1.574,1.195,2.674l-0.023,0.072h-0.563
	c0-0.862-0.364-1.597-1.092-2.203c-0.729-0.605-1.715-0.909-2.961-0.909c-1.236,0-2.172,0.267-2.807,0.8s-0.953,1.149-0.953,1.85
	c0,0.691,0.27,1.281,0.807,1.77s1.603,0.916,3.197,1.281c1.474,0.342,2.59,0.809,3.352,1.398c0.761,0.59,1.141,1.414,1.141,2.472
	c0,1.033-0.423,1.872-1.27,2.515c-0.846,0.643-1.969,0.965-3.369,0.965c-1.537,0-2.744-0.344-3.619-1.032
	c-0.875-0.688-1.283-1.523-1.227-2.509l0.024-0.072h0.537c0.065,1.041,0.513,1.794,1.343,2.258s1.811,0.695,2.941,0.695
	c1.221,0,2.189-0.284,2.906-0.854C375.035,506.891,375.394,506.231,375.394,505.482z"/>
<path fill="#FFFFFF" d="M384.366,508.975c-1.555,0-2.867-0.603-3.938-1.807c-1.07-1.205-1.605-2.723-1.605-4.554v-0.781
	c0-1.912,0.531-3.485,1.594-4.718c1.062-1.233,2.398-1.85,4.01-1.85c1.465,0,2.633,0.482,3.504,1.446
	c0.87,0.965,1.306,2.281,1.306,3.949v1.013h-9.753v0.159v0.781c0,1.611,0.455,2.965,1.367,4.059
	c0.911,1.095,2.083,1.642,3.516,1.642c0.789,0,1.548-0.146,2.276-0.439c0.728-0.293,1.32-0.684,1.776-1.172l0.354,0.514
	c-0.464,0.512-1.063,0.934-1.795,1.263C386.245,508.81,385.375,508.975,384.366,508.975z M384.427,495.925
	c-1.367,0-2.488,0.475-3.363,1.422c-0.875,0.948-1.369,2.146-1.482,3.595l0.036,0.074h8.96v-0.403c0-1.359-0.37-2.479-1.111-3.363
	C386.726,496.366,385.713,495.925,384.427,495.925z"/>
<path fill="#FFFFFF" d="M392.887,495.51l0.085,2.661c0.407-0.92,0.981-1.634,1.722-2.143c0.74-0.508,1.644-0.763,2.71-0.763
	c1.123,0,2.039,0.283,2.746,0.849c0.709,0.565,1.201,1.442,1.478,2.63c0.366-1.098,0.941-1.954,1.728-2.569
	c0.785-0.614,1.764-0.921,2.936-0.921c1.457,0,2.563,0.476,3.32,1.428s1.135,2.449,1.135,4.492v7.531h-0.671v-7.556
	c0-1.912-0.342-3.264-1.025-4.053s-1.595-1.185-2.734-1.185c-1.359,0-2.395,0.399-3.106,1.197c-0.713,0.797-1.17,1.83-1.373,3.1
	c0.008,0.163,0.016,0.328,0.023,0.495c0.009,0.167,0.013,0.335,0.013,0.507v7.507H401.2v-6.763h-0.037
	c0-0.154,0.002-0.31,0.006-0.464s0.015-0.306,0.031-0.452c-0.025-1.871-0.375-3.191-1.051-3.961
	c-0.675-0.769-1.582-1.153-2.722-1.153c-1.343,0-2.366,0.389-3.07,1.166s-1.161,1.784-1.373,3.021v8.606h-0.671v-6.763h-0.025
	c0-0.114,0.002-0.228,0.007-0.342c0.004-0.114,0.01-0.256,0.019-0.428v-5.676H392.887z"/>
<path fill="#FFFFFF" d="M25.2,536.325c-0.375,0.635-1.093,1.235-2.154,1.801c-1.063,0.565-2.367,0.849-3.913,0.849
	c-2.035,0-3.685-0.725-4.95-2.174c-1.266-1.448-1.898-3.332-1.898-5.651v-2.905c0-2.229,0.614-4.047,1.843-5.45
	c1.229-1.404,2.828-2.106,4.797-2.106c1.896,0,3.408,0.488,4.535,1.465c1.127,0.977,1.67,2.23,1.629,3.76l-0.024,0.074h-0.549
	c0-1.359-0.486-2.473-1.459-3.339c-0.972-0.867-2.35-1.3-4.132-1.3c-1.799,0-3.245,0.641-4.34,1.922
	c-1.094,1.282-1.642,2.932-1.642,4.95v2.93c0,2.116,0.565,3.839,1.697,5.17c1.131,1.33,2.628,1.995,4.492,1.995
	c1.424,0,2.598-0.231,3.522-0.695c0.923-0.464,1.552-0.997,1.886-1.6v-5.053h-5.432v-0.672H25.2V536.325z"/>
<path fill="#FFFFFF" d="M38.628,536.398c-0.415,0.813-1.005,1.446-1.77,1.898c-0.765,0.451-1.693,0.678-2.783,0.678
	c-1.359,0-2.423-0.482-3.192-1.447c-0.77-0.964-1.154-2.459-1.154-4.486v-7.531h0.659v7.557c0,1.79,0.33,3.112,0.989,3.967
	s1.55,1.281,2.673,1.281c1.343,0,2.382-0.327,3.119-0.982c0.737-0.654,1.215-1.52,1.435-2.594v-9.229h0.671v7.775h0.024
	c0,0.106-0.004,0.208-0.012,0.306c-0.008,0.098-0.012,0.212-0.012,0.342v4.785h-0.549L38.628,536.398z"/>
<path fill="#FFFFFF" d="M44.829,521.945v3.564h3.247v0.672h-3.247v9.131c0,1.082,0.183,1.854,0.549,2.313
	c0.366,0.46,0.85,0.689,1.453,0.689c0.22,0,0.415-0.008,0.586-0.023c0.171-0.017,0.407-0.045,0.708-0.086l0.122,0.598
	c-0.204,0.065-0.415,0.11-0.635,0.135s-0.468,0.037-0.745,0.037c-0.887,0-1.561-0.289-2.02-0.867c-0.46-0.578-0.69-1.51-0.69-2.795
	v-9.131h-2.441v-0.672h2.441v-3.564H44.829z"/>
<path fill="#FFFFFF" d="M59.282,535.482c0-0.699-0.299-1.336-0.897-1.91c-0.598-0.573-1.642-1.023-3.131-1.349
	c-1.571-0.334-2.708-0.763-3.412-1.288c-0.704-0.524-1.056-1.304-1.056-2.338c0-0.943,0.398-1.734,1.196-2.374
	c0.797-0.639,1.872-0.958,3.223-0.958c1.457,0,2.604,0.342,3.442,1.025c0.838,0.684,1.237,1.574,1.196,2.674l-0.024,0.072h-0.562
	c0-0.862-0.364-1.597-1.093-2.203c-0.728-0.605-1.715-0.909-2.96-0.909c-1.237,0-2.173,0.267-2.808,0.8s-0.952,1.149-0.952,1.85
	c0,0.691,0.269,1.281,0.806,1.77s1.603,0.916,3.198,1.281c1.473,0.342,2.59,0.809,3.351,1.398c0.761,0.59,1.142,1.414,1.142,2.472
	c0,1.033-0.423,1.872-1.27,2.515c-0.847,0.643-1.97,0.965-3.369,0.965c-1.538,0-2.745-0.344-3.619-1.032
	c-0.875-0.688-1.284-1.523-1.227-2.509l0.024-0.072h0.537c0.065,1.041,0.513,1.794,1.343,2.258s1.811,0.695,2.942,0.695
	c1.221,0,2.189-0.284,2.905-0.854C58.924,536.891,59.282,536.231,59.282,535.482z"/>
<path fill="#FFFFFF" d="M68.108,538.314c1.115,0,2.1-0.305,2.954-0.915s1.282-1.526,1.282-2.747h0.562l0.024,0.074
	c0.032,1.293-0.441,2.325-1.422,3.094c-0.981,0.77-2.114,1.154-3.4,1.154c-1.685,0-3.005-0.606-3.961-1.819
	c-0.956-1.213-1.434-2.808-1.434-4.785v-0.513c0-1.97,0.476-3.561,1.428-4.773c0.952-1.212,2.266-1.818,3.943-1.818
	c1.367,0,2.525,0.401,3.473,1.202c0.948,0.802,1.405,1.931,1.373,3.388l-0.024,0.073h-0.562c0-1.294-0.415-2.284-1.245-2.973
	c-0.83-0.688-1.835-1.031-3.015-1.031c-1.546,0-2.718,0.554-3.516,1.66c-0.798,1.106-1.196,2.531-1.196,4.272v0.513
	c0,1.758,0.398,3.188,1.196,4.291C65.365,537.764,66.545,538.314,68.108,538.314z"/>
<path fill="#FFFFFF" d="M76.97,528.256c0.415-0.943,1.017-1.678,1.807-2.203c0.789-0.524,1.75-0.787,2.881-0.787
	c1.375,0,2.419,0.436,3.131,1.307c0.712,0.87,1.068,2.241,1.068,4.113v8.032h-0.671v-8.057c0-1.733-0.319-2.956-0.958-3.668
	c-0.639-0.712-1.492-1.068-2.558-1.068c-1.4,0-2.48,0.411-3.241,1.233c-0.761,0.821-1.247,1.875-1.458,3.161v8.398h-0.659v-6.763
	h-0.024c0-0.171,0-0.313,0-0.428c0-0.113,0.008-0.228,0.024-0.342v-11.511h0.659V528.256z"/>
<path fill="#FFFFFF" d="M94.622,538.975c-1.555,0-2.867-0.603-3.937-1.807c-1.07-1.205-1.605-2.723-1.605-4.554v-0.781
	c0-1.912,0.531-3.485,1.593-4.718c1.062-1.233,2.398-1.85,4.01-1.85c1.465,0,2.632,0.482,3.503,1.446
	c0.871,0.965,1.306,2.281,1.306,3.949v1.013h-9.753v0.159v0.781c0,1.611,0.456,2.965,1.367,4.059
	c0.911,1.095,2.083,1.642,3.516,1.642c0.789,0,1.548-0.146,2.277-0.439c0.728-0.293,1.32-0.684,1.776-1.172l0.354,0.514
	c-0.464,0.512-1.062,0.934-1.794,1.263C96.501,538.81,95.63,538.975,94.622,538.975z M94.683,525.925
	c-1.367,0-2.488,0.475-3.363,1.422c-0.875,0.948-1.369,2.146-1.483,3.595l0.037,0.074h8.96v-0.403c0-1.359-0.371-2.479-1.111-3.363
	C96.981,526.366,95.968,525.925,94.683,525.925z"/>
<path fill="#FFFFFF" d="M103.496,521.359h-0.659v-1.685h0.659V521.359z M103.496,538.718h-0.659V525.51h0.659V538.718z"/>
<path fill="#FFFFFF" d="M108.391,525.51l0.085,2.661c0.407-0.92,0.993-1.634,1.758-2.143c0.765-0.508,1.705-0.763,2.82-0.763
	c1.44,0,2.521,0.454,3.241,1.361c0.721,0.907,1.081,2.346,1.081,4.314v7.776h-0.659v-7.8c0-1.832-0.328-3.121-0.983-3.87
	c-0.655-0.749-1.544-1.123-2.667-1.123c-1.384,0-2.441,0.403-3.174,1.208c-0.732,0.807-1.201,1.844-1.404,3.113v8.472h-0.659v-6.763
	h-0.037c0-0.154,0.002-0.312,0.006-0.47c0.004-0.159,0.014-0.319,0.031-0.482v-5.493H108.391z"/>
<path fill="#FFFFFF" d="M136.345,536.398c-0.415,0.813-1.005,1.446-1.77,1.898c-0.765,0.451-1.693,0.678-2.783,0.678
	c-1.359,0-2.423-0.482-3.192-1.447c-0.769-0.964-1.153-2.459-1.153-4.486v-7.531h0.659v7.557c0,1.79,0.33,3.112,0.989,3.967
	s1.55,1.281,2.673,1.281c1.343,0,2.382-0.327,3.119-0.982c0.736-0.654,1.214-1.52,1.434-2.594v-9.229h0.671v7.775h0.024
	c0,0.106-0.004,0.208-0.012,0.306c-0.008,0.098-0.012,0.212-0.012,0.342v4.785h-0.549L136.345,536.398z"/>
<path fill="#FFFFFF" d="M141.741,525.51l0.085,2.661c0.407-0.92,0.993-1.634,1.758-2.143c0.765-0.508,1.705-0.763,2.82-0.763
	c1.44,0,2.521,0.454,3.241,1.361c0.721,0.907,1.081,2.346,1.081,4.314v7.776h-0.659v-7.8c0-1.832-0.328-3.121-0.983-3.87
	c-0.655-0.749-1.544-1.123-2.667-1.123c-1.384,0-2.441,0.403-3.174,1.208c-0.732,0.807-1.201,1.844-1.404,3.113v8.472h-0.659v-6.763
	h-0.037c0-0.154,0.002-0.312,0.006-0.47c0.004-0.159,0.014-0.319,0.031-0.482v-5.493H141.741z"/>
<path fill="#FFFFFF" d="M154.253,532.102c0-2.092,0.439-3.754,1.318-4.986c0.879-1.233,2.1-1.85,3.662-1.85
	c1.025,0,1.915,0.23,2.667,0.689c0.753,0.46,1.353,1.089,1.801,1.887v-8.167h0.659v9.899c0,0.017,0,0.029,0,0.037
	s0.004,0.012,0.012,0.012v5.384c-0.008,0.017-0.012,0.028-0.012,0.036c0,0.009,0,0.017,0,0.025v3.649h-0.635l-0.024-2.038
	c-0.439,0.707-1.042,1.268-1.807,1.678c-0.765,0.411-1.66,0.617-2.686,0.617c-1.555,0-2.769-0.595-3.644-1.783
	c-0.875-1.188-1.313-2.799-1.313-4.834V532.102z M154.937,532.357c0,1.823,0.36,3.271,1.08,4.346c0.721,1.074,1.78,1.611,3.18,1.611
	c1.147,0,2.1-0.258,2.856-0.774s1.306-1.207,1.648-2.069v-6.25c-0.326-0.936-0.84-1.719-1.544-2.35
	c-0.704-0.631-1.683-0.946-2.936-0.946c-1.4,0-2.464,0.572-3.192,1.715c-0.729,1.144-1.093,2.631-1.093,4.462V532.357z"/>
<path fill="#FFFFFF" d="M173.918,532.102c0-2.092,0.439-3.754,1.318-4.986c0.879-1.233,2.1-1.85,3.662-1.85
	c1.025,0,1.915,0.232,2.667,0.695c0.752,0.465,1.353,1.1,1.8,1.904l0.098-2.355h0.562v4.064c0,0.017,0,0.029,0,0.037
	s0.004,0.012,0.012,0.012v5.384c-0.008,0.017-0.012,0.028-0.012,0.036c0,0.009,0,0.017,0,0.025v3.723
	c0,1.677-0.441,2.973-1.325,3.888c-0.883,0.916-2.105,1.374-3.668,1.374c-0.643,0-1.313-0.067-2.008-0.202
	c-0.696-0.134-1.305-0.319-1.825-0.556l0.195-0.658c0.594,0.26,1.167,0.453,1.721,0.579c0.553,0.126,1.184,0.189,1.892,0.189
	c1.424,0,2.504-0.396,3.241-1.19c0.736-0.793,1.104-1.935,1.104-3.424v-2.088c-0.448,0.7-1.052,1.254-1.813,1.66
	c-0.761,0.407-1.65,0.611-2.667,0.611c-1.555,0-2.769-0.595-3.644-1.783c-0.875-1.188-1.312-2.799-1.312-4.834V532.102z
	 M174.59,532.357c0,1.823,0.362,3.271,1.086,4.346c0.724,1.074,1.786,1.611,3.186,1.611c1.131,0,2.075-0.254,2.832-0.763
	c0.757-0.508,1.31-1.19,1.66-2.044v-6.324c-0.326-0.919-0.84-1.692-1.544-2.318c-0.704-0.627-1.679-0.94-2.924-0.94
	c-1.4,0-2.466,0.572-3.198,1.715c-0.732,1.144-1.099,2.631-1.099,4.462V532.357z"/>
<path fill="#FFFFFF" d="M192.839,538.975c-1.555,0-2.867-0.603-3.937-1.807c-1.07-1.205-1.605-2.723-1.605-4.554v-0.781
	c0-1.912,0.531-3.485,1.593-4.718c1.062-1.233,2.398-1.85,4.01-1.85c1.465,0,2.632,0.482,3.503,1.446
	c0.871,0.965,1.306,2.281,1.306,3.949v1.013h-9.753v0.159v0.781c0,1.611,0.456,2.965,1.367,4.059
	c0.911,1.095,2.083,1.642,3.516,1.642c0.789,0,1.548-0.146,2.277-0.439c0.728-0.293,1.32-0.684,1.776-1.172l0.354,0.514
	c-0.464,0.512-1.062,0.934-1.794,1.263C194.719,538.81,193.848,538.975,192.839,538.975z M192.9,525.925
	c-1.367,0-2.488,0.475-3.363,1.422c-0.875,0.948-1.369,2.146-1.483,3.595l0.037,0.074h8.96v-0.403c0-1.359-0.371-2.479-1.111-3.363
	C195.199,526.366,194.186,525.925,192.9,525.925z"/>
<path fill="#FFFFFF" d="M201.458,525.51l0.085,2.661c0.407-0.92,0.993-1.634,1.758-2.143c0.765-0.508,1.705-0.763,2.82-0.763
	c1.441,0,2.521,0.454,3.241,1.361c0.721,0.907,1.081,2.346,1.081,4.314v7.776h-0.66v-7.8c0-1.832-0.327-3.121-0.982-3.87
	c-0.654-0.749-1.544-1.123-2.667-1.123c-1.384,0-2.441,0.403-3.174,1.208c-0.732,0.807-1.201,1.844-1.404,3.113v8.472h-0.659v-6.763
	h-0.037c0-0.154,0.002-0.312,0.006-0.47c0.004-0.159,0.014-0.319,0.031-0.482v-5.493H201.458z"/>
<path fill="#FFFFFF" d="M215.397,521.359h-0.658v-1.685h0.658V521.359z M215.397,538.718h-0.658V525.51h0.658V538.718z"/>
<path fill="#FFFFFF" d="M224.358,538.975c-1.555,0-2.867-0.603-3.938-1.807c-1.07-1.205-1.605-2.723-1.605-4.554v-0.781
	c0-1.912,0.531-3.485,1.594-4.718c1.062-1.233,2.398-1.85,4.01-1.85c1.465,0,2.633,0.482,3.504,1.446
	c0.87,0.965,1.306,2.281,1.306,3.949v1.013h-9.753v0.159v0.781c0,1.611,0.455,2.965,1.367,4.059
	c0.911,1.095,2.083,1.642,3.516,1.642c0.789,0,1.548-0.146,2.276-0.439c0.728-0.293,1.32-0.684,1.776-1.172l0.354,0.514
	c-0.464,0.512-1.063,0.934-1.795,1.263C226.237,538.81,225.367,538.975,224.358,538.975z M224.419,525.925
	c-1.367,0-2.488,0.475-3.363,1.422c-0.875,0.948-1.369,2.146-1.482,3.595l0.036,0.074h8.96v-0.403c0-1.359-0.37-2.479-1.111-3.363
	C226.718,526.366,225.705,525.925,224.419,525.925z"/>
<path fill="#FFFFFF" d="M232.977,538.718h-0.659V525.51c0-1.53,0.362-2.71,1.086-3.54c0.725-0.83,1.742-1.245,3.053-1.245
	c1,0,1.845,0.297,2.532,0.891c0.688,0.595,1.032,1.388,1.032,2.381c0,0.822-0.243,1.654-0.727,2.496
	c-0.484,0.843-0.727,1.662-0.727,2.46c0,0.732,0.785,1.675,2.355,2.826c1.571,1.151,2.356,2.337,2.356,3.558
	c0,1.148-0.464,2.041-1.392,2.68c-0.928,0.64-1.957,0.959-3.088,0.959c-0.709,0-1.439-0.106-2.191-0.318
	c-0.753-0.211-1.292-0.468-1.617-0.769l0.305-0.599c0.342,0.277,0.84,0.52,1.495,0.727c0.655,0.208,1.292,0.312,1.911,0.312
	c1.139,0,2.076-0.291,2.813-0.873c0.736-0.581,1.104-1.324,1.104-2.228c0-0.92-0.785-1.945-2.355-3.076
	c-1.571-1.131-2.356-2.205-2.356-3.223c0-0.854,0.229-1.717,0.689-2.588s0.69-1.66,0.69-2.368c0-0.732-0.275-1.347-0.824-1.843
	c-0.55-0.497-1.178-0.745-1.887-0.745c-1.09,0-1.963,0.356-2.618,1.068s-0.982,1.731-0.982,3.058V538.718z"/>
<path fill="#FFFFFF" d="M251.483,538.975c-1.555,0-2.867-0.603-3.938-1.807c-1.07-1.205-1.605-2.723-1.605-4.554v-0.781
	c0-1.912,0.531-3.485,1.594-4.718c1.062-1.233,2.398-1.85,4.01-1.85c1.465,0,2.633,0.482,3.504,1.446
	c0.87,0.965,1.306,2.281,1.306,3.949v1.013h-9.753v0.159v0.781c0,1.611,0.455,2.965,1.367,4.059
	c0.911,1.095,2.083,1.642,3.516,1.642c0.789,0,1.548-0.146,2.276-0.439c0.728-0.293,1.32-0.684,1.776-1.172l0.354,0.514
	c-0.464,0.512-1.063,0.934-1.795,1.263C253.362,538.81,252.492,538.975,251.483,538.975z M251.544,525.925
	c-1.367,0-2.488,0.475-3.363,1.422c-0.875,0.948-1.369,2.146-1.482,3.595l0.036,0.074h8.96v-0.403c0-1.359-0.37-2.479-1.111-3.363
	C253.843,526.366,252.83,525.925,251.544,525.925z"/>
<path fill="#FFFFFF" d="M260.102,525.51l0.085,2.661c0.407-0.92,0.993-1.634,1.758-2.143c0.766-0.508,1.705-0.763,2.82-0.763
	c1.44,0,2.521,0.454,3.241,1.361c0.72,0.907,1.08,2.346,1.08,4.314v7.776h-0.659v-7.8c0-1.832-0.328-3.121-0.982-3.87
	c-0.655-0.749-1.545-1.123-2.668-1.123c-1.383,0-2.441,0.403-3.174,1.208c-0.732,0.807-1.2,1.844-1.403,3.113v8.472h-0.659v-6.763
	h-0.037c0-0.154,0.002-0.312,0.007-0.47c0.004-0.159,0.014-0.319,0.03-0.482v-5.493H260.102z"/>
<path fill="#FFFFFF" d="M290.045,534.531c0-1.018-0.417-1.838-1.251-2.46c-0.835-0.623-2.257-1.264-4.267-1.923
	c-2.002-0.61-3.478-1.258-4.425-1.941c-0.948-0.684-1.422-1.696-1.422-3.039c0-1.335,0.555-2.415,1.666-3.241
	c1.11-0.825,2.521-1.239,4.229-1.239c1.774,0,3.2,0.456,4.278,1.367c1.078,0.912,1.602,2.186,1.568,3.821l-0.023,0.073h-0.563
	c0-1.326-0.488-2.425-1.465-3.296s-2.241-1.306-3.796-1.306c-1.604,0-2.877,0.376-3.821,1.129c-0.943,0.753-1.416,1.642-1.416,2.667
	s0.381,1.857,1.142,2.496c0.761,0.64,2.179,1.264,4.255,1.874c2.018,0.635,3.52,1.294,4.504,1.978s1.477,1.688,1.477,3.015
	c0,1.352-0.581,2.434-1.745,3.248c-1.164,0.813-2.601,1.221-4.31,1.221c-1.781,0-3.315-0.417-4.602-1.252
	c-1.286-0.834-1.908-2.146-1.867-3.937l0.023-0.073h0.55c0,1.611,0.594,2.781,1.782,3.51s2.56,1.092,4.113,1.092
	c1.555,0,2.841-0.359,3.857-1.08C289.536,536.515,290.045,535.613,290.045,534.531z"/>
<path fill="#FFFFFF" d="M294.952,521.359h-0.66v-1.685h0.66V521.359z M294.952,538.718h-0.66V525.51h0.66V538.718z"/>
<path fill="#FFFFFF" d="M303.911,538.975c-1.554,0-2.866-0.603-3.937-1.807c-1.07-1.205-1.604-2.723-1.604-4.554v-0.781
	c0-1.912,0.53-3.485,1.593-4.718c1.062-1.233,2.398-1.85,4.01-1.85c1.465,0,2.633,0.482,3.503,1.446
	c0.871,0.965,1.307,2.281,1.307,3.949v1.013h-9.754v0.159v0.781c0,1.611,0.456,2.965,1.367,4.059
	c0.912,1.095,2.084,1.642,3.516,1.642c0.79,0,1.549-0.146,2.277-0.439c0.728-0.293,1.32-0.684,1.775-1.172l0.354,0.514
	c-0.464,0.512-1.062,0.934-1.794,1.263C305.792,538.81,304.921,538.975,303.911,538.975z M303.973,525.925
	c-1.367,0-2.488,0.475-3.363,1.422c-0.875,0.948-1.369,2.146-1.483,3.595l0.037,0.074h8.96v-0.403c0-1.359-0.37-2.479-1.11-3.363
	C306.271,526.366,305.259,525.925,303.973,525.925z"/>
<path fill="#FFFFFF" d="M326.8,536.398c-0.416,0.813-1.006,1.446-1.771,1.898c-0.765,0.451-1.692,0.678-2.783,0.678
	c-1.359,0-2.423-0.482-3.192-1.447c-0.769-0.964-1.153-2.459-1.153-4.486v-7.531h0.659v7.557c0,1.79,0.33,3.112,0.988,3.967
	c0.66,0.854,1.551,1.281,2.674,1.281c1.343,0,2.382-0.327,3.119-0.982c0.736-0.654,1.215-1.52,1.434-2.594v-9.229h0.672v7.775h0.024
	c0,0.106-0.004,0.208-0.013,0.306c-0.008,0.098-0.012,0.212-0.012,0.342v4.785h-0.549L326.8,536.398z"/>
<path fill="#FFFFFF" d="M332.195,525.51l0.085,2.661c0.407-0.92,0.993-1.634,1.758-2.143c0.766-0.508,1.705-0.763,2.82-0.763
	c1.44,0,2.521,0.454,3.241,1.361c0.72,0.907,1.08,2.346,1.08,4.314v7.776h-0.659v-7.8c0-1.832-0.328-3.121-0.982-3.87
	c-0.655-0.749-1.545-1.123-2.668-1.123c-1.383,0-2.441,0.403-3.174,1.208c-0.732,0.807-1.2,1.844-1.403,3.113v8.472h-0.659v-6.763
	h-0.037c0-0.154,0.002-0.312,0.007-0.47c0.004-0.159,0.014-0.319,0.03-0.482v-5.493H332.195z"/>
<path fill="#FFFFFF" d="M353.411,535.482c0-0.699-0.3-1.336-0.897-1.91c-0.599-0.573-1.642-1.023-3.132-1.349
	c-1.57-0.334-2.708-0.763-3.411-1.288c-0.704-0.524-1.056-1.304-1.056-2.338c0-0.943,0.398-1.734,1.195-2.374
	c0.798-0.639,1.872-0.958,3.223-0.958c1.457,0,2.604,0.342,3.443,1.025c0.838,0.684,1.236,1.574,1.195,2.674l-0.023,0.072h-0.563
	c0-0.862-0.364-1.597-1.092-2.203c-0.729-0.605-1.715-0.909-2.961-0.909c-1.236,0-2.172,0.267-2.807,0.8s-0.953,1.149-0.953,1.85
	c0,0.691,0.27,1.281,0.807,1.77s1.603,0.916,3.197,1.281c1.474,0.342,2.59,0.809,3.352,1.398c0.761,0.59,1.141,1.414,1.141,2.472
	c0,1.033-0.423,1.872-1.27,2.515c-0.846,0.643-1.969,0.965-3.369,0.965c-1.537,0-2.744-0.344-3.619-1.032
	c-0.875-0.688-1.283-1.523-1.227-2.509l0.024-0.072h0.537c0.065,1.041,0.513,1.794,1.343,2.258s1.811,0.695,2.941,0.695
	c1.221,0,2.189-0.284,2.906-0.854C353.053,536.891,353.411,536.231,353.411,535.482z"/>
<path fill="#FFFFFF" d="M362.384,538.975c-1.555,0-2.867-0.603-3.938-1.807c-1.07-1.205-1.605-2.723-1.605-4.554v-0.781
	c0-1.912,0.531-3.485,1.594-4.718c1.062-1.233,2.398-1.85,4.01-1.85c1.465,0,2.633,0.482,3.504,1.446
	c0.87,0.965,1.306,2.281,1.306,3.949v1.013h-9.753v0.159v0.781c0,1.611,0.455,2.965,1.367,4.059
	c0.911,1.095,2.083,1.642,3.516,1.642c0.789,0,1.548-0.146,2.276-0.439c0.728-0.293,1.32-0.684,1.776-1.172l0.354,0.514
	c-0.464,0.512-1.063,0.934-1.795,1.263C364.263,538.81,363.393,538.975,362.384,538.975z M362.444,525.925
	c-1.367,0-2.488,0.475-3.363,1.422c-0.875,0.948-1.369,2.146-1.482,3.595l0.036,0.074h8.96v-0.403c0-1.359-0.37-2.479-1.111-3.363
	C364.743,526.366,363.73,525.925,362.444,525.925z"/>
<path fill="#FFFFFF" d="M376.263,525.986l-0.854-0.074c-1.181,0-2.139,0.381-2.875,1.142c-0.737,0.762-1.215,1.765-1.435,3.009
	v8.655h-0.659V525.51h0.537l0.122,2.295v0.451c0.366-0.943,0.911-1.678,1.636-2.203c0.725-0.524,1.615-0.787,2.674-0.787
	c0.187,0,0.359,0.015,0.519,0.043c0.158,0.028,0.295,0.059,0.409,0.092L376.263,525.986z"/>
<path fill="#FFFFFF" d="M383.196,538.975c-1.555,0-2.867-0.603-3.938-1.807c-1.07-1.205-1.605-2.723-1.605-4.554v-0.781
	c0-1.912,0.531-3.485,1.594-4.718c1.062-1.233,2.398-1.85,4.01-1.85c1.465,0,2.633,0.482,3.504,1.446
	c0.87,0.965,1.306,2.281,1.306,3.949v1.013h-9.753v0.159v0.781c0,1.611,0.455,2.965,1.367,4.059
	c0.911,1.095,2.083,1.642,3.516,1.642c0.789,0,1.548-0.146,2.276-0.439c0.728-0.293,1.32-0.684,1.776-1.172l0.354,0.514
	c-0.464,0.512-1.063,0.934-1.795,1.263C385.075,538.81,384.205,538.975,383.196,538.975z M383.257,525.925
	c-1.367,0-2.488,0.475-3.363,1.422c-0.875,0.948-1.369,2.146-1.482,3.595l0.036,0.074h8.96v-0.403c0-1.359-0.37-2.479-1.111-3.363
	C385.556,526.366,384.543,525.925,383.257,525.925z"/>
<path fill="#FFFFFF" d="M391.814,525.51l0.085,2.661c0.407-0.92,0.993-1.634,1.758-2.143c0.766-0.508,1.705-0.763,2.82-0.763
	c1.44,0,2.521,0.454,3.241,1.361c0.72,0.907,1.08,2.346,1.08,4.314v7.776h-0.659v-7.8c0-1.832-0.328-3.121-0.982-3.87
	c-0.655-0.749-1.545-1.123-2.668-1.123c-1.383,0-2.441,0.403-3.174,1.208c-0.732,0.807-1.2,1.844-1.403,3.113v8.472h-0.659v-6.763
	h-0.037c0-0.154,0.002-0.312,0.007-0.47c0.004-0.159,0.014-0.319,0.03-0.482v-5.493H391.814z"/>
<path fill="#FFFFFF" d="M68.45,559.916h-2.234v8.802h-0.659v-17.773h0.659v8.325h2.417l7.3-8.325h0.781l0.024,0.062l-7.556,8.679
	l8.484,8.96l-0.037,0.073H76.86L68.45,559.916z"/>
<path fill="#FFFFFF" d="M81.011,568.718h-0.659v-19.043h0.659V568.718z"/>
<path fill="#FFFFFF" d="M93.633,566.276c-0.456,0.798-1.135,1.446-2.039,1.947c-0.903,0.5-1.998,0.751-3.284,0.751
	c-1.229,0-2.193-0.336-2.893-1.008c-0.7-0.671-1.05-1.576-1.05-2.716c0-1.106,0.523-2.034,1.569-2.783
	c1.045-0.749,2.354-1.123,3.924-1.123h3.772v-1.929c0-1.099-0.352-1.955-1.056-2.569c-0.704-0.614-1.695-0.922-2.973-0.922
	c-1.196,0-2.159,0.289-2.887,0.866c-0.729,0.578-1.093,1.323-1.093,2.234l-0.549-0.024l-0.024-0.062
	c-0.049-1.025,0.35-1.894,1.196-2.605c0.846-0.712,1.965-1.068,3.357-1.068c1.416,0,2.551,0.358,3.406,1.074s1.282,1.75,1.282,3.101
	v6.616c0,0.464,0.026,0.916,0.079,1.355c0.053,0.439,0.141,0.874,0.263,1.306h-0.732c-0.106-0.578-0.177-1.011-0.214-1.3
	c-0.036-0.289-0.055-0.601-0.055-0.934V566.276z M88.311,568.327c1.31,0,2.419-0.289,3.326-0.866
	c0.908-0.578,1.573-1.404,1.996-2.479v-2.967h-3.735c-1.367,0-2.521,0.316-3.461,0.946c-0.939,0.631-1.41,1.41-1.41,2.338
	c0,0.887,0.299,1.613,0.897,2.179C86.522,568.045,87.317,568.327,88.311,568.327z"/>
<path fill="#FFFFFF" d="M106.633,565.482c0-0.699-0.299-1.336-0.897-1.91c-0.599-0.573-1.642-1.023-3.131-1.349
	c-1.571-0.334-2.708-0.763-3.412-1.288c-0.704-0.524-1.056-1.304-1.056-2.338c0-0.943,0.398-1.734,1.196-2.374
	c0.797-0.639,1.872-0.958,3.223-0.958c1.457,0,2.604,0.342,3.442,1.025c0.838,0.684,1.237,1.574,1.196,2.674l-0.024,0.072h-0.562
	c0-0.862-0.364-1.597-1.092-2.203c-0.729-0.605-1.715-0.909-2.96-0.909c-1.237,0-2.173,0.267-2.808,0.8s-0.952,1.149-0.952,1.85
	c0,0.691,0.269,1.281,0.806,1.77s1.603,0.916,3.198,1.281c1.473,0.342,2.59,0.809,3.351,1.398c0.761,0.59,1.141,1.414,1.141,2.472
	c0,1.033-0.423,1.872-1.27,2.515c-0.847,0.643-1.97,0.965-3.369,0.965c-1.538,0-2.745-0.344-3.62-1.032
	c-0.875-0.688-1.284-1.523-1.227-2.509l0.024-0.072h0.537c0.065,1.041,0.513,1.794,1.343,2.258s1.811,0.695,2.942,0.695
	c1.221,0,2.189-0.284,2.905-0.854C106.275,566.891,106.633,566.231,106.633,565.482z"/>
<path fill="#FFFFFF" d="M119.072,565.482c0-0.699-0.299-1.336-0.897-1.91c-0.598-0.573-1.642-1.023-3.131-1.349
	c-1.571-0.334-2.708-0.763-3.412-1.288c-0.704-0.524-1.056-1.304-1.056-2.338c0-0.943,0.398-1.734,1.196-2.374
	c0.797-0.639,1.872-0.958,3.223-0.958c1.457,0,2.604,0.342,3.442,1.025c0.838,0.684,1.237,1.574,1.196,2.674l-0.024,0.072h-0.562
	c0-0.862-0.364-1.597-1.093-2.203c-0.728-0.605-1.715-0.909-2.96-0.909c-1.237,0-2.173,0.267-2.808,0.8s-0.952,1.149-0.952,1.85
	c0,0.691,0.269,1.281,0.806,1.77s1.603,0.916,3.198,1.281c1.473,0.342,2.59,0.809,3.351,1.398c0.761,0.59,1.142,1.414,1.142,2.472
	c0,1.033-0.423,1.872-1.27,2.515c-0.847,0.643-1.97,0.965-3.369,0.965c-1.538,0-2.745-0.344-3.619-1.032
	c-0.875-0.688-1.284-1.523-1.227-2.509l0.024-0.072h0.537c0.065,1.041,0.513,1.794,1.343,2.258s1.811,0.695,2.942,0.695
	c1.221,0,2.189-0.284,2.905-0.854C118.714,566.891,119.072,566.231,119.072,565.482z"/>
<path fill="#FFFFFF" d="M124.236,551.359h-0.659v-1.685h0.659V551.359z M124.236,568.718h-0.659V555.51h0.659V568.718z"/>
<path fill="#FFFFFF" d="M131.035,561.967h-1.807v6.751h-0.659v-19.043h0.659v11.634h1.55l6.006-5.799h0.769l0.024,0.073
	l-6.055,5.944l6.519,7.129l-0.024,0.062h-0.769L131.035,561.967z"/>
<path fill="#FFFFFF" d="M144.78,568.975c-1.555,0-2.867-0.603-3.937-1.807c-1.07-1.205-1.605-2.723-1.605-4.554v-0.781
	c0-1.912,0.531-3.485,1.593-4.718c1.063-1.233,2.399-1.85,4.01-1.85c1.465,0,2.632,0.482,3.503,1.446
	c0.871,0.965,1.306,2.281,1.306,3.949v1.013h-9.753v0.159v0.781c0,1.611,0.456,2.965,1.367,4.059
	c0.911,1.095,2.083,1.642,3.516,1.642c0.789,0,1.548-0.146,2.276-0.439c0.729-0.293,1.32-0.684,1.776-1.172l0.354,0.514
	c-0.464,0.512-1.062,0.934-1.794,1.263C146.66,568.81,145.789,568.975,144.78,568.975z M144.841,555.925
	c-1.367,0-2.488,0.475-3.363,1.422c-0.875,0.948-1.37,2.146-1.483,3.595l0.037,0.074h8.96v-0.403c0-1.359-0.371-2.479-1.111-3.363
	C147.14,556.366,146.127,555.925,144.841,555.925z"/>
<path fill="#FFFFFF" d="M158.66,555.986l-0.854-0.074c-1.18,0-2.138,0.381-2.875,1.142c-0.737,0.762-1.215,1.765-1.435,3.009v8.655
	h-0.659V555.51h0.537l0.122,2.295v0.451c0.366-0.943,0.911-1.678,1.636-2.203c0.724-0.524,1.615-0.787,2.673-0.787
	c0.187,0,0.36,0.015,0.519,0.043c0.158,0.028,0.294,0.059,0.409,0.092L158.66,555.986z"/>
<path fill="#FFFFFF" d="M167.034,568.059h9.399v0.659h-10.291v-0.537l8.679-11.999h-8.301v-0.672h9.192v0.586L167.034,568.059z"/>
<path fill="#FFFFFF" d="M187.969,566.398c-0.415,0.813-1.005,1.446-1.77,1.898c-0.765,0.451-1.693,0.678-2.783,0.678
	c-1.359,0-2.423-0.482-3.192-1.447c-0.77-0.964-1.154-2.459-1.154-4.486v-7.531h0.659v7.557c0,1.79,0.33,3.112,0.989,3.967
	s1.55,1.281,2.673,1.281c1.343,0,2.382-0.327,3.119-0.982c0.737-0.654,1.215-1.52,1.435-2.594v-9.229h0.671v7.775h0.024
	c0,0.106-0.004,0.208-0.012,0.306c-0.008,0.098-0.012,0.212-0.012,0.342v4.785h-0.549L187.969,566.398z"/>
<path fill="#FFFFFF" d="M193.267,555.51l0.085,2.661c0.407-0.92,0.98-1.634,1.721-2.143c0.74-0.508,1.644-0.763,2.71-0.763
	c1.123,0,2.039,0.283,2.747,0.849s1.2,1.442,1.477,2.63c0.366-1.098,0.942-1.954,1.728-2.569c0.785-0.614,1.764-0.921,2.936-0.921
	c1.456,0,2.563,0.476,3.32,1.428s1.136,2.449,1.136,4.492v7.531h-0.672v-7.556c0-1.912-0.342-3.264-1.025-4.053
	s-1.596-1.185-2.734-1.185c-1.359,0-2.395,0.399-3.106,1.197c-0.712,0.797-1.17,1.83-1.374,3.1c0.008,0.163,0.016,0.328,0.024,0.495
	c0.008,0.167,0.012,0.335,0.012,0.507v7.507h-0.671v-6.763h-0.037c0-0.154,0.002-0.31,0.006-0.464
	c0.004-0.154,0.014-0.306,0.031-0.452c-0.024-1.871-0.375-3.191-1.05-3.961c-0.676-0.769-1.583-1.153-2.722-1.153
	c-1.343,0-2.366,0.389-3.07,1.166c-0.704,0.777-1.162,1.784-1.373,3.021v8.606h-0.671v-6.763h-0.024
	c0-0.114,0.002-0.228,0.006-0.342c0.004-0.114,0.01-0.256,0.018-0.428v-5.676H193.267z"/>
<path fill="#FFFFFF" d="M221.855,558.256c0.415-0.943,1.018-1.678,1.807-2.203c0.789-0.524,1.75-0.787,2.881-0.787
	c1.375,0,2.419,0.436,3.131,1.307c0.712,0.87,1.068,2.241,1.068,4.113v8.032h-0.671v-8.057c0-1.733-0.32-2.956-0.959-3.668
	s-1.491-1.068-2.557-1.068c-1.4,0-2.48,0.411-3.241,1.233c-0.762,0.821-1.247,1.875-1.459,3.161v8.398h-0.659v-6.763h-0.024
	c0-0.171,0-0.313,0-0.428c0-0.113,0.008-0.228,0.024-0.342v-11.511h0.659V558.256z"/>
<path fill="#FFFFFF" d="M243.169,566.276c-0.456,0.798-1.136,1.446-2.039,1.947c-0.903,0.5-1.998,0.751-3.283,0.751
	c-1.229,0-2.193-0.336-2.894-1.008c-0.7-0.671-1.05-1.576-1.05-2.716c0-1.106,0.522-2.034,1.568-2.783s2.354-1.123,3.925-1.123
	h3.772v-1.929c0-1.099-0.353-1.955-1.057-2.569s-1.694-0.922-2.973-0.922c-1.195,0-2.158,0.289-2.887,0.866
	c-0.729,0.578-1.092,1.323-1.092,2.234l-0.55-0.024l-0.024-0.062c-0.049-1.025,0.35-1.894,1.196-2.605s1.966-1.068,3.356-1.068
	c1.416,0,2.552,0.358,3.406,1.074s1.281,1.75,1.281,3.101v6.616c0,0.464,0.026,0.916,0.08,1.355
	c0.053,0.439,0.141,0.874,0.262,1.306h-0.732c-0.105-0.578-0.177-1.011-0.213-1.3c-0.037-0.289-0.055-0.601-0.055-0.934V566.276z
	 M237.847,568.327c1.31,0,2.418-0.289,3.326-0.866c0.907-0.578,1.572-1.404,1.996-2.479v-2.967h-3.736
	c-1.367,0-2.521,0.316-3.46,0.946c-0.94,0.631-1.41,1.41-1.41,2.338c0,0.887,0.299,1.613,0.897,2.179
	C236.058,568.045,236.854,568.327,237.847,568.327z"/>
<path fill="#FFFFFF" d="M248.894,568.718h-0.66v-19.043h0.66V568.718z"/>
<path fill="#FFFFFF" d="M263.321,562.357c0,2.035-0.439,3.646-1.318,4.834c-0.879,1.188-2.091,1.783-3.637,1.783
	c-1.034,0-1.936-0.208-2.704-0.623c-0.77-0.415-1.369-0.973-1.801-1.672l-0.085,2.038h-0.55v-3.601
	c-0.008-0.025-0.015-0.045-0.019-0.062s-0.006-0.032-0.006-0.049v-5.384c0-0.008,0-0.014,0-0.018s0.008-0.031,0.024-0.08v-9.851
	h0.659v8.154c0.439-0.798,1.033-1.424,1.782-1.88s1.64-0.684,2.673-0.684c1.555,0,2.773,0.616,3.656,1.85
	c0.883,1.232,1.324,2.895,1.324,4.986V562.357z M262.638,562.102c0-1.831-0.365-3.318-1.098-4.462
	c-0.732-1.143-1.795-1.715-3.187-1.715c-1.253,0-2.232,0.313-2.936,0.94c-0.704,0.626-1.215,1.399-1.532,2.318v6.324
	c0.334,0.854,0.879,1.536,1.636,2.044c0.757,0.509,1.709,0.763,2.856,0.763c1.392,0,2.449-0.537,3.174-1.611
	s1.086-2.522,1.086-4.346V562.102z"/>
<path fill="#FFFFFF" d="M271.538,568.975c-1.555,0-2.867-0.603-3.938-1.807c-1.07-1.205-1.605-2.723-1.605-4.554v-0.781
	c0-1.912,0.531-3.485,1.594-4.718c1.062-1.233,2.398-1.85,4.01-1.85c1.465,0,2.633,0.482,3.504,1.446
	c0.87,0.965,1.306,2.281,1.306,3.949v1.013h-9.753v0.159v0.781c0,1.611,0.455,2.965,1.367,4.059
	c0.911,1.095,2.083,1.642,3.516,1.642c0.789,0,1.548-0.146,2.276-0.439c0.728-0.293,1.32-0.684,1.776-1.172l0.354,0.514
	c-0.464,0.512-1.063,0.934-1.795,1.263C273.417,568.81,272.547,568.975,271.538,568.975z M271.599,555.925
	c-1.367,0-2.488,0.475-3.363,1.422c-0.875,0.948-1.369,2.146-1.482,3.595l0.036,0.074h8.96v-0.403c0-1.359-0.37-2.479-1.111-3.363
	C273.897,556.366,272.885,555.925,271.599,555.925z"/>
<path fill="#FFFFFF" d="M280.156,555.51l0.085,2.661c0.407-0.92,0.993-1.634,1.758-2.143c0.766-0.508,1.705-0.763,2.82-0.763
	c1.44,0,2.521,0.454,3.241,1.361c0.72,0.907,1.08,2.346,1.08,4.314v7.776h-0.659v-7.8c0-1.832-0.328-3.121-0.982-3.87
	c-0.655-0.749-1.545-1.123-2.668-1.123c-1.383,0-2.441,0.403-3.174,1.208c-0.732,0.807-1.2,1.844-1.403,3.113v8.472h-0.659v-6.763
	h-0.037c0-0.154,0.002-0.312,0.007-0.47c0.004-0.159,0.014-0.319,0.03-0.482v-5.493H280.156z"/>
<path fill="#FFFFFF" d="M300.261,561.088v7.63h-0.659v-17.773h5.554c1.84,0,3.256,0.462,4.248,1.386
	c0.993,0.924,1.49,2.15,1.49,3.68c0,1.547-0.495,2.779-1.483,3.699c-0.989,0.92-2.407,1.379-4.255,1.379H300.261z M300.261,560.43
	h4.895c1.686,0,2.952-0.42,3.803-1.258s1.275-1.884,1.275-3.137c0-1.286-0.423-2.346-1.27-3.181
	c-0.846-0.834-2.115-1.251-3.809-1.251h-4.895V560.43z"/>
<path fill="#FFFFFF" d="M320.097,555.986l-0.854-0.074c-1.181,0-2.139,0.381-2.875,1.142c-0.737,0.762-1.215,1.765-1.435,3.009
	v8.655h-0.659V555.51h0.537l0.122,2.295v0.451c0.366-0.943,0.911-1.678,1.636-2.203c0.725-0.524,1.615-0.787,2.674-0.787
	c0.187,0,0.359,0.015,0.519,0.043c0.158,0.028,0.295,0.059,0.409,0.092L320.097,555.986z"/>
<path fill="#FFFFFF" d="M327.03,568.975c-1.555,0-2.867-0.603-3.938-1.807c-1.07-1.205-1.605-2.723-1.605-4.554v-0.781
	c0-1.912,0.531-3.485,1.594-4.718c1.062-1.233,2.398-1.85,4.01-1.85c1.465,0,2.633,0.482,3.504,1.446
	c0.87,0.965,1.306,2.281,1.306,3.949v1.013h-9.753v0.159v0.781c0,1.611,0.455,2.965,1.367,4.059
	c0.911,1.095,2.083,1.642,3.516,1.642c0.789,0,1.548-0.146,2.276-0.439c0.728-0.293,1.32-0.684,1.776-1.172l0.354,0.514
	c-0.464,0.512-1.063,0.934-1.795,1.263C328.909,568.81,328.039,568.975,327.03,568.975z M327.091,555.925
	c-1.367,0-2.488,0.475-3.363,1.422c-0.875,0.948-1.369,2.146-1.482,3.595l0.036,0.074h8.96v-0.403c0-1.359-0.37-2.479-1.111-3.363
	C329.39,556.366,328.377,555.925,327.091,555.925z"/>
<path fill="#FFFFFF" d="M335.905,551.359h-0.66v-1.685h0.66V551.359z M335.905,568.718h-0.66V555.51h0.66V568.718z"/>
<path fill="#FFFFFF" d="M348.333,565.482c0-0.699-0.3-1.336-0.897-1.91c-0.599-0.573-1.642-1.023-3.132-1.349
	c-1.57-0.334-2.708-0.763-3.411-1.288c-0.704-0.524-1.056-1.304-1.056-2.338c0-0.943,0.398-1.734,1.195-2.374
	c0.798-0.639,1.872-0.958,3.223-0.958c1.457,0,2.604,0.342,3.443,1.025c0.838,0.684,1.236,1.574,1.195,2.674l-0.023,0.072h-0.563
	c0-0.862-0.364-1.597-1.092-2.203c-0.729-0.605-1.715-0.909-2.961-0.909c-1.236,0-2.172,0.267-2.807,0.8s-0.953,1.149-0.953,1.85
	c0,0.691,0.27,1.281,0.807,1.77s1.603,0.916,3.197,1.281c1.474,0.342,2.59,0.809,3.352,1.398c0.761,0.59,1.141,1.414,1.141,2.472
	c0,1.033-0.423,1.872-1.27,2.515c-0.846,0.643-1.969,0.965-3.369,0.965c-1.537,0-2.744-0.344-3.619-1.032
	c-0.875-0.688-1.283-1.523-1.227-2.509l0.024-0.072h0.537c0.065,1.041,0.513,1.794,1.343,2.258s1.811,0.695,2.941,0.695
	c1.221,0,2.189-0.284,2.906-0.854C347.975,566.891,348.333,566.231,348.333,565.482z"/>
<path fill="#FFFFFF" d="M353.739,568.718h-1.051v-1.587h1.051V568.718z"/>
<path fill="#FFFFFF" d="M75.565,34.309h0.138l13.953-31.44h1.4v33.414h-1.239V5.921l-0.138-0.023l-13.54,30.385h-0.987L61.314,5.232
	l-0.138,0.023v31.027h-1.239V2.869h1.721L75.565,34.309z"/>
<path fill="#FFFFFF" d="M116.231,31.922c-0.78,1.53-1.89,2.719-3.328,3.569c-1.438,0.849-3.183,1.273-5.232,1.273
	c-2.555,0-4.556-0.906-6.001-2.72c-1.446-1.813-2.169-4.624-2.169-8.434v-14.16h1.239v14.206c0,3.366,0.62,5.852,1.859,7.458
	s2.915,2.41,5.026,2.41c2.524,0,4.479-0.616,5.863-1.848c1.385-1.231,2.284-2.857,2.697-4.876v-17.35h1.262V26.07h0.046
	c0,0.199-0.008,0.39-0.023,0.574c-0.016,0.184-0.023,0.398-0.023,0.643v8.996h-1.033L116.231,31.922z"/>
<path fill="#FFFFFF" d="M140.535,30.201c0-1.315-0.563-2.513-1.687-3.592c-1.125-1.078-3.087-1.923-5.887-2.536
	c-2.953-0.627-5.091-1.434-6.414-2.421c-1.324-0.986-1.985-2.451-1.985-4.395c0-1.774,0.75-3.262,2.249-4.464
	c1.499-1.201,3.519-1.801,6.059-1.801c2.738,0,4.896,0.643,6.472,1.928c1.576,1.285,2.325,2.96,2.249,5.026l-0.046,0.138h-1.056
	c0-1.622-0.685-3.002-2.054-4.143c-1.37-1.139-3.225-1.709-5.565-1.709c-2.326,0-4.085,0.501-5.278,1.503s-1.79,2.161-1.79,3.477
	c0,1.301,0.505,2.41,1.515,3.328s3.014,1.721,6.013,2.41c2.769,0.643,4.869,1.519,6.3,2.628c1.43,1.109,2.146,2.658,2.146,4.647
	c0,1.943-0.796,3.519-2.387,4.728c-1.591,1.209-3.703,1.813-6.334,1.813c-2.892,0-5.16-0.646-6.805-1.939
	c-1.645-1.292-2.414-2.864-2.306-4.716l0.046-0.138h1.01c0.122,1.958,0.964,3.374,2.524,4.246s3.404,1.308,5.531,1.308
	c2.295,0,4.115-0.535,5.462-1.606C139.861,32.848,140.535,31.609,140.535,30.201z"/>
<path fill="#FFFFFF" d="M157.402,36.765c-2.922,0-5.39-1.132-7.401-3.396c-2.012-2.264-3.018-5.118-3.018-8.56v-1.469
	c0-3.595,0.999-6.552,2.995-8.87c1.997-2.318,4.51-3.477,7.539-3.477c2.754,0,4.949,0.907,6.586,2.719
	c1.637,1.813,2.456,4.288,2.456,7.424v1.905h-18.336v0.298v1.469c0,3.029,0.856,5.573,2.57,7.63
	c1.713,2.058,3.917,3.087,6.609,3.087c1.484,0,2.911-0.275,4.28-0.826s2.482-1.285,3.339-2.203l0.666,0.964
	c-0.872,0.964-1.997,1.756-3.374,2.375C160.937,36.455,159.299,36.765,157.402,36.765z M157.517,12.232
	c-2.57,0-4.678,0.892-6.322,2.673c-1.645,1.783-2.575,4.036-2.789,6.759l0.069,0.138h16.845v-0.757c0-2.555-0.696-4.662-2.088-6.323
	C161.839,13.062,159.934,12.232,157.517,12.232z"/>
<path fill="#FFFFFF" d="M189.187,31.922c-0.78,1.53-1.89,2.719-3.328,3.569c-1.438,0.849-3.183,1.273-5.232,1.273
	c-2.555,0-4.555-0.906-6.001-2.72c-1.445-1.813-2.168-4.624-2.168-8.434v-14.16h1.239v14.206c0,3.366,0.62,5.852,1.859,7.458
	s2.915,2.41,5.026,2.41c2.524,0,4.479-0.616,5.864-1.848c1.384-1.231,2.283-2.857,2.696-4.876v-17.35h1.262V26.07h0.046
	c0,0.199-0.008,0.39-0.023,0.574c-0.016,0.184-0.023,0.398-0.023,0.643v8.996h-1.033L189.187,31.922z"/>
<path fill="#FFFFFF" d="M199.147,11.452l0.161,5.003c0.765-1.729,1.843-3.071,3.236-4.028c1.392-0.956,3.09-1.434,5.094-1.434
	c2.111,0,3.833,0.532,5.164,1.595s2.256,2.712,2.777,4.945c0.688-2.065,1.77-3.675,3.246-4.831c1.477-1.155,3.316-1.732,5.52-1.732
	c2.738,0,4.82,0.895,6.242,2.685c1.424,1.79,2.135,4.605,2.135,8.445v14.16h-1.262V22.054c0-3.595-0.643-6.135-1.928-7.619
	c-1.285-1.484-3-2.226-5.141-2.226c-2.556,0-4.502,0.75-5.842,2.249c-1.338,1.5-2.199,3.442-2.581,5.829
	c0.015,0.306,0.03,0.616,0.046,0.93s0.023,0.631,0.023,0.952v14.114h-1.263V23.569h-0.069c0-0.291,0.004-0.581,0.012-0.872
	c0.008-0.291,0.027-0.574,0.058-0.849c-0.046-3.519-0.704-6.001-1.974-7.447c-1.27-1.445-2.977-2.168-5.117-2.168
	c-2.525,0-4.449,0.731-5.772,2.192c-1.324,1.461-2.185,3.354-2.582,5.68v16.179h-1.262V23.569h-0.046
	c0-0.214,0.003-0.428,0.011-0.643c0.008-0.214,0.019-0.482,0.035-0.803V11.452H199.147z"/>
<path fill="#FFFFFF" d="M255.625,30.201c0-1.315-0.562-2.513-1.687-3.592c-1.125-1.078-3.087-1.923-5.887-2.536
	c-2.953-0.627-5.092-1.434-6.414-2.421c-1.324-0.986-1.985-2.451-1.985-4.395c0-1.774,0.749-3.262,2.249-4.464
	c1.499-1.201,3.519-1.801,6.059-1.801c2.738,0,4.896,0.643,6.472,1.928c1.575,1.285,2.325,2.96,2.249,5.026l-0.046,0.138h-1.056
	c0-1.622-0.686-3.002-2.055-4.143c-1.369-1.139-3.224-1.709-5.564-1.709c-2.326,0-4.085,0.501-5.278,1.503s-1.79,2.161-1.79,3.477
	c0,1.301,0.505,2.41,1.515,3.328s3.014,1.721,6.013,2.41c2.77,0.643,4.869,1.519,6.299,2.628c1.432,1.109,2.146,2.658,2.146,4.647
	c0,1.943-0.796,3.519-2.387,4.728c-1.592,1.209-3.703,1.813-6.334,1.813c-2.892,0-5.16-0.646-6.805-1.939
	c-1.645-1.292-2.414-2.864-2.307-4.716l0.047-0.138h1.01c0.121,1.958,0.963,3.374,2.523,4.246s3.404,1.308,5.531,1.308
	c2.295,0,4.115-0.535,5.462-1.606C254.952,32.848,255.625,31.609,255.625,30.201z"/>
<path fill="#FFFFFF" d="M286.744,26.047l0.046,0.138c0.061,3.427-0.975,6.047-3.109,7.86c-2.135,1.813-4.945,2.72-8.434,2.72
	c-3.657,0-6.587-1.35-8.79-4.051c-2.203-2.7-3.305-6.246-3.305-10.637v-5.003c0-4.375,1.102-7.917,3.305-10.625
	s5.133-4.062,8.79-4.062c3.488,0,6.299,0.911,8.434,2.731c2.135,1.821,3.17,4.422,3.109,7.803l-0.046,0.138h-1.056
	c0-3.014-0.938-5.339-2.811-6.977c-1.875-1.637-4.418-2.456-7.631-2.456c-3.26,0-5.883,1.232-7.872,3.695
	c-1.989,2.463-2.983,5.699-2.983,9.708v5.049c0,4.055,0.994,7.31,2.983,9.765c1.989,2.456,4.612,3.684,7.872,3.684
	c3.213,0,5.756-0.788,7.631-2.364c1.873-1.576,2.811-3.947,2.811-7.114H286.744z"/>
<path fill="#FFFFFF" d="M309.831,31.693c-0.857,1.5-2.135,2.719-3.832,3.661c-1.699,0.94-3.757,1.411-6.174,1.411
	c-2.311,0-4.123-0.631-5.439-1.894c-1.315-1.262-1.973-2.964-1.973-5.106c0-2.081,0.982-3.825,2.949-5.232
	c1.965-1.407,4.424-2.111,7.377-2.111h7.092v-3.626c0-2.065-0.662-3.675-1.984-4.831c-1.324-1.155-3.188-1.733-5.589-1.733
	c-2.249,0-4.059,0.543-5.427,1.629c-1.37,1.086-2.055,2.486-2.055,4.2l-1.033-0.046l-0.045-0.115
	c-0.092-1.928,0.657-3.561,2.248-4.899c1.592-1.339,3.695-2.008,6.312-2.008c2.662,0,4.796,0.673,6.403,2.02
	c1.605,1.347,2.409,3.29,2.409,5.829V31.28c0,0.872,0.05,1.721,0.149,2.547s0.264,1.645,0.493,2.456h-1.377
	c-0.199-1.086-0.333-1.901-0.401-2.444s-0.104-1.128-0.104-1.756V31.693z M299.825,35.548c2.463,0,4.547-0.543,6.254-1.629
	c1.705-1.086,2.956-2.639,3.752-4.659v-5.577h-7.022c-2.57,0-4.739,0.593-6.507,1.778c-1.766,1.186-2.65,2.651-2.65,4.395
	c0,1.668,0.563,3.033,1.688,4.096C296.464,35.017,297.958,35.548,299.825,35.548z"/>
<path fill="#FFFFFF" d="M320.938,36.283V12.714h-4.314v-1.262h4.314V7.367c0-2.341,0.57-4.154,1.709-5.439
	C323.788,0.643,325.383,0,327.433,0c0.506,0,1.006,0.031,1.504,0.092c0.496,0.062,0.975,0.161,1.434,0.298l-0.184,1.193
	c-0.489-0.122-0.922-0.21-1.297-0.264c-0.375-0.053-0.853-0.08-1.434-0.08c-1.652,0-2.945,0.543-3.879,1.629
	c-0.934,1.086-1.399,2.586-1.399,4.498v4.085h6.563v1.262h-6.563v23.569H320.938z"/>
<path fill="#FFFFFF" d="M342.006,36.765c-2.923,0-5.39-1.132-7.401-3.396c-2.012-2.264-3.018-5.118-3.018-8.56v-1.469
	c0-3.595,0.998-6.552,2.994-8.87c1.998-2.318,4.51-3.477,7.539-3.477c2.754,0,4.949,0.907,6.587,2.719
	c1.637,1.813,2.456,4.288,2.456,7.424v1.905h-18.337v0.298v1.469c0,3.029,0.856,5.573,2.57,7.63
	c1.714,2.058,3.917,3.087,6.609,3.087c1.483,0,2.911-0.275,4.28-0.826s2.482-1.285,3.339-2.203l0.665,0.964
	c-0.871,0.964-1.996,1.756-3.373,2.375C345.54,36.455,343.903,36.765,342.006,36.765z M342.12,12.232
	c-2.57,0-4.678,0.892-6.322,2.673c-1.645,1.783-2.574,4.036-2.788,6.759l0.069,0.138h16.844v-0.757c0-2.555-0.695-4.662-2.088-6.323
	C346.442,13.062,344.538,12.232,342.12,12.232z M346.114,0.918h1.789l0.047,0.115l-5.302,5.99h-1.538l-0.045-0.115L346.114,0.918z"
	/>
<path fill="#1A171B" d="M91.577,329.838c0,0-45-61-21-115l-5.5-1.5l-8.5,21c0,0-1.25,24.5-1.25,26s3.5,27.5,4.25,28.5
	s12.5,28,12.5,28l16,18.5L91.577,329.838z"/>
<path fill-rule="evenodd" clip-rule="evenodd" fill="#F0D098" d="M196.952,176.886c1.165-1.398,13.139-0.835,9.808,0
	C203.489,176.886,200.222,176.886,196.952,176.886z"/>
<path fill-rule="evenodd" clip-rule="evenodd" fill="#F0D098" d="M6.392,232.932c0,2.336,0,4.671,0,7.006
	C5.233,239.184,5.233,233.688,6.392,232.932z"/>
<path fill-rule="evenodd" clip-rule="evenodd" fill="#E9C386" d="M7.794,235.034c1.16,0.982,1.16,6.726,0,7.707
	C7.794,240.172,7.794,237.603,7.794,235.034z"/>
<path fill-rule="evenodd" clip-rule="evenodd" fill="#B29466" d="M308.345,307.896c2.877,4.613-6.224,9.115-11.211,10.51
	C299.416,313.447,306.508,313.299,308.345,307.896z"/>
<path fill-rule="evenodd" clip-rule="evenodd" fill="#B29466" d="M289.429,315.604c1.649,2.842-1.603,6.783-4.904,7.006
	C285.062,319.176,289.348,319.492,289.429,315.604z"/>
<path fill-rule="evenodd" clip-rule="evenodd" fill="#B29466" d="M278.22,330.316c3.451-3.555,10.349-3.664,14.012-7.008
	C290.491,328.574,284.594,329.684,278.22,330.316z"/>
<path fill-rule="evenodd" clip-rule="evenodd" fill="#F0D098" d="M202.557,340.125c1.895-1.166,8.612-1.166,10.508,0
	c-2.335,0-4.67,0-7.005,0C204.891,340.125,203.724,340.125,202.557,340.125z"/>
<path fill-rule="evenodd" clip-rule="evenodd" fill="#F0D098" d="M232.682,342.225c3.2-2.154,10.855,0.627,2.101,0
	C234.082,342.225,233.382,342.225,232.682,342.225z"/>
<path fill-rule="evenodd" clip-rule="evenodd" fill="#B29466" d="M225.676,352.033c0-0.232,0-0.467,0-0.701
	c5.137,0,10.274,0,15.413,0c0,0.234,0,0.469,0,0.701C235.95,352.033,230.813,352.033,225.676,352.033z"/>
<path fill-rule="evenodd" clip-rule="evenodd" fill="#E99F33" d="M112.18,190.897c4.864-4.944,10.373-9.243,16.114-13.311
	c-3.735,4.438-9.732,6.614-12.611,11.91c0.129,0.596-0.272,0.66-0.7,0.701C113.554,188.79,113.609,190.506,112.18,190.897z"/>
<path fill-rule="evenodd" clip-rule="evenodd" fill="#B29466" d="M41.422,214.017c-9.228,5.952-17.892,12.466-25.221,20.316
	c-0.995,0.061-1.984,0.116-2.102-0.7c9.934-6.413,17.279-15.415,28.022-21.018C41.988,213.184,41.419,213.314,41.422,214.017z"/>
<path fill-rule="evenodd" clip-rule="evenodd" fill="#B56C21" d="M7.093,279.172c-0.629-2.406-3.027-3.045-2.802-6.305
	c4.671-5.836,8.875-12.144,12.61-18.917c1.168,0,2.335,0,3.502,0c-4.612,7.998-9.076,16.145-11.909,25.922
	C7.928,279.738,7.796,279.168,7.093,279.172z"/>
<path fill-rule="evenodd" clip-rule="evenodd" fill="#E99F33" d="M117.785,310c-4.953-6.959-11.26-12.561-15.413-20.318
	c4.665,5.844,9.141,11.877,14.013,17.514C116.393,308.588,118.296,308.088,117.785,310z"/>
<path fill-rule="evenodd" clip-rule="evenodd" fill="#E99F33" d="M133.198,324.711c-4.863-3.076-9.098-6.781-12.611-11.209
	C124.612,317.418,129.068,320.902,133.198,324.711z"/>
<path fill-rule="evenodd" clip-rule="evenodd" fill="#B29466" d="M330.763,308.598c15.553,6.865,25.746,19.092,40.634,26.623
	C355.434,328.764,345.395,316.385,330.763,308.598z"/>
<path fill-rule="evenodd" clip-rule="evenodd" fill="#B29466" d="M405.024,276.369c7.7,7.248,13.929,15.965,18.216,26.623
	c-3.626-5.947-6.94-12.207-11.208-17.516C410.235,281.9,406.567,280.199,405.024,276.369z"/>
<path fill-rule="evenodd" clip-rule="evenodd" fill="#ECA949" d="M393.114,264.458c4.354,3.586,8.447,7.434,11.91,11.911
	C400.763,272.693,396.792,268.721,393.114,264.458z"/>
<path fill-rule="evenodd" clip-rule="evenodd" fill="#E99F33" d="M292.231,176.886c15.673,6.512,23.808,20.563,32.928,33.628
	C315.413,198.076,307.064,184.238,292.231,176.886z"/>
<path fill-rule="evenodd" clip-rule="evenodd" fill="#994813" d="M111.48,190.897c-3.074,2.998-6.79,5.354-9.809,8.408
	c-12.255,1.29-20.195,6.894-33.628,7.005c-0.113-0.821-1.277-0.59-2.102-0.7c0.128-0.596-0.273-0.661-0.701-0.7
	c-1.52-1.283-5.737,0.131-7.005-1.401c2.731-1.005,5.798-1.675,7.707-3.503c2.347-0.222,4.417-0.721,5.604-2.103
	C83.732,194.443,96.185,191.249,111.48,190.897z"/>
<path fill-rule="evenodd" clip-rule="evenodd" fill="#CC7315" d="M212.364,153.066c5.377-0.461,12.603,0.927,16.813-0.701
	c23.155,6.037,46.458,11.924,63.054,24.521c14.833,7.352,23.182,21.19,32.928,33.628c4.235,7.441,9.32,14.032,11.909,23.12
	c1.477,7.326,6.363,15.732,3.502,23.119c0.995-5.897-3.983-5.824-4.201-10.509c-8.684-5.459-17.528-10.724-26.624-16.814
	c-8.086-5.415-15.929-13.491-25.221-17.514c-7.704-3.336-18.763-4.518-28.724-7.005c-18.761-4.687-35.995-11.545-58.149-13.312
	c-26.018-2.075-49.444-3.114-74.261,2.802c-7.391,1.762-13.992,7.312-21.718,5.605c0-0.234,0-0.467,0-0.7
	c3.019-3.053,6.734-5.41,9.809-8.408c0.232,0,0.467,0,0.699,0c1.43-0.391,1.375-2.108,2.803-0.7
	c0.614,2.249-1.817,1.452-2.102,2.802c27.692-5.552,61.705-10.897,95.28-6.305c11.794,1.613,25.288,8.058,38.531,11.91
	c13.693,3.981,28.43,5.19,39.933,9.808c16.587,6.657,32.049,21.957,46.24,30.825c0.906-6.278-4.019-6.723-4.203-11.909
	c-0.256-4.425-4.23-11.178-6.307-16.114c-2.051-6.355-6.923-9.89-11.208-14.012c-0.394-1.009-1.094-1.71-2.103-2.102
	c0.129-0.596-0.272-0.661-0.7-0.701c-1.859-3.512-4.036-6.705-7.707-8.407c-2.433-1.536-4.621-3.317-7.705-4.203
	c-10.378-9.008-24.362-13.78-41.336-18.917c-6.627-2.005-13.173-5.5-18.915-6.304c-14.031-1.968-28.867,2.017-42.736,3.502
	c-3.463,0.041-6.314,0.692-8.407,2.102c-2.509,0.761-5.691,0.849-7.706,2.102c-13.957,2.39-24.529,8.165-35.73,13.312
	c-3.738,0.932-6.866,2.475-9.809,4.203c-4.103,2.668-7.287,6.257-12.611,7.707c2.879-5.296,8.875-7.472,12.611-11.91
	c20.696-9.663,42.329-18.389,67.257-23.821c4.212-0.458,10.263,0.923,13.311-0.7C210.03,153.066,211.196,153.066,212.364,153.066z"
	/>
<path fill-rule="evenodd" clip-rule="evenodd" fill="#E99F33" d="M311.147,197.203c4.285,4.122,9.157,7.656,11.208,14.012
	C318.063,207.101,314.594,202.163,311.147,197.203z"/>
<path fill-rule="evenodd" clip-rule="evenodd" fill="#F2C264" d="M189.945,160.071c13.869-1.485,28.705-5.47,42.736-3.502
	c5.742,0.805,12.288,4.299,18.915,6.304c16.974,5.136,30.958,9.909,41.336,18.917c-2.003,0.365,1.13,1.037,1.399,1.401
	c-34.637-5.297-70.504-15.433-107.188-21.018c0.687-1.648,4.043-0.627,4.904-2.102C191.346,160.071,190.646,160.071,189.945,160.071
	z"/>
<path fill-rule="evenodd" clip-rule="evenodd" fill="#F0D098" d="M308.345,194.4c-1.632-0.492-6.766-7.224-7.707-8.407
	C304.309,187.695,306.485,190.888,308.345,194.4z"/>
<path fill-rule="evenodd" clip-rule="evenodd" fill="#F0D098" d="M283.823,195.101c-0.128-0.596,0.272-0.661,0.701-0.701
	c-2.817-3.021-7.617-4.06-11.21-6.305c8.246-0.756,30.11,8.478,35.03,7.707c-0.034,0.005,0.201-1.122,0.7-0.701
	c1.009,0.392,1.709,1.093,2.103,2.102c3.446,4.96,6.915,9.898,11.208,14.012c2.076,4.936,6.051,11.689,6.307,16.114
	C313.624,216.677,302.327,202.287,283.823,195.101z"/>
<path fill-rule="evenodd" clip-rule="evenodd" fill="#F2C264" d="M128.294,181.79c18.348-1.971,40.856-5.85,63.754-5.605
	c0.301,1.566,3.453,0.284,4.904,0.701c3.27,0,6.538,0,9.808,0c14.539,2.842,26.955-0.421,39.933,2.102
	c11.639,2.263,24.887,12.991,37.131,16.114c18.504,7.186,29.801,21.576,44.839,32.228c0.185,5.186,5.109,5.631,4.203,11.909
	c-14.191-8.868-29.653-24.168-46.24-30.825c-11.503-4.618-26.239-5.827-39.933-9.808c-13.243-3.852-26.737-10.297-38.531-11.91
	c-33.575-4.592-67.587,0.753-95.28,6.305c0.284-1.35,2.716-0.554,2.102-2.802c0.428-0.041,0.829-0.105,0.7-0.701
	C121.007,188.047,124.191,184.458,128.294,181.79z"/>
<path fill-rule="evenodd" clip-rule="evenodd" fill="#F0D098" d="M173.833,164.275c2.015-1.253,5.197-1.341,7.706-2.102
	c2.604,0.821-5.458,2.252-7.706,2.803C173.833,164.742,173.833,164.509,173.833,164.275z"/>
<path fill-rule="evenodd" clip-rule="evenodd" fill="#F2C264" d="M138.103,177.587c11.201-5.147,21.773-10.921,35.73-13.312
	c0,0.233,0,0.466,0,0.701c-1.741-0.105-2.908,0.362-3.503,1.401C158.741,169.267,149.583,174.589,138.103,177.587z"/>
<path fill-rule="evenodd" clip-rule="evenodd" fill="#F0D098" d="M138.103,177.587c11.48-2.998,20.638-8.32,32.227-11.21
	c13.424,2.456,25.583,6.177,39.933,7.707c-8.723,1.011-20.821-0.661-31.526,0c-0.251,1.929,21.252,0.932,13.312,2.102
	c-22.898-0.245-45.406,3.634-63.754,5.605C131.237,180.062,134.364,178.519,138.103,177.587z"/>
<path fill-rule="evenodd" clip-rule="evenodd" fill="#E99F33" d="M340.57,258.854c4.587,1.027,9.121,5.813,14.714,3.503
	c14.919-0.665,23.334,1.971,25.221,11.911c0.595,3.135-1.436,6.934-0.701,10.508c1.771,8.613,11.005,9.85,18.215,13.313
	c0.982,1.162,6.726,1.162,7.707,0c1.401,0,2.803,0,4.204,0c1.464-0.295,1.854,0.48,2.801,0.701
	c-0.587,8.52-2.88,15.336-8.406,18.916c-37.246,0.582-28.198-45.131-64.453-45.539c-0.242-1.809-6.127,0.512-3.502-2.102
	c8.5,2.02,16.835,1.498,23.818,7.707c10.935,9.719,17.211,28.643,27.322,35.73c11.438,8.018,25.525,2.082,23.82-14.713
	c-14.435,2.336-30.87-3.148-32.927-14.014c-0.61-3.219,1.47-5.744,1.4-7.705c-0.15-4.311-3.044-8.988-4.904-10.509
	c-8.608-7.041-24.157,1.574-33.628-6.305c-0.365,12.439,22.685,2.7,30.826,8.408c1.383,0.971,5.59,7.223,3.503,10.508
	c0.611-3.414-0.958-4.648-1.401-7.006c-2.854,1.131-5.859,5.797-4.904,8.408c-0.248,1.096-1.232-0.613-1.4,0.701
	c-6.313-7.236-15.875-14.952-29.426-12.611C336.896,265.896,341.756,263.562,340.57,258.854z"/>
<path fill-rule="evenodd" clip-rule="evenodd" fill="#E88F1B" d="M339.871,272.166c-0.917,0.111-1.893-0.148-2.803,0
	c-5.822,0.943-12.623,10.105-18.216,13.311c-7.571,4.34-13.378,6.928-21.719,9.109c-66.336,13.383-152.519,4.918-187.054-31.528
	c-6.399-7.426-14.734-16.704-16.114-29.425c-0.483-4.451,1.195-11.859-0.7-15.413c0.413,0.128,1.004-0.167,1.401,0
	c-8.016-3.371-18.771-4.008-27.323-1.401c-18.115,5.523-25.737,31.27-42.036,35.731c-4.519,1.236-13.701,0.456-15.413-3.503
	c10.044,4.038,19.463-1.715,24.521-7.006c2.862-2.276,5.431-4.845,7.706-7.707c8.131-6.582,12.674-16.751,23.821-20.316
	c9.584-1.268,21.718-0.668,28.724,2.802c1.231-4.373,2.482-8.726,4.203-12.61c1.841-0.495,1.382-3.288,2.803-4.203
	c7.727,1.707,14.328-3.843,21.718-5.605c24.817-5.916,48.244-4.877,74.261-2.802c22.154,1.767,39.389,8.625,58.149,13.312
	c9.961,2.488,21.02,3.669,28.724,7.005c9.292,4.023,17.135,12.1,25.221,17.514c9.096,6.09,17.94,11.355,26.624,16.814
	c0.218,4.685,5.196,4.612,4.201,10.509c0,0.701,0,1.401,0,2.102c1.186,4.708-3.675,7.042-2.102,9.81
	c13.551-2.34,23.112,5.375,29.426,12.611c6.248,11.5,14.134,21.361,23.119,30.125c7.878,5.152,16.819,0.455,16.813-8.408
	c-4.513-0.029-13.897,0.295-17.514-2.801c-7.549-4.25-16.843-9.287-14.713-21.02c2.087-3.285-2.12-9.537-3.503-10.508
	c-8.142-5.708-31.191,4.031-30.826-8.408c9.471,7.878,25.02-0.736,33.628,6.305c1.86,1.521,4.754,6.199,4.904,10.509
	c0.069,1.961-2.011,4.486-1.4,7.705c2.057,10.865,18.492,16.35,32.927,14.014c1.705,16.795-12.383,22.73-23.82,14.713
	c-10.111-7.088-16.388-26.012-27.322-35.73c-6.983-6.209-15.318-5.688-23.818-7.707
	C333.744,272.678,339.629,270.357,339.871,272.166z M315.35,249.746c0.834-2.202,2.366-3.706,2.804-6.304
	c-15.779-14.397-36.077-22.998-63.054-30.826c-14.196-4.121-29.925-10.3-43.437-12.61c-8.279-1.417-18.008-0.814-26.622-1.401
	c-27.089-1.848-46.992,0.268-70.759,4.904c0.454,2.788-1.854,2.816-1.401,5.604c-4.117,7.434,3.128,16.059,8.407,20.316
	c21.147,17.061,51.313,17.025,83.37,22.419c9.464,1.593,19.182,3.368,28.724,4.904C258.867,260.857,304.889,270.324,315.35,249.746z
	"/>
<path fill-rule="evenodd" clip-rule="evenodd" fill="#E99F33" d="M9.895,249.046c1.712,3.959,10.894,4.739,15.413,3.503
	c16.299-4.461,23.92-30.208,42.036-35.731c8.552-2.606,19.307-1.97,27.323,1.401c-0.397-0.167-0.989,0.128-1.401,0
	c-20.374-4.864-36.505,2.002-43.436,14.712c-2.163,1.574-4.031,3.443-5.605,5.605c-7.449,5.628-11.511,14.645-23.821,15.414
	c-1.167,0-2.334,0-3.502,0c-5.301-0.538-8.25-3.427-9.808-7.707c0.55-2.886-1.075-3.595-0.701-6.305c0-2.335,0-4.67,0-7.006
	c0.563-0.37,1.137-0.731,2.102-0.7c-0.134,0.568-0.703,0.698-0.7,1.401c0,0.467,0,0.934,0,1.401c0,2.569,0,5.138,0,7.707
	C7.557,245.781,8.299,247.838,9.895,249.046z"/>
<path fill-rule="evenodd" clip-rule="evenodd" fill="#E99F33" d="M34.416,242.041c2.274-2.862,4.844-5.431,7.706-7.707
	C39.847,237.195,37.278,239.764,34.416,242.041z"/>
<path fill-rule="evenodd" clip-rule="evenodd" fill="#F2C264" d="M65.942,214.017c-11.147,3.565-15.69,13.735-23.821,20.316
	c-2.861,2.276-5.431,4.845-7.706,7.707c-5.058,5.291-14.477,11.044-24.521,7.006c-1.595-1.208-2.338-3.266-2.101-6.306
	c1.16-0.981,1.16-6.725,0-7.707c0-0.467,0-0.934,0-1.401c1.109-0.058,2.671,0.336,2.802-0.701c1.98-0.578,1.815,0.987,3.503,0.701
	c0.118,0.816,1.106,0.761,2.102,0.7c0.233,0,0.467,0,0.7,0c-1.771,1.168-2.612,1.089,0,2.102c12.174,0.264,20.87-2.95,25.221-10.509
	c0.233,0,0.468,0,0.701,0c0.629-3.969-1.394-6.366,0-9.107c2.974-7.3,8.742-11.809,20.317-10.509
	c-6.956-0.029-3.773,4.425-2.803,9.108c1.973-0.597,2.875-2.263,5.605-2.102C65.942,213.55,65.942,213.783,65.942,214.017z"/>
<path fill-rule="evenodd" clip-rule="evenodd" fill="#E99F33" d="M101.672,200.005c-1.42,0.915-0.961,3.708-2.803,4.203
	c1.702-3.028-3.032,0.224-5.604-0.7c1.719-1.316,5.478-0.594,7.006-2.103c-10.363-0.58-22.081,6.595-32.227,6.306
	c-0.882-0.173-0.707-1.393,0-1.401c13.433-0.111,21.373-5.715,33.628-7.005C101.672,199.538,101.672,199.771,101.672,200.005z"/>
<path fill-rule="evenodd" clip-rule="evenodd" fill="#B29466" d="M65.942,200.005c1.188-1.38,3.258-1.879,5.604-2.103
	C70.359,199.284,68.289,199.783,65.942,200.005z"/>
<path fill-rule="evenodd" clip-rule="evenodd" fill="#ECA949" d="M112.881,209.113c-0.453-2.789,1.854-2.816,1.401-5.604
	c23.767-4.636,43.67-6.752,70.759-4.904c8.614,0.586,18.343-0.016,26.622,1.401c13.512,2.311,29.24,8.49,43.437,12.61
	c26.977,7.829,47.274,16.429,63.054,30.826c-0.438,2.599-1.97,4.102-2.804,6.304c-64.197-10.486-136.19-29.51-201.768-41.333
	c0,0.466,0,0.934,0,1.401c-0.133,0.795-0.703,0.389-0.701,0C112.881,209.58,112.881,209.346,112.881,209.113z"/>
<path fill-rule="evenodd" clip-rule="evenodd" fill="#E88F1B" d="M68.044,207.711c10.146,0.289,21.864-6.885,32.227-6.306
	c-1.528,1.508-5.287,0.786-7.006,2.103C84.293,204.098,77.927,210.286,68.044,207.711z"/>
<path fill-rule="evenodd" clip-rule="evenodd" fill="#ECA949" d="M93.265,203.508c2.572,0.924,7.306-2.328,5.604,0.7
	c-1.72,3.885-2.971,8.237-4.203,12.61c-7.006-3.47-19.14-4.069-28.724-2.802c0-0.234,0-0.467,0-0.701
	c-2.73-0.161-3.633,1.505-5.605,2.102c-0.971-4.683-4.153-9.137,2.803-9.108c1.464,0.297,1.855-0.48,2.803-0.7
	c0.825,0.11,1.988-0.121,2.102,0.7c-0.707,0.008-0.882,1.229,0,1.401C77.927,210.286,84.293,204.098,93.265,203.508z"/>
<path fill-rule="evenodd" clip-rule="evenodd" fill="#E88F1B" d="M54.733,204.91c3.937-0.878,8.328,1.448,10.508,0
	c0.428,0.039,0.83,0.104,0.701,0.7c-0.947,0.22-1.338,0.998-2.803,0.7c-11.575-1.3-17.343,3.208-20.317,10.509
	c-2.244-1.617,1.491-3.123,0.7-5.604C46.632,208.485,49.386,205.4,54.733,204.91z"/>
<path fill-rule="evenodd" clip-rule="evenodd" fill="#ECA949" d="M43.523,211.214c1.756-4.315,5.598-6.545,11.21-7.006
	c0,0.233,0,0.467,0,0.701C49.386,205.4,46.632,208.485,43.523,211.214z"/>
<path fill-rule="evenodd" clip-rule="evenodd" fill="#E88F1B" d="M42.122,225.926c-4.351,7.559-13.046,10.773-25.221,10.509
	c10.177-2.2,21.012-3.742,24.521-12.61C42.243,223.938,42.013,225.103,42.122,225.926z"/>
<path fill-rule="evenodd" clip-rule="evenodd" fill="#E99F33" d="M315.35,249.746c-10.461,20.578-56.482,11.111-81.968,7.006
	c-9.542-1.536-19.26-3.312-28.724-4.904c-32.056-5.394-62.223-5.358-83.37-22.419c-5.278-4.258-12.524-12.883-8.407-20.316
	c0,0.233,0,0.467,0,0.701c-0.002,0.389,0.567,0.795,0.701,0c0-0.467,0-0.935,0-1.401C179.16,220.236,251.152,239.26,315.35,249.746z
	"/>
<path fill-rule="evenodd" clip-rule="evenodd" fill="#994813" d="M16.201,234.333c7.329-7.851,15.994-14.365,25.221-20.316
	c1.953,14.819-9.743,20.104-24.521,20.316C16.667,234.333,16.434,234.333,16.201,234.333z"/>
<path fill-rule="evenodd" clip-rule="evenodd" fill="#B29466" d="M68.744,274.967c2.776-1.893,6.289-3.051,10.509-3.5
	C76.197,273.082,72.685,274.238,68.744,274.967z"/>
<path fill-rule="evenodd" clip-rule="evenodd" fill="#B29466" d="M8.494,279.873c3.966,3.273,8.89,5.588,14.012,7.705
	c-7.273-0.668-11.235-4.643-15.413-8.406C7.796,279.168,7.928,279.738,8.494,279.873z"/>
<path fill-rule="evenodd" clip-rule="evenodd" fill="#994813" d="M49.829,232.932c6.931-12.71,23.062-19.576,43.436-14.712
	c1.896,3.554,0.217,10.962,0.7,15.413c1.38,12.721,9.715,21.999,16.114,29.425c-4.938,0.2-8.07,2.205-12.611,2.802
	c-1.638,0.23-2.894,0.843-4.203,1.402c-5.714,0.359-9.738,2.406-14.012,4.205c-4.221,0.449-7.733,1.607-10.509,3.5
	c-12.631,4.418-23.47,10.625-38.532,12.611c-2.335,0-4.671,0-7.006,0c-0.233,0-0.467,0-0.7,0
	c-5.122-2.117-10.046-4.432-14.012-7.705c2.833-9.777,7.297-17.924,11.909-25.922c12.31-0.769,16.372-9.785,23.821-15.414
	c12.74-5.241,22.005-13.958,33.628-20.317c-9.207-0.721-24.25,14.937-28.023,15.413C49.857,233.629,49.806,232.983,49.829,232.932z"
	/>
<path fill-rule="evenodd" clip-rule="evenodd" fill="#B56C21" d="M44.224,238.537c1.574-2.162,3.442-4.031,5.605-5.605
	c-0.023,0.051,0.028,0.697,0,0.701c3.773-0.476,18.816-16.134,28.023-15.413C66.229,224.58,56.964,233.296,44.224,238.537z"/>
<path fill-rule="evenodd" clip-rule="evenodd" fill="#E99F33" d="M16.901,234.333c14.778-0.212,26.474-5.497,24.521-20.316
	c-0.003-0.703,0.566-0.833,0.7-1.401c0.761-0.173,0.476-1.394,1.401-1.401c0.791,2.481-2.944,3.988-0.7,5.604
	c-1.394,2.742,0.629,5.139,0,9.107c-0.233,0-0.468,0-0.701,0c-0.109-0.824,0.121-1.988-0.7-2.101
	c-3.509,8.868-14.344,10.41-24.521,12.61C14.289,235.422,15.13,235.501,16.901,234.333z"/>
<path fill-rule="evenodd" clip-rule="evenodd" fill="#ECA949" d="M6.392,232.932c0-0.7,0-1.401,0-2.101
	c1.13,0.971,3.611,0.591,4.204,2.101c-0.13,1.038-1.693,0.644-2.802,0.701c-0.003-0.703,0.566-0.833,0.7-1.401
	C7.529,232.201,6.956,232.562,6.392,232.932z"/>
<path fill-rule="evenodd" clip-rule="evenodd" fill="#994813" d="M340.57,256.752c2.861-7.387-2.025-15.793-3.502-23.119
	c0.233,0,0.468,0,0.7,0c2.211,1.527,4.334,3.14,7.707,3.503c0.019,0.682,0.856,0.543,1.402,0.7
	c6.544,4.43,2.524,19.425,8.406,24.521c-5.593,2.311-10.127-2.476-14.714-3.503C340.57,258.154,340.57,257.454,340.57,256.752z"/>
<path fill-rule="evenodd" clip-rule="evenodd" fill="#B29466" d="M345.476,237.137c-3.373-0.364-5.496-1.977-7.707-3.503
	C341.143,233.997,343.266,235.609,345.476,237.137z"/>
<path fill-rule="evenodd" clip-rule="evenodd" fill="#B56C21" d="M355.284,262.357c-5.882-5.096-1.862-20.09-8.406-24.521
	c5.678,2.729,11.153,5.659,16.813,8.407c1.299,1.761,5.706,4.07,7.006,3.502c7.805,4.575,16.082,8.672,22.418,14.712
	c3.678,4.262,7.648,8.235,11.91,11.911c1.543,3.83,5.211,5.531,7.008,9.107c-2.064,3.543-3.697,7.514-4.905,11.912
	c1.109,0.059,2.673-0.34,2.803,0.699c-1.401,0-2.803,0-4.204,0c-2.568,0-5.138,0-7.707,0c-7.21-3.463-16.444-4.699-18.215-13.313
	c-0.734-3.574,1.296-7.373,0.701-10.508C378.618,264.328,370.203,261.692,355.284,262.357z"/>
<path fill-rule="evenodd" clip-rule="evenodd" fill="#ECA949" d="M363.69,246.244c3.082,0.422,4.474,2.533,7.006,3.502
	C369.396,250.313,364.989,248.004,363.69,246.244z"/>
<path fill-rule="evenodd" clip-rule="evenodd" fill="#B29466" d="M1.488,258.154c-0.681,6.287,1.197,10.014,2.102,14.713
	C1.326,269.984-0.261,262.718,1.488,258.154z"/>
<path fill-rule="evenodd" clip-rule="evenodd" fill="#E9C386" d="M100.271,277.07c1.361,0.236,6.472,2.408,5.604-1.402
	c1.792,4.281,2.643,9.502,7.006,11.211c0.963-1.928-3.997-3.922-2.802-8.408c45.093,17.26,94.282,29.627,160.433,26.625
	c16.428-0.748,32.972-4.447,49.041-1.402c1.464-0.297,1.856,0.479,2.802,0.701c-14.337,19.99-34.243,34.412-65.153,37.83
	c-6.221,0.793-16.31,1.432-22.42,0c8.755,0.627,1.1-2.154-2.101,0c-6.053-0.953-13.342-0.672-19.617-1.4c0-0.234,0-0.467,0-0.699
	c-1.896-1.166-8.613-1.166-10.508,0c-22.369,0.648-35.774-7.664-51.144-14.012c0.129-0.598-0.273-0.662-0.7-0.701
	c-4.529-2.943-9.422-5.525-14.012-8.408c-4.715-3.926-10.748-6.533-14.712-11.209c-2.977-3.563-6.248-6.832-9.81-9.809
	C106.948,290.943,103.67,283.945,100.271,277.07z M297.134,318.406c4.987-1.395,14.088-5.896,11.211-10.51
	C306.508,313.299,299.416,313.447,297.134,318.406z M284.524,322.609c3.302-0.223,6.554-4.164,4.904-7.006
	C289.348,319.492,285.062,319.176,284.524,322.609z M292.231,323.309c-3.663,3.344-10.561,3.453-14.012,7.008
	C284.594,329.684,290.491,328.574,292.231,323.309z"/>
<path fill-rule="evenodd" clip-rule="evenodd" fill="#E88F1B" d="M121.989,305.795c3.964,4.676,9.997,7.283,14.712,11.209
	c1.587,2.629,10.008,8.193,14.012,8.408c0.427,0.039,0.829,0.104,0.7,0.701c-2.355,4.189-6.187,0.938-9.108-0.701
	c-8.488-4.764-19.202-12.037-25.92-18.217c-4.872-5.637-9.348-11.67-14.013-17.514c-4.064-6.447-7.451-13.566-9.107-22.419
	c1.309-0.56,2.565-1.172,4.203-1.402c0.079,4.591,2.284,7.058,2.803,11.21c3.399,6.875,6.677,13.873,11.909,18.916
	C114.881,299.824,117.814,303.432,121.989,305.795z"/>
<path fill-rule="evenodd" clip-rule="evenodd" fill="#CC7315" d="M150.713,325.412c-4.003-0.215-12.424-5.779-14.012-8.408
	C141.291,319.887,146.184,322.469,150.713,325.412z"/>
<path fill-rule="evenodd" clip-rule="evenodd" fill="#CC7315" d="M117.785,310c0.511-1.912-1.393-1.412-1.4-2.805
	c6.718,6.18,17.432,13.453,25.92,18.217c2.921,1.639,6.752,4.891,9.108,0.701c15.37,6.348,28.775,14.66,51.144,14.012
	c1.167,0,2.334,0,3.503,0c0.971,1.596,4.875,0.26,7.005,0.699c6.275,0.729,13.564,0.447,19.617,1.4c0.7,0,1.4,0,2.101,0
	c6.11,1.432,16.199,0.793,22.42,0c7.055,1.445,15.139-2.137,21.718-3.502c-2.345,3.027-6.065,4.676-11.209,4.904
	c27.511-1.682,43.987-20.465,59.549-36.432c0.234,0,0.468,0,0.7,0c-2.117,7.691-6.28,13.334-10.509,18.918
	c-4.72,5.32-9.169,10.914-14.711,15.41c-9.057,5.889-21.75,8.143-36.431,8.408c-17.257,0.727-35.128,0.836-53.245,0.701
	c-33.58-1.684-59.171-11.355-79.866-25.922c-4.13-3.809-8.586-7.293-12.611-11.209C119.616,312.369,118.602,311.283,117.785,310z"/>
<path fill-rule="evenodd" clip-rule="evenodd" fill="#B29466" d="M97.468,265.86c4.542-0.597,7.674-2.602,12.611-2.802
	c34.536,36.446,120.718,44.911,187.054,31.528c7.011,3.498,16.357,4.662,22.42,9.107c-16.069-3.045-32.613,0.654-49.041,1.402
	c-66.151,3.002-115.34-9.365-160.433-26.625c-1.195,4.486,3.765,6.48,2.802,8.408c-4.364-1.709-5.215-6.93-7.006-11.211
	c0.868,3.811-4.243,1.639-5.604,1.402C99.752,272.918,97.547,270.451,97.468,265.86z"/>
<path fill-rule="evenodd" clip-rule="evenodd" fill="#994813" d="M339.871,272.166c36.255,0.408,27.207,46.121,64.453,45.539
	c5.526-3.58,7.819-10.396,8.406-18.916c-0.946-0.221-1.337-0.996-2.801-0.701c-0.13-1.039-1.693-0.641-2.803-0.699
	c1.208-4.398,2.841-8.369,4.905-11.912c4.268,5.309,7.582,11.568,11.208,17.516c1.396,5.107,4.205,11.068,2.102,17.514
	c-3.526,9.551-7.69,18.467-16.813,22.42c-0.994-0.059-1.983-0.115-2.102,0.701c-3.504,0-7.006,0-10.509,0
	c-8.91-2.066-16.171-5.783-24.521-8.406c-14.888-7.531-25.081-19.758-40.634-26.623c-0.17-1.232-1.205-1.596-2.803-1.402
	c-0.232,0-0.466,0-0.7,0c-1.133-1.436-3.371-1.766-4.904-2.801c-0.945-0.223-1.338-0.998-2.802-0.701
	c-6.063-4.445-15.409-5.609-22.42-9.107c8.341-2.182,14.147-4.77,21.719-9.109c5.593-3.205,12.394-12.367,18.216-13.311
	C337.979,272.018,338.954,272.277,339.871,272.166z"/>
<path fill-rule="evenodd" clip-rule="evenodd" fill="#B29466" d="M425.342,320.506c-2.37,10.709-6.888,19.268-16.813,22.42
	C417.651,338.973,421.815,330.057,425.342,320.506z"/>
<path fill-rule="evenodd" clip-rule="evenodd" fill="#B56C21" d="M257.202,342.225c30.91-3.418,50.816-17.84,65.153-37.83
	c1.533,1.035,3.771,1.365,4.904,2.801c-15.562,15.967-32.038,34.75-59.549,36.432c5.144-0.229,8.864-1.877,11.209-4.904
	C272.341,340.088,264.257,343.67,257.202,342.225z"/>
<path fill-rule="evenodd" clip-rule="evenodd" fill="#F2C264" d="M391.014,311.4c-5.984-7.137-5.013-4.908,1.4-0.701
	c3.044-0.693,2.808-4.666,4.905-6.305c-2.111-1.859-5.641-2.301-8.407-3.504c0.018-0.682,0.857-0.543,1.401-0.699
	c3.616,3.096,13.001,2.771,17.514,2.801C407.833,311.855,398.892,316.553,391.014,311.4z"/>
<path fill-rule="evenodd" clip-rule="evenodd" fill="#ECA949" d="M367.895,281.275c0.168-1.314,1.152,0.395,1.4-0.701
	c-0.955-2.611,2.05-7.277,4.904-8.408c0.443,2.357,2.013,3.592,1.401,7.006c-2.13,11.732,7.164,16.77,14.713,21.02
	c-0.544,0.156-1.384,0.018-1.401,0.699c2.767,1.203,6.296,1.645,8.407,3.504c-2.098,1.639-1.861,5.611-4.905,6.305
	c-6.413-4.207-7.385-6.436-1.4,0.701C382.028,302.637,374.143,292.775,367.895,281.275z"/>
<path fill-rule="evenodd" clip-rule="evenodd" fill="#F0D098" d="M121.989,305.795c-4.175-2.363-7.108-5.971-9.81-9.809
	C115.742,298.963,119.012,302.232,121.989,305.795z"/>
<path fill-rule="evenodd" clip-rule="evenodd" fill="#E99F33" d="M302.74,341.523c5.542-4.496,9.991-10.09,14.711-15.41
	C313.296,331.998,309.252,337.996,302.74,341.523z"/>
<path fill-rule="evenodd" clip-rule="evenodd" fill="#E9C386" d="M212.364,153.066c4.211-1.627,11.438-0.239,16.813-0.701
	C224.967,153.993,217.741,152.604,212.364,153.066z"/>
<path fill-rule="evenodd" clip-rule="evenodd" fill="#E9C386" d="M181.539,162.173c2.093-1.41,4.943-2.062,8.407-2.102
	c0.701,0,1.401,0,2.103,0c-0.861,1.475-4.218,0.454-4.904,2.102c36.685,5.585,72.552,15.721,107.188,21.018
	c-0.27-0.365-3.402-1.037-1.399-1.401c3.084,0.886,5.272,2.667,7.705,4.203c0.941,1.183,6.075,7.916,7.707,8.407
	c0.428,0.04,0.829,0.104,0.7,0.701c-0.499-0.421-0.734,0.706-0.7,0.701c-4.92,0.771-26.784-8.462-35.03-7.707
	c3.593,2.246,8.393,3.285,11.21,6.305c-0.429,0.04-0.829,0.104-0.701,0.701c-12.244-3.123-25.492-13.851-37.131-16.114
	c-12.979-2.523-25.395,0.74-39.933-2.102c3.332-0.835-8.643-1.398-9.808,0c-1.451-0.417-4.603,0.866-4.904-0.701
	c7.941-1.17-13.563-0.172-13.312-2.102c10.705-0.661,22.804,1.011,31.526,0c-14.351-1.53-26.509-5.25-39.933-7.707
	c0.595-1.039,1.762-1.506,3.503-1.401C176.081,164.425,184.143,162.994,181.539,162.173z"/>
<path fill-rule="evenodd" clip-rule="evenodd" fill="#994813" d="M7.093,246.244c1.558,4.28,4.507,7.169,9.808,7.707
	c-3.735,6.772-7.939,13.08-12.61,18.917c-0.234,0-0.468,0-0.701,0c-0.905-4.699-2.783-8.426-2.102-14.713
	C3.592,254.419,4.267,249.255,7.093,246.244z"/>
<path fill-rule="evenodd" clip-rule="evenodd" fill="#F0D098" d="M23.206,287.578c2.335,0,4.671,0,7.006,0
	C29.457,288.738,23.962,288.738,23.206,287.578z"/>
<path fill-rule="evenodd" clip-rule="evenodd" fill="#E88F1B" d="M398.019,298.088c2.569,0,5.139,0,7.707,0
	C404.744,299.25,399.001,299.25,398.019,298.088z"/>
<path fill-rule="evenodd" clip-rule="evenodd" fill="#ECA949" d="M206.06,340.125c2.335,0,4.67,0,7.005,0c0,0.232,0,0.465,0,0.699
	C210.935,340.385,207.03,341.721,206.06,340.125z"/>
<path fill-rule="evenodd" clip-rule="evenodd" fill="#B29466" d="M395.918,343.627c3.503,0,7.005,0,10.509,0
	C404.53,344.791,397.813,344.791,395.918,343.627z"/>
<path fill-rule="evenodd" clip-rule="evenodd" fill="#E88F1B" d="M213.064,350.633c18.117,0.135,35.988,0.025,53.245-0.701
	c-5.364,1.176-12.229,0.85-18.216,1.4c-2.335,0-4.671,0-7.005,0c-5.139,0-10.276,0-15.413,0c-2.335,0-4.672,0-7.007,0
	C216.994,350.906,213.587,352.213,213.064,350.633z"/>
<path fill-rule="evenodd" clip-rule="evenodd" fill="#E9C386" d="M218.669,351.332c2.335,0,4.672,0,7.007,0c0,0.234,0,0.469,0,0.701
	C223.547,351.594,219.642,352.93,218.669,351.332z"/>
<path fill-rule="evenodd" clip-rule="evenodd" fill="#F0D098" d="M241.089,351.332c2.334,0,4.67,0,7.005,0
	c-0.971,1.598-4.876,0.262-7.005,0.701C241.089,351.801,241.089,351.566,241.089,351.332z"/>
<path fill-rule="evenodd" clip-rule="evenodd" fill="#E99F33" d="M195.551,153.766c3.046-1.623,9.098-0.242,13.311-0.7
	C205.814,154.689,199.763,153.309,195.551,153.766z"/>
<path fill-rule="evenodd" clip-rule="evenodd" fill="#E99F33" d="M54.733,204.91c0-0.234,0-0.468,0-0.701
	c1.625,0.224,2.689-0.113,3.503-0.7c1.269,1.533,5.485,0.119,7.005,1.401C63.061,206.357,58.67,204.031,54.733,204.91z"/>
<circle fill="#75B728" cx="93.223" cy="324.328" r="59.551"/>
<path fill="#FFFFFF" d="M49.737,326.932l2.14-20.61h18.572v4.458H56.105l-1.197,10.675c0.798-0.595,1.681-1.083,2.649-1.465
	s2.072-0.582,3.312-0.599c3.43-0.034,6.118,1.04,8.063,3.223c1.944,2.183,2.917,5.176,2.917,8.98c0,3.719-0.998,6.708-2.994,8.967
	s-4.904,3.389-8.725,3.389c-3.143,0-5.758-0.857-7.847-2.573c-2.089-1.715-3.091-4.237-3.006-7.566l0.051-0.152h4.535
	c0,2.021,0.582,3.588,1.745,4.7c1.163,1.112,2.67,1.668,4.522,1.668c2.123,0,3.77-0.747,4.942-2.241
	c1.172-1.494,1.758-3.541,1.758-6.14c0-2.36-0.59-4.271-1.771-5.732c-1.181-1.46-2.824-2.19-4.929-2.19
	c-1.971,0-3.397,0.297-4.28,0.892s-1.537,1.512-1.961,2.751L49.737,326.932z"/>
<path fill="#FFFFFF" d="M101.146,330.319c0,4.195-1.066,7.516-3.197,9.961c-2.131,2.446-4.998,3.669-8.598,3.669
	c-3.584,0-6.45-1.223-8.598-3.669c-2.149-2.445-3.223-5.766-3.223-9.961v-10.903c0-4.161,1.065-7.473,3.197-9.936
	c2.131-2.463,4.989-3.694,8.572-3.694c3.601,0,6.475,1.231,8.624,3.694s3.223,5.774,3.223,9.936V330.319z M96.128,318.371
	c0-2.666-0.595-4.772-1.783-6.317c-1.189-1.546-2.871-2.318-5.044-2.318c-2.157,0-3.821,0.772-4.993,2.318
	c-1.172,1.545-1.758,3.651-1.758,6.317v12.968c0,2.666,0.599,4.781,1.796,6.343c1.198,1.563,2.866,2.344,5.006,2.344
	c2.174,0,3.847-0.776,5.019-2.331c1.172-1.554,1.758-3.672,1.758-6.355V318.371z"/>
<path fill="#FFFFFF" d="M106.675,313.454c0-2.156,0.696-3.974,2.089-5.451s3.252-2.217,5.58-2.217c2.327,0,4.186,0.735,5.579,2.204
	c1.392,1.469,2.089,3.291,2.089,5.464v1.962c0,2.157-0.692,3.966-2.076,5.427c-1.384,1.461-3.231,2.19-5.541,2.19
	c-2.344,0-4.216-0.729-5.617-2.19c-1.401-1.461-2.102-3.27-2.102-5.427V313.454z M110.395,315.416c0,1.257,0.344,2.323,1.032,3.197
	c0.688,0.875,1.677,1.313,2.968,1.313c1.24,0,2.199-0.434,2.879-1.3c0.679-0.866,1.019-1.936,1.019-3.21v-1.962
	c0-1.256-0.344-2.331-1.032-3.223c-0.688-0.892-1.661-1.337-2.917-1.337c-1.274,0-2.251,0.445-2.93,1.337
	c-0.68,0.892-1.019,1.967-1.019,3.223V315.416z M115.693,340.611l-2.777-1.706l18.113-28.992l2.777,1.707L115.693,340.611z
	 M124.635,334.319c0-2.157,0.696-3.97,2.089-5.439c1.393-1.469,3.252-2.203,5.58-2.203c2.309,0,4.165,0.734,5.566,2.203
	c1.401,1.47,2.102,3.282,2.102,5.439v1.987c0,2.174-0.697,3.991-2.089,5.451c-1.393,1.461-3.235,2.191-5.528,2.191
	c-2.344,0-4.216-0.73-5.618-2.191c-1.401-1.46-2.102-3.277-2.102-5.451V334.319z M128.355,336.307c0,1.273,0.344,2.348,1.032,3.223
	c0.688,0.875,1.677,1.312,2.968,1.312c1.24,0,2.199-0.437,2.879-1.312c0.679-0.875,1.019-1.949,1.019-3.223v-1.987
	c0-1.257-0.349-2.327-1.045-3.21s-1.665-1.325-2.904-1.325c-1.257,0-2.229,0.442-2.917,1.325c-0.688,0.883-1.032,1.953-1.032,3.21
	V336.307z"/>
</svg>
