<?xml version="1.0" encoding="utf-8"?>
<!-- Generator: Adobe Illustrator 13.0.0, SVG Export Plug-In  -->
<!DOCTYPE svg PUBLIC "-//W3C//DTD SVG 1.1//EN" "http://www.w3.org/Graphics/SVG/1.1/DTD/svg11.dtd" [
	<!ENTITY ns_flows "http://ns.adobe.com/Flows/1.0/">
]>
<svg version="1.1"
	 xmlns="http://www.w3.org/2000/svg" xmlns:xlink="http://www.w3.org/1999/xlink" xmlns:a="http://ns.adobe.com/AdobeSVGViewerExtensions/3.0/"
	 x="0px" y="0px" width="500px" height="700px" viewBox="-10.694 -83.394 500 700" enable-background="new -10.694 -83.394 500 700"
	 xml:space="preserve">
<defs>
</defs>
<g>
	<g>
		<path fill="#FFFFFF" d="M236.233,96.331c-84.395,0-152.81,68.415-152.81,152.809s68.415,152.809,152.81,152.809
			c84.394,0,152.809-68.415,152.809-152.809S320.627,96.331,236.233,96.331z M235.625,386.994
			c-75.706,0-137.078-61.372-137.078-137.079s61.373-137.079,137.078-137.079c75.707,0,137.079,61.372,137.079,137.079
			S311.332,386.994,235.625,386.994z"/>
	</g>
</g>
<path fill="#FFFFFF" d="M38.569,462.708h10.409v2.258H35.681v-21.346h2.888V462.708z"/>
<path fill="#FFFFFF" d="M61.542,464.966c-0.098-0.479-0.173-0.901-0.227-1.269c-0.054-0.366-0.086-0.735-0.095-1.106
	c-0.538,0.763-1.239,1.4-2.104,1.913c-0.865,0.514-1.796,0.77-2.793,0.77c-1.652,0-2.91-0.423-3.775-1.268
	c-0.865-0.846-1.297-2.011-1.297-3.497c0-1.515,0.613-2.699,1.84-3.555s2.89-1.283,4.992-1.283h3.138v-1.568
	c0-0.929-0.284-1.664-0.851-2.207c-0.567-0.542-1.368-0.813-2.404-0.813c-0.938,0-1.696,0.234-2.272,0.704
	c-0.577,0.469-0.865,1.031-0.865,1.686l-2.742,0.029l-0.029-0.088c-0.068-1.153,0.472-2.209,1.62-3.167
	c1.148-0.957,2.631-1.437,4.449-1.437c1.798,0,3.245,0.457,4.34,1.371c1.094,0.914,1.642,2.23,1.642,3.951v7.638
	c0,0.567,0.029,1.114,0.088,1.643c0.059,0.527,0.166,1.046,0.322,1.554H61.542z M56.748,462.855c1.046,0,1.989-0.269,2.83-0.807
	c0.84-0.537,1.388-1.152,1.642-1.847v-2.58h-3.24c-1.163,0-2.094,0.293-2.793,0.879c-0.699,0.587-1.048,1.276-1.048,2.067
	c0,0.704,0.22,1.261,0.66,1.672C55.238,462.65,55.888,462.855,56.748,462.855z"/>
<path fill="#FFFFFF" d="M77.522,460.7c0-0.635-0.242-1.152-0.726-1.554c-0.484-0.4-1.4-0.753-2.749-1.056
	c-1.867-0.4-3.301-0.963-4.303-1.686c-1.002-0.724-1.503-1.691-1.503-2.903c0-1.29,0.55-2.395,1.649-3.313
	c1.1-0.918,2.524-1.378,4.274-1.378c1.798,0,3.254,0.489,4.369,1.466c1.114,0.978,1.647,2.116,1.598,3.416l-0.029,0.088h-2.756
	c0-0.684-0.3-1.305-0.901-1.861c-0.601-0.558-1.361-0.836-2.28-0.836c-1.017,0-1.777,0.229-2.28,0.689
	c-0.503,0.459-0.755,1.007-0.755,1.642c0,0.626,0.218,1.109,0.653,1.451c0.435,0.343,1.332,0.655,2.69,0.938
	c1.945,0.41,3.421,0.992,4.428,1.745c1.006,0.752,1.51,1.734,1.51,2.946c0,1.407-0.569,2.557-1.708,3.445
	c-1.139,0.89-2.626,1.334-4.464,1.334c-2.023,0-3.617-0.513-4.779-1.539c-1.164-1.026-1.715-2.224-1.657-3.592l0.029-0.088h2.756
	c0.048,1.026,0.43,1.776,1.143,2.25c0.713,0.475,1.549,0.711,2.507,0.711c1.026,0,1.83-0.217,2.412-0.652
	C77.232,461.929,77.522,461.375,77.522,460.7z"/>
<path fill="#FFFFFF" d="M93.224,460.7c0-0.635-0.242-1.152-0.726-1.554c-0.484-0.4-1.4-0.753-2.749-1.056
	c-1.867-0.4-3.301-0.963-4.303-1.686c-1.002-0.724-1.503-1.691-1.503-2.903c0-1.29,0.55-2.395,1.649-3.313
	c1.1-0.918,2.524-1.378,4.274-1.378c1.798,0,3.254,0.489,4.369,1.466c1.114,0.978,1.647,2.116,1.598,3.416l-0.029,0.088h-2.756
	c0-0.684-0.3-1.305-0.901-1.861c-0.601-0.558-1.361-0.836-2.28-0.836c-1.017,0-1.777,0.229-2.28,0.689
	c-0.503,0.459-0.755,1.007-0.755,1.642c0,0.626,0.218,1.109,0.653,1.451c0.435,0.343,1.332,0.655,2.69,0.938
	c1.945,0.41,3.421,0.992,4.428,1.745c1.006,0.752,1.51,1.734,1.51,2.946c0,1.407-0.569,2.557-1.708,3.445
	c-1.139,0.89-2.626,1.334-4.464,1.334c-2.023,0-3.617-0.513-4.779-1.539c-1.164-1.026-1.715-2.224-1.657-3.592l0.029-0.088h2.756
	c0.048,1.026,0.43,1.776,1.143,2.25c0.713,0.475,1.549,0.711,2.507,0.711c1.026,0,1.83-0.217,2.412-0.652
	C92.934,461.929,93.224,461.375,93.224,460.7z"/>
<path fill="#FFFFFF" d="M106.272,465.274c-2.277,0-4.054-0.728-5.329-2.185c-1.275-1.456-1.914-3.372-1.914-5.747v-0.645
	c0-2.277,0.657-4.161,1.972-5.651c1.314-1.491,2.92-2.236,4.816-2.236c2.121,0,3.711,0.66,4.772,1.979s1.591,3.074,1.591,5.263
	v1.525h-10.145l-0.044,0.073c0,1.593,0.352,2.886,1.055,3.878c0.704,0.991,1.779,1.487,3.226,1.487c0.977,0,1.835-0.139,2.573-0.418
	c0.738-0.278,1.371-0.661,1.899-1.15l1.128,1.877c-0.567,0.547-1.314,1.009-2.243,1.385
	C108.701,465.085,107.582,465.274,106.272,465.274z M105.817,451.083c-1.007,0-1.84,0.389-2.5,1.166
	c-0.66,0.776-1.063,1.771-1.209,2.983l0.029,0.073h7.154v-0.234c0-1.153-0.284-2.106-0.85-2.859
	C107.875,451.458,107,451.083,105.817,451.083z"/>
<path fill="#FFFFFF" d="M118,449.103l0.205,2.36c0.528-0.84,1.19-1.492,1.987-1.957c0.796-0.464,1.703-0.696,2.719-0.696
	c1.71,0,3.035,0.501,3.973,1.503c0.938,1.002,1.408,2.549,1.408,4.64v10.014h-2.888v-9.955c0-1.397-0.276-2.39-0.829-2.976
	c-0.552-0.587-1.395-0.88-2.529-0.88c-0.89,0-1.645,0.179-2.265,0.535c-0.621,0.357-1.112,0.857-1.473,1.503v11.772h-2.888v-15.863
	H118z"/>
<path fill="#FFFFFF" d="M151.72,459.585c0-0.967-0.347-1.778-1.041-2.434c-0.694-0.654-1.916-1.212-3.665-1.671
	c-2.17-0.537-3.863-1.329-5.08-2.375s-1.825-2.36-1.825-3.944c0-1.671,0.655-3.063,1.964-4.178s3.01-1.672,5.102-1.672
	c2.248,0,4.039,0.638,5.373,1.914c1.334,1.275,1.981,2.763,1.943,4.464l-0.044,0.088h-2.756c0-1.212-0.423-2.214-1.268-3.006
	c-0.846-0.791-1.928-1.188-3.248-1.188c-1.349,0-2.382,0.328-3.101,0.982c-0.719,0.655-1.078,1.506-1.078,2.551
	c0,0.929,0.393,1.703,1.18,2.324c0.787,0.621,2.064,1.165,3.833,1.635c2.15,0.557,3.788,1.378,4.912,2.463
	c1.124,1.085,1.686,2.424,1.686,4.017c0,1.721-0.677,3.104-2.031,4.149s-3.12,1.568-5.3,1.568c-2.063,0-3.883-0.576-5.461-1.729
	c-1.579-1.153-2.344-2.698-2.294-4.633l0.029-0.088h2.756c0,1.339,0.508,2.372,1.524,3.101s2.165,1.092,3.445,1.092
	c1.368,0,2.451-0.308,3.248-0.923C151.322,461.477,151.72,460.641,151.72,459.585z"/>
<path fill="#FFFFFF" d="M161.426,445.042h-2.888v-2.947h2.888V445.042z M161.426,464.966h-2.888v-15.863h2.888V464.966z"/>
<path fill="#FFFFFF" d="M172.436,465.274c-2.277,0-4.054-0.728-5.329-2.185c-1.275-1.456-1.914-3.372-1.914-5.747v-0.645
	c0-2.277,0.657-4.161,1.972-5.651c1.314-1.491,2.92-2.236,4.816-2.236c2.121,0,3.711,0.66,4.772,1.979s1.591,3.074,1.591,5.263
	v1.525h-10.145l-0.044,0.073c0,1.593,0.352,2.886,1.055,3.878c0.704,0.991,1.779,1.487,3.226,1.487c0.977,0,1.835-0.139,2.573-0.418
	c0.738-0.278,1.371-0.661,1.899-1.15l1.128,1.877c-0.567,0.547-1.314,1.009-2.243,1.385
	C174.865,465.085,173.746,465.274,172.436,465.274z M171.981,451.083c-1.007,0-1.84,0.389-2.5,1.166
	c-0.66,0.776-1.063,1.771-1.209,2.983l0.029,0.073h7.154v-0.234c0-1.153-0.284-2.106-0.85-2.859
	C174.039,451.458,173.164,451.083,171.981,451.083z"/>
<path fill="#FFFFFF" d="M198.268,460.7c0-0.635-0.242-1.152-0.726-1.554c-0.484-0.4-1.4-0.753-2.749-1.056
	c-1.867-0.4-3.301-0.963-4.303-1.686c-1.002-0.724-1.503-1.691-1.503-2.903c0-1.29,0.55-2.395,1.649-3.313
	c1.1-0.918,2.524-1.378,4.274-1.378c1.798,0,3.254,0.489,4.369,1.466c1.114,0.978,1.647,2.116,1.598,3.416l-0.029,0.088h-2.756
	c0-0.684-0.3-1.305-0.901-1.861c-0.601-0.558-1.361-0.836-2.28-0.836c-1.017,0-1.777,0.229-2.28,0.689
	c-0.503,0.459-0.755,1.007-0.755,1.642c0,0.626,0.218,1.109,0.653,1.451c0.435,0.343,1.332,0.655,2.69,0.938
	c1.945,0.41,3.421,0.992,4.428,1.745c1.006,0.752,1.51,1.734,1.51,2.946c0,1.407-0.569,2.557-1.708,3.445
	c-1.139,0.89-2.626,1.334-4.464,1.334c-2.023,0-3.617-0.513-4.779-1.539c-1.164-1.026-1.715-2.224-1.657-3.592l0.029-0.088h2.756
	c0.048,1.026,0.43,1.776,1.143,2.25c0.713,0.475,1.549,0.711,2.507,0.711c1.026,0,1.83-0.217,2.412-0.652
	C197.978,461.929,198.268,461.375,198.268,460.7z"/>
<path fill="#FFFFFF" d="M207.871,445.042h-2.888v-2.947h2.888V445.042z M207.871,464.966h-2.888v-15.863h2.888V464.966z"/>
<path fill="#FFFFFF" d="M218.617,463.016c0.89,0,1.667-0.295,2.331-0.887c0.665-0.591,0.997-1.316,0.997-2.177h2.61l0.044,0.088
	c0.039,1.368-0.548,2.583-1.759,3.643c-1.212,1.061-2.62,1.591-4.223,1.591c-2.228,0-3.949-0.757-5.16-2.272
	c-1.212-1.515-1.818-3.401-1.818-5.659v-0.615c0-2.238,0.608-4.117,1.826-5.637c1.217-1.521,2.934-2.28,5.153-2.28
	c1.769,0,3.218,0.548,4.347,1.643s1.673,2.438,1.635,4.031l-0.029,0.088h-2.625c0-0.968-0.315-1.791-0.946-2.471
	c-0.63-0.679-1.424-1.019-2.382-1.019c-1.417,0-2.451,0.55-3.101,1.649s-0.975,2.432-0.975,3.995v0.615
	c0,1.594,0.32,2.938,0.96,4.032S217.18,463.016,218.617,463.016z"/>
<path fill="#FFFFFF" d="M230.917,451.229c0.547-0.762,1.219-1.355,2.016-1.781c0.796-0.425,1.679-0.638,2.646-0.638
	c1.69,0,3.007,0.509,3.951,1.524c0.943,1.017,1.415,2.581,1.415,4.691v9.94h-2.888v-9.97c0-1.31-0.281-2.276-0.843-2.902
	c-0.562-0.625-1.4-0.938-2.514-0.938c-0.86,0-1.608,0.169-2.243,0.506s-1.148,0.809-1.539,1.415v11.89h-2.888v-22.871h2.888V451.229
	z"/>
<path fill="#FFFFFF" d="M262.628,462.621c-0.498,0.851-1.139,1.505-1.92,1.965c-0.782,0.459-1.687,0.688-2.713,0.688
	c-1.729,0-3.078-0.552-4.046-1.656s-1.451-2.824-1.451-5.161v-9.354h2.888v9.383c0,1.691,0.249,2.854,0.748,3.489
	c0.498,0.636,1.275,0.953,2.331,0.953c1.026,0,1.874-0.207,2.544-0.623c0.669-0.415,1.175-1.004,1.517-1.767v-11.436h2.889v15.863
	h-2.595L262.628,462.621z M257.131,446.464h-3.211v-2.932h3.211V446.464z M264.021,446.464h-3.211v-2.932h3.211V446.464z"/>
<path fill="#FFFFFF" d="M283.168,457.636c0,2.287-0.55,4.132-1.649,5.534c-1.099,1.402-2.611,2.104-4.537,2.104
	c-1.056,0-1.972-0.207-2.749-0.623c-0.776-0.415-1.42-1.028-1.928-1.84l-0.469,2.155h-2.214v-22.871h2.888v8.885
	c0.499-0.704,1.117-1.241,1.854-1.612c0.738-0.372,1.601-0.558,2.588-0.558c1.955,0,3.479,0.782,4.574,2.346
	c1.095,1.564,1.642,3.621,1.642,6.172V457.636z M280.28,457.328c0-1.817-0.335-3.301-1.004-4.449
	c-0.67-1.148-1.688-1.723-3.058-1.723c-0.889,0-1.64,0.218-2.25,0.652c-0.611,0.436-1.098,1.02-1.459,1.752v6.876
	c0.372,0.782,0.858,1.393,1.459,1.833c0.602,0.439,1.361,0.659,2.279,0.659c1.358,0,2.37-0.483,3.035-1.451s0.997-2.248,0.997-3.841
	V457.328z"/>
<path fill="#FFFFFF" d="M293.254,465.274c-2.277,0-4.054-0.728-5.329-2.185c-1.275-1.456-1.913-3.372-1.913-5.747v-0.645
	c0-2.277,0.657-4.161,1.972-5.651c1.314-1.491,2.92-2.236,4.816-2.236c2.121,0,3.712,0.66,4.772,1.979
	c1.06,1.319,1.59,3.074,1.59,5.263v1.525h-10.145l-0.044,0.073c0,1.593,0.352,2.886,1.056,3.878
	c0.703,0.991,1.778,1.487,3.225,1.487c0.978,0,1.835-0.139,2.573-0.418c0.738-0.278,1.371-0.661,1.898-1.15l1.129,1.877
	c-0.566,0.547-1.314,1.009-2.243,1.385S294.563,465.274,293.254,465.274z M292.8,451.083c-1.007,0-1.84,0.389-2.5,1.166
	c-0.659,0.776-1.063,1.771-1.209,2.983l0.029,0.073h7.154v-0.234c0-1.153-0.283-2.106-0.851-2.859
	C294.857,451.458,293.982,451.083,292.8,451.083z"/>
<path fill="#FFFFFF" d="M309.909,451.655l-1.48-0.088c-0.763,0-1.405,0.181-1.928,0.542c-0.523,0.361-0.927,0.87-1.21,1.524v11.333
	h-2.888v-15.863h2.58l0.278,2.316c0.449-0.82,1.005-1.461,1.664-1.92c0.66-0.46,1.42-0.689,2.28-0.689
	c0.215,0,0.42,0.018,0.615,0.052s0.356,0.07,0.484,0.109L309.909,451.655z"/>
<path fill="#FFFFFF" d="M320.421,451.655l-1.48-0.088c-0.763,0-1.405,0.181-1.928,0.542c-0.523,0.361-0.927,0.87-1.21,1.524v11.333
	h-2.888v-15.863h2.58l0.278,2.316c0.449-0.82,1.005-1.461,1.664-1.92c0.66-0.46,1.42-0.689,2.28-0.689
	c0.215,0,0.42,0.018,0.615,0.052s0.356,0.07,0.484,0.109L320.421,451.655z"/>
<path fill="#FFFFFF" d="M333.176,464.966c-0.098-0.479-0.174-0.901-0.228-1.269c-0.054-0.366-0.085-0.735-0.095-1.106
	c-0.538,0.763-1.239,1.4-2.104,1.913c-0.865,0.514-1.796,0.77-2.793,0.77c-1.652,0-2.91-0.423-3.775-1.268
	c-0.865-0.846-1.298-2.011-1.298-3.497c0-1.515,0.613-2.699,1.84-3.555s2.891-1.283,4.992-1.283h3.138v-1.568
	c0-0.929-0.284-1.664-0.851-2.207c-0.566-0.542-1.368-0.813-2.404-0.813c-0.938,0-1.695,0.234-2.272,0.704
	c-0.577,0.469-0.865,1.031-0.865,1.686l-2.741,0.029l-0.029-0.088c-0.068-1.153,0.472-2.209,1.62-3.167
	c1.148-0.957,2.632-1.437,4.449-1.437c1.799,0,3.245,0.457,4.34,1.371s1.642,2.23,1.642,3.951v7.638
	c0,0.567,0.029,1.114,0.088,1.643c0.059,0.527,0.166,1.046,0.323,1.554H333.176z M328.382,462.855c1.046,0,1.989-0.269,2.829-0.807
	c0.841-0.537,1.389-1.152,1.643-1.847v-2.58h-3.24c-1.163,0-2.094,0.293-2.793,0.879c-0.698,0.587-1.048,1.276-1.048,2.067
	c0,0.704,0.22,1.261,0.659,1.672C326.872,462.65,327.521,462.855,328.382,462.855z"/>
<path fill="#FFFFFF" d="M349.156,460.7c0-0.635-0.242-1.152-0.726-1.554c-0.484-0.4-1.4-0.753-2.749-1.056
	c-1.867-0.4-3.302-0.963-4.303-1.686c-1.002-0.724-1.503-1.691-1.503-2.903c0-1.29,0.55-2.395,1.649-3.313
	c1.1-0.918,2.523-1.378,4.273-1.378c1.798,0,3.255,0.489,4.369,1.466c1.114,0.978,1.646,2.116,1.598,3.416l-0.029,0.088h-2.756
	c0-0.684-0.301-1.305-0.902-1.861c-0.601-0.558-1.361-0.836-2.279-0.836c-1.017,0-1.776,0.229-2.28,0.689
	c-0.503,0.459-0.755,1.007-0.755,1.642c0,0.626,0.218,1.109,0.652,1.451c0.435,0.343,1.332,0.655,2.69,0.938
	c1.945,0.41,3.421,0.992,4.428,1.745c1.007,0.752,1.51,1.734,1.51,2.946c0,1.407-0.569,2.557-1.708,3.445
	c-1.139,0.89-2.627,1.334-4.464,1.334c-2.023,0-3.616-0.513-4.779-1.539s-1.716-2.224-1.657-3.592l0.029-0.088h2.757
	c0.049,1.026,0.43,1.776,1.144,2.25c0.713,0.475,1.549,0.711,2.507,0.711c1.026,0,1.83-0.217,2.411-0.652
	C348.865,461.929,349.156,461.375,349.156,460.7z"/>
<path fill="#FFFFFF" d="M361.94,463.016c0.89,0,1.666-0.295,2.331-0.887c0.665-0.591,0.997-1.316,0.997-2.177h2.609l0.044,0.088
	c0.039,1.368-0.547,2.583-1.759,3.643c-1.212,1.061-2.62,1.591-4.223,1.591c-2.229,0-3.948-0.757-5.16-2.272
	c-1.212-1.515-1.818-3.401-1.818-5.659v-0.615c0-2.238,0.608-4.117,1.825-5.637c1.217-1.521,2.935-2.28,5.153-2.28
	c1.77,0,3.218,0.548,4.347,1.643s1.674,2.438,1.635,4.031l-0.029,0.088h-2.624c0-0.968-0.315-1.791-0.945-2.471
	c-0.631-0.679-1.425-1.019-2.383-1.019c-1.417,0-2.45,0.55-3.101,1.649s-0.975,2.432-0.975,3.995v0.615
	c0,1.594,0.319,2.938,0.96,4.032C359.465,462.469,360.504,463.016,361.94,463.016z"/>
<path fill="#FFFFFF" d="M374.24,451.229c0.548-0.762,1.22-1.355,2.017-1.781c0.796-0.425,1.678-0.638,2.646-0.638
	c1.691,0,3.008,0.509,3.951,1.524c0.943,1.017,1.415,2.581,1.415,4.691v9.94h-2.889v-9.97c0-1.31-0.28-2.276-0.843-2.902
	c-0.562-0.625-1.4-0.938-2.514-0.938c-0.86,0-1.608,0.169-2.243,0.506c-0.636,0.337-1.149,0.809-1.54,1.415v11.89h-2.888v-22.871
	h2.888V451.229z"/>
<path fill="#FFFFFF" d="M394.985,465.274c-2.277,0-4.054-0.728-5.329-2.185c-1.275-1.456-1.913-3.372-1.913-5.747v-0.645
	c0-2.277,0.657-4.161,1.972-5.651c1.314-1.491,2.92-2.236,4.816-2.236c2.121,0,3.712,0.66,4.772,1.979
	c1.06,1.319,1.59,3.074,1.59,5.263v1.525h-10.145l-0.044,0.073c0,1.593,0.352,2.886,1.056,3.878
	c0.703,0.991,1.778,1.487,3.225,1.487c0.978,0,1.835-0.139,2.573-0.418c0.738-0.278,1.371-0.661,1.898-1.15l1.129,1.877
	c-0.566,0.547-1.314,1.009-2.243,1.385S396.295,465.274,394.985,465.274z M394.531,451.083c-1.007,0-1.84,0.389-2.5,1.166
	c-0.659,0.776-1.063,1.771-1.209,2.983l0.029,0.073h7.154v-0.234c0-1.153-0.283-2.106-0.851-2.859
	C396.589,451.458,395.714,451.083,394.531,451.083z"/>
<path fill="#FFFFFF" d="M406.714,449.103l0.205,2.36c0.528-0.84,1.19-1.492,1.986-1.957c0.797-0.464,1.703-0.696,2.72-0.696
	c1.711,0,3.035,0.501,3.974,1.503c0.938,1.002,1.407,2.549,1.407,4.64v10.014h-2.889v-9.955c0-1.397-0.276-2.39-0.828-2.976
	c-0.552-0.587-1.396-0.88-2.529-0.88c-0.889,0-1.645,0.179-2.265,0.535c-0.621,0.357-1.112,0.857-1.474,1.503v11.772h-2.888v-15.863
	H406.714z"/>
<path fill="#FFFFFF" d="M424.351,464.966h-2.888v-2.962h2.888V464.966z"/>
<path fill="#FFFFFF" d="M432.386,464.966h-2.889v-2.962h2.889V464.966z"/>
<path fill="#FFFFFF" d="M440.419,464.966h-2.888v-2.962h2.888V464.966z"/>
<path fill="#FFFFFF" d="M11.408,504.085l0.769,2.881h0.073l0.769-2.881l4.199-13.623h0.732l4.175,13.623l0.757,2.881h0.073
	l0.793-2.881l3.662-13.623h0.72l-4.785,17.773h-0.745l-4.407-14.819l-0.586-1.77h-0.073l-0.562,1.77l-4.443,14.819h-0.745
	l-4.797-17.773h0.732L11.408,504.085z"/>
<path fill="#FFFFFF" d="M35.236,508.493c-1.555,0-2.867-0.603-3.937-1.807c-1.07-1.205-1.605-2.723-1.605-4.554v-0.781
	c0-1.912,0.531-3.485,1.593-4.718c1.062-1.233,2.398-1.85,4.01-1.85c1.465,0,2.632,0.482,3.503,1.446
	c0.871,0.965,1.306,2.281,1.306,3.949v1.013h-9.753v0.159v0.781c0,1.611,0.456,2.965,1.367,4.059
	c0.911,1.095,2.083,1.642,3.516,1.642c0.789,0,1.548-0.146,2.277-0.439c0.728-0.293,1.32-0.684,1.776-1.172l0.354,0.514
	c-0.464,0.512-1.062,0.934-1.794,1.263C37.116,508.328,36.245,508.493,35.236,508.493z M35.297,495.443
	c-1.367,0-2.488,0.475-3.363,1.422c-0.875,0.948-1.369,2.146-1.483,3.595l0.037,0.074h8.96v-0.403c0-1.359-0.371-2.479-1.111-3.363
	C37.596,495.884,36.583,495.443,35.297,495.443z"/>
<path fill="#FFFFFF" d="M43.854,495.028l0.085,2.661c0.407-0.92,0.993-1.634,1.758-2.143c0.765-0.508,1.705-0.763,2.82-0.763
	c1.44,0,2.521,0.454,3.241,1.361c0.721,0.907,1.081,2.346,1.081,4.314v7.776h-0.659v-7.8c0-1.832-0.328-3.121-0.983-3.87
	c-0.655-0.749-1.544-1.123-2.667-1.123c-1.384,0-2.441,0.403-3.174,1.208c-0.732,0.807-1.201,1.844-1.404,3.113v8.472h-0.659v-6.763
	h-0.037c0-0.154,0.002-0.312,0.006-0.47c0.004-0.159,0.014-0.319,0.031-0.482v-5.493H43.854z"/>
<path fill="#FFFFFF" d="M57.538,495.028l0.085,2.661c0.407-0.92,0.993-1.634,1.758-2.143c0.765-0.508,1.705-0.763,2.82-0.763
	c1.44,0,2.521,0.454,3.241,1.361c0.72,0.907,1.08,2.346,1.08,4.314v7.776h-0.659v-7.8c0-1.832-0.328-3.121-0.982-3.87
	c-0.655-0.749-1.544-1.123-2.667-1.123c-1.384,0-2.441,0.403-3.174,1.208c-0.732,0.807-1.201,1.844-1.404,3.113v8.472h-0.659v-6.763
	H56.94c0-0.154,0.002-0.312,0.006-0.47c0.004-0.159,0.014-0.319,0.03-0.482v-5.493H57.538z"/>
<path fill="#FFFFFF" d="M87.482,504.049c0-1.018-0.417-1.838-1.251-2.46c-0.834-0.623-2.256-1.264-4.266-1.923
	c-2.002-0.61-3.477-1.258-4.425-1.941c-0.948-0.684-1.422-1.696-1.422-3.039c0-1.335,0.556-2.415,1.666-3.241
	c1.111-0.825,2.521-1.239,4.23-1.239c1.774,0,3.2,0.456,4.279,1.367c1.078,0.912,1.601,2.186,1.568,3.821l-0.024,0.073h-0.562
	c0-1.326-0.488-2.425-1.465-3.296s-2.242-1.306-3.796-1.306c-1.604,0-2.877,0.376-3.821,1.129c-0.944,0.753-1.416,1.642-1.416,2.667
	s0.38,1.857,1.142,2.496c0.761,0.64,2.179,1.264,4.254,1.874c2.018,0.635,3.52,1.294,4.504,1.978
	c0.984,0.684,1.477,1.688,1.477,3.015c0,1.352-0.582,2.434-1.746,3.248c-1.164,0.813-2.6,1.221-4.309,1.221
	c-1.782,0-3.316-0.417-4.602-1.252c-1.286-0.834-1.909-2.146-1.868-3.937l0.024-0.073h0.549c0,1.611,0.594,2.781,1.782,3.51
	c1.188,0.729,2.559,1.092,4.114,1.092c1.554,0,2.84-0.359,3.857-1.08C86.973,506.033,87.482,505.131,87.482,504.049z"/>
<path fill="#FFFFFF" d="M92.389,490.877H91.73v-1.685h0.659V490.877z M92.389,508.236H91.73v-13.208h0.659V508.236z"/>
<path fill="#FFFFFF" d="M101.349,508.493c-1.555,0-2.867-0.603-3.937-1.807c-1.07-1.205-1.605-2.723-1.605-4.554v-0.781
	c0-1.912,0.531-3.485,1.593-4.718c1.062-1.233,2.398-1.85,4.01-1.85c1.465,0,2.632,0.482,3.503,1.446
	c0.871,0.965,1.306,2.281,1.306,3.949v1.013h-9.753v0.159v0.781c0,1.611,0.456,2.965,1.367,4.059
	c0.911,1.095,2.083,1.642,3.516,1.642c0.789,0,1.548-0.146,2.277-0.439c0.728-0.293,1.32-0.684,1.776-1.172l0.354,0.514
	c-0.464,0.512-1.062,0.934-1.794,1.263C103.229,508.328,102.358,508.493,101.349,508.493z M101.41,495.443
	c-1.367,0-2.488,0.475-3.363,1.422c-0.875,0.948-1.369,2.146-1.483,3.595l0.037,0.074h8.96v-0.403c0-1.359-0.371-2.479-1.111-3.363
	C103.709,495.884,102.696,495.443,101.41,495.443z"/>
<path fill="#FFFFFF" d="M116.205,490.877h-0.659v-1.685h0.659V490.877z M116.205,508.236h-0.659v-13.208h0.659V508.236z"/>
<path fill="#FFFFFF" d="M121.002,495.028l0.085,2.661c0.407-0.92,0.98-1.634,1.721-2.143c0.74-0.508,1.644-0.763,2.71-0.763
	c1.123,0,2.039,0.283,2.747,0.849s1.2,1.442,1.477,2.63c0.366-1.098,0.942-1.954,1.727-2.569c0.786-0.614,1.764-0.921,2.936-0.921
	c1.457,0,2.563,0.476,3.32,1.428s1.135,2.449,1.135,4.492v7.531h-0.671v-7.556c0-1.912-0.342-3.264-1.025-4.053
	s-1.595-1.185-2.734-1.185c-1.359,0-2.395,0.399-3.107,1.197c-0.712,0.797-1.17,1.83-1.373,3.1c0.008,0.163,0.016,0.328,0.024,0.495
	c0.008,0.167,0.012,0.335,0.012,0.507v7.507h-0.671v-6.763h-0.037c0-0.154,0.002-0.31,0.006-0.464
	c0.004-0.154,0.014-0.306,0.03-0.452c-0.024-1.871-0.375-3.191-1.05-3.961c-0.676-0.769-1.583-1.153-2.722-1.153
	c-1.343,0-2.366,0.389-3.07,1.166c-0.704,0.777-1.162,1.784-1.374,3.021v8.606h-0.671v-6.763h-0.024
	c0-0.114,0.002-0.228,0.006-0.342c0.004-0.114,0.01-0.256,0.019-0.428v-5.676H121.002z"/>
<path fill="#FFFFFF" d="M157.587,507.186h0.073l7.422-16.724h0.745v17.773h-0.659v-16.149l-0.073-0.013l-7.202,16.162h-0.525
	l-7.361-16.517l-0.073,0.013v16.504h-0.659v-17.773h0.916L157.587,507.186z"/>
<path fill="#FFFFFF" d="M179.218,505.917c-0.415,0.813-1.005,1.446-1.77,1.898c-0.765,0.451-1.693,0.678-2.783,0.678
	c-1.359,0-2.423-0.482-3.192-1.447c-0.77-0.964-1.154-2.459-1.154-4.486v-7.531h0.659v7.557c0,1.79,0.33,3.112,0.989,3.967
	s1.55,1.281,2.673,1.281c1.343,0,2.382-0.327,3.119-0.982c0.737-0.654,1.215-1.52,1.435-2.594v-9.229h0.671v7.775h0.024
	c0,0.106-0.004,0.208-0.012,0.306c-0.008,0.098-0.012,0.212-0.012,0.342v4.785h-0.549L179.218,505.917z"/>
<path fill="#FFFFFF" d="M192.145,505c0-0.699-0.299-1.336-0.897-1.91c-0.599-0.573-1.642-1.023-3.131-1.349
	c-1.571-0.334-2.708-0.763-3.412-1.288c-0.704-0.524-1.056-1.304-1.056-2.338c0-0.943,0.398-1.734,1.196-2.374
	c0.797-0.639,1.872-0.958,3.223-0.958c1.457,0,2.604,0.342,3.442,1.025c0.838,0.684,1.237,1.574,1.196,2.674l-0.024,0.072h-0.562
	c0-0.862-0.364-1.597-1.092-2.203c-0.729-0.605-1.715-0.909-2.96-0.909c-1.237,0-2.173,0.267-2.808,0.8s-0.952,1.149-0.952,1.85
	c0,0.691,0.269,1.281,0.806,1.77s1.603,0.916,3.198,1.281c1.473,0.342,2.59,0.809,3.351,1.398c0.761,0.59,1.141,1.414,1.141,2.472
	c0,1.033-0.423,1.872-1.27,2.515c-0.847,0.643-1.97,0.965-3.369,0.965c-1.538,0-2.745-0.344-3.62-1.032
	c-0.875-0.688-1.284-1.523-1.227-2.509l0.024-0.072h0.537c0.065,1.041,0.513,1.794,1.343,2.258s1.811,0.695,2.942,0.695
	c1.221,0,2.189-0.284,2.905-0.854C191.787,506.409,192.145,505.75,192.145,505z"/>
<path fill="#FFFFFF" d="M201.117,508.493c-1.555,0-2.867-0.603-3.937-1.807c-1.07-1.205-1.605-2.723-1.605-4.554v-0.781
	c0-1.912,0.531-3.485,1.593-4.718c1.063-1.233,2.399-1.85,4.01-1.85c1.465,0,2.632,0.482,3.503,1.446
	c0.871,0.965,1.306,2.281,1.306,3.949v1.013h-9.753v0.159v0.781c0,1.611,0.456,2.965,1.367,4.059
	c0.911,1.095,2.083,1.642,3.516,1.642c0.789,0,1.548-0.146,2.276-0.439c0.729-0.293,1.32-0.684,1.776-1.172l0.354,0.514
	c-0.464,0.512-1.062,0.934-1.794,1.263C202.997,508.328,202.126,508.493,201.117,508.493z M201.178,495.443
	c-1.367,0-2.488,0.475-3.363,1.422c-0.875,0.948-1.37,2.146-1.483,3.595l0.037,0.074h8.96v-0.403c0-1.359-0.371-2.479-1.111-3.363
	C203.477,495.884,202.464,495.443,201.178,495.443z"/>
<path fill="#FFFFFF" d="M218.024,505.917c-0.415,0.813-1.005,1.446-1.77,1.898c-0.765,0.451-1.693,0.678-2.783,0.678
	c-1.359,0-2.423-0.482-3.192-1.447c-0.769-0.964-1.153-2.459-1.153-4.486v-7.531h0.659v7.557c0,1.79,0.33,3.112,0.989,3.967
	s1.55,1.281,2.673,1.281c1.343,0,2.382-0.327,3.119-0.982c0.736-0.654,1.214-1.52,1.434-2.594v-9.229h0.671v7.775h0.024
	c0,0.106-0.004,0.208-0.012,0.306c-0.008,0.098-0.012,0.212-0.012,0.342v4.785h-0.549L218.024,505.917z"/>
<path fill="#FFFFFF" d="M223.322,495.028l0.085,2.661c0.407-0.92,0.98-1.634,1.721-2.143c0.74-0.508,1.644-0.763,2.71-0.763
	c1.123,0,2.039,0.283,2.747,0.849s1.2,1.442,1.477,2.63c0.366-1.098,0.942-1.954,1.727-2.569c0.786-0.614,1.764-0.921,2.936-0.921
	c1.457,0,2.563,0.476,3.321,1.428c0.756,0.952,1.135,2.449,1.135,4.492v7.531h-0.672v-7.556c0-1.912-0.342-3.264-1.025-4.053
	c-0.684-0.789-1.595-1.185-2.734-1.185c-1.359,0-2.395,0.399-3.107,1.197c-0.712,0.797-1.17,1.83-1.373,3.1
	c0.008,0.163,0.016,0.328,0.024,0.495c0.008,0.167,0.012,0.335,0.012,0.507v7.507h-0.671v-6.763h-0.037
	c0-0.154,0.002-0.31,0.006-0.464c0.004-0.154,0.014-0.306,0.03-0.452c-0.024-1.871-0.375-3.191-1.05-3.961
	c-0.676-0.769-1.583-1.153-2.722-1.153c-1.343,0-2.366,0.389-3.07,1.166c-0.704,0.777-1.162,1.784-1.374,3.021v8.606h-0.671v-6.763
	h-0.024c0-0.114,0.002-0.228,0.006-0.342c0.004-0.114,0.01-0.256,0.019-0.428v-5.676H223.322z"/>
<path fill="#FFFFFF" d="M253.364,505c0-0.699-0.3-1.336-0.897-1.91c-0.599-0.573-1.642-1.023-3.132-1.349
	c-1.57-0.334-2.708-0.763-3.411-1.288c-0.704-0.524-1.056-1.304-1.056-2.338c0-0.943,0.398-1.734,1.195-2.374
	c0.798-0.639,1.872-0.958,3.223-0.958c1.457,0,2.604,0.342,3.443,1.025c0.838,0.684,1.236,1.574,1.195,2.674l-0.023,0.072h-0.563
	c0-0.862-0.364-1.597-1.092-2.203c-0.729-0.605-1.715-0.909-2.961-0.909c-1.236,0-2.172,0.267-2.807,0.8s-0.953,1.149-0.953,1.85
	c0,0.691,0.27,1.281,0.807,1.77s1.603,0.916,3.197,1.281c1.474,0.342,2.59,0.809,3.352,1.398c0.761,0.59,1.141,1.414,1.141,2.472
	c0,1.033-0.423,1.872-1.27,2.515c-0.846,0.643-1.969,0.965-3.369,0.965c-1.537,0-2.744-0.344-3.619-1.032
	c-0.875-0.688-1.283-1.523-1.227-2.509l0.024-0.072h0.537c0.065,1.041,0.513,1.794,1.343,2.258s1.811,0.695,2.941,0.695
	c1.221,0,2.189-0.284,2.906-0.854C253.006,506.409,253.364,505.75,253.364,505z"/>
<path fill="#FFFFFF" d="M268.549,504.049c0-1.018-0.417-1.838-1.251-2.46c-0.835-0.623-2.257-1.264-4.267-1.923
	c-2.002-0.61-3.478-1.258-4.425-1.941c-0.948-0.684-1.422-1.696-1.422-3.039c0-1.335,0.555-2.415,1.666-3.241
	c1.11-0.825,2.521-1.239,4.229-1.239c1.774,0,3.2,0.456,4.278,1.367c1.078,0.912,1.602,2.186,1.568,3.821l-0.023,0.073h-0.563
	c0-1.326-0.488-2.425-1.465-3.296s-2.241-1.306-3.796-1.306c-1.604,0-2.877,0.376-3.821,1.129c-0.943,0.753-1.416,1.642-1.416,2.667
	s0.381,1.857,1.142,2.496c0.761,0.64,2.179,1.264,4.255,1.874c2.018,0.635,3.52,1.294,4.504,1.978s1.477,1.688,1.477,3.015
	c0,1.352-0.581,2.434-1.745,3.248c-1.164,0.813-2.601,1.221-4.31,1.221c-1.781,0-3.315-0.417-4.602-1.252
	c-1.286-0.834-1.908-2.146-1.867-3.937l0.023-0.073h0.55c0,1.611,0.594,2.781,1.782,3.51s2.56,1.092,4.113,1.092
	c1.555,0,2.841-0.359,3.857-1.08C268.04,506.033,268.549,505.131,268.549,504.049z"/>
<path fill="#FFFFFF" d="M273.297,497.774c0.415-0.943,1.018-1.678,1.807-2.203c0.789-0.524,1.75-0.787,2.881-0.787
	c1.375,0,2.419,0.436,3.131,1.307c0.712,0.87,1.068,2.241,1.068,4.113v8.032h-0.671v-8.057c0-1.733-0.32-2.956-0.959-3.668
	s-1.491-1.068-2.557-1.068c-1.4,0-2.48,0.411-3.241,1.233c-0.762,0.821-1.247,1.875-1.459,3.161v8.398h-0.659v-6.763h-0.024
	c0-0.171,0-0.313,0-0.428c0-0.113,0.008-0.228,0.024-0.342v-11.511h0.659V497.774z"/>
<path fill="#FFFFFF" d="M285.284,501.375c0-1.937,0.535-3.52,1.605-4.748c1.07-1.229,2.46-1.844,4.169-1.844
	c1.717,0,3.11,0.614,4.181,1.844c1.07,1.229,1.605,2.812,1.605,4.748v0.513c0,1.945-0.535,3.532-1.605,4.761
	s-2.455,1.844-4.156,1.844c-1.717,0-3.113-0.615-4.188-1.844s-1.611-2.815-1.611-4.761V501.375z M285.944,501.888
	c0,1.66,0.463,3.066,1.391,4.218s2.178,1.727,3.748,1.727c1.546,0,2.783-0.577,3.711-1.732c0.928-1.156,1.392-2.56,1.392-4.212
	v-0.513c0-1.619-0.468-3.013-1.403-4.181c-0.937-1.168-2.178-1.752-3.724-1.752c-1.555,0-2.796,0.584-3.724,1.752
	s-1.391,2.562-1.391,4.181V501.888z"/>
<path fill="#FFFFFF" d="M310.103,501.875c0,2.035-0.439,3.646-1.318,4.834c-0.879,1.188-2.092,1.783-3.639,1.783
	c-1.025,0-1.918-0.204-2.679-0.611c-0.762-0.406-1.361-0.96-1.801-1.66v7.093h-0.659v-8.691c-0.008-0.024-0.015-0.045-0.019-0.062
	c-0.004-0.016-0.006-0.032-0.006-0.049v-5.371c0-0.008,0-0.014,0-0.018s0.008-0.031,0.024-0.08v-4.016h0.513l0.134,2.332
	c0.439-0.798,1.038-1.427,1.795-1.887c0.757-0.459,1.648-0.689,2.674-0.689c1.554,0,2.772,0.616,3.655,1.85
	c0.883,1.232,1.325,2.895,1.325,4.986V501.875z M309.431,501.62c0-1.831-0.368-3.318-1.104-4.462
	c-0.737-1.143-1.801-1.715-3.192-1.715c-1.253,0-2.232,0.313-2.936,0.94c-0.704,0.626-1.215,1.399-1.532,2.318v6.312
	c0.334,0.862,0.879,1.549,1.636,2.057c0.757,0.509,1.709,0.763,2.856,0.763c1.392,0,2.451-0.537,3.18-1.611s1.093-2.522,1.093-4.346
	V501.62z"/>
<path fill="#FFFFFF" d="M327.765,505c0-0.699-0.299-1.336-0.896-1.91c-0.599-0.573-1.643-1.023-3.131-1.349
	c-1.571-0.334-2.709-0.763-3.412-1.288c-0.704-0.524-1.057-1.304-1.057-2.338c0-0.943,0.399-1.734,1.197-2.374
	c0.797-0.639,1.871-0.958,3.223-0.958c1.456,0,2.604,0.342,3.441,1.025c0.839,0.684,1.237,1.574,1.197,2.674l-0.025,0.072h-0.561
	c0-0.862-0.365-1.597-1.093-2.203c-0.729-0.605-1.716-0.909-2.96-0.909c-1.237,0-2.174,0.267-2.809,0.8s-0.951,1.149-0.951,1.85
	c0,0.691,0.268,1.281,0.805,1.77s1.604,0.916,3.199,1.281c1.473,0.342,2.589,0.809,3.351,1.398c0.761,0.59,1.142,1.414,1.142,2.472
	c0,1.033-0.424,1.872-1.27,2.515c-0.847,0.643-1.97,0.965-3.369,0.965c-1.539,0-2.745-0.344-3.62-1.032
	c-0.875-0.688-1.283-1.523-1.227-2.509l0.024-0.072h0.537c0.065,1.041,0.513,1.794,1.343,2.258s1.811,0.695,2.942,0.695
	c1.221,0,2.188-0.284,2.904-0.854C327.407,506.409,327.765,505.75,327.765,505z"/>
<path fill="#FFFFFF" d="M332.929,490.877h-0.66v-1.685h0.66V490.877z M332.929,508.236h-0.66v-13.208h0.66V508.236z"/>
<path fill="#FFFFFF" d="M337.824,495.028l0.085,2.661c0.407-0.92,0.993-1.634,1.758-2.143c0.766-0.508,1.705-0.763,2.82-0.763
	c1.44,0,2.521,0.454,3.241,1.361c0.72,0.907,1.08,2.346,1.08,4.314v7.776h-0.659v-7.8c0-1.832-0.328-3.121-0.982-3.87
	c-0.655-0.749-1.545-1.123-2.668-1.123c-1.383,0-2.441,0.403-3.174,1.208c-0.732,0.807-1.2,1.844-1.403,3.113v8.472h-0.659v-6.763
	h-0.037c0-0.154,0.002-0.312,0.007-0.47c0.004-0.159,0.014-0.319,0.03-0.482v-5.493H337.824z"/>
<path fill="#FFFFFF" d="M350.336,501.62c0-2.092,0.439-3.754,1.318-4.986c0.879-1.233,2.1-1.85,3.662-1.85
	c1.025,0,1.914,0.23,2.667,0.689c0.753,0.46,1.354,1.089,1.801,1.887v-8.167h0.659v9.899c0,0.017,0,0.029,0,0.037
	s0.004,0.012,0.013,0.012v5.384c-0.009,0.017-0.013,0.028-0.013,0.036c0,0.009,0,0.017,0,0.025v3.649h-0.635l-0.024-2.038
	c-0.439,0.707-1.042,1.268-1.807,1.678c-0.765,0.411-1.66,0.617-2.686,0.617c-1.555,0-2.77-0.595-3.644-1.783
	c-0.875-1.188-1.313-2.799-1.313-4.834V501.62z M351.02,501.875c0,1.823,0.36,3.271,1.08,4.346c0.721,1.074,1.78,1.611,3.181,1.611
	c1.146,0,2.1-0.258,2.855-0.774c0.758-0.517,1.307-1.207,1.648-2.069v-6.25c-0.325-0.936-0.841-1.719-1.544-2.35
	c-0.704-0.631-1.683-0.946-2.937-0.946c-1.399,0-2.464,0.572-3.191,1.715c-0.729,1.144-1.093,2.631-1.093,4.462V501.875z"/>
<path fill="#FFFFFF" d="M365.399,508.333l-0.855,3.052h-0.622l0.817-3.003v-2.087h0.66V508.333z"/>
<path fill="#FFFFFF" d="M379.913,508.493c-1.554,0-2.866-0.603-3.937-1.807c-1.07-1.205-1.604-2.723-1.604-4.554v-0.781
	c0-1.912,0.53-3.485,1.593-4.718c1.062-1.233,2.398-1.85,4.01-1.85c1.465,0,2.633,0.482,3.503,1.446
	c0.871,0.965,1.307,2.281,1.307,3.949v1.013h-9.754v0.159v0.781c0,1.611,0.456,2.965,1.367,4.059
	c0.912,1.095,2.084,1.642,3.516,1.642c0.79,0,1.549-0.146,2.277-0.439c0.728-0.293,1.32-0.684,1.775-1.172l0.354,0.514
	c-0.464,0.512-1.062,0.934-1.794,1.263C381.794,508.328,380.923,508.493,379.913,508.493z M379.975,495.443
	c-1.367,0-2.488,0.475-3.363,1.422c-0.875,0.948-1.369,2.146-1.483,3.595l0.037,0.074h8.96v-0.403c0-1.359-0.37-2.479-1.11-3.363
	C382.273,495.884,381.261,495.443,379.975,495.443z"/>
<path fill="#FFFFFF" d="M393.792,495.504l-0.854-0.074c-1.181,0-2.139,0.381-2.875,1.142c-0.737,0.762-1.215,1.765-1.435,3.009
	v8.655h-0.659v-13.208h0.537l0.122,2.295v0.451c0.366-0.943,0.911-1.678,1.636-2.203c0.725-0.524,1.615-0.787,2.674-0.787
	c0.187,0,0.359,0.015,0.519,0.043c0.158,0.028,0.295,0.059,0.409,0.092L393.792,495.504z"/>
<path fill="#FFFFFF" d="M404.425,505c0-0.699-0.299-1.336-0.896-1.91c-0.599-0.573-1.643-1.023-3.131-1.349
	c-1.571-0.334-2.709-0.763-3.412-1.288c-0.704-0.524-1.057-1.304-1.057-2.338c0-0.943,0.399-1.734,1.197-2.374
	c0.797-0.639,1.871-0.958,3.223-0.958c1.456,0,2.604,0.342,3.441,1.025c0.839,0.684,1.237,1.574,1.197,2.674l-0.025,0.072h-0.561
	c0-0.862-0.365-1.597-1.093-2.203c-0.729-0.605-1.716-0.909-2.96-0.909c-1.237,0-2.174,0.267-2.809,0.8s-0.951,1.149-0.951,1.85
	c0,0.691,0.268,1.281,0.805,1.77s1.604,0.916,3.199,1.281c1.473,0.342,2.589,0.809,3.351,1.398c0.761,0.59,1.142,1.414,1.142,2.472
	c0,1.033-0.424,1.872-1.27,2.515c-0.847,0.643-1.97,0.965-3.369,0.965c-1.539,0-2.745-0.344-3.62-1.032
	c-0.875-0.688-1.283-1.523-1.227-2.509l0.024-0.072h0.537c0.065,1.041,0.513,1.794,1.343,2.258s1.811,0.695,2.942,0.695
	c1.221,0,2.188-0.284,2.904-0.854C404.067,506.409,404.425,505.75,404.425,505z"/>
<path fill="#FFFFFF" d="M413.251,507.833c1.114,0,2.1-0.305,2.953-0.915c0.855-0.61,1.282-1.526,1.282-2.747h0.562l0.024,0.074
	c0.032,1.293-0.441,2.325-1.422,3.094c-0.981,0.77-2.114,1.154-3.399,1.154c-1.686,0-3.006-0.606-3.962-1.819
	s-1.435-2.808-1.435-4.785v-0.513c0-1.97,0.477-3.561,1.429-4.773c0.952-1.212,2.267-1.818,3.942-1.818
	c1.367,0,2.525,0.401,3.474,1.202c0.947,0.802,1.405,1.931,1.373,3.388l-0.024,0.073h-0.562c0-1.294-0.415-2.284-1.245-2.973
	c-0.83-0.688-1.835-1.031-3.016-1.031c-1.546,0-2.718,0.554-3.516,1.66c-0.797,1.106-1.195,2.531-1.195,4.272v0.513
	c0,1.758,0.398,3.188,1.195,4.291C410.508,507.282,411.688,507.833,413.251,507.833z"/>
<path fill="#FFFFFF" d="M422.113,497.774c0.415-0.943,1.018-1.678,1.807-2.203c0.789-0.524,1.75-0.787,2.881-0.787
	c1.375,0,2.419,0.436,3.131,1.307c0.712,0.87,1.068,2.241,1.068,4.113v8.032h-0.671v-8.057c0-1.733-0.32-2.956-0.959-3.668
	s-1.491-1.068-2.557-1.068c-1.4,0-2.48,0.411-3.241,1.233c-0.762,0.821-1.247,1.875-1.459,3.161v8.398h-0.659v-6.763h-0.024
	c0-0.171,0-0.313,0-0.428c0-0.113,0.008-0.228,0.024-0.342v-11.511h0.659V497.774z"/>
<path fill="#FFFFFF" d="M439.765,508.493c-1.555,0-2.867-0.603-3.938-1.807c-1.07-1.205-1.605-2.723-1.605-4.554v-0.781
	c0-1.912,0.531-3.485,1.594-4.718c1.062-1.233,2.398-1.85,4.01-1.85c1.465,0,2.633,0.482,3.504,1.446
	c0.87,0.965,1.306,2.281,1.306,3.949v1.013h-9.753v0.159v0.781c0,1.611,0.455,2.965,1.367,4.059
	c0.911,1.095,2.083,1.642,3.516,1.642c0.789,0,1.548-0.146,2.276-0.439c0.728-0.293,1.32-0.684,1.776-1.172l0.354,0.514
	c-0.464,0.512-1.063,0.934-1.795,1.263C441.644,508.328,440.773,508.493,439.765,508.493z M439.825,495.443
	c-1.367,0-2.488,0.475-3.363,1.422c-0.875,0.948-1.369,2.146-1.482,3.595l0.036,0.074h8.96v-0.403c0-1.359-0.37-2.479-1.111-3.363
	C442.124,495.884,441.111,495.443,439.825,495.443z"/>
<path fill="#FFFFFF" d="M448.64,490.877h-0.66v-1.685h0.66V490.877z M448.64,508.236h-0.66v-13.208h0.66V508.236z"/>
<path fill="#FFFFFF" d="M453.534,495.028l0.086,2.661c0.406-0.92,0.992-1.634,1.758-2.143c0.765-0.508,1.704-0.763,2.819-0.763
	c1.44,0,2.521,0.454,3.241,1.361c0.72,0.907,1.08,2.346,1.08,4.314v7.776h-0.659v-7.8c0-1.832-0.328-3.121-0.982-3.87
	c-0.655-0.749-1.544-1.123-2.667-1.123c-1.384,0-2.441,0.403-3.174,1.208c-0.732,0.807-1.201,1.844-1.404,3.113v8.472h-0.659v-6.763
	h-0.036c0-0.154,0.001-0.312,0.006-0.47c0.004-0.159,0.014-0.319,0.03-0.482v-5.493H453.534z"/>
<path fill="#FFFFFF" d="M468.024,491.463v3.564h3.247v0.672h-3.247v9.131c0,1.082,0.184,1.854,0.549,2.313
	c0.367,0.46,0.851,0.689,1.453,0.689c0.22,0,0.415-0.008,0.586-0.023c0.171-0.017,0.407-0.045,0.708-0.086l0.122,0.598
	c-0.203,0.065-0.415,0.11-0.635,0.135s-0.468,0.037-0.744,0.037c-0.888,0-1.562-0.289-2.021-0.867c-0.46-0.578-0.69-1.51-0.69-2.795
	V495.7h-2.441v-0.672h2.441v-3.564H468.024z"/>
<path fill="#FFFFFF" d="M0.684,527.774c0.415-0.943,1.017-1.678,1.807-2.203c0.789-0.524,1.75-0.787,2.881-0.787
	c1.375,0,2.419,0.436,3.131,1.307c0.712,0.87,1.068,2.241,1.068,4.113v8.032H8.899v-8.057c0-1.733-0.319-2.956-0.958-3.668
	c-0.639-0.712-1.491-1.068-2.557-1.068c-1.4,0-2.48,0.411-3.241,1.233c-0.761,0.821-1.248,1.875-1.459,3.161v8.398H0.024v-6.763H0
	c0-0.171,0-0.313,0-0.428c0-0.113,0.008-0.228,0.024-0.342v-11.511h0.659V527.774z"/>
<path fill="#FFFFFF" d="M14.526,520.877h-0.659v-1.685h0.659V520.877z M14.526,538.236h-0.659v-13.208h0.659V538.236z"/>
<path fill="#FFFFFF" d="M23.486,538.493c-1.555,0-2.867-0.603-3.937-1.807c-1.07-1.205-1.605-2.723-1.605-4.554v-0.781
	c0-1.912,0.531-3.485,1.593-4.718c1.063-1.233,2.399-1.85,4.01-1.85c1.465,0,2.632,0.482,3.503,1.446
	c0.871,0.965,1.306,2.281,1.306,3.949v1.013h-9.753v0.159v0.781c0,1.611,0.456,2.965,1.367,4.059
	c0.911,1.095,2.083,1.642,3.516,1.642c0.789,0,1.548-0.146,2.276-0.439c0.729-0.293,1.32-0.684,1.776-1.172l0.354,0.514
	c-0.464,0.512-1.062,0.934-1.794,1.263C25.366,538.328,24.495,538.493,23.486,538.493z M23.547,525.443
	c-1.367,0-2.488,0.475-3.363,1.422c-0.875,0.948-1.37,2.146-1.483,3.595l0.037,0.074h8.96v-0.403c0-1.359-0.371-2.479-1.111-3.363
	C25.846,525.884,24.833,525.443,23.547,525.443z"/>
<path fill="#FFFFFF" d="M37.366,525.504l-0.854-0.074c-1.18,0-2.138,0.381-2.875,1.142c-0.737,0.762-1.215,1.765-1.435,3.009v8.655
	h-0.659v-13.208h0.537l0.122,2.295v0.451c0.366-0.943,0.911-1.678,1.636-2.203c0.724-0.524,1.615-0.787,2.673-0.787
	c0.187,0,0.36,0.015,0.519,0.043c0.158,0.028,0.294,0.059,0.409,0.092L37.366,525.504z"/>
<path fill="#FFFFFF" d="M54.175,535.794c-0.456,0.798-1.135,1.446-2.039,1.947c-0.903,0.5-1.998,0.751-3.284,0.751
	c-1.229,0-2.193-0.336-2.893-1.008c-0.7-0.671-1.05-1.576-1.05-2.716c0-1.106,0.523-2.034,1.569-2.783
	c1.045-0.749,2.354-1.123,3.924-1.123h3.772v-1.929c0-1.099-0.352-1.955-1.056-2.569c-0.704-0.614-1.695-0.922-2.973-0.922
	c-1.196,0-2.159,0.289-2.887,0.866c-0.729,0.578-1.093,1.323-1.093,2.234l-0.549-0.024l-0.024-0.062
	c-0.049-1.025,0.35-1.894,1.196-2.605c0.846-0.712,1.965-1.068,3.357-1.068c1.416,0,2.551,0.358,3.406,1.074s1.282,1.75,1.282,3.101
	v6.616c0,0.464,0.026,0.916,0.079,1.355c0.053,0.439,0.141,0.874,0.263,1.306h-0.732c-0.106-0.578-0.177-1.011-0.214-1.3
	c-0.036-0.289-0.055-0.601-0.055-0.934V535.794z M48.853,537.845c1.31,0,2.419-0.289,3.326-0.866
	c0.908-0.578,1.573-1.404,1.996-2.479v-2.967h-3.735c-1.367,0-2.521,0.316-3.461,0.946c-0.939,0.631-1.41,1.41-1.41,2.338
	c0,0.887,0.299,1.613,0.897,2.179C47.064,537.563,47.859,537.845,48.853,537.845z"/>
<path fill="#FFFFFF" d="M67.932,535.917c-0.415,0.813-1.005,1.446-1.77,1.898c-0.765,0.451-1.693,0.678-2.783,0.678
	c-1.359,0-2.423-0.482-3.192-1.447c-0.769-0.964-1.153-2.459-1.153-4.486v-7.531h0.659v7.557c0,1.79,0.33,3.112,0.989,3.967
	s1.55,1.281,2.673,1.281c1.343,0,2.382-0.327,3.119-0.982c0.736-0.654,1.214-1.52,1.434-2.594v-9.229h0.671v7.775h0.024
	c0,0.106-0.004,0.208-0.012,0.306c-0.008,0.098-0.012,0.212-0.012,0.342v4.785H68.03L67.932,535.917z"/>
<path fill="#FFFFFF" d="M74.133,521.463v3.564h3.247v0.672h-3.247v9.131c0,1.082,0.183,1.854,0.549,2.313
	c0.366,0.46,0.85,0.689,1.453,0.689c0.22,0,0.415-0.008,0.586-0.023c0.171-0.017,0.407-0.045,0.708-0.086l0.122,0.598
	c-0.204,0.065-0.415,0.11-0.635,0.135s-0.468,0.037-0.745,0.037c-0.887,0-1.561-0.289-2.021-0.867
	c-0.459-0.578-0.689-1.51-0.689-2.795V525.7h-2.441v-0.672h2.441v-3.564H74.133z"/>
<path fill="#FFFFFF" d="M79.456,531.375c0-1.937,0.535-3.52,1.605-4.748c1.07-1.229,2.46-1.844,4.169-1.844
	c1.717,0,3.111,0.614,4.181,1.844c1.07,1.229,1.605,2.812,1.605,4.748v0.513c0,1.945-0.535,3.532-1.605,4.761
	c-1.07,1.229-2.456,1.844-4.156,1.844c-1.717,0-3.113-0.615-4.187-1.844s-1.611-2.815-1.611-4.761V531.375z M80.115,531.888
	c0,1.66,0.464,3.066,1.392,4.218s2.177,1.727,3.748,1.727c1.546,0,2.783-0.577,3.711-1.732c0.928-1.156,1.392-2.56,1.392-4.212
	v-0.513c0-1.619-0.468-3.013-1.404-4.181c-0.936-1.168-2.177-1.752-3.723-1.752c-1.555,0-2.795,0.584-3.723,1.752
	s-1.392,2.562-1.392,4.181V531.888z"/>
<path fill="#FFFFFF" d="M94.641,525.028l0.085,2.661c0.407-0.92,0.98-1.634,1.721-2.143c0.74-0.508,1.644-0.763,2.71-0.763
	c1.123,0,2.039,0.283,2.747,0.849s1.2,1.442,1.477,2.63c0.366-1.098,0.942-1.954,1.727-2.569c0.786-0.614,1.764-0.921,2.936-0.921
	c1.457,0,2.563,0.476,3.32,1.428s1.135,2.449,1.135,4.492v7.531h-0.671v-7.556c0-1.912-0.342-3.264-1.025-4.053
	s-1.595-1.185-2.734-1.185c-1.359,0-2.395,0.399-3.107,1.197c-0.712,0.797-1.17,1.83-1.373,3.1c0.008,0.163,0.016,0.328,0.024,0.495
	c0.008,0.167,0.012,0.335,0.012,0.507v7.507h-0.671v-6.763h-0.037c0-0.154,0.002-0.31,0.006-0.464
	c0.004-0.154,0.014-0.306,0.03-0.452c-0.024-1.871-0.375-3.191-1.05-3.961c-0.676-0.769-1.583-1.153-2.722-1.153
	c-1.343,0-2.366,0.389-3.07,1.166c-0.704,0.777-1.162,1.784-1.374,3.021v8.606h-0.671v-6.763h-0.024
	c0-0.114,0.002-0.228,0.006-0.342c0.004-0.114,0.01-0.256,0.019-0.428v-5.676H94.641z"/>
<path fill="#FFFFFF" d="M124.878,535.794c-0.456,0.798-1.135,1.446-2.039,1.947c-0.903,0.5-1.998,0.751-3.284,0.751
	c-1.229,0-2.193-0.336-2.893-1.008c-0.7-0.671-1.05-1.576-1.05-2.716c0-1.106,0.523-2.034,1.569-2.783
	c1.045-0.749,2.354-1.123,3.924-1.123h3.772v-1.929c0-1.099-0.352-1.955-1.056-2.569c-0.704-0.614-1.695-0.922-2.973-0.922
	c-1.196,0-2.159,0.289-2.887,0.866c-0.729,0.578-1.093,1.323-1.093,2.234l-0.549-0.024l-0.024-0.062
	c-0.049-1.025,0.35-1.894,1.196-2.605c0.846-0.712,1.965-1.068,3.357-1.068c1.416,0,2.551,0.358,3.406,1.074s1.282,1.75,1.282,3.101
	v6.616c0,0.464,0.026,0.916,0.079,1.355c0.053,0.439,0.141,0.874,0.263,1.306h-0.732c-0.106-0.578-0.177-1.011-0.214-1.3
	c-0.036-0.289-0.055-0.601-0.055-0.934V535.794z M119.556,537.845c1.31,0,2.419-0.289,3.326-0.866
	c0.908-0.578,1.573-1.404,1.996-2.479v-2.967h-3.735c-1.367,0-2.521,0.316-3.461,0.946c-0.939,0.631-1.41,1.41-1.41,2.338
	c0,0.887,0.299,1.613,0.897,2.179C117.768,537.563,118.563,537.845,119.556,537.845z"/>
<path fill="#FFFFFF" d="M131.152,521.463v3.564h3.247v0.672h-3.247v9.131c0,1.082,0.183,1.854,0.549,2.313
	c0.366,0.46,0.85,0.689,1.453,0.689c0.22,0,0.415-0.008,0.586-0.023c0.171-0.017,0.407-0.045,0.708-0.086l0.122,0.598
	c-0.204,0.065-0.415,0.11-0.635,0.135s-0.468,0.037-0.745,0.037c-0.887,0-1.561-0.289-2.02-0.867c-0.46-0.578-0.69-1.51-0.69-2.795
	V525.7h-2.441v-0.672h2.441v-3.564H131.152z"/>
<path fill="#FFFFFF" d="M138.33,520.877h-0.659v-1.685h0.659V520.877z M138.33,538.236h-0.659v-13.208h0.659V538.236z"/>
<path fill="#FFFFFF" d="M150.757,535c0-0.699-0.299-1.336-0.897-1.91c-0.598-0.573-1.642-1.023-3.131-1.349
	c-1.571-0.334-2.708-0.763-3.412-1.288c-0.704-0.524-1.056-1.304-1.056-2.338c0-0.943,0.398-1.734,1.196-2.374
	c0.797-0.639,1.872-0.958,3.223-0.958c1.457,0,2.604,0.342,3.442,1.025c0.838,0.684,1.237,1.574,1.196,2.674l-0.024,0.072h-0.562
	c0-0.862-0.364-1.597-1.093-2.203c-0.728-0.605-1.715-0.909-2.96-0.909c-1.237,0-2.173,0.267-2.808,0.8s-0.952,1.149-0.952,1.85
	c0,0.691,0.269,1.281,0.806,1.77s1.603,0.916,3.198,1.281c1.473,0.342,2.59,0.809,3.351,1.398c0.761,0.59,1.142,1.414,1.142,2.472
	c0,1.033-0.423,1.872-1.27,2.515c-0.847,0.643-1.97,0.965-3.369,0.965c-1.538,0-2.745-0.344-3.619-1.032
	c-0.875-0.688-1.284-1.523-1.227-2.509l0.024-0.072h0.537c0.065,1.041,0.513,1.794,1.343,2.258s1.811,0.695,2.942,0.695
	c1.221,0,2.189-0.284,2.905-0.854C150.398,536.409,150.757,535.75,150.757,535z"/>
<path fill="#FFFFFF" d="M159.583,537.833c1.115,0,2.1-0.305,2.954-0.915s1.282-1.526,1.282-2.747h0.562l0.024,0.074
	c0.032,1.293-0.441,2.325-1.422,3.094c-0.981,0.77-2.114,1.154-3.4,1.154c-1.685,0-3.005-0.606-3.961-1.819
	c-0.956-1.213-1.434-2.808-1.434-4.785v-0.513c0-1.97,0.476-3.561,1.428-4.773c0.952-1.212,2.266-1.818,3.943-1.818
	c1.367,0,2.525,0.401,3.473,1.202c0.948,0.802,1.405,1.931,1.373,3.388l-0.024,0.073h-0.562c0-1.294-0.415-2.284-1.245-2.973
	c-0.83-0.688-1.835-1.031-3.015-1.031c-1.546,0-2.718,0.554-3.516,1.66c-0.798,1.106-1.196,2.531-1.196,4.272v0.513
	c0,1.758,0.398,3.188,1.196,4.291C156.84,537.282,158.02,537.833,159.583,537.833z"/>
<path fill="#FFFFFF" d="M168.445,527.774c0.415-0.943,1.017-1.678,1.807-2.203c0.789-0.524,1.75-0.787,2.881-0.787
	c1.375,0,2.419,0.436,3.131,1.307c0.712,0.87,1.068,2.241,1.068,4.113v8.032h-0.671v-8.057c0-1.733-0.319-2.956-0.958-3.668
	c-0.639-0.712-1.492-1.068-2.558-1.068c-1.4,0-2.48,0.411-3.241,1.233c-0.761,0.821-1.247,1.875-1.458,3.161v8.398h-0.659v-6.763
	h-0.024c0-0.171,0-0.313,0-0.428c0-0.113,0.008-0.228,0.024-0.342v-11.511h0.659V527.774z"/>
<path fill="#FFFFFF" d="M192.078,538.493c-1.555,0-2.867-0.603-3.937-1.807c-1.07-1.205-1.605-2.723-1.605-4.554v-0.781
	c0-1.912,0.531-3.485,1.593-4.718c1.062-1.233,2.398-1.85,4.01-1.85c1.465,0,2.632,0.482,3.503,1.446
	c0.871,0.965,1.306,2.281,1.306,3.949v1.013h-9.753v0.159v0.781c0,1.611,0.456,2.965,1.367,4.059
	c0.911,1.095,2.083,1.642,3.516,1.642c0.789,0,1.548-0.146,2.277-0.439c0.728-0.293,1.32-0.684,1.776-1.172l0.354,0.514
	c-0.464,0.512-1.062,0.934-1.794,1.263C193.958,538.328,193.086,538.493,192.078,538.493z M192.139,525.443
	c-1.367,0-2.488,0.475-3.363,1.422c-0.875,0.948-1.369,2.146-1.483,3.595l0.037,0.074h8.96v-0.403c0-1.359-0.371-2.479-1.111-3.363
	C194.438,525.884,193.424,525.443,192.139,525.443z"/>
<path fill="#FFFFFF" d="M200.952,520.877h-0.659v-1.685h0.659V520.877z M200.952,538.236h-0.659v-13.208h0.659V538.236z"/>
<path fill="#FFFFFF" d="M205.847,525.028l0.085,2.661c0.407-0.92,0.993-1.634,1.758-2.143c0.765-0.508,1.705-0.763,2.82-0.763
	c1.44,0,2.521,0.454,3.241,1.361c0.721,0.907,1.081,2.346,1.081,4.314v7.776h-0.659v-7.8c0-1.832-0.328-3.121-0.983-3.87
	c-0.655-0.749-1.544-1.123-2.667-1.123c-1.384,0-2.441,0.403-3.174,1.208c-0.732,0.807-1.201,1.844-1.404,3.113v8.472h-0.659v-6.763
	h-0.037c0-0.154,0.002-0.312,0.006-0.47c0.004-0.159,0.014-0.319,0.031-0.482v-5.493H205.847z"/>
<path fill="#FFFFFF" d="M235.046,531.875c0,2.035-0.439,3.646-1.318,4.834c-0.879,1.188-2.092,1.783-3.638,1.783
	c-1.034,0-1.935-0.208-2.704-0.623c-0.77-0.415-1.37-0.973-1.801-1.672l-0.085,2.038h-0.549v-3.601
	c-0.008-0.025-0.014-0.045-0.019-0.062c-0.004-0.017-0.006-0.032-0.006-0.049v-5.384c0-0.008,0-0.014,0-0.018
	s0.008-0.031,0.024-0.08v-9.851h0.659v8.154c0.439-0.798,1.033-1.424,1.782-1.88c0.749-0.456,1.64-0.684,2.673-0.684
	c1.554,0,2.773,0.616,3.656,1.85c0.883,1.232,1.325,2.895,1.325,4.986V531.875z M234.363,531.62c0-1.831-0.366-3.318-1.099-4.462
	c-0.732-1.143-1.794-1.715-3.186-1.715c-1.253,0-2.232,0.313-2.936,0.94c-0.704,0.626-1.215,1.399-1.532,2.318v6.324
	c0.333,0.854,0.879,1.536,1.636,2.044c0.757,0.509,1.709,0.763,2.856,0.763c1.392,0,2.449-0.537,3.174-1.611
	c0.724-1.074,1.086-2.522,1.086-4.346V531.62z"/>
<path fill="#FFFFFF" d="M243.262,538.493c-1.555,0-2.866-0.603-3.937-1.807c-1.07-1.205-1.605-2.723-1.605-4.554v-0.781
	c0-1.912,0.531-3.485,1.593-4.718c1.063-1.233,2.399-1.85,4.011-1.85c1.465,0,2.632,0.482,3.503,1.446
	c0.871,0.965,1.306,2.281,1.306,3.949v1.013h-9.753v0.159v0.781c0,1.611,0.456,2.965,1.367,4.059
	c0.911,1.095,2.083,1.642,3.516,1.642c0.789,0,1.548-0.146,2.276-0.439s1.32-0.684,1.776-1.172l0.354,0.514
	c-0.465,0.512-1.063,0.934-1.795,1.263C245.142,538.328,244.271,538.493,243.262,538.493z M243.323,525.443
	c-1.367,0-2.488,0.475-3.363,1.422c-0.875,0.948-1.37,2.146-1.483,3.595l0.037,0.074h8.96v-0.403c0-1.359-0.371-2.479-1.111-3.363
	C245.622,525.884,244.608,525.443,243.323,525.443z"/>
<path fill="#FFFFFF" d="M259.411,535c0-0.699-0.299-1.336-0.896-1.91c-0.599-0.573-1.643-1.023-3.131-1.349
	c-1.571-0.334-2.709-0.763-3.412-1.288c-0.704-0.524-1.057-1.304-1.057-2.338c0-0.943,0.399-1.734,1.197-2.374
	c0.797-0.639,1.871-0.958,3.223-0.958c1.456,0,2.604,0.342,3.441,1.025c0.839,0.684,1.237,1.574,1.197,2.674l-0.025,0.072h-0.561
	c0-0.862-0.365-1.597-1.093-2.203c-0.729-0.605-1.716-0.909-2.96-0.909c-1.237,0-2.174,0.267-2.809,0.8s-0.951,1.149-0.951,1.85
	c0,0.691,0.268,1.281,0.805,1.77s1.604,0.916,3.199,1.281c1.473,0.342,2.589,0.809,3.351,1.398c0.761,0.59,1.142,1.414,1.142,2.472
	c0,1.033-0.424,1.872-1.27,2.515c-0.847,0.643-1.97,0.965-3.369,0.965c-1.539,0-2.745-0.344-3.62-1.032
	c-0.875-0.688-1.283-1.523-1.227-2.509l0.024-0.072h0.537c0.065,1.041,0.513,1.794,1.343,2.258s1.811,0.695,2.942,0.695
	c1.221,0,2.188-0.284,2.904-0.854C259.054,536.409,259.411,535.75,259.411,535z"/>
<path fill="#FFFFFF" d="M262.72,531.375c0-1.937,0.534-3.52,1.604-4.748c1.07-1.229,2.46-1.844,4.169-1.844
	c1.717,0,3.11,0.614,4.181,1.844c1.07,1.229,1.605,2.812,1.605,4.748v0.513c0,1.945-0.535,3.532-1.605,4.761
	s-2.455,1.844-4.156,1.844c-1.717,0-3.112-0.615-4.187-1.844s-1.611-2.815-1.611-4.761V531.375z M263.378,531.888
	c0,1.66,0.465,3.066,1.393,4.218s2.177,1.727,3.747,1.727c1.546,0,2.783-0.577,3.711-1.732c0.928-1.156,1.392-2.56,1.392-4.212
	v-0.513c0-1.619-0.468-3.013-1.404-4.181c-0.936-1.168-2.177-1.752-3.723-1.752c-1.555,0-2.795,0.584-3.723,1.752
	s-1.393,2.562-1.393,4.181V531.888z"/>
<path fill="#FFFFFF" d="M278.003,525.028l0.086,2.661c0.406-0.92,0.992-1.634,1.758-2.143c0.765-0.508,1.704-0.763,2.819-0.763
	c1.44,0,2.521,0.454,3.241,1.361c0.72,0.907,1.08,2.346,1.08,4.314v7.776h-0.659v-7.8c0-1.832-0.328-3.121-0.982-3.87
	c-0.655-0.749-1.544-1.123-2.667-1.123c-1.384,0-2.441,0.403-3.174,1.208c-0.732,0.807-1.201,1.844-1.404,3.113v8.472h-0.659v-6.763
	h-0.036c0-0.154,0.001-0.312,0.006-0.47c0.004-0.159,0.014-0.319,0.03-0.482v-5.493H278.003z"/>
<path fill="#FFFFFF" d="M290.516,531.62c0-2.092,0.439-3.754,1.318-4.986c0.879-1.233,2.1-1.85,3.662-1.85
	c1.025,0,1.914,0.23,2.667,0.689c0.753,0.46,1.354,1.089,1.801,1.887v-8.167h0.659v9.899c0,0.017,0,0.029,0,0.037
	s0.004,0.012,0.013,0.012v5.384c-0.009,0.017-0.013,0.028-0.013,0.036c0,0.009,0,0.017,0,0.025v3.649h-0.635l-0.024-2.038
	c-0.439,0.707-1.042,1.268-1.807,1.678c-0.765,0.411-1.66,0.617-2.686,0.617c-1.555,0-2.77-0.595-3.644-1.783
	c-0.875-1.188-1.313-2.799-1.313-4.834V531.62z M291.199,531.875c0,1.823,0.36,3.271,1.08,4.346c0.721,1.074,1.78,1.611,3.181,1.611
	c1.146,0,2.1-0.258,2.855-0.774c0.758-0.517,1.307-1.207,1.648-2.069v-6.25c-0.325-0.936-0.841-1.719-1.544-2.35
	c-0.704-0.631-1.683-0.946-2.937-0.946c-1.399,0-2.464,0.572-3.191,1.715c-0.729,1.144-1.093,2.631-1.093,4.462V531.875z"/>
<path fill="#FFFFFF" d="M309.437,538.493c-1.555,0-2.867-0.603-3.938-1.807c-1.07-1.205-1.605-2.723-1.605-4.554v-0.781
	c0-1.912,0.531-3.485,1.594-4.718c1.062-1.233,2.398-1.85,4.01-1.85c1.465,0,2.633,0.482,3.504,1.446
	c0.87,0.965,1.306,2.281,1.306,3.949v1.013h-9.753v0.159v0.781c0,1.611,0.455,2.965,1.367,4.059
	c0.911,1.095,2.083,1.642,3.516,1.642c0.789,0,1.548-0.146,2.276-0.439c0.728-0.293,1.32-0.684,1.776-1.172l0.354,0.514
	c-0.464,0.512-1.063,0.934-1.795,1.263C311.315,538.328,310.445,538.493,309.437,538.493z M309.497,525.443
	c-1.367,0-2.488,0.475-3.363,1.422c-0.875,0.948-1.369,2.146-1.482,3.595l0.036,0.074h8.96v-0.403c0-1.359-0.37-2.479-1.111-3.363
	C311.796,525.884,310.783,525.443,309.497,525.443z"/>
<path fill="#FFFFFF" d="M323.315,525.504l-0.854-0.074c-1.181,0-2.139,0.381-2.875,1.142c-0.737,0.762-1.215,1.765-1.435,3.009
	v8.655h-0.659v-13.208h0.537l0.122,2.295v0.451c0.366-0.943,0.911-1.678,1.636-2.203c0.725-0.524,1.615-0.787,2.674-0.787
	c0.187,0,0.359,0.015,0.519,0.043c0.158,0.028,0.295,0.059,0.409,0.092L323.315,525.504z"/>
<path fill="#FFFFFF" d="M330.249,538.493c-1.555,0-2.867-0.603-3.938-1.807c-1.07-1.205-1.605-2.723-1.605-4.554v-0.781
	c0-1.912,0.531-3.485,1.594-4.718c1.062-1.233,2.398-1.85,4.01-1.85c1.465,0,2.633,0.482,3.504,1.446
	c0.87,0.965,1.306,2.281,1.306,3.949v1.013h-9.753v0.159v0.781c0,1.611,0.455,2.965,1.367,4.059
	c0.911,1.095,2.083,1.642,3.516,1.642c0.789,0,1.548-0.146,2.276-0.439c0.728-0.293,1.32-0.684,1.776-1.172l0.354,0.514
	c-0.464,0.512-1.063,0.934-1.795,1.263C332.128,538.328,331.258,538.493,330.249,538.493z M330.31,525.443
	c-1.367,0-2.488,0.475-3.363,1.422c-0.875,0.948-1.369,2.146-1.482,3.595l0.036,0.074h8.96v-0.403c0-1.359-0.37-2.479-1.111-3.363
	C332.608,525.884,331.596,525.443,330.31,525.443z"/>
<path fill="#FFFFFF" d="M346.399,535c0-0.699-0.3-1.336-0.897-1.91c-0.599-0.573-1.642-1.023-3.132-1.349
	c-1.57-0.334-2.708-0.763-3.411-1.288c-0.704-0.524-1.056-1.304-1.056-2.338c0-0.943,0.398-1.734,1.195-2.374
	c0.798-0.639,1.872-0.958,3.223-0.958c1.457,0,2.604,0.342,3.443,1.025c0.838,0.684,1.236,1.574,1.195,2.674l-0.023,0.072h-0.563
	c0-0.862-0.364-1.597-1.092-2.203c-0.729-0.605-1.715-0.909-2.961-0.909c-1.236,0-2.172,0.267-2.807,0.8s-0.953,1.149-0.953,1.85
	c0,0.691,0.27,1.281,0.807,1.77s1.603,0.916,3.197,1.281c1.474,0.342,2.59,0.809,3.352,1.398c0.761,0.59,1.141,1.414,1.141,2.472
	c0,1.033-0.423,1.872-1.27,2.515c-0.846,0.643-1.969,0.965-3.369,0.965c-1.537,0-2.744-0.344-3.619-1.032
	c-0.875-0.688-1.283-1.523-1.227-2.509l0.024-0.072h0.537c0.065,1.041,0.513,1.794,1.343,2.258s1.811,0.695,2.941,0.695
	c1.221,0,2.189-0.284,2.906-0.854C346.041,536.409,346.399,535.75,346.399,535z"/>
<path fill="#FFFFFF" d="M366.431,532.926h-8.68l-1.99,5.31h-0.72l6.641-17.773h0.806l6.652,17.773h-0.72L366.431,532.926z
	 M357.995,532.266h8.191l-3.724-9.948l-0.342-1.038h-0.073l-0.33,1.038L357.995,532.266z"/>
<path fill="#FFFFFF" d="M372.217,525.028l0.085,2.661c0.407-0.92,0.993-1.634,1.758-2.143c0.766-0.508,1.705-0.763,2.82-0.763
	c1.44,0,2.521,0.454,3.241,1.361c0.72,0.907,1.08,2.346,1.08,4.314v7.776h-0.659v-7.8c0-1.832-0.328-3.121-0.982-3.87
	c-0.655-0.749-1.545-1.123-2.668-1.123c-1.383,0-2.441,0.403-3.174,1.208c-0.732,0.807-1.2,1.844-1.403,3.113v8.472h-0.659v-6.763
	h-0.037c0-0.154,0.002-0.312,0.007-0.47c0.004-0.159,0.014-0.319,0.03-0.482v-5.493H372.217z"/>
<path fill="#FFFFFF" d="M384.729,531.62c0-2.092,0.439-3.754,1.318-4.986c0.879-1.233,2.1-1.85,3.662-1.85
	c1.025,0,1.914,0.232,2.667,0.695c0.753,0.465,1.354,1.1,1.801,1.904l0.098-2.355h0.562v4.064c0,0.017,0,0.029,0,0.037
	s0.004,0.012,0.013,0.012v5.384c-0.009,0.017-0.013,0.028-0.013,0.036c0,0.009,0,0.017,0,0.025v3.723
	c0,1.677-0.441,2.973-1.324,3.888c-0.884,0.916-2.106,1.374-3.669,1.374c-0.643,0-1.312-0.067-2.008-0.202
	c-0.695-0.134-1.304-0.319-1.824-0.556l0.195-0.658c0.594,0.26,1.167,0.453,1.721,0.579s1.184,0.189,1.893,0.189
	c1.424,0,2.504-0.396,3.24-1.19c0.736-0.793,1.105-1.935,1.105-3.424v-2.088c-0.448,0.7-1.053,1.254-1.813,1.66
	c-0.761,0.407-1.649,0.611-2.667,0.611c-1.555,0-2.77-0.595-3.644-1.783c-0.875-1.188-1.313-2.799-1.313-4.834V531.62z
	 M385.399,531.875c0,1.823,0.362,3.271,1.087,4.346s1.786,1.611,3.187,1.611c1.131,0,2.074-0.254,2.832-0.763
	c0.756-0.508,1.31-1.19,1.66-2.044v-6.324c-0.326-0.919-0.841-1.692-1.545-2.318c-0.704-0.627-1.678-0.94-2.924-0.94
	c-1.399,0-2.465,0.572-3.197,1.715c-0.732,1.144-1.1,2.631-1.1,4.462V531.875z"/>
<path fill="#FFFFFF" d="M403.649,538.493c-1.554,0-2.866-0.603-3.937-1.807c-1.07-1.205-1.604-2.723-1.604-4.554v-0.781
	c0-1.912,0.53-3.485,1.593-4.718c1.062-1.233,2.398-1.85,4.01-1.85c1.465,0,2.633,0.482,3.503,1.446
	c0.871,0.965,1.307,2.281,1.307,3.949v1.013h-9.754v0.159v0.781c0,1.611,0.456,2.965,1.367,4.059
	c0.912,1.095,2.084,1.642,3.516,1.642c0.79,0,1.549-0.146,2.277-0.439c0.728-0.293,1.32-0.684,1.775-1.172l0.354,0.514
	c-0.464,0.512-1.062,0.934-1.794,1.263C405.53,538.328,404.659,538.493,403.649,538.493z M403.711,525.443
	c-1.367,0-2.488,0.475-3.363,1.422c-0.875,0.948-1.369,2.146-1.483,3.595l0.037,0.074h8.96v-0.403c0-1.359-0.37-2.479-1.11-3.363
	C406.01,525.884,404.997,525.443,403.711,525.443z"/>
<path fill="#FFFFFF" d="M421.802,531.875c0,2.035-0.439,3.646-1.318,4.834c-0.879,1.188-2.092,1.783-3.639,1.783
	c-1.033,0-1.935-0.208-2.703-0.623c-0.77-0.415-1.369-0.973-1.801-1.672l-0.086,2.038h-0.549v-3.601
	c-0.008-0.025-0.015-0.045-0.019-0.062s-0.006-0.032-0.006-0.049v-5.384c0-0.008,0-0.014,0-0.018s0.008-0.031,0.024-0.08v-9.851
	h0.659v8.154c0.439-0.798,1.033-1.424,1.782-1.88s1.64-0.684,2.674-0.684c1.554,0,2.772,0.616,3.655,1.85
	c0.883,1.232,1.325,2.895,1.325,4.986V531.875z M421.118,531.62c0-1.831-0.367-3.318-1.1-4.462
	c-0.732-1.143-1.794-1.715-3.186-1.715c-1.253,0-2.232,0.313-2.936,0.94c-0.704,0.626-1.215,1.399-1.532,2.318v6.324
	c0.334,0.854,0.879,1.536,1.636,2.044c0.757,0.509,1.709,0.763,2.856,0.763c1.392,0,2.449-0.537,3.174-1.611
	s1.087-2.522,1.087-4.346V531.62z"/>
<path fill="#FFFFFF" d="M424.353,531.375c0-1.937,0.535-3.52,1.605-4.748c1.07-1.229,2.46-1.844,4.169-1.844
	c1.717,0,3.11,0.614,4.181,1.844c1.07,1.229,1.605,2.812,1.605,4.748v0.513c0,1.945-0.535,3.532-1.605,4.761
	s-2.455,1.844-4.156,1.844c-1.717,0-3.113-0.615-4.188-1.844s-1.611-2.815-1.611-4.761V531.375z M425.013,531.888
	c0,1.66,0.463,3.066,1.391,4.218s2.178,1.727,3.748,1.727c1.546,0,2.783-0.577,3.711-1.732c0.928-1.156,1.392-2.56,1.392-4.212
	v-0.513c0-1.619-0.468-3.013-1.403-4.181c-0.937-1.168-2.178-1.752-3.724-1.752c-1.555,0-2.796,0.584-3.724,1.752
	s-1.391,2.562-1.391,4.181V531.888z"/>
<path fill="#FFFFFF" d="M440.442,521.463v3.564h3.247v0.672h-3.247v9.131c0,1.082,0.184,1.854,0.549,2.313
	c0.367,0.46,0.851,0.689,1.453,0.689c0.22,0,0.415-0.008,0.586-0.023c0.171-0.017,0.407-0.045,0.708-0.086l0.122,0.598
	c-0.203,0.065-0.415,0.11-0.635,0.135s-0.468,0.037-0.744,0.037c-0.888,0-1.562-0.289-2.021-0.867c-0.46-0.578-0.69-1.51-0.69-2.795
	V525.7h-2.441v-0.672h2.441v-3.564H440.442z"/>
<path fill="#FFFFFF" d="M453.784,538.236V525.7h-2.295v-0.672h2.295v-2.173c0-1.245,0.303-2.21,0.909-2.894s1.455-1.025,2.546-1.025
	c0.268,0,0.534,0.017,0.799,0.049c0.265,0.033,0.52,0.086,0.764,0.159l-0.098,0.635c-0.261-0.065-0.491-0.111-0.69-0.141
	c-0.199-0.028-0.453-0.042-0.763-0.042c-0.879,0-1.566,0.288-2.063,0.866c-0.497,0.578-0.745,1.375-0.745,2.393v2.173h3.491v0.672
	h-3.491v12.536H453.784z"/>
<path fill="#FFFFFF" d="M469.507,535.917c-0.414,0.813-1.005,1.446-1.77,1.898c-0.765,0.451-1.692,0.678-2.783,0.678
	c-1.359,0-2.423-0.482-3.192-1.447c-0.769-0.964-1.153-2.459-1.153-4.486v-7.531h0.659v7.557c0,1.79,0.329,3.112,0.989,3.967
	c0.658,0.854,1.55,1.281,2.673,1.281c1.343,0,2.382-0.327,3.119-0.982c0.736-0.654,1.214-1.52,1.435-2.594v-9.229h0.671v7.775h0.024
	c0,0.106-0.004,0.208-0.012,0.306c-0.009,0.098-0.013,0.212-0.013,0.342v4.785h-0.55L469.507,535.917z M463.709,521.989h-1.673
	v-1.441h1.673V521.989z M469.435,521.989h-1.66v-1.441h1.66V521.989z"/>
<path fill="#FFFFFF" d="M480.163,525.504l-0.854-0.074c-1.181,0-2.139,0.381-2.875,1.142c-0.737,0.762-1.215,1.765-1.435,3.009
	v8.655h-0.659v-13.208h0.537l0.122,2.295v0.451c0.366-0.943,0.911-1.678,1.636-2.203c0.725-0.524,1.615-0.787,2.674-0.787
	c0.187,0,0.359,0.015,0.519,0.043c0.158,0.028,0.295,0.059,0.409,0.092L480.163,525.504z"/>
<path fill="#FFFFFF" d="M22.541,564.049c0-1.018-0.417-1.838-1.251-2.46c-0.834-0.623-2.256-1.264-4.266-1.923
	c-2.002-0.61-3.477-1.258-4.425-1.941c-0.948-0.684-1.422-1.696-1.422-3.039c0-1.335,0.556-2.415,1.666-3.241
	c1.111-0.825,2.521-1.239,4.23-1.239c1.774,0,3.2,0.456,4.279,1.367c1.078,0.912,1.601,2.186,1.568,3.821l-0.024,0.073h-0.562
	c0-1.326-0.488-2.425-1.465-3.296s-2.242-1.306-3.796-1.306c-1.604,0-2.877,0.376-3.821,1.129c-0.944,0.753-1.416,1.642-1.416,2.667
	s0.38,1.857,1.142,2.496c0.761,0.64,2.179,1.264,4.254,1.874c2.018,0.635,3.52,1.294,4.504,1.978
	c0.984,0.684,1.477,1.688,1.477,3.015c0,1.352-0.582,2.434-1.746,3.248c-1.164,0.813-2.6,1.221-4.309,1.221
	c-1.782,0-3.316-0.417-4.602-1.252c-1.286-0.834-1.909-2.146-1.868-3.937l0.024-0.073h0.549c0,1.611,0.594,2.781,1.782,3.51
	c1.188,0.729,2.559,1.092,4.114,1.092c1.554,0,2.84-0.359,3.857-1.08C22.032,566.033,22.541,565.131,22.541,564.049z"/>
<path fill="#FFFFFF" d="M27.448,550.877h-0.659v-1.685h0.659V550.877z M27.448,568.236h-0.659v-13.208h0.659V568.236z"/>
<path fill="#FFFFFF" d="M36.408,568.493c-1.555,0-2.867-0.603-3.937-1.807c-1.07-1.205-1.605-2.723-1.605-4.554v-0.781
	c0-1.912,0.531-3.485,1.593-4.718c1.062-1.233,2.398-1.85,4.01-1.85c1.465,0,2.632,0.482,3.503,1.446
	c0.871,0.965,1.306,2.281,1.306,3.949v1.013h-9.753v0.159v0.781c0,1.611,0.456,2.965,1.367,4.059
	c0.911,1.095,2.083,1.642,3.516,1.642c0.789,0,1.548-0.146,2.277-0.439c0.728-0.293,1.32-0.684,1.776-1.172l0.354,0.514
	c-0.464,0.512-1.062,0.934-1.794,1.263C38.288,568.328,37.417,568.493,36.408,568.493z M36.469,555.443
	c-1.367,0-2.488,0.475-3.363,1.422c-0.875,0.948-1.369,2.146-1.483,3.595l0.037,0.074h8.96v-0.403c0-1.359-0.371-2.479-1.111-3.363
	C38.768,555.884,37.754,555.443,36.469,555.443z"/>
<path fill="#FFFFFF" d="M45.526,568.236h-1.05v-1.587h1.05V568.236z"/>
<path fill="#FFFFFF" d="M56.146,568.236v-17.773h4.675c1.839,0,3.267,0.378,4.285,1.136c1.017,0.756,1.526,1.896,1.526,3.418
	c0,0.992-0.242,1.839-0.726,2.539c-0.484,0.699-1.17,1.167-2.057,1.403l-0.012,0.073c1.05,0.139,1.933,0.621,2.649,1.446
	c0.716,0.826,1.074,1.78,1.074,2.862c0,1.555-0.502,2.76-1.507,3.613c-1.005,0.855-2.334,1.282-3.986,1.282H56.146z M56.806,558.799
	h4.492c1.538-0.023,2.7-0.354,3.485-0.988c0.785-0.635,1.178-1.583,1.178-2.844c0-1.27-0.434-2.229-1.3-2.875
	c-0.867-0.647-2.147-0.971-3.839-0.971h-4.016V558.799z M56.806,559.459v8.117h5.261c1.497,0,2.677-0.37,3.54-1.111
	c0.862-0.74,1.294-1.773,1.294-3.1c0-1.172-0.436-2.116-1.306-2.832c-0.871-0.717-2.047-1.074-3.528-1.074H56.806z"/>
<path fill="#FFFFFF" d="M71.637,550.877h-0.659v-1.685h0.659V550.877z M71.637,568.236h-0.659v-13.208h0.659V568.236z"/>
<path fill="#FFFFFF" d="M77.338,551.463v3.564h3.247v0.672h-3.247v9.131c0,1.082,0.183,1.854,0.549,2.313
	c0.366,0.46,0.85,0.689,1.453,0.689c0.22,0,0.415-0.008,0.586-0.023c0.171-0.017,0.407-0.045,0.708-0.086l0.122,0.598
	c-0.204,0.065-0.415,0.11-0.635,0.135s-0.468,0.037-0.745,0.037c-0.887,0-1.561-0.289-2.02-0.867c-0.46-0.578-0.69-1.51-0.69-2.795
	V555.7h-2.441v-0.672h2.441v-3.564H77.338z"/>
<path fill="#FFFFFF" d="M85.065,551.463v3.564h3.247v0.672h-3.247v9.131c0,1.082,0.183,1.854,0.549,2.313
	c0.366,0.46,0.85,0.689,1.453,0.689c0.22,0,0.415-0.008,0.586-0.023c0.171-0.017,0.407-0.045,0.708-0.086l0.122,0.598
	c-0.204,0.065-0.415,0.11-0.635,0.135s-0.468,0.037-0.745,0.037c-0.887,0-1.561-0.289-2.021-0.867
	c-0.459-0.578-0.689-1.51-0.689-2.795V555.7h-2.441v-0.672h2.441v-3.564H85.065z"/>
<path fill="#FFFFFF" d="M96.051,568.493c-1.555,0-2.867-0.603-3.937-1.807c-1.07-1.205-1.605-2.723-1.605-4.554v-0.781
	c0-1.912,0.531-3.485,1.593-4.718c1.062-1.233,2.398-1.85,4.01-1.85c1.465,0,2.632,0.482,3.503,1.446
	c0.871,0.965,1.306,2.281,1.306,3.949v1.013h-9.753v0.159v0.781c0,1.611,0.456,2.965,1.367,4.059
	c0.911,1.095,2.083,1.642,3.516,1.642c0.789,0,1.548-0.146,2.277-0.439c0.728-0.293,1.32-0.684,1.776-1.172l0.354,0.514
	c-0.464,0.512-1.062,0.934-1.794,1.263C97.931,568.328,97.06,568.493,96.051,568.493z M96.112,555.443
	c-1.367,0-2.488,0.475-3.363,1.422c-0.875,0.948-1.369,2.146-1.483,3.595l0.037,0.074h8.96v-0.403c0-1.359-0.371-2.479-1.111-3.363
	C98.411,555.884,97.398,555.443,96.112,555.443z"/>
<path fill="#FFFFFF" d="M118.378,565.794c-0.456,0.798-1.135,1.446-2.039,1.947c-0.903,0.5-1.998,0.751-3.284,0.751
	c-1.229,0-2.193-0.336-2.893-1.008c-0.7-0.671-1.05-1.576-1.05-2.716c0-1.106,0.523-2.034,1.569-2.783
	c1.045-0.749,2.354-1.123,3.924-1.123h3.772v-1.929c0-1.099-0.352-1.955-1.056-2.569c-0.704-0.614-1.695-0.922-2.973-0.922
	c-1.196,0-2.159,0.289-2.887,0.866c-0.729,0.578-1.093,1.323-1.093,2.234l-0.549-0.024l-0.024-0.062
	c-0.049-1.025,0.35-1.894,1.196-2.605c0.846-0.712,1.965-1.068,3.357-1.068c1.416,0,2.551,0.358,3.406,1.074s1.282,1.75,1.282,3.101
	v6.616c0,0.464,0.026,0.916,0.079,1.355c0.053,0.439,0.141,0.874,0.263,1.306h-0.732c-0.106-0.578-0.177-1.011-0.214-1.3
	c-0.036-0.289-0.055-0.601-0.055-0.934V565.794z M113.056,567.845c1.31,0,2.419-0.289,3.326-0.866
	c0.908-0.578,1.573-1.404,1.996-2.479v-2.967h-3.735c-1.367,0-2.521,0.316-3.461,0.946c-0.939,0.631-1.41,1.41-1.41,2.338
	c0,0.887,0.299,1.613,0.897,2.179C111.268,567.563,112.063,567.845,113.056,567.845z"/>
<path fill="#FFFFFF" d="M127.765,567.833c1.115,0,2.1-0.305,2.954-0.915s1.282-1.526,1.282-2.747h0.562l0.024,0.074
	c0.032,1.293-0.441,2.325-1.422,3.094c-0.981,0.77-2.114,1.154-3.4,1.154c-1.685,0-3.005-0.606-3.961-1.819
	c-0.956-1.213-1.434-2.808-1.434-4.785v-0.513c0-1.97,0.476-3.561,1.428-4.773c0.952-1.212,2.266-1.818,3.943-1.818
	c1.367,0,2.525,0.401,3.473,1.202c0.948,0.802,1.405,1.931,1.373,3.388l-0.024,0.073h-0.562c0-1.294-0.415-2.284-1.245-2.973
	c-0.83-0.688-1.835-1.031-3.015-1.031c-1.546,0-2.718,0.554-3.516,1.66c-0.798,1.106-1.196,2.531-1.196,4.272v0.513
	c0,1.758,0.398,3.188,1.196,4.291C125.022,567.282,126.203,567.833,127.765,567.833z"/>
<path fill="#FFFFFF" d="M136.627,557.774c0.415-0.943,1.017-1.678,1.807-2.203c0.789-0.524,1.75-0.787,2.881-0.787
	c1.375,0,2.419,0.436,3.131,1.307c0.712,0.87,1.068,2.241,1.068,4.113v8.032h-0.671v-8.057c0-1.733-0.319-2.956-0.958-3.668
	c-0.639-0.712-1.492-1.068-2.558-1.068c-1.4,0-2.48,0.411-3.241,1.233c-0.761,0.821-1.247,1.875-1.458,3.161v8.398h-0.659v-6.763
	h-0.024c0-0.171,0-0.313,0-0.428c0-0.113,0.008-0.228,0.024-0.342v-11.511h0.659V557.774z"/>
<path fill="#FFFFFF" d="M151.02,551.463v3.564h3.247v0.672h-3.247v9.131c0,1.082,0.183,1.854,0.549,2.313
	c0.366,0.46,0.85,0.689,1.453,0.689c0.22,0,0.415-0.008,0.586-0.023c0.171-0.017,0.407-0.045,0.708-0.086l0.122,0.598
	c-0.204,0.065-0.415,0.11-0.635,0.135s-0.468,0.037-0.745,0.037c-0.887,0-1.561-0.289-2.02-0.867c-0.46-0.578-0.69-1.51-0.69-2.795
	V555.7h-2.441v-0.672h2.441v-3.564H151.02z"/>
<path fill="#FFFFFF" d="M162.006,568.493c-1.555,0-2.867-0.603-3.937-1.807c-1.07-1.205-1.605-2.723-1.605-4.554v-0.781
	c0-1.912,0.531-3.485,1.593-4.718c1.063-1.233,2.399-1.85,4.01-1.85c1.465,0,2.632,0.482,3.503,1.446
	c0.871,0.965,1.306,2.281,1.306,3.949v1.013h-9.753v0.159v0.781c0,1.611,0.456,2.965,1.367,4.059
	c0.911,1.095,2.083,1.642,3.516,1.642c0.789,0,1.548-0.146,2.276-0.439c0.729-0.293,1.32-0.684,1.776-1.172l0.354,0.514
	c-0.464,0.512-1.062,0.934-1.794,1.263C163.886,568.328,163.015,568.493,162.006,568.493z M162.067,555.443
	c-1.367,0-2.488,0.475-3.363,1.422c-0.875,0.948-1.37,2.146-1.483,3.595l0.037,0.074h8.96v-0.403c0-1.359-0.371-2.479-1.111-3.363
	C164.366,555.884,163.353,555.443,162.067,555.443z"/>
<path fill="#FFFFFF" d="M170.624,555.028l0.085,2.661c0.407-0.92,0.993-1.634,1.758-2.143c0.765-0.508,1.705-0.763,2.82-0.763
	c1.44,0,2.521,0.454,3.241,1.361c0.72,0.907,1.08,2.346,1.08,4.314v7.776h-0.659v-7.8c0-1.832-0.328-3.121-0.982-3.87
	c-0.655-0.749-1.544-1.123-2.667-1.123c-1.384,0-2.441,0.403-3.174,1.208c-0.732,0.807-1.201,1.844-1.404,3.113v8.472h-0.659v-6.763
	h-0.037c0-0.154,0.002-0.312,0.006-0.47c0.004-0.159,0.014-0.319,0.03-0.482v-5.493H170.624z"/>
<path fill="#FFFFFF" d="M200.568,564.049c0-1.018-0.417-1.838-1.251-2.46c-0.834-0.623-2.256-1.264-4.266-1.923
	c-2.002-0.61-3.477-1.258-4.425-1.941c-0.948-0.684-1.422-1.696-1.422-3.039c0-1.335,0.556-2.415,1.666-3.241
	c1.111-0.825,2.521-1.239,4.23-1.239c1.774,0,3.2,0.456,4.279,1.367c1.078,0.912,1.601,2.186,1.568,3.821l-0.024,0.073h-0.562
	c0-1.326-0.488-2.425-1.465-3.296s-2.242-1.306-3.796-1.306c-1.604,0-2.877,0.376-3.821,1.129c-0.944,0.753-1.416,1.642-1.416,2.667
	s0.38,1.857,1.142,2.496c0.761,0.64,2.179,1.264,4.254,1.874c2.018,0.635,3.52,1.294,4.504,1.978
	c0.984,0.684,1.477,1.688,1.477,3.015c0,1.352-0.582,2.434-1.746,3.248c-1.164,0.813-2.6,1.221-4.309,1.221
	c-1.782,0-3.316-0.417-4.602-1.252c-1.286-0.834-1.909-2.146-1.868-3.937l0.024-0.073h0.549c0,1.611,0.594,2.781,1.782,3.51
	c1.188,0.729,2.559,1.092,4.114,1.092c1.554,0,2.84-0.359,3.857-1.08C200.059,566.033,200.568,565.131,200.568,564.049z"/>
<path fill="#FFFFFF" d="M205.475,550.877h-0.659v-1.685h0.659V550.877z M205.475,568.236h-0.659v-13.208h0.659V568.236z"/>
<path fill="#FFFFFF" d="M214.435,568.493c-1.555,0-2.867-0.603-3.937-1.807c-1.07-1.205-1.605-2.723-1.605-4.554v-0.781
	c0-1.912,0.531-3.485,1.593-4.718c1.062-1.233,2.398-1.85,4.01-1.85c1.465,0,2.632,0.482,3.503,1.446
	c0.871,0.965,1.306,2.281,1.306,3.949v1.013h-9.753v0.159v0.781c0,1.611,0.456,2.965,1.367,4.059
	c0.911,1.095,2.083,1.642,3.516,1.642c0.789,0,1.548-0.146,2.277-0.439c0.728-0.293,1.32-0.684,1.776-1.172l0.354,0.514
	c-0.464,0.512-1.062,0.934-1.794,1.263C216.315,568.328,215.444,568.493,214.435,568.493z M214.496,555.443
	c-1.367,0-2.488,0.475-3.363,1.422c-0.875,0.948-1.369,2.146-1.483,3.595l0.037,0.074h8.96v-0.403c0-1.359-0.371-2.479-1.111-3.363
	C216.795,555.884,215.782,555.443,214.496,555.443z"/>
<path fill="#FFFFFF" d="M227.863,561.62c0-2.092,0.439-3.754,1.318-4.986c0.879-1.233,2.1-1.85,3.662-1.85
	c1.025,0,1.915,0.23,2.667,0.689c0.752,0.46,1.353,1.089,1.8,1.887v-8.167h0.659v9.899c0,0.017,0,0.029,0,0.037
	s0.004,0.012,0.012,0.012v5.384c-0.008,0.017-0.012,0.028-0.012,0.036c0,0.009,0,0.017,0,0.025v3.649h-0.635l-0.024-2.038
	c-0.439,0.707-1.042,1.268-1.807,1.678c-0.765,0.411-1.66,0.617-2.686,0.617c-1.555,0-2.769-0.595-3.644-1.783
	c-0.875-1.188-1.312-2.799-1.312-4.834V561.62z M228.546,561.875c0,1.823,0.36,3.271,1.081,4.346c0.72,1.074,1.78,1.611,3.18,1.611
	c1.147,0,2.1-0.258,2.856-0.774s1.306-1.207,1.648-2.069v-6.25c-0.326-0.936-0.84-1.719-1.544-2.35
	c-0.704-0.631-1.683-0.946-2.936-0.946c-1.4,0-2.464,0.572-3.192,1.715c-0.728,1.144-1.092,2.631-1.092,4.462V561.875z"/>
<path fill="#FFFFFF" d="M250.446,565.794c-0.456,0.798-1.136,1.446-2.039,1.947c-0.903,0.5-1.998,0.751-3.283,0.751
	c-1.229,0-2.193-0.336-2.894-1.008c-0.7-0.671-1.05-1.576-1.05-2.716c0-1.106,0.523-2.034,1.568-2.783
	c1.046-0.749,2.354-1.123,3.925-1.123h3.772v-1.929c0-1.099-0.353-1.955-1.057-2.569s-1.694-0.922-2.973-0.922
	c-1.195,0-2.158,0.289-2.887,0.866c-0.729,0.578-1.092,1.323-1.092,2.234l-0.55-0.024l-0.024-0.062
	c-0.049-1.025,0.35-1.894,1.196-2.605s1.966-1.068,3.356-1.068c1.416,0,2.552,0.358,3.406,1.074s1.281,1.75,1.281,3.101v6.616
	c0,0.464,0.026,0.916,0.08,1.355c0.053,0.439,0.141,0.874,0.262,1.306h-0.732c-0.105-0.578-0.177-1.011-0.213-1.3
	c-0.037-0.289-0.055-0.601-0.055-0.934V565.794z M245.124,567.845c1.31,0,2.418-0.289,3.326-0.866
	c0.907-0.578,1.572-1.404,1.996-2.479v-2.967h-3.736c-1.367,0-2.521,0.316-3.46,0.946c-0.94,0.631-1.41,1.41-1.41,2.338
	c0,0.887,0.299,1.613,0.897,2.179C243.335,567.563,244.131,567.845,245.124,567.845z"/>
<path fill="#FFFFFF" d="M261.175,555.504l-0.854-0.074c-1.181,0-2.139,0.381-2.875,1.142c-0.737,0.762-1.215,1.765-1.435,3.009
	v8.655h-0.659v-13.208h0.537l0.122,2.295v0.451c0.366-0.943,0.911-1.678,1.636-2.203c0.725-0.524,1.615-0.787,2.674-0.787
	c0.187,0,0.359,0.015,0.519,0.043c0.158,0.028,0.295,0.059,0.409,0.092L261.175,555.504z"/>
<path fill="#FFFFFF" d="M272.003,565.794c-0.455,0.798-1.135,1.446-2.038,1.947c-0.903,0.5-1.998,0.751-3.284,0.751
	c-1.229,0-2.192-0.336-2.893-1.008c-0.7-0.671-1.05-1.576-1.05-2.716c0-1.106,0.522-2.034,1.568-2.783s2.354-1.123,3.925-1.123
	h3.771v-1.929c0-1.099-0.352-1.955-1.056-2.569s-1.694-0.922-2.972-0.922c-1.197,0-2.159,0.289-2.888,0.866
	c-0.729,0.578-1.093,1.323-1.093,2.234l-0.549-0.024l-0.024-0.062c-0.049-1.025,0.35-1.894,1.196-2.605s1.965-1.068,3.357-1.068
	c1.416,0,2.551,0.358,3.405,1.074s1.282,1.75,1.282,3.101v6.616c0,0.464,0.025,0.916,0.079,1.355
	c0.053,0.439,0.14,0.874,0.263,1.306h-0.732c-0.106-0.578-0.178-1.011-0.214-1.3c-0.037-0.289-0.056-0.601-0.056-0.934V565.794z
	 M266.681,567.845c1.311,0,2.419-0.289,3.327-0.866c0.907-0.578,1.572-1.404,1.995-2.479v-2.967h-3.734
	c-1.367,0-2.521,0.316-3.461,0.946c-0.94,0.631-1.41,1.41-1.41,2.338c0,0.887,0.299,1.613,0.897,2.179
	C264.893,567.563,265.688,567.845,266.681,567.845z"/>
<path fill="#FFFFFF" d="M285.761,565.917c-0.414,0.813-1.005,1.446-1.77,1.898c-0.765,0.451-1.692,0.678-2.783,0.678
	c-1.359,0-2.423-0.482-3.192-1.447c-0.769-0.964-1.153-2.459-1.153-4.486v-7.531h0.659v7.557c0,1.79,0.329,3.112,0.989,3.967
	c0.658,0.854,1.55,1.281,2.673,1.281c1.343,0,2.382-0.327,3.119-0.982c0.736-0.654,1.214-1.52,1.435-2.594v-9.229h0.671v7.775h0.024
	c0,0.106-0.004,0.208-0.012,0.306c-0.009,0.098-0.013,0.212-0.013,0.342v4.785h-0.55L285.761,565.917z"/>
<path fill="#FFFFFF" d="M291.596,568.236V555.7h-2.295v-0.672h2.295v-2.173c0-1.245,0.303-2.21,0.909-2.894s1.455-1.025,2.545-1.025
	c0.27,0,0.535,0.017,0.8,0.049c0.265,0.033,0.519,0.086,0.763,0.159l-0.098,0.635c-0.26-0.065-0.49-0.111-0.689-0.141
	c-0.199-0.028-0.453-0.042-0.763-0.042c-0.879,0-1.566,0.288-2.063,0.866c-0.496,0.578-0.744,1.375-0.744,2.393v2.173h3.491v0.672
	h-3.491v12.536H291.596z"/>
<path fill="#FFFFFF" d="M299.237,568.333l-0.855,3.052h-0.622l0.817-3.003v-2.087h0.66V568.333z"/>
<path fill="#FFFFFF" d="M308.515,561.62c0-2.092,0.439-3.754,1.318-4.986c0.879-1.233,2.1-1.85,3.662-1.85
	c1.025,0,1.914,0.23,2.667,0.689c0.753,0.46,1.354,1.089,1.801,1.887v-8.167h0.659v9.899c0,0.017,0,0.029,0,0.037
	s0.004,0.012,0.012,0.012v5.384c-0.008,0.017-0.012,0.028-0.012,0.036c0,0.009,0,0.017,0,0.025v3.649h-0.635l-0.024-2.038
	c-0.439,0.707-1.042,1.268-1.807,1.678c-0.765,0.411-1.66,0.617-2.686,0.617c-1.555,0-2.77-0.595-3.644-1.783
	c-0.875-1.188-1.313-2.799-1.313-4.834V561.62z M309.198,561.875c0,1.823,0.36,3.271,1.08,4.346c0.721,1.074,1.78,1.611,3.18,1.611
	c1.148,0,2.1-0.258,2.857-0.774c0.756-0.517,1.306-1.207,1.647-2.069v-6.25c-0.325-0.936-0.841-1.719-1.544-2.35
	c-0.704-0.631-1.683-0.946-2.936-0.946c-1.4,0-2.465,0.572-3.192,1.715c-0.729,1.144-1.093,2.631-1.093,4.462V561.875z"/>
<path fill="#FFFFFF" d="M331.099,565.794c-0.456,0.798-1.136,1.446-2.039,1.947c-0.903,0.5-1.998,0.751-3.283,0.751
	c-1.229,0-2.193-0.336-2.894-1.008c-0.7-0.671-1.05-1.576-1.05-2.716c0-1.106,0.522-2.034,1.568-2.783s2.354-1.123,3.925-1.123
	h3.772v-1.929c0-1.099-0.353-1.955-1.057-2.569s-1.694-0.922-2.973-0.922c-1.195,0-2.158,0.289-2.887,0.866
	c-0.729,0.578-1.092,1.323-1.092,2.234l-0.55-0.024l-0.024-0.062c-0.049-1.025,0.35-1.894,1.196-2.605s1.966-1.068,3.356-1.068
	c1.416,0,2.552,0.358,3.406,1.074s1.281,1.75,1.281,3.101v6.616c0,0.464,0.026,0.916,0.08,1.355
	c0.053,0.439,0.141,0.874,0.262,1.306h-0.732c-0.105-0.578-0.177-1.011-0.213-1.3c-0.037-0.289-0.055-0.601-0.055-0.934V565.794z
	 M325.776,567.845c1.31,0,2.418-0.289,3.326-0.866c0.907-0.578,1.572-1.404,1.996-2.479v-2.967h-3.736
	c-1.367,0-2.521,0.316-3.46,0.946c-0.94,0.631-1.41,1.41-1.41,2.338c0,0.887,0.299,1.613,0.897,2.179
	C323.987,567.563,324.783,567.845,325.776,567.845z"/>
<path fill="#FFFFFF" d="M344.099,565c0-0.699-0.3-1.336-0.897-1.91c-0.599-0.573-1.642-1.023-3.132-1.349
	c-1.57-0.334-2.708-0.763-3.411-1.288c-0.704-0.524-1.056-1.304-1.056-2.338c0-0.943,0.398-1.734,1.195-2.374
	c0.798-0.639,1.872-0.958,3.223-0.958c1.457,0,2.604,0.342,3.443,1.025c0.838,0.684,1.236,1.574,1.195,2.674l-0.023,0.072h-0.563
	c0-0.862-0.364-1.597-1.092-2.203c-0.729-0.605-1.715-0.909-2.961-0.909c-1.236,0-2.172,0.267-2.807,0.8s-0.953,1.149-0.953,1.85
	c0,0.691,0.27,1.281,0.807,1.77s1.603,0.916,3.197,1.281c1.474,0.342,2.59,0.809,3.352,1.398c0.761,0.59,1.141,1.414,1.141,2.472
	c0,1.033-0.423,1.872-1.27,2.515c-0.846,0.643-1.969,0.965-3.369,0.965c-1.537,0-2.744-0.344-3.619-1.032
	c-0.875-0.688-1.283-1.523-1.227-2.509l0.024-0.072h0.537c0.065,1.041,0.513,1.794,1.343,2.258s1.811,0.695,2.941,0.695
	c1.221,0,2.189-0.284,2.906-0.854C343.74,566.409,344.099,565.75,344.099,565z"/>
<path fill="#FFFFFF" d="M356.538,565c0-0.699-0.3-1.336-0.897-1.91c-0.599-0.573-1.642-1.023-3.132-1.349
	c-1.57-0.334-2.708-0.763-3.411-1.288c-0.704-0.524-1.056-1.304-1.056-2.338c0-0.943,0.398-1.734,1.195-2.374
	c0.798-0.639,1.872-0.958,3.223-0.958c1.457,0,2.604,0.342,3.443,1.025c0.838,0.684,1.236,1.574,1.195,2.674l-0.023,0.072h-0.563
	c0-0.862-0.364-1.597-1.092-2.203c-0.729-0.605-1.715-0.909-2.961-0.909c-1.236,0-2.172,0.267-2.807,0.8s-0.953,1.149-0.953,1.85
	c0,0.691,0.27,1.281,0.807,1.77s1.603,0.916,3.197,1.281c1.474,0.342,2.59,0.809,3.352,1.398c0.761,0.59,1.141,1.414,1.141,2.472
	c0,1.033-0.423,1.872-1.27,2.515c-0.846,0.643-1.969,0.965-3.369,0.965c-1.537,0-2.744-0.344-3.619-1.032
	c-0.875-0.688-1.283-1.523-1.227-2.509l0.024-0.072h0.537c0.065,1.041,0.513,1.794,1.343,2.258s1.811,0.695,2.941,0.695
	c1.221,0,2.189-0.284,2.906-0.854C356.18,566.409,356.538,565.75,356.538,565z"/>
<path fill="#FFFFFF" d="M375.153,565.794c-0.456,0.798-1.136,1.446-2.039,1.947c-0.903,0.5-1.998,0.751-3.283,0.751
	c-1.229,0-2.193-0.336-2.894-1.008c-0.7-0.671-1.05-1.576-1.05-2.716c0-1.106,0.522-2.034,1.568-2.783s2.354-1.123,3.925-1.123
	h3.772v-1.929c0-1.099-0.353-1.955-1.057-2.569s-1.694-0.922-2.973-0.922c-1.195,0-2.158,0.289-2.887,0.866
	c-0.729,0.578-1.092,1.323-1.092,2.234l-0.55-0.024l-0.024-0.062c-0.049-1.025,0.35-1.894,1.196-2.605s1.966-1.068,3.356-1.068
	c1.416,0,2.552,0.358,3.406,1.074s1.281,1.75,1.281,3.101v6.616c0,0.464,0.026,0.916,0.08,1.355
	c0.053,0.439,0.141,0.874,0.262,1.306h-0.732c-0.105-0.578-0.177-1.011-0.213-1.3c-0.037-0.289-0.055-0.601-0.055-0.934V565.794z
	 M369.831,567.845c1.31,0,2.418-0.289,3.326-0.866c0.907-0.578,1.572-1.404,1.996-2.479v-2.967h-3.736
	c-1.367,0-2.521,0.316-3.46,0.946c-0.94,0.631-1.41,1.41-1.41,2.338c0,0.887,0.299,1.613,0.897,2.179
	C368.042,567.563,368.838,567.845,369.831,567.845z"/>
<path fill="#FFFFFF" d="M388.909,565.917c-0.414,0.813-1.005,1.446-1.77,1.898c-0.765,0.451-1.692,0.678-2.783,0.678
	c-1.359,0-2.423-0.482-3.192-1.447c-0.769-0.964-1.153-2.459-1.153-4.486v-7.531h0.659v7.557c0,1.79,0.329,3.112,0.989,3.967
	c0.658,0.854,1.55,1.281,2.673,1.281c1.343,0,2.382-0.327,3.119-0.982c0.736-0.654,1.214-1.52,1.435-2.594v-9.229h0.671v7.775h0.024
	c0,0.106-0.004,0.208-0.012,0.306c-0.009,0.098-0.013,0.212-0.013,0.342v4.785h-0.55L388.909,565.917z"/>
<path fill="#FFFFFF" d="M394.745,568.236V555.7h-2.295v-0.672h2.295v-2.173c0-1.245,0.303-2.21,0.909-2.894s1.455-1.025,2.546-1.025
	c0.268,0,0.534,0.017,0.799,0.049c0.265,0.033,0.52,0.086,0.764,0.159l-0.098,0.635c-0.261-0.065-0.491-0.111-0.69-0.141
	c-0.199-0.028-0.453-0.042-0.763-0.042c-0.879,0-1.566,0.288-2.063,0.866c-0.497,0.578-0.745,1.375-0.745,2.393v2.173h3.491v0.672
	h-3.491v12.536H394.745z"/>
<path fill="#FFFFFF" d="M409.088,568.236h-0.659v-17.773h0.659V568.236z"/>
<path fill="#FFFFFF" d="M414.777,557.774c0.415-0.943,1.018-1.678,1.807-2.203c0.789-0.524,1.75-0.787,2.881-0.787
	c1.375,0,2.419,0.436,3.131,1.307c0.712,0.87,1.068,2.241,1.068,4.113v8.032h-0.671v-8.057c0-1.733-0.32-2.956-0.959-3.668
	s-1.491-1.068-2.557-1.068c-1.4,0-2.48,0.411-3.241,1.233c-0.762,0.821-1.247,1.875-1.459,3.161v8.398h-0.659v-6.763h-0.024
	c0-0.171,0-0.313,0-0.428c0-0.113,0.008-0.228,0.024-0.342v-11.511h0.659V557.774z"/>
<path fill="#FFFFFF" d="M433.624,555.504l-0.854-0.074c-1.181,0-2.139,0.381-2.875,1.142c-0.737,0.762-1.215,1.765-1.435,3.009
	v8.655h-0.659v-13.208h0.537l0.122,2.295v0.451c0.366-0.943,0.911-1.678,1.636-2.203c0.725-0.524,1.615-0.787,2.674-0.787
	c0.187,0,0.359,0.015,0.519,0.043c0.158,0.028,0.295,0.059,0.409,0.092L433.624,555.504z"/>
<path fill="#FFFFFF" d="M440.558,568.493c-1.554,0-2.866-0.603-3.937-1.807c-1.07-1.205-1.604-2.723-1.604-4.554v-0.781
	c0-1.912,0.53-3.485,1.593-4.718c1.062-1.233,2.398-1.85,4.01-1.85c1.465,0,2.633,0.482,3.503,1.446
	c0.871,0.965,1.307,2.281,1.307,3.949v1.013h-9.754v0.159v0.781c0,1.611,0.456,2.965,1.367,4.059
	c0.912,1.095,2.084,1.642,3.516,1.642c0.79,0,1.549-0.146,2.277-0.439c0.728-0.293,1.32-0.684,1.775-1.172l0.354,0.514
	c-0.464,0.512-1.062,0.934-1.794,1.263C442.438,568.328,441.567,568.493,440.558,568.493z M440.619,555.443
	c-1.367,0-2.488,0.475-3.363,1.422c-0.875,0.948-1.369,2.146-1.483,3.595l0.037,0.074h8.96v-0.403c0-1.359-0.37-2.479-1.11-3.363
	C442.918,555.884,441.905,555.443,440.619,555.443z"/>
<path fill="#FFFFFF" d="M449.078,555.028l0.085,2.661c0.407-0.92,0.981-1.634,1.722-2.143c0.74-0.508,1.644-0.763,2.71-0.763
	c1.123,0,2.039,0.283,2.746,0.849c0.709,0.565,1.201,1.442,1.478,2.63c0.366-1.098,0.941-1.954,1.728-2.569
	c0.785-0.614,1.764-0.921,2.936-0.921c1.457,0,2.563,0.476,3.32,1.428s1.135,2.449,1.135,4.492v7.531h-0.671v-7.556
	c0-1.912-0.342-3.264-1.025-4.053s-1.595-1.185-2.734-1.185c-1.359,0-2.395,0.399-3.106,1.197c-0.713,0.797-1.17,1.83-1.373,3.1
	c0.008,0.163,0.016,0.328,0.023,0.495c0.009,0.167,0.013,0.335,0.013,0.507v7.507h-0.671v-6.763h-0.037
	c0-0.154,0.002-0.31,0.006-0.464s0.015-0.306,0.031-0.452c-0.025-1.871-0.375-3.191-1.051-3.961
	c-0.675-0.769-1.582-1.153-2.722-1.153c-1.343,0-2.366,0.389-3.07,1.166s-1.161,1.784-1.373,3.021v8.606h-0.671v-6.763h-0.025
	c0-0.114,0.002-0.228,0.007-0.342c0.004-0.114,0.01-0.256,0.019-0.428v-5.676H449.078z"/>
<path fill="#FFFFFF" d="M87.317,594.049c0-1.018-0.417-1.838-1.251-2.46c-0.834-0.623-2.257-1.264-4.267-1.923
	c-2.002-0.61-3.477-1.258-4.425-1.941c-0.948-0.684-1.422-1.696-1.422-3.039c0-1.335,0.555-2.415,1.667-3.241
	c1.11-0.825,2.521-1.239,4.229-1.239c1.774,0,3.2,0.456,4.278,1.367c1.079,0.912,1.601,2.186,1.569,3.821l-0.024,0.073H87.11
	c0-1.326-0.488-2.425-1.465-3.296s-2.242-1.306-3.796-1.306c-1.604,0-2.877,0.376-3.821,1.129c-0.944,0.753-1.416,1.642-1.416,2.667
	s0.38,1.857,1.141,2.496c0.761,0.64,2.179,1.264,4.254,1.874c2.018,0.635,3.52,1.294,4.504,1.978
	c0.984,0.684,1.477,1.688,1.477,3.015c0,1.352-0.582,2.434-1.746,3.248c-1.164,0.813-2.6,1.221-4.309,1.221
	c-1.782,0-3.316-0.417-4.602-1.252c-1.286-0.834-1.909-2.146-1.868-3.937l0.024-0.073h0.549c0,1.611,0.594,2.781,1.782,3.51
	c1.188,0.729,2.559,1.092,4.114,1.092c1.554,0,2.84-0.359,3.857-1.08C86.809,596.033,87.317,595.131,87.317,594.049z"/>
<path fill="#FFFFFF" d="M91.871,585.028l0.085,2.661c0.407-0.92,0.98-1.634,1.721-2.143c0.74-0.508,1.644-0.763,2.71-0.763
	c1.123,0,2.039,0.283,2.747,0.849s1.2,1.442,1.477,2.63c0.366-1.098,0.942-1.954,1.727-2.569c0.786-0.614,1.764-0.921,2.936-0.921
	c1.457,0,2.563,0.476,3.32,1.428s1.135,2.449,1.135,4.492v7.531h-0.671v-7.556c0-1.912-0.342-3.264-1.025-4.053
	s-1.595-1.185-2.734-1.185c-1.359,0-2.395,0.399-3.107,1.197c-0.712,0.797-1.17,1.83-1.373,3.1c0.008,0.163,0.016,0.328,0.024,0.495
	c0.008,0.167,0.012,0.335,0.012,0.507v7.507h-0.671v-6.763h-0.037c0-0.154,0.002-0.31,0.006-0.464
	c0.004-0.154,0.014-0.306,0.03-0.452c-0.024-1.871-0.375-3.191-1.05-3.961c-0.676-0.769-1.583-1.153-2.722-1.153
	c-1.343,0-2.366,0.389-3.07,1.166c-0.704,0.777-1.162,1.784-1.374,3.021v8.606h-0.671v-6.763h-0.024
	c0-0.114,0.002-0.228,0.006-0.342c0.004-0.114,0.01-0.256,0.019-0.428v-5.676H91.871z"/>
<path fill="#FFFFFF" d="M122.107,595.794c-0.456,0.798-1.135,1.446-2.039,1.947c-0.903,0.5-1.998,0.751-3.284,0.751
	c-1.229,0-2.193-0.336-2.893-1.008c-0.7-0.671-1.05-1.576-1.05-2.716c0-1.106,0.523-2.034,1.569-2.783
	c1.045-0.749,2.354-1.123,3.924-1.123h3.772v-1.929c0-1.099-0.352-1.955-1.056-2.569c-0.704-0.614-1.695-0.922-2.973-0.922
	c-1.196,0-2.159,0.289-2.887,0.866c-0.729,0.578-1.093,1.323-1.093,2.234l-0.549-0.024l-0.024-0.062
	c-0.049-1.025,0.35-1.894,1.196-2.605c0.846-0.712,1.965-1.068,3.357-1.068c1.416,0,2.551,0.358,3.406,1.074s1.282,1.75,1.282,3.101
	v6.616c0,0.464,0.026,0.916,0.079,1.355c0.053,0.439,0.141,0.874,0.263,1.306h-0.732c-0.106-0.578-0.177-1.011-0.214-1.3
	c-0.036-0.289-0.055-0.601-0.055-0.934V595.794z M116.785,597.845c1.31,0,2.419-0.289,3.326-0.866
	c0.908-0.578,1.573-1.404,1.996-2.479v-2.967h-3.735c-1.367,0-2.521,0.316-3.461,0.946c-0.939,0.631-1.41,1.41-1.41,2.338
	c0,0.887,0.299,1.613,0.897,2.179C114.997,597.563,115.792,597.845,116.785,597.845z"/>
<path fill="#FFFFFF" d="M132.837,585.504l-0.854-0.074c-1.18,0-2.138,0.381-2.875,1.142c-0.737,0.762-1.215,1.765-1.435,3.009v8.655
	h-0.659v-13.208h0.537l0.122,2.295v0.451c0.366-0.943,0.911-1.678,1.636-2.203c0.724-0.524,1.615-0.787,2.673-0.787
	c0.187,0,0.36,0.015,0.519,0.043c0.158,0.028,0.294,0.059,0.409,0.092L132.837,585.504z"/>
<path fill="#FFFFFF" d="M136.951,581.463v3.564h3.247v0.672h-3.247v9.131c0,1.082,0.183,1.854,0.549,2.313
	c0.366,0.46,0.85,0.689,1.453,0.689c0.22,0,0.415-0.008,0.586-0.023c0.171-0.017,0.407-0.045,0.708-0.086l0.122,0.598
	c-0.204,0.065-0.415,0.11-0.635,0.135s-0.468,0.037-0.745,0.037c-0.887,0-1.561-0.289-2.02-0.867c-0.46-0.578-0.69-1.51-0.69-2.795
	V585.7h-2.441v-0.672h2.441v-3.564H136.951z"/>
<path fill="#FFFFFF" d="M153.406,591.875c0,2.035-0.439,3.646-1.318,4.834c-0.879,1.188-2.092,1.783-3.638,1.783
	c-1.025,0-1.918-0.204-2.68-0.611c-0.761-0.406-1.361-0.96-1.8-1.66v7.093h-0.659v-8.691c-0.008-0.024-0.014-0.045-0.018-0.062
	c-0.004-0.016-0.006-0.032-0.006-0.049v-5.371c0-0.008,0-0.014,0-0.018s0.008-0.031,0.024-0.08v-4.016h0.513l0.134,2.332
	c0.439-0.798,1.038-1.427,1.794-1.887c0.757-0.459,1.648-0.689,2.673-0.689c1.554,0,2.773,0.616,3.656,1.85
	c0.883,1.232,1.324,2.895,1.324,4.986V591.875z M152.735,591.62c0-1.831-0.368-3.318-1.105-4.462
	c-0.736-1.143-1.8-1.715-3.192-1.715c-1.253,0-2.232,0.313-2.936,0.94c-0.704,0.626-1.214,1.399-1.532,2.318v6.312
	c0.333,0.862,0.879,1.549,1.636,2.057c0.757,0.509,1.709,0.763,2.856,0.763c1.392,0,2.452-0.537,3.18-1.611
	c0.728-1.074,1.092-2.522,1.092-4.346V591.62z"/>
<path fill="#FFFFFF" d="M157.654,587.774c0.415-0.943,1.017-1.678,1.807-2.203c0.789-0.524,1.75-0.787,2.881-0.787
	c1.375,0,2.419,0.436,3.131,1.307c0.712,0.87,1.068,2.241,1.068,4.113v8.032h-0.671v-8.057c0-1.733-0.319-2.956-0.958-3.668
	c-0.639-0.712-1.491-1.068-2.557-1.068c-1.4,0-2.48,0.411-3.241,1.233c-0.761,0.821-1.248,1.875-1.459,3.161v8.398h-0.659v-6.763
	h-0.024c0-0.171,0-0.313,0-0.428c0-0.113,0.008-0.228,0.024-0.342v-11.511h0.659V587.774z"/>
<path fill="#FFFFFF" d="M169.642,591.375c0-1.937,0.535-3.52,1.605-4.748c1.07-1.229,2.459-1.844,4.168-1.844
	c1.717,0,3.111,0.614,4.181,1.844c1.07,1.229,1.605,2.812,1.605,4.748v0.513c0,1.945-0.535,3.532-1.605,4.761
	c-1.07,1.229-2.456,1.844-4.157,1.844c-1.717,0-3.113-0.615-4.187-1.844s-1.611-2.815-1.611-4.761V591.375z M170.301,591.888
	c0,1.66,0.464,3.066,1.392,4.218s2.177,1.727,3.748,1.727c1.546,0,2.783-0.577,3.711-1.732c0.928-1.156,1.392-2.56,1.392-4.212
	v-0.513c0-1.619-0.468-3.013-1.404-4.181c-0.936-1.168-2.177-1.752-3.723-1.752c-1.555,0-2.795,0.584-3.723,1.752
	s-1.392,2.562-1.392,4.181V591.888z"/>
<path fill="#FFFFFF" d="M184.925,585.028l0.085,2.661c0.407-0.92,0.993-1.634,1.758-2.143c0.765-0.508,1.705-0.763,2.82-0.763
	c1.44,0,2.521,0.454,3.241,1.361c0.72,0.907,1.08,2.346,1.08,4.314v7.776h-0.659v-7.8c0-1.832-0.328-3.121-0.982-3.87
	c-0.655-0.749-1.544-1.123-2.667-1.123c-1.384,0-2.441,0.403-3.174,1.208c-0.732,0.807-1.201,1.844-1.404,3.113v8.472h-0.659v-6.763
	h-0.037c0-0.154,0.002-0.312,0.006-0.47c0.004-0.159,0.014-0.319,0.03-0.482v-5.493H184.925z"/>
<path fill="#FFFFFF" d="M202.674,598.493c-1.555,0-2.867-0.603-3.937-1.807c-1.07-1.205-1.605-2.723-1.605-4.554v-0.781
	c0-1.912,0.531-3.485,1.593-4.718c1.063-1.233,2.399-1.85,4.01-1.85c1.465,0,2.632,0.482,3.503,1.446
	c0.871,0.965,1.306,2.281,1.306,3.949v1.013h-9.753v0.159v0.781c0,1.611,0.456,2.965,1.367,4.059
	c0.911,1.095,2.083,1.642,3.516,1.642c0.789,0,1.548-0.146,2.276-0.439c0.729-0.293,1.32-0.684,1.776-1.172l0.354,0.514
	c-0.464,0.512-1.062,0.934-1.794,1.263C204.554,598.328,203.683,598.493,202.674,598.493z M202.735,585.443
	c-1.367,0-2.488,0.475-3.363,1.422c-0.875,0.948-1.37,2.146-1.483,3.595l0.037,0.074h8.96v-0.403c0-1.359-0.371-2.479-1.111-3.363
	C205.034,585.884,204.021,585.443,202.735,585.443z"/>
<path fill="#FFFFFF" d="M217.054,598.236v-17.773h4.675c1.839,0,3.267,0.378,4.285,1.136c1.017,0.756,1.526,1.896,1.526,3.418
	c0,0.992-0.242,1.839-0.726,2.539c-0.484,0.699-1.17,1.167-2.057,1.403l-0.012,0.073c1.05,0.139,1.933,0.621,2.649,1.446
	c0.716,0.826,1.074,1.78,1.074,2.862c0,1.555-0.502,2.76-1.507,3.613c-1.005,0.855-2.334,1.282-3.986,1.282H217.054z
	 M217.713,588.799h4.492c1.538-0.023,2.7-0.354,3.485-0.988c0.785-0.635,1.178-1.583,1.178-2.844c0-1.27-0.434-2.229-1.3-2.875
	c-0.867-0.647-2.147-0.971-3.839-0.971h-4.016V588.799z M217.713,589.459v8.117h5.261c1.497,0,2.677-0.37,3.54-1.111
	c0.862-0.74,1.294-1.773,1.294-3.1c0-1.172-0.436-2.116-1.306-2.832c-0.871-0.717-2.047-1.074-3.528-1.074H217.713z"/>
<path fill="#FFFFFF" d="M232.544,598.236h-0.659v-19.043h0.659V598.236z"/>
<path fill="#FFFFFF" d="M245.728,595.917c-0.414,0.813-1.005,1.446-1.77,1.898c-0.765,0.451-1.692,0.678-2.783,0.678
	c-1.359,0-2.423-0.482-3.192-1.447c-0.769-0.964-1.153-2.459-1.153-4.486v-7.531h0.659v7.557c0,1.79,0.33,3.112,0.989,3.967
	s1.55,1.281,2.673,1.281c1.343,0,2.382-0.327,3.119-0.982c0.736-0.654,1.214-1.52,1.435-2.594v-9.229h0.671v7.775h0.024
	c0,0.106-0.004,0.208-0.012,0.306c-0.009,0.098-0.013,0.212-0.013,0.342v4.785h-0.55L245.728,595.917z"/>
<path fill="#FFFFFF" d="M255.188,598.493c-1.555,0-2.867-0.603-3.938-1.807c-1.07-1.205-1.605-2.723-1.605-4.554v-0.781
	c0-1.912,0.531-3.485,1.594-4.718c1.062-1.233,2.398-1.85,4.01-1.85c1.465,0,2.633,0.482,3.504,1.446
	c0.87,0.965,1.306,2.281,1.306,3.949v1.013h-9.753v0.159v0.781c0,1.611,0.455,2.965,1.367,4.059
	c0.911,1.095,2.083,1.642,3.516,1.642c0.789,0,1.548-0.146,2.276-0.439c0.728-0.293,1.32-0.684,1.776-1.172l0.354,0.514
	c-0.464,0.512-1.063,0.934-1.795,1.263C257.067,598.328,256.197,598.493,255.188,598.493z M255.249,585.443
	c-1.367,0-2.488,0.475-3.363,1.422c-0.875,0.948-1.369,2.146-1.482,3.595l0.036,0.074h8.96v-0.403c0-1.359-0.37-2.479-1.111-3.363
	C257.548,585.884,256.535,585.443,255.249,585.443z"/>
<path fill="#FFFFFF" d="M264.612,581.463v3.564h3.247v0.672h-3.247v9.131c0,1.082,0.184,1.854,0.549,2.313
	c0.367,0.46,0.851,0.689,1.453,0.689c0.22,0,0.415-0.008,0.586-0.023c0.171-0.017,0.407-0.045,0.708-0.086l0.122,0.598
	c-0.203,0.065-0.415,0.11-0.635,0.135s-0.468,0.037-0.744,0.037c-0.888,0-1.562-0.289-2.021-0.867c-0.46-0.578-0.69-1.51-0.69-2.795
	V585.7h-2.441v-0.672h2.441v-3.564H264.612z"/>
<path fill="#FFFFFF" d="M269.935,591.375c0-1.937,0.534-3.52,1.604-4.748c1.07-1.229,2.46-1.844,4.169-1.844
	c1.717,0,3.11,0.614,4.181,1.844c1.07,1.229,1.605,2.812,1.605,4.748v0.513c0,1.945-0.535,3.532-1.605,4.761
	s-2.455,1.844-4.156,1.844c-1.717,0-3.112-0.615-4.187-1.844s-1.611-2.815-1.611-4.761V591.375z M270.593,591.888
	c0,1.66,0.465,3.066,1.393,4.218s2.177,1.727,3.747,1.727c1.546,0,2.783-0.577,3.711-1.732c0.928-1.156,1.392-2.56,1.392-4.212
	v-0.513c0-1.619-0.468-3.013-1.404-4.181c-0.936-1.168-2.177-1.752-3.723-1.752c-1.555,0-2.795,0.584-3.723,1.752
	s-1.393,2.562-1.393,4.181V591.888z"/>
<path fill="#FFFFFF" d="M283.618,591.375c0-1.937,0.535-3.52,1.605-4.748c1.07-1.229,2.46-1.844,4.169-1.844
	c1.717,0,3.11,0.614,4.181,1.844c1.07,1.229,1.605,2.812,1.605,4.748v0.513c0,1.945-0.535,3.532-1.605,4.761
	s-2.455,1.844-4.156,1.844c-1.717,0-3.113-0.615-4.188-1.844s-1.611-2.815-1.611-4.761V591.375z M284.278,591.888
	c0,1.66,0.463,3.066,1.391,4.218s2.178,1.727,3.748,1.727c1.546,0,2.783-0.577,3.711-1.732c0.928-1.156,1.392-2.56,1.392-4.212
	v-0.513c0-1.619-0.468-3.013-1.403-4.181c-0.937-1.168-2.178-1.752-3.724-1.752c-1.555,0-2.796,0.584-3.724,1.752
	s-1.391,2.562-1.391,4.181V591.888z"/>
<path fill="#FFFFFF" d="M299.708,581.463v3.564h3.247v0.672h-3.247v9.131c0,1.082,0.184,1.854,0.549,2.313
	c0.367,0.46,0.851,0.689,1.453,0.689c0.22,0,0.415-0.008,0.586-0.023c0.171-0.017,0.407-0.045,0.708-0.086l0.122,0.598
	c-0.203,0.065-0.415,0.11-0.635,0.135s-0.468,0.037-0.744,0.037c-0.888,0-1.562-0.289-2.021-0.867c-0.46-0.578-0.69-1.51-0.69-2.795
	V585.7h-2.441v-0.672h2.441v-3.564H299.708z"/>
<path fill="#FFFFFF" d="M306.727,587.774c0.415-0.943,1.018-1.678,1.807-2.203c0.789-0.524,1.75-0.787,2.881-0.787
	c1.375,0,2.419,0.436,3.131,1.307c0.712,0.87,1.068,2.241,1.068,4.113v8.032h-0.671v-8.057c0-1.733-0.32-2.956-0.959-3.668
	s-1.491-1.068-2.557-1.068c-1.4,0-2.48,0.411-3.241,1.233c-0.762,0.821-1.247,1.875-1.459,3.161v8.398h-0.659v-6.763h-0.024
	c0-0.171,0-0.313,0-0.428c0-0.113,0.008-0.228,0.024-0.342v-11.511h0.659V587.774z"/>
<path fill="#FFFFFF" d="M334.022,595.794c-0.456,0.798-1.136,1.446-2.039,1.947c-0.903,0.5-1.998,0.751-3.283,0.751
	c-1.229,0-2.193-0.336-2.894-1.008c-0.7-0.671-1.05-1.576-1.05-2.716c0-1.106,0.522-2.034,1.568-2.783s2.354-1.123,3.925-1.123
	h3.772v-1.929c0-1.099-0.353-1.955-1.057-2.569s-1.694-0.922-2.973-0.922c-1.195,0-2.158,0.289-2.887,0.866
	c-0.729,0.578-1.092,1.323-1.092,2.234l-0.55-0.024l-0.024-0.062c-0.049-1.025,0.35-1.894,1.196-2.605s1.966-1.068,3.356-1.068
	c1.416,0,2.552,0.358,3.406,1.074s1.281,1.75,1.281,3.101v6.616c0,0.464,0.026,0.916,0.08,1.355
	c0.053,0.439,0.141,0.874,0.262,1.306h-0.732c-0.105-0.578-0.177-1.011-0.213-1.3c-0.037-0.289-0.055-0.601-0.055-0.934V595.794z
	 M328.7,597.845c1.31,0,2.418-0.289,3.326-0.866c0.907-0.578,1.572-1.404,1.996-2.479v-2.967h-3.736
	c-1.367,0-2.521,0.316-3.46,0.946c-0.94,0.631-1.41,1.41-1.41,2.338c0,0.887,0.299,1.613,0.897,2.179
	C326.911,597.563,327.707,597.845,328.7,597.845z"/>
<path fill="#FFFFFF" d="M341.395,591.485h-1.807v6.751h-0.659v-19.043h0.659v11.634h1.55l6.006-5.799h0.77l0.024,0.073l-6.055,5.944
	l6.519,7.129l-0.024,0.062h-0.769L341.395,591.485z"/>
<path fill="#FFFFFF" d="M352.124,581.463v3.564h3.247v0.672h-3.247v9.131c0,1.082,0.184,1.854,0.549,2.313
	c0.367,0.46,0.851,0.689,1.453,0.689c0.22,0,0.415-0.008,0.586-0.023c0.171-0.017,0.407-0.045,0.708-0.086l0.122,0.598
	c-0.203,0.065-0.415,0.11-0.635,0.135s-0.468,0.037-0.744,0.037c-0.888,0-1.562-0.289-2.021-0.867c-0.46-0.578-0.69-1.51-0.69-2.795
	V585.7h-2.441v-0.672h2.441v-3.564H352.124z"/>
<path fill="#FFFFFF" d="M359.302,580.877h-0.658v-1.685h0.658V580.877z M359.302,598.236h-0.658v-13.208h0.658V598.236z"/>
<path fill="#FFFFFF" d="M366.847,595.44l0.622,1.783h0.073l0.635-1.783l4.064-10.412h0.709l-5.14,13.195l0.013,0.013h-0.635
	l-5.127-13.208h0.707L366.847,595.44z"/>
<path fill="#FFFFFF" d="M382.374,580.877h-0.66v-1.685h0.66V580.877z M382.374,598.236h-0.66v-13.208h0.66V598.236z"/>
<path fill="#FFFFFF" d="M394.8,595c0-0.699-0.299-1.336-0.896-1.91c-0.599-0.573-1.643-1.023-3.131-1.349
	c-1.571-0.334-2.709-0.763-3.412-1.288c-0.704-0.524-1.057-1.304-1.057-2.338c0-0.943,0.399-1.734,1.197-2.374
	c0.797-0.639,1.871-0.958,3.223-0.958c1.456,0,2.604,0.342,3.441,1.025c0.839,0.684,1.237,1.574,1.197,2.674l-0.025,0.072h-0.561
	c0-0.862-0.365-1.597-1.093-2.203c-0.729-0.605-1.716-0.909-2.96-0.909c-1.237,0-2.174,0.267-2.809,0.8s-0.951,1.149-0.951,1.85
	c0,0.691,0.268,1.281,0.805,1.77s1.604,0.916,3.199,1.281c1.473,0.342,2.589,0.809,3.351,1.398c0.761,0.59,1.142,1.414,1.142,2.472
	c0,1.033-0.424,1.872-1.27,2.515c-0.847,0.643-1.97,0.965-3.369,0.965c-1.539,0-2.745-0.344-3.62-1.032
	c-0.875-0.688-1.283-1.523-1.227-2.509l0.024-0.072h0.537c0.065,1.041,0.513,1.794,1.343,2.258s1.811,0.695,2.942,0.695
	c1.221,0,2.188-0.284,2.904-0.854C394.442,596.409,394.8,595.75,394.8,595z"/>
<path fill="#FFFFFF" d="M400.513,581.463v3.564h3.247v0.672h-3.247v9.131c0,1.082,0.184,1.854,0.549,2.313
	c0.367,0.46,0.851,0.689,1.453,0.689c0.22,0,0.415-0.008,0.586-0.023c0.171-0.017,0.407-0.045,0.708-0.086l0.122,0.598
	c-0.203,0.065-0.415,0.11-0.635,0.135s-0.468,0.037-0.744,0.037c-0.888,0-1.562-0.289-2.021-0.867c-0.46-0.578-0.69-1.51-0.69-2.795
	V585.7h-2.441v-0.672h2.441v-3.564H400.513z"/>
<path fill="#FFFFFF" d="M407.935,598.236h-1.049v-1.587h1.049V598.236z"/>
<path fill="#FFFFFF" d="M102.35,33.827h0.138l13.953-31.44h1.4v33.414h-1.239V5.439l-0.138-0.023l-13.54,30.385h-0.987L88.098,4.75
	L87.96,4.773v31.027h-1.239V2.387h1.721L102.35,33.827z"/>
<path fill="#FFFFFF" d="M143.016,31.44c-0.78,1.53-1.89,2.719-3.328,3.569c-1.438,0.849-3.183,1.273-5.232,1.273
	c-2.555,0-4.556-0.906-6.001-2.72c-1.446-1.813-2.169-4.624-2.169-8.434V10.97h1.239v14.206c0,3.366,0.62,5.852,1.859,7.458
	s2.915,2.41,5.026,2.41c2.524,0,4.479-0.616,5.863-1.848c1.385-1.231,2.284-2.857,2.697-4.876V10.97h1.262v14.619h0.046
	c0,0.199-0.008,0.39-0.023,0.574c-0.016,0.184-0.023,0.398-0.023,0.643v8.996h-1.033L143.016,31.44z"/>
<path fill="#FFFFFF" d="M167.319,29.719c0-1.315-0.563-2.513-1.687-3.592c-1.125-1.078-3.087-1.923-5.887-2.536
	c-2.953-0.627-5.091-1.434-6.414-2.421c-1.324-0.986-1.985-2.451-1.985-4.395c0-1.774,0.75-3.262,2.249-4.464
	c1.499-1.201,3.519-1.801,6.059-1.801c2.738,0,4.896,0.643,6.472,1.928c1.576,1.285,2.325,2.96,2.249,5.026l-0.046,0.138h-1.056
	c0-1.622-0.685-3.002-2.054-4.143c-1.37-1.139-3.225-1.709-5.565-1.709c-2.326,0-4.085,0.501-5.278,1.503s-1.79,2.161-1.79,3.477
	c0,1.301,0.505,2.41,1.515,3.328s3.014,1.721,6.013,2.41c2.769,0.643,4.869,1.519,6.3,2.628c1.43,1.109,2.146,2.658,2.146,4.647
	c0,1.943-0.796,3.519-2.387,4.728c-1.591,1.209-3.703,1.813-6.334,1.813c-2.892,0-5.16-0.646-6.805-1.939
	c-1.645-1.292-2.414-2.864-2.306-4.716l0.046-0.138h1.01c0.122,1.958,0.964,3.374,2.524,4.246s3.404,1.308,5.531,1.308
	c2.295,0,4.115-0.535,5.462-1.606C166.646,32.366,167.319,31.127,167.319,29.719z"/>
<path fill="#FFFFFF" d="M184.187,36.283c-2.922,0-5.39-1.132-7.401-3.396c-2.012-2.264-3.018-5.118-3.018-8.56v-1.469
	c0-3.595,0.999-6.552,2.995-8.87c1.997-2.318,4.51-3.477,7.539-3.477c2.754,0,4.949,0.907,6.586,2.719
	c1.637,1.813,2.456,4.288,2.456,7.424v1.905h-18.336v0.298v1.469c0,3.029,0.856,5.573,2.57,7.63
	c1.713,2.058,3.917,3.087,6.609,3.087c1.484,0,2.911-0.275,4.28-0.826s2.482-1.285,3.339-2.203l0.666,0.964
	c-0.872,0.964-1.997,1.756-3.374,2.375C187.721,35.973,186.083,36.283,184.187,36.283z M184.301,11.75
	c-2.57,0-4.678,0.892-6.322,2.673c-1.645,1.783-2.575,4.036-2.789,6.759l0.069,0.138h16.845v-0.757c0-2.555-0.696-4.662-2.088-6.323
	C188.623,12.58,186.718,11.75,184.301,11.75z"/>
<path fill="#FFFFFF" d="M215.971,31.44c-0.78,1.53-1.89,2.719-3.328,3.569c-1.438,0.849-3.183,1.273-5.232,1.273
	c-2.555,0-4.555-0.906-6.001-2.72c-1.445-1.813-2.168-4.624-2.168-8.434V10.97h1.239v14.206c0,3.366,0.62,5.852,1.859,7.458
	s2.915,2.41,5.026,2.41c2.524,0,4.479-0.616,5.864-1.848c1.384-1.231,2.283-2.857,2.696-4.876V10.97h1.262v14.619h0.046
	c0,0.199-0.008,0.39-0.023,0.574c-0.016,0.184-0.023,0.398-0.023,0.643v8.996h-1.033L215.971,31.44z"/>
<path fill="#FFFFFF" d="M225.931,10.97l0.161,5.003c0.765-1.729,1.843-3.071,3.236-4.028c1.392-0.956,3.09-1.434,5.095-1.434
	c2.111,0,3.833,0.532,5.164,1.595s2.257,2.712,2.776,4.945c0.689-2.065,1.771-3.675,3.248-4.831c1.477-1.155,3.316-1.732,5.52-1.732
	c2.738,0,4.818,0.895,6.242,2.685c1.422,1.79,2.134,4.605,2.134,8.445v14.16h-1.263V21.572c0-3.595-0.643-6.135-1.928-7.619
	c-1.285-1.484-2.998-2.226-5.141-2.226c-2.555,0-4.502,0.75-5.84,2.249c-1.34,1.5-2.199,3.442-2.582,5.829
	c0.016,0.306,0.03,0.616,0.046,0.93c0.015,0.313,0.022,0.631,0.022,0.952v14.114h-1.262V23.087h-0.068
	c0-0.291,0.003-0.581,0.012-0.872c0.007-0.291,0.025-0.574,0.057-0.849c-0.046-3.519-0.704-6.001-1.974-7.447
	c-1.27-1.445-2.976-2.168-5.118-2.168c-2.524,0-4.449,0.731-5.771,2.192c-1.324,1.461-2.185,3.354-2.582,5.68v16.179h-1.262V23.087
	h-0.046c0-0.214,0.003-0.428,0.011-0.643c0.008-0.214,0.019-0.482,0.035-0.803V10.97H225.931z"/>
<path fill="#FFFFFF" d="M282.409,29.719c0-1.315-0.563-2.513-1.688-3.592c-1.123-1.078-3.086-1.923-5.886-2.536
	c-2.953-0.627-5.091-1.434-6.415-2.421c-1.322-0.986-1.984-2.451-1.984-4.395c0-1.774,0.75-3.262,2.249-4.464
	c1.499-1.201,3.519-1.801,6.059-1.801c2.738,0,4.896,0.643,6.472,1.928s2.325,2.96,2.249,5.026l-0.046,0.138h-1.056
	c0-1.622-0.685-3.002-2.054-4.143c-1.369-1.139-3.225-1.709-5.565-1.709c-2.325,0-4.085,0.501-5.278,1.503s-1.79,2.161-1.79,3.477
	c0,1.301,0.505,2.41,1.515,3.328s3.014,1.721,6.013,2.41c2.769,0.643,4.868,1.519,6.3,2.628c1.43,1.109,2.146,2.658,2.146,4.647
	c0,1.943-0.796,3.519-2.387,4.728c-1.591,1.209-3.702,1.813-6.334,1.813c-2.892,0-5.16-0.646-6.804-1.939
	c-1.646-1.292-2.414-2.864-2.307-4.716l0.045-0.138h1.01c0.123,1.958,0.965,3.374,2.525,4.246s3.403,1.308,5.53,1.308
	c2.295,0,4.115-0.535,5.462-1.606C281.735,32.366,282.409,31.127,282.409,29.719z"/>
<path fill="#FFFFFF" d="M310.958,27.929c0-1.912-0.784-3.454-2.352-4.624c-1.569-1.171-4.242-2.375-8.021-3.615
	c-3.764-1.147-6.537-2.364-8.318-3.649c-1.783-1.285-2.674-3.19-2.674-5.714c0-2.509,1.043-4.54,3.133-6.093
	c2.088-1.552,4.738-2.329,7.951-2.329c3.335,0,6.016,0.857,8.043,2.57c2.027,1.714,3.011,4.108,2.949,7.183l-0.045,0.138h-1.057
	c0-2.494-0.918-4.559-2.754-6.196c-1.836-1.637-4.215-2.456-7.137-2.456c-3.014,0-5.408,0.708-7.184,2.123
	c-1.774,1.415-2.662,3.086-2.662,5.014s0.715,3.492,2.146,4.693c1.43,1.202,4.096,2.375,7.998,3.523
	c3.793,1.193,6.616,2.433,8.468,3.718c1.851,1.285,2.776,3.175,2.776,5.668c0,2.54-1.094,4.575-3.281,6.104
	c-2.188,1.53-4.889,2.295-8.102,2.295c-3.35,0-6.234-0.784-8.651-2.353c-2.417-1.568-3.588-4.035-3.511-7.401l0.045-0.138h1.033
	c0,3.029,1.117,5.229,3.351,6.598s4.812,2.054,7.733,2.054s5.34-0.677,7.252-2.031C310.001,31.659,310.958,29.964,310.958,27.929z"
	/>
<path fill="#FFFFFF" d="M319.886,16.133c0.779-1.774,1.912-3.155,3.396-4.143c1.483-0.986,3.289-1.48,5.416-1.48
	c2.585,0,4.547,0.819,5.887,2.456c1.338,1.637,2.008,4.215,2.008,7.734v15.101h-1.263V20.654c0-3.259-0.601-5.557-1.802-6.896
	s-2.804-2.008-4.808-2.008c-2.632,0-4.663,0.773-6.093,2.318c-1.432,1.545-2.346,3.527-2.742,5.944v15.789h-1.24V23.087h-0.045
	c0-0.321,0-0.589,0-0.803c0-0.214,0.015-0.428,0.045-0.643V0h1.24V16.133z"/>
<path fill="#FFFFFF" d="M342.421,22.903c0-3.641,1.006-6.617,3.018-8.927c2.012-2.31,4.625-3.465,7.838-3.465
	c3.229,0,5.848,1.155,7.859,3.465c2.012,2.311,3.019,5.286,3.019,8.927v0.964c0,3.657-1.007,6.64-3.019,8.95
	c-2.012,2.311-4.616,3.465-7.813,3.465c-3.229,0-5.853-1.155-7.872-3.465c-2.02-2.31-3.029-5.293-3.029-8.95V22.903z
	 M343.661,23.867c0,3.121,0.871,5.764,2.615,7.929s4.093,3.247,7.046,3.247c2.907,0,5.232-1.086,6.977-3.259
	c1.744-2.172,2.616-4.812,2.616-7.917v-0.964c0-3.044-0.88-5.665-2.639-7.86c-1.76-2.195-4.094-3.293-7-3.293
	c-2.922,0-5.256,1.098-7,3.293s-2.615,4.815-2.615,7.86V23.867z"/>
<path fill="#FFFFFF" d="M389.077,23.844c0,3.825-0.826,6.854-2.479,9.088c-1.652,2.234-3.932,3.351-6.839,3.351
	c-1.928,0-3.606-0.383-5.038-1.147c-1.43-0.765-2.559-1.805-3.385-3.121v13.333h-1.238v-16.34c-0.016-0.046-0.027-0.084-0.035-0.115
	c-0.008-0.03-0.012-0.061-0.012-0.092V18.704c0-0.015,0-0.026,0-0.034s0.016-0.058,0.047-0.149v-7.55h0.963l0.253,4.383
	c0.826-1.499,1.95-2.681,3.374-3.546c1.422-0.864,3.098-1.296,5.025-1.296c2.922,0,5.213,1.159,6.873,3.477
	c1.66,2.317,2.49,5.443,2.49,9.375V23.844z M387.815,23.362c0-3.442-0.693-6.238-2.078-8.388c-1.385-2.149-3.385-3.224-6-3.224
	c-2.357,0-4.197,0.589-5.52,1.767c-1.324,1.178-2.283,2.632-2.881,4.36v11.865c0.627,1.622,1.652,2.911,3.076,3.867
	c1.422,0.957,3.213,1.435,5.369,1.435c2.617,0,4.609-1.01,5.979-3.029s2.055-4.743,2.055-8.17V23.362z"/>
<path fill="#FFFFFF" d="M124.306,329.356c0,0-45-61-21-115l-5.5-1.5l-8.5,21c0,0-1.25,24.5-1.25,26s3.5,27.5,4.25,28.5
	s12.5,28,12.5,28l16,18.5L124.306,329.356z"/>
<path fill="#75B728" d="M223.843,296.136c0.089-13.117,1.221-22.21,3.393-27.277c2.171-5.066,7.871-11.76,17.099-20.085
	c8.957-10.585,15.335-18.728,19.135-24.428s5.7-12.574,5.7-20.627c0-9.589-2.558-16.964-7.668-22.121
	c-5.112-5.157-12.417-7.735-21.917-7.735c-8.234,0-15.246,2.239-21.035,6.717c-5.791,4.479-8.685,11.061-8.685,19.746h-25.513
	l-0.407-0.814c-0.271-14.565,4.862-26.236,15.403-35.013c10.539-8.774,23.953-13.164,40.238-13.164
	c17.823,0,31.665,4.546,41.527,13.639c9.86,9.093,14.792,21.781,14.792,38.066c0,11.671-3.188,22.347-9.567,32.027
	c-6.378,9.682-14.815,19.588-25.31,29.72c-4.886,4.885-7.851,9.275-8.89,13.164c-1.041,3.891-1.561,9.953-1.561,18.185H223.843z
	 M251.528,351.777h-27.957v-28.228h27.957V351.777z"/>
</svg>
