<?xml version="1.0" encoding="utf-8"?>
<!-- Generator: Adobe Illustrator 13.0.0, SVG Export Plug-In  -->
<!DOCTYPE svg PUBLIC "-//W3C//DTD SVG 1.1//EN" "http://www.w3.org/Graphics/SVG/1.1/DTD/svg11.dtd" [
	<!ENTITY ns_flows "http://ns.adobe.com/Flows/1.0/">
]>
<svg version="1.1"
	 xmlns="http://www.w3.org/2000/svg" xmlns:xlink="http://www.w3.org/1999/xlink" xmlns:a="http://ns.adobe.com/AdobeSVGViewerExtensions/3.0/"
	 x="0px" y="0px" width="600px" height="90px" viewBox="0 0 600 90" enable-background="new 0 0 600 90" xml:space="preserve">
<defs>
</defs>
<rect fill="#74B628" width="577.334" height="78.667"/>
<path fill="#FFFFFF" d="M111.014,52.27h-3.799l-13.52-21.446l-0.116,0.039V52.27H89.78v-28.08h3.799l13.52,21.427l0.116-0.038
	V24.189h3.799V52.27z"/>
<path fill="#FFFFFF" d="M125.71,52.676c-2.996,0-5.333-0.959-7.01-2.875c-1.678-1.914-2.517-4.435-2.517-7.56v-0.849
	c0-2.996,0.865-5.474,2.594-7.435c1.729-1.96,3.841-2.941,6.335-2.941c2.79,0,4.882,0.868,6.277,2.604
	c1.395,1.735,2.093,4.043,2.093,6.923v2.006h-13.346l-0.058,0.097c0,2.096,0.463,3.796,1.389,5.102
	c0.926,1.305,2.34,1.957,4.243,1.957c1.286,0,2.414-0.184,3.385-0.549c0.971-0.367,1.803-0.871,2.498-1.516l1.485,2.469
	c-0.746,0.721-1.729,1.328-2.951,1.822C128.905,52.428,127.433,52.676,125.71,52.676z M125.112,34.006
	c-1.325,0-2.42,0.511-3.289,1.534c-0.868,1.022-1.398,2.331-1.591,3.924l0.039,0.097h9.412v-0.309c0-1.517-0.373-2.771-1.119-3.761
	C127.818,34.501,126.668,34.006,125.112,34.006z"/>
<path fill="#FFFFFF" d="M143.087,44.671l0.482,2.68h0.116l0.501-2.68l4.166-13.269h3.047l4.185,13.269l0.54,2.989h0.116l0.617-2.989
	l3.085-13.269h3.973L157.86,52.27h-3.067l-4.127-12.709l-0.791-3.317h-0.116l-0.733,3.317l-4.05,12.709h-3.066l-6.056-20.867h3.954
	L143.087,44.671z"/>
<path fill="#FFFFFF" d="M179.769,46.658c0-0.836-0.318-1.518-0.955-2.045c-0.636-0.527-1.842-0.99-3.616-1.389
	c-2.456-0.527-4.342-1.266-5.66-2.218c-1.318-0.951-1.977-2.224-1.977-3.818c0-1.697,0.723-3.15,2.17-4.359
	c1.446-1.208,3.32-1.813,5.622-1.813c2.366,0,4.282,0.643,5.748,1.929s2.166,2.784,2.102,4.494l-0.039,0.116h-3.626
	c0-0.9-0.395-1.716-1.186-2.449c-0.791-0.733-1.791-1.1-2.999-1.1c-1.337,0-2.337,0.302-2.999,0.907s-0.993,1.324-0.993,2.16
	c0,0.823,0.286,1.459,0.858,1.909c0.572,0.45,1.751,0.861,3.539,1.234c2.558,0.54,4.5,1.305,5.824,2.295
	c1.324,0.99,1.986,2.282,1.986,3.876c0,1.851-0.749,3.362-2.247,4.532c-1.498,1.17-3.456,1.756-5.873,1.756
	c-2.662,0-4.757-0.676-6.287-2.025c-1.53-1.35-2.257-2.926-2.18-4.726l0.039-0.116h3.626c0.064,1.351,0.565,2.338,1.504,2.961
	c0.938,0.623,2.038,0.936,3.298,0.936c1.35,0,2.407-0.285,3.172-0.857S179.769,47.545,179.769,46.658z"/>
<path fill="#FFFFFF" d="M192.401,52.27h-3.799V22.184h3.799V52.27z"/>
<path fill="#FFFFFF" d="M206.885,52.676c-2.996,0-5.333-0.959-7.01-2.875c-1.678-1.914-2.517-4.435-2.517-7.56v-0.849
	c0-2.996,0.865-5.474,2.594-7.435c1.729-1.96,3.841-2.941,6.335-2.941c2.79,0,4.882,0.868,6.277,2.604
	c1.395,1.735,2.093,4.043,2.093,6.923v2.006h-13.346l-0.058,0.097c0,2.096,0.463,3.796,1.389,5.102
	c0.926,1.305,2.34,1.957,4.243,1.957c1.286,0,2.414-0.184,3.385-0.549c0.971-0.367,1.803-0.871,2.498-1.516l1.485,2.469
	c-0.746,0.721-1.729,1.328-2.951,1.822C210.08,52.428,208.608,52.676,206.885,52.676z M206.288,34.006
	c-1.325,0-2.42,0.511-3.289,1.534c-0.868,1.022-1.398,2.331-1.591,3.924l0.039,0.097h9.412v-0.309c0-1.517-0.373-2.771-1.119-3.761
	C208.994,34.501,207.843,34.006,206.288,34.006z"/>
<path fill="#FFFFFF" d="M224.204,26.369v5.034h3.954v2.816h-3.954v12.67c0,0.979,0.202,1.666,0.607,2.064
	c0.405,0.398,0.941,0.598,1.61,0.598c0.218,0,0.463-0.029,0.733-0.086c0.27-0.059,0.495-0.119,0.675-0.184l0.521,2.604
	c-0.283,0.23-0.701,0.42-1.254,0.568s-1.099,0.223-1.639,0.223c-1.543,0-2.771-0.467-3.684-1.398
	c-0.913-0.934-1.369-2.395-1.369-4.389v-12.67h-3.317v-2.816h3.317v-5.034H224.204z"/>
<path fill="#FFFFFF" d="M237.512,26.369v5.034h3.954v2.816h-3.954v12.67c0,0.979,0.202,1.666,0.607,2.064
	c0.405,0.398,0.941,0.598,1.61,0.598c0.218,0,0.463-0.029,0.733-0.086c0.27-0.059,0.495-0.119,0.675-0.184l0.521,2.604
	c-0.283,0.23-0.701,0.42-1.254,0.568s-1.099,0.223-1.639,0.223c-1.543,0-2.771-0.467-3.684-1.398
	c-0.913-0.934-1.369-2.395-1.369-4.389v-12.67h-3.317v-2.816h3.317v-5.034H237.512z"/>
<path fill="#FFFFFF" d="M254.174,52.676c-2.996,0-5.333-0.959-7.01-2.875c-1.678-1.914-2.517-4.435-2.517-7.56v-0.849
	c0-2.996,0.865-5.474,2.594-7.435c1.729-1.96,3.841-2.941,6.335-2.941c2.79,0,4.882,0.868,6.277,2.604
	c1.395,1.735,2.093,4.043,2.093,6.923v2.006h-13.346l-0.058,0.097c0,2.096,0.463,3.796,1.389,5.102
	c0.926,1.305,2.34,1.957,4.243,1.957c1.286,0,2.414-0.184,3.385-0.549c0.971-0.367,1.803-0.871,2.498-1.516l1.485,2.469
	c-0.746,0.721-1.729,1.328-2.951,1.822C257.369,52.428,255.897,52.676,254.174,52.676z M253.577,34.006
	c-1.325,0-2.42,0.511-3.289,1.534c-0.868,1.022-1.398,2.331-1.591,3.924l0.039,0.097h9.412v-0.309c0-1.517-0.373-2.771-1.119-3.761
	C256.283,34.501,255.132,34.006,253.577,34.006z"/>
<path fill="#FFFFFF" d="M276.083,34.758l-1.948-0.116c-1.003,0-1.849,0.238-2.536,0.713c-0.688,0.476-1.218,1.145-1.591,2.006V52.27
	h-3.799V31.402h3.395l0.366,3.047c0.591-1.08,1.321-1.922,2.189-2.526c0.868-0.604,1.868-0.907,2.999-0.907
	c0.283,0,0.553,0.023,0.81,0.068s0.469,0.093,0.637,0.145L276.083,34.758z"/>
<path fill="#FFFFFF" d="M302.68,52.27c-0.129-0.629-0.229-1.186-0.299-1.668c-0.071-0.482-0.113-0.967-0.126-1.455
	c-0.707,1.002-1.629,1.842-2.768,2.516c-1.138,0.676-2.362,1.014-3.674,1.014c-2.173,0-3.828-0.557-4.966-1.67
	c-1.138-1.111-1.707-2.645-1.707-4.599c0-1.993,0.807-3.552,2.42-4.677c1.613-1.125,3.802-1.688,6.567-1.688h4.127v-2.063
	c0-1.221-0.373-2.189-1.118-2.902c-0.746-0.714-1.8-1.071-3.163-1.071c-1.234,0-2.231,0.309-2.989,0.926
	c-0.759,0.617-1.138,1.357-1.138,2.218l-3.606,0.039l-0.039-0.116c-0.09-1.517,0.62-2.906,2.131-4.166
	c1.51-1.26,3.462-1.89,5.853-1.89c2.366,0,4.269,0.602,5.709,1.803c1.439,1.203,2.16,2.935,2.16,5.198v10.049
	c0,0.744,0.038,1.465,0.115,2.16c0.077,0.693,0.219,1.375,0.425,2.043H302.68z M296.373,49.492c1.376,0,2.617-0.354,3.723-1.061
	s1.826-1.517,2.16-2.43v-3.394h-4.262c-1.53,0-2.755,0.386-3.674,1.157c-0.919,0.771-1.379,1.678-1.379,2.72
	c0,0.926,0.289,1.658,0.868,2.199C294.386,49.223,295.241,49.492,296.373,49.492z"/>
<path fill="#FFFFFF" d="M329.391,42.627c0,3.009-0.724,5.436-2.17,7.281c-1.446,1.844-3.437,2.768-5.969,2.768
	c-1.389,0-2.595-0.273-3.616-0.82c-1.022-0.547-1.868-1.354-2.536-2.42l-0.617,2.834h-2.912V22.184h3.799v11.688
	c0.656-0.926,1.469-1.633,2.439-2.122c0.971-0.488,2.105-0.733,3.404-0.733c2.571,0,4.577,1.029,6.018,3.086
	c1.439,2.057,2.16,4.764,2.16,8.12V42.627z M325.591,42.222c0-2.392-0.44-4.343-1.321-5.854s-2.221-2.266-4.021-2.266
	c-1.171,0-2.157,0.286-2.961,0.858s-1.443,1.34-1.919,2.305v9.045c0.488,1.029,1.128,1.832,1.919,2.41
	c0.791,0.58,1.79,0.869,2.999,0.869c1.787,0,3.118-0.637,3.992-1.91c0.874-1.272,1.312-2.957,1.312-5.053V42.222z"/>
<path fill="#FFFFFF" d="M333.132,41.644c0-3.086,0.835-5.628,2.507-7.628c1.671-1.999,3.94-2.999,6.808-2.999
	c2.894,0,5.179,0.997,6.856,2.989c1.678,1.993,2.517,4.539,2.517,7.638v0.424c0,3.111-0.836,5.657-2.507,7.637
	c-1.672,1.98-3.947,2.971-6.827,2.971s-5.159-0.994-6.837-2.98s-2.517-4.529-2.517-7.627V41.644z M336.931,42.068
	c0,2.211,0.466,4.038,1.398,5.477c0.932,1.439,2.317,2.16,4.156,2.16c1.813,0,3.188-0.721,4.127-2.16s1.408-3.266,1.408-5.477
	v-0.424c0-2.186-0.473-4.005-1.418-5.458c-0.944-1.453-2.33-2.18-4.156-2.18c-1.813,0-3.186,0.727-4.117,2.18
	c-0.933,1.453-1.398,3.272-1.398,5.458V42.068z"/>
<path fill="#FFFFFF" d="M359.862,31.402l0.27,3.105c0.694-1.105,1.565-1.964,2.613-2.575c1.048-0.61,2.24-0.916,3.578-0.916
	c2.25,0,3.992,0.659,5.227,1.977s1.852,3.353,1.852,6.104V52.27h-3.8V39.175c0-1.838-0.363-3.144-1.09-3.915
	s-1.835-1.157-3.326-1.157c-1.171,0-2.164,0.235-2.98,0.704s-1.462,1.128-1.938,1.977V52.27h-3.8V31.402H359.862z"/>
<path fill="#FFFFFF" d="M382.312,31.402l0.27,3.105c0.694-1.105,1.565-1.964,2.613-2.575c1.048-0.61,2.24-0.916,3.578-0.916
	c2.25,0,3.992,0.659,5.227,1.977s1.852,3.353,1.852,6.104V52.27h-3.8V39.175c0-1.838-0.363-3.144-1.09-3.915
	s-1.835-1.157-3.326-1.157c-1.171,0-2.164,0.235-2.98,0.704s-1.462,1.128-1.938,1.977V52.27h-3.8V31.402H382.312z"/>
<path fill="#FFFFFF" d="M405.475,26.06h-3.8v-3.876h3.8V26.06z M405.475,52.27h-3.8V31.402h3.8V52.27z"/>
<path fill="#FFFFFF" d="M419.958,52.676c-2.996,0-5.333-0.959-7.011-2.875c-1.678-1.914-2.517-4.435-2.517-7.56v-0.849
	c0-2.996,0.864-5.474,2.594-7.435c1.729-1.96,3.841-2.941,6.335-2.941c2.79,0,4.883,0.868,6.278,2.604
	c1.395,1.735,2.092,4.043,2.092,6.923v2.006h-13.346l-0.058,0.097c0,2.096,0.463,3.796,1.389,5.102
	c0.926,1.305,2.34,1.957,4.243,1.957c1.285,0,2.413-0.184,3.385-0.549c0.97-0.367,1.803-0.871,2.497-1.516l1.485,2.469
	c-0.746,0.721-1.729,1.328-2.951,1.822C423.152,52.428,421.681,52.676,419.958,52.676z M419.359,34.006
	c-1.324,0-2.42,0.511-3.288,1.534c-0.867,1.022-1.398,2.331-1.591,3.924l0.038,0.097h9.412v-0.309c0-1.517-0.373-2.771-1.119-3.761
	C422.066,34.501,420.915,34.006,419.359,34.006z"/>
<path fill="#FFFFFF" d="M441.867,34.758l-1.948-0.116c-1.003,0-1.849,0.238-2.536,0.713c-0.688,0.476-1.219,1.145-1.591,2.006V52.27
	h-3.8V31.402h3.395l0.366,3.047c0.592-1.08,1.321-1.922,2.189-2.526c0.867-0.604,1.867-0.907,2.999-0.907
	c0.282,0,0.553,0.023,0.81,0.068s0.47,0.093,0.637,0.145L441.867,34.758z"/>
<path fill="#FFFFFF" d="M454.095,52.676c-2.996,0-5.333-0.959-7.011-2.875c-1.678-1.914-2.517-4.435-2.517-7.56v-0.849
	c0-2.996,0.864-5.474,2.594-7.435c1.729-1.96,3.841-2.941,6.335-2.941c2.79,0,4.883,0.868,6.278,2.604
	c1.395,1.735,2.092,4.043,2.092,6.923v2.006h-13.346l-0.058,0.097c0,2.096,0.463,3.796,1.389,5.102
	c0.926,1.305,2.34,1.957,4.243,1.957c1.285,0,2.413-0.184,3.385-0.549c0.97-0.367,1.803-0.871,2.497-1.516l1.485,2.469
	c-0.746,0.721-1.729,1.328-2.951,1.822C457.289,52.428,455.817,52.676,454.095,52.676z M453.496,34.006
	c-1.324,0-2.42,0.511-3.288,1.534c-0.867,1.022-1.398,2.331-1.591,3.924l0.038,0.097h9.412v-0.309c0-1.517-0.373-2.771-1.119-3.761
	C456.203,34.501,455.052,34.006,453.496,34.006z"/>
<path fill="#FFFFFF" d="M469.523,31.402l0.27,3.105c0.694-1.105,1.565-1.964,2.613-2.575c1.048-0.61,2.24-0.916,3.578-0.916
	c2.25,0,3.992,0.659,5.227,1.977s1.852,3.353,1.852,6.104V52.27h-3.8V39.175c0-1.838-0.363-3.144-1.09-3.915
	s-1.835-1.157-3.326-1.157c-1.171,0-2.164,0.235-2.98,0.704s-1.462,1.128-1.938,1.977V52.27h-3.8V31.402H469.523z"/>
</svg>
