<?xml version="1.0" encoding="utf-8"?>
<!-- Generator: Adobe Illustrator 13.0.0, SVG Export Plug-In  -->
<!DOCTYPE svg PUBLIC "-//W3C//DTD SVG 1.1//EN" "http://www.w3.org/Graphics/SVG/1.1/DTD/svg11.dtd" [
	<!ENTITY ns_flows "http://ns.adobe.com/Flows/1.0/">
]>
<svg version="1.1"
	 xmlns="http://www.w3.org/2000/svg" xmlns:xlink="http://www.w3.org/1999/xlink" xmlns:a="http://ns.adobe.com/AdobeSVGViewerExtensions/3.0/"
	 x="0px" y="0px" width="200px" height="250px" viewBox="4.192 0.364 200 250" enable-background="new 4.192 0.364 200 250"
	 xml:space="preserve">
<defs>
</defs>
<rect opacity="0" fill="#FFFFFF" width="207.692" height="225.961"/>
<g>
	<g>
		<path fill="#83A626" d="M103.359,30.449c-24.394,0-44.167,19.773-44.167,44.166s19.774,44.167,44.167,44.167
			c24.393,0,44.167-19.774,44.167-44.167S127.752,30.449,103.359,30.449z M103.359,114.282c-21.815,0-39.501-17.685-39.501-39.5
			s17.686-39.5,39.501-39.5c21.814,0,39.499,17.685,39.499,39.5S125.174,114.282,103.359,114.282z"/>
	</g>
</g>
<path fill="#83A626" d="M97.046,85.449c0,0,0.75,1.188,1.875-0.063l27.563-27.563c0,0,0.875-1.125,1.875-0.438l1.813,1.688
	c0,0,1.063,0.688,0,1.875L99.108,92.262c0,0-0.375,1.125-2.125,0.063L81.421,77.137c0,0-1-0.688-0.375-1.75l1.938-2.063
	c0,0,0.625-1,1.938,0L97.046,85.449z"/>
<path fill="#404040" d="M61.03,157.887l0.281,1.029h0.051l0.281-1.029l3.199-9.137h1.812l-4.603,12.387h-1.438L56.01,148.75h1.821
	L61.03,157.887z"/>
<path fill="#404040" d="M69.87,149.575h-1.676v-1.71h1.676V149.575z M69.87,161.137h-1.676v-9.205h1.676V161.137z"/>
<path fill="#404040" d="M76.258,161.315c-1.321,0-2.352-0.422-3.092-1.268c-0.74-0.845-1.11-1.957-1.11-3.335v-0.374
	c0-1.321,0.381-2.415,1.145-3.28c0.763-0.864,1.694-1.297,2.794-1.297c1.231,0,2.154,0.383,2.77,1.148
	c0.615,0.766,0.923,1.784,0.923,3.054v0.885H73.8l-0.025,0.043c0,0.925,0.204,1.675,0.612,2.25c0.409,0.576,1.032,0.864,1.872,0.864
	c0.567,0,1.065-0.081,1.493-0.243c0.428-0.161,0.795-0.384,1.102-0.668l0.655,1.09c-0.329,0.317-0.763,0.585-1.302,0.804
	C77.668,161.206,77.019,161.315,76.258,161.315z M75.995,153.08c-0.584,0-1.067,0.226-1.45,0.677
	c-0.383,0.45-0.617,1.027-0.702,1.731l0.017,0.042h4.152v-0.136c0-0.669-0.165-1.223-0.494-1.659S76.681,153.08,75.995,153.08z"/>
<path fill="#404040" d="M83.38,161.137h-1.676v-13.271h1.676V161.137z"/>
<path fill="#404040" d="M89.769,161.315c-1.321,0-2.352-0.422-3.092-1.268c-0.74-0.845-1.11-1.957-1.11-3.335v-0.374
	c0-1.321,0.381-2.415,1.145-3.28c0.763-0.864,1.694-1.297,2.794-1.297c1.231,0,2.154,0.383,2.77,1.148
	c0.615,0.766,0.923,1.784,0.923,3.054v0.885H87.31l-0.025,0.043c0,0.925,0.204,1.675,0.612,2.25
	c0.409,0.576,1.032,0.864,1.872,0.864c0.567,0,1.065-0.081,1.493-0.243c0.428-0.161,0.795-0.384,1.102-0.668l0.655,1.09
	c-0.329,0.317-0.763,0.585-1.302,0.804C91.178,161.206,90.529,161.315,89.769,161.315z M89.505,153.08
	c-0.584,0-1.067,0.226-1.45,0.677c-0.383,0.45-0.617,1.027-0.702,1.731l0.017,0.042h4.152v-0.136c0-0.669-0.165-1.223-0.494-1.659
	S90.191,153.08,89.505,153.08z"/>
<path fill="#404040" d="M96.575,151.932l0.119,1.37c0.306-0.488,0.69-0.866,1.153-1.136s0.988-0.404,1.578-0.404
	c0.993,0,1.761,0.29,2.306,0.872c0.544,0.581,0.817,1.479,0.817,2.692v5.811h-1.676v-5.776c0-0.812-0.16-1.387-0.48-1.728
	c-0.321-0.34-0.81-0.51-1.468-0.51c-0.516,0-0.954,0.104-1.314,0.311s-0.645,0.497-0.855,0.872v6.831h-1.676v-9.205H96.575z"/>
<path fill="#404040" d="M109.541,161.137V148.75h3.896c1.616,0,2.916,0.497,3.9,1.493c0.984,0.995,1.477,2.281,1.477,3.858v1.692
	c0,1.583-0.492,2.869-1.477,3.858c-0.984,0.99-2.284,1.484-3.9,1.484H109.541z M111.217,150.068v9.759h2.221
	c1.146,0,2.049-0.378,2.71-1.132c0.66-0.754,0.99-1.722,0.99-2.901v-1.71c0-1.168-0.33-2.13-0.99-2.884
	c-0.661-0.755-1.564-1.132-2.71-1.132H111.217z"/>
<path fill="#404040" d="M126.769,161.137c-0.057-0.277-0.101-0.523-0.132-0.735c-0.031-0.213-0.05-0.427-0.055-0.643
	c-0.313,0.442-0.719,0.813-1.221,1.11s-1.043,0.446-1.621,0.446c-0.959,0-1.688-0.245-2.19-0.735
	c-0.502-0.491-0.753-1.167-0.753-2.029c0-0.879,0.355-1.566,1.067-2.063c0.712-0.496,1.678-0.744,2.896-0.744h1.821v-0.91
	c0-0.539-0.165-0.966-0.494-1.28c-0.328-0.315-0.794-0.473-1.395-0.473c-0.545,0-0.984,0.137-1.319,0.408
	c-0.334,0.272-0.502,0.599-0.502,0.979l-1.591,0.018l-0.017-0.052c-0.04-0.669,0.273-1.281,0.94-1.837
	c0.666-0.557,1.526-0.834,2.582-0.834c1.043,0,1.883,0.265,2.518,0.795c0.636,0.53,0.953,1.295,0.953,2.293v4.433
	c0,0.329,0.017,0.646,0.051,0.953c0.034,0.306,0.097,0.606,0.188,0.901H126.769z M123.987,159.912c0.606,0,1.153-0.156,1.642-0.468
	c0.487-0.313,0.806-0.67,0.953-1.072v-1.497h-1.881c-0.675,0-1.215,0.17-1.62,0.51c-0.405,0.341-0.608,0.74-0.608,1.2
	c0,0.408,0.128,0.731,0.383,0.97S123.488,159.912,123.987,159.912z"/>
<path fill="#404040" d="M132.188,151.932l0.119,1.37c0.306-0.488,0.69-0.866,1.152-1.136c0.463-0.27,0.988-0.404,1.578-0.404
	c0.993,0,1.762,0.29,2.306,0.872c0.545,0.581,0.817,1.479,0.817,2.692v5.811h-1.677v-5.776c0-0.812-0.16-1.387-0.48-1.728
	c-0.32-0.34-0.81-0.51-1.468-0.51c-0.516,0-0.954,0.104-1.314,0.311s-0.645,0.497-0.854,0.872v6.831h-1.676v-9.205H132.188z"/>
<path fill="#404040" d="M143.138,156.892h-0.859v4.245h-1.676v-13.271h1.676v7.69h0.842l2.766-3.624h2.008l-3.344,4.245l3.633,4.96
	H146.2L143.138,156.892z"/>
<path fill="#404040" d="M151.441,157.07h-1.677v-8.32h1.677V157.07z M151.449,161.137h-1.685v-1.735h1.685V161.137z"/>
<path fill="#404040" d="M34.041,183.401c0-0.418-0.15-0.77-0.451-1.053c-0.3-0.284-0.83-0.525-1.587-0.725
	c-0.939-0.232-1.672-0.575-2.2-1.027c-0.526-0.453-0.79-1.022-0.79-1.708c0-0.724,0.284-1.327,0.851-1.81s1.303-0.723,2.209-0.723
	c0.973,0,1.749,0.275,2.326,0.828c0.578,0.552,0.858,1.196,0.841,1.933l-0.019,0.038h-1.193c0-0.524-0.183-0.959-0.549-1.301
	c-0.366-0.344-0.835-0.515-1.406-0.515c-0.584,0-1.031,0.142-1.343,0.425c-0.311,0.284-0.466,0.652-0.466,1.105
	c0,0.401,0.17,0.737,0.511,1.006c0.34,0.269,0.894,0.504,1.66,0.707c0.931,0.242,1.64,0.598,2.126,1.066
	c0.487,0.471,0.73,1.05,0.73,1.74c0,0.744-0.293,1.343-0.879,1.796c-0.586,0.453-1.351,0.679-2.294,0.679
	c-0.893,0-1.681-0.249-2.365-0.748c-0.683-0.5-1.014-1.168-0.993-2.006l0.013-0.039h1.193c0,0.58,0.22,1.027,0.66,1.343
	s0.938,0.474,1.492,0.474c0.592,0,1.061-0.134,1.406-0.4C33.869,184.221,34.041,183.858,34.041,183.401z"/>
<path fill="#404040" d="M38.243,177.104h-1.25v-1.275h1.25V177.104z M38.243,185.731h-1.25v-6.868h1.25V185.731z"/>
<path fill="#404040" d="M43.01,185.864c-0.986,0-1.755-0.314-2.307-0.945c-0.553-0.631-0.829-1.46-0.829-2.488v-0.279
	c0-0.986,0.285-1.802,0.854-2.447c0.569-0.646,1.264-0.968,2.085-0.968c0.918,0,1.607,0.286,2.066,0.856
	c0.459,0.572,0.688,1.331,0.688,2.279v0.66h-4.393l-0.019,0.031c0,0.69,0.152,1.25,0.457,1.68s0.77,0.645,1.396,0.645
	c0.423,0,0.794-0.061,1.114-0.182c0.32-0.12,0.594-0.286,0.822-0.498l0.489,0.813c-0.246,0.237-0.569,0.437-0.971,0.6
	S43.577,185.864,43.01,185.864z M42.813,179.72c-0.436,0-0.797,0.169-1.082,0.505c-0.286,0.337-0.46,0.768-0.524,1.292l0.013,0.031
	h3.098v-0.102c0-0.499-0.123-0.911-0.368-1.237S43.326,179.72,42.813,179.72z"/>
<path fill="#404040" d="M51.453,179.784c0.237-0.33,0.528-0.588,0.873-0.771c0.345-0.185,0.727-0.276,1.146-0.276
	c0.732,0,1.302,0.22,1.71,0.66c0.409,0.44,0.613,1.117,0.613,2.031v4.304h-1.25v-4.316c0-0.567-0.122-0.986-0.365-1.257
	c-0.243-0.271-0.606-0.406-1.088-0.406c-0.373,0-0.696,0.073-0.971,0.219c-0.275,0.146-0.497,0.351-0.667,0.612v5.148h-1.25v-9.902
	h1.25V179.784z"/>
<path fill="#404040" d="M61.812,185.731c-0.042-0.207-0.075-0.391-0.098-0.549c-0.023-0.159-0.037-0.318-0.042-0.479
	c-0.233,0.33-0.537,0.606-0.911,0.828c-0.375,0.223-0.778,0.333-1.209,0.333c-0.715,0-1.26-0.183-1.634-0.549
	c-0.375-0.366-0.562-0.87-0.562-1.514c0-0.656,0.266-1.169,0.796-1.539c0.531-0.37,1.252-0.556,2.162-0.556h1.358v-0.679
	c0-0.402-0.123-0.721-0.368-0.956c-0.246-0.234-0.592-0.353-1.041-0.353c-0.406,0-0.734,0.102-0.984,0.305s-0.375,0.447-0.375,0.73
	l-1.187,0.013l-0.013-0.038c-0.03-0.499,0.204-0.956,0.701-1.371c0.498-0.415,1.14-0.622,1.927-0.622
	c0.779,0,1.405,0.198,1.879,0.594s0.711,0.966,0.711,1.71v3.308c0,0.245,0.013,0.482,0.038,0.711s0.072,0.453,0.14,0.673H61.812z
	 M59.736,184.817c0.453,0,0.861-0.116,1.225-0.35c0.364-0.232,0.601-0.499,0.711-0.799v-1.117H60.27
	c-0.503,0-0.907,0.127-1.209,0.381c-0.303,0.254-0.454,0.552-0.454,0.895c0,0.305,0.095,0.546,0.286,0.724
	S59.364,184.817,59.736,184.817z"/>
<path fill="#404040" d="M70.604,182.558c0,0.99-0.238,1.789-0.714,2.396c-0.477,0.607-1.131,0.91-1.965,0.91
	c-0.457,0-0.854-0.09-1.19-0.27c-0.336-0.18-0.614-0.445-0.834-0.797l-0.203,0.934h-0.958v-9.902h1.25v3.847
	c0.216-0.305,0.483-0.537,0.803-0.698c0.319-0.161,0.693-0.241,1.12-0.241c0.846,0,1.506,0.339,1.98,1.016s0.711,1.567,0.711,2.673
	V182.558z M69.353,182.425c0-0.787-0.145-1.43-0.435-1.927c-0.29-0.497-0.731-0.746-1.323-0.746c-0.385,0-0.71,0.094-0.975,0.282
	c-0.264,0.188-0.475,0.441-0.631,0.759v2.978c0.161,0.338,0.372,0.603,0.631,0.793c0.261,0.19,0.589,0.285,0.987,0.285
	c0.588,0,1.026-0.209,1.314-0.628s0.432-0.974,0.432-1.663V182.425z"/>
<path fill="#404040" d="M74.971,185.864c-0.986,0-1.755-0.314-2.308-0.945c-0.552-0.631-0.828-1.46-0.828-2.488v-0.279
	c0-0.986,0.285-1.802,0.854-2.447c0.569-0.646,1.265-0.968,2.085-0.968c0.918,0,1.607,0.286,2.066,0.856
	c0.459,0.572,0.689,1.331,0.689,2.279v0.66h-4.393l-0.019,0.031c0,0.69,0.152,1.25,0.457,1.68s0.77,0.645,1.396,0.645
	c0.423,0,0.794-0.061,1.114-0.182c0.319-0.12,0.593-0.286,0.822-0.498l0.489,0.813c-0.246,0.237-0.569,0.437-0.971,0.6
	S75.538,185.864,74.971,185.864z M74.774,179.72c-0.436,0-0.796,0.169-1.083,0.505c-0.285,0.337-0.46,0.768-0.523,1.292l0.013,0.031
	h3.098v-0.102c0-0.499-0.123-0.911-0.368-1.237S75.286,179.72,74.774,179.72z"/>
<path fill="#404040" d="M80.049,178.863l0.089,1.022c0.229-0.364,0.515-0.646,0.86-0.848c0.345-0.201,0.737-0.302,1.177-0.302
	c0.741,0,1.314,0.217,1.72,0.65s0.609,1.104,0.609,2.009v4.336h-1.25v-4.311c0-0.604-0.12-1.034-0.359-1.288
	c-0.239-0.254-0.604-0.381-1.095-0.381c-0.385,0-0.712,0.077-0.98,0.231c-0.269,0.154-0.481,0.371-0.638,0.65v5.098h-1.25v-6.868
	H80.049z"/>
<path fill="#404040" d="M93.544,183.884c0-0.274-0.104-0.499-0.314-0.672c-0.209-0.174-0.606-0.326-1.19-0.457
	c-0.808-0.174-1.429-0.417-1.863-0.73c-0.434-0.313-0.651-0.732-0.651-1.257c0-0.559,0.238-1.037,0.714-1.435
	c0.476-0.397,1.093-0.597,1.85-0.597c0.779,0,1.409,0.212,1.892,0.635s0.713,0.916,0.692,1.479l-0.013,0.037h-1.193
	c0-0.296-0.13-0.564-0.391-0.806c-0.26-0.241-0.589-0.362-0.987-0.362c-0.44,0-0.769,0.1-0.987,0.299
	c-0.218,0.199-0.327,0.436-0.327,0.711c0,0.271,0.094,0.48,0.282,0.629c0.188,0.147,0.577,0.283,1.165,0.406
	c0.842,0.178,1.481,0.429,1.917,0.755s0.654,0.751,0.654,1.276c0,0.609-0.247,1.106-0.74,1.491
	c-0.493,0.385-1.137,0.577-1.933,0.577c-0.876,0-1.566-0.222-2.069-0.666s-0.743-0.963-0.717-1.555l0.013-0.039h1.193
	c0.021,0.445,0.186,0.77,0.495,0.975s0.671,0.309,1.085,0.309c0.444,0,0.792-0.095,1.044-0.283
	C93.418,184.416,93.544,184.177,93.544,183.884z"/>
<path fill="#404040" d="M97.702,177.104h-1.25v-1.275h1.25V177.104z M97.702,185.731h-1.25v-6.868h1.25V185.731z"/>
<path fill="#404040" d="M102.354,184.888c0.385,0,0.722-0.129,1.009-0.385s0.432-0.57,0.432-0.942h1.129l0.02,0.038
	c0.018,0.593-0.236,1.118-0.762,1.577c-0.525,0.459-1.134,0.688-1.828,0.688c-0.965,0-1.709-0.327-2.234-0.983
	s-0.787-1.473-0.787-2.45v-0.267c0-0.969,0.264-1.782,0.79-2.44c0.527-0.658,1.271-0.987,2.231-0.987
	c0.766,0,1.394,0.237,1.882,0.711c0.489,0.474,0.726,1.056,0.708,1.745l-0.013,0.039h-1.136c0-0.42-0.136-0.776-0.41-1.07
	c-0.272-0.294-0.617-0.441-1.031-0.441c-0.614,0-1.061,0.238-1.343,0.715c-0.281,0.476-0.422,1.053-0.422,1.729v0.267
	c0,0.689,0.139,1.271,0.416,1.746C101.283,184.65,101.732,184.888,102.354,184.888z"/>
<path fill="#404040" d="M107.681,179.784c0.236-0.33,0.527-0.588,0.872-0.771c0.345-0.185,0.728-0.276,1.146-0.276
	c0.732,0,1.303,0.22,1.711,0.66s0.613,1.117,0.613,2.031v4.304h-1.251v-4.316c0-0.567-0.122-0.986-0.365-1.257
	s-0.606-0.406-1.089-0.406c-0.372,0-0.695,0.073-0.971,0.219c-0.275,0.146-0.497,0.351-0.666,0.612v5.148h-1.251v-9.902h1.251
	V179.784z"/>
<path fill="#404040" d="M119.894,185.864c-0.986,0-1.756-0.314-2.308-0.945c-0.553-0.631-0.829-1.46-0.829-2.488v-0.279
	c0-0.986,0.285-1.802,0.854-2.447s1.265-0.968,2.085-0.968c0.918,0,1.607,0.286,2.066,0.856c0.459,0.572,0.688,1.331,0.688,2.279
	v0.66h-4.393l-0.019,0.031c0,0.69,0.152,1.25,0.457,1.68s0.77,0.645,1.396,0.645c0.423,0,0.794-0.061,1.113-0.182
	c0.32-0.12,0.594-0.286,0.822-0.498l0.488,0.813c-0.245,0.237-0.568,0.437-0.971,0.6S120.46,185.864,119.894,185.864z
	 M119.696,179.72c-0.436,0-0.797,0.169-1.082,0.505c-0.286,0.337-0.461,0.768-0.523,1.292l0.012,0.031h3.098v-0.102
	c0-0.499-0.122-0.911-0.367-1.237C120.587,179.883,120.208,179.72,119.696,179.72z"/>
<path fill="#404040" d="M127.104,179.968l-0.642-0.038c-0.33,0-0.608,0.078-0.835,0.235c-0.227,0.156-0.4,0.376-0.523,0.66v4.906
	h-1.25v-6.868h1.117l0.12,1.003c0.194-0.355,0.435-0.633,0.721-0.832c0.285-0.198,0.614-0.298,0.987-0.298
	c0.093,0,0.182,0.008,0.266,0.022c0.085,0.015,0.154,0.03,0.21,0.047L127.104,179.968z"/>
<path fill="#404040" d="M129.021,185.731v-5.941h-1.072v-0.927h1.072v-0.87c0-0.731,0.191-1.298,0.575-1.697
	c0.383-0.4,0.917-0.6,1.603-0.6c0.145,0,0.289,0.011,0.435,0.034c0.146,0.023,0.308,0.057,0.485,0.099l-0.152,0.952
	c-0.076-0.017-0.168-0.032-0.275-0.044c-0.108-0.014-0.221-0.02-0.34-0.02c-0.363,0-0.635,0.109-0.813,0.327
	s-0.267,0.534-0.267,0.948v0.87h1.244v0.927h-1.244v5.941H129.021z"/>
<path fill="#404040" d="M132.487,182.233c0-1.016,0.274-1.852,0.824-2.51c0.551-0.658,1.297-0.987,2.241-0.987
	c0.952,0,1.704,0.328,2.257,0.983c0.552,0.656,0.828,1.494,0.828,2.514v0.141c0,1.023-0.275,1.861-0.825,2.514
	c-0.55,0.651-1.3,0.977-2.247,0.977s-1.698-0.326-2.25-0.98c-0.553-0.653-0.828-1.49-0.828-2.51V182.233z M133.737,182.374
	c0,0.728,0.153,1.328,0.46,1.803c0.308,0.474,0.763,0.711,1.368,0.711c0.597,0,1.049-0.237,1.358-0.711
	c0.31-0.475,0.464-1.075,0.464-1.803v-0.141c0-0.719-0.156-1.317-0.467-1.796c-0.312-0.479-0.768-0.718-1.368-0.718
	c-0.597,0-1.048,0.239-1.355,0.718c-0.307,0.479-0.46,1.077-0.46,1.796V182.374z"/>
<path fill="#404040" d="M141.52,185.731h-1.251v-9.902h1.251V185.731z"/>
<path fill="#404040" d="M143.221,182.425c0-1.105,0.235-1.996,0.708-2.673c0.472-0.677,1.131-1.016,1.977-1.016
	c0.437,0,0.819,0.088,1.149,0.264s0.607,0.429,0.831,0.759l0.152-0.896h0.997v6.906c0,0.88-0.256,1.557-0.769,2.028
	c-0.512,0.472-1.25,0.707-2.215,0.707c-0.33,0-0.687-0.045-1.069-0.136c-0.384-0.091-0.721-0.215-1.013-0.372l0.19-0.971
	c0.241,0.127,0.532,0.229,0.873,0.308s0.676,0.118,1.006,0.118c0.609,0,1.053-0.139,1.33-0.416c0.276-0.277,0.415-0.699,0.415-1.267
	v-0.78c-0.224,0.287-0.492,0.505-0.806,0.653s-0.675,0.222-1.085,0.222c-0.838,0-1.493-0.303-1.965-0.91
	c-0.473-0.607-0.708-1.406-0.708-2.396V182.425z M144.472,182.558c0,0.689,0.141,1.244,0.425,1.663s0.722,0.628,1.313,0.628
	c0.377,0,0.692-0.085,0.946-0.257c0.254-0.171,0.464-0.413,0.628-0.727v-3.161c-0.16-0.292-0.369-0.523-0.628-0.695
	c-0.259-0.171-0.569-0.257-0.933-0.257c-0.598,0-1.038,0.247-1.324,0.743c-0.285,0.494-0.428,1.138-0.428,1.93V182.558z"/>
<path fill="#404040" d="M154.081,179.968l-0.641-0.038c-0.33,0-0.608,0.078-0.835,0.235c-0.226,0.156-0.401,0.376-0.523,0.66v4.906
	h-1.251v-6.868h1.117l0.121,1.003c0.195-0.355,0.435-0.633,0.721-0.832c0.285-0.198,0.614-0.298,0.986-0.298
	c0.094,0,0.183,0.008,0.268,0.022c0.084,0.015,0.154,0.03,0.209,0.047L154.081,179.968z"/>
<path fill="#404040" d="M158.106,185.864c-0.986,0-1.756-0.314-2.308-0.945c-0.553-0.631-0.829-1.46-0.829-2.488v-0.279
	c0-0.986,0.285-1.802,0.854-2.447s1.265-0.968,2.085-0.968c0.918,0,1.607,0.286,2.066,0.856c0.459,0.572,0.688,1.331,0.688,2.279
	v0.66h-4.393l-0.019,0.031c0,0.69,0.152,1.25,0.457,1.68s0.77,0.645,1.396,0.645c0.423,0,0.794-0.061,1.113-0.182
	c0.32-0.12,0.594-0.286,0.822-0.498l0.488,0.813c-0.245,0.237-0.568,0.437-0.971,0.6S158.673,185.864,158.106,185.864z
	 M157.909,179.72c-0.436,0-0.797,0.169-1.082,0.505c-0.286,0.337-0.461,0.768-0.523,1.292l0.012,0.031h3.098v-0.102
	c0-0.499-0.122-0.911-0.367-1.237C158.8,179.883,158.421,179.72,157.909,179.72z"/>
<path fill="#404040" d="M163.419,177.104h-1.25v-1.275h1.25V177.104z M163.419,185.731h-1.25v-6.868h1.25V185.731z"/>
<path fill="#404040" d="M168.071,184.888c0.386,0,0.723-0.129,1.01-0.385s0.432-0.57,0.432-0.942h1.13l0.019,0.038
	c0.018,0.593-0.236,1.118-0.762,1.577c-0.524,0.459-1.134,0.688-1.828,0.688c-0.965,0-1.709-0.327-2.234-0.983
	c-0.524-0.656-0.787-1.473-0.787-2.45v-0.267c0-0.969,0.264-1.782,0.791-2.44c0.526-0.658,1.271-0.987,2.23-0.987
	c0.767,0,1.394,0.237,1.883,0.711c0.488,0.474,0.725,1.056,0.707,1.745l-0.012,0.039h-1.137c0-0.42-0.137-0.776-0.409-1.07
	c-0.273-0.294-0.617-0.441-1.032-0.441c-0.613,0-1.061,0.238-1.342,0.715c-0.281,0.476-0.422,1.053-0.422,1.729v0.267
	c0,0.689,0.139,1.271,0.415,1.746C167,184.65,167.45,184.888,168.071,184.888z"/>
<path fill="#404040" d="M173.397,179.784c0.236-0.33,0.527-0.588,0.873-0.771c0.345-0.185,0.727-0.276,1.146-0.276
	c0.731,0,1.302,0.22,1.711,0.66c0.408,0.44,0.612,1.117,0.612,2.031v4.304h-1.25v-4.316c0-0.567-0.122-0.986-0.365-1.257
	c-0.244-0.271-0.606-0.406-1.089-0.406c-0.372,0-0.696,0.073-0.972,0.219c-0.274,0.146-0.496,0.351-0.666,0.612v5.148h-1.25v-9.902
	h1.25V179.784z"/>
<path fill="#404040" d="M51.234,201.331v-5.941h-1.073v-0.927h1.073v-0.87c0-0.731,0.191-1.298,0.575-1.697
	c0.383-0.4,0.917-0.6,1.603-0.6c0.144,0,0.289,0.011,0.435,0.034c0.146,0.023,0.308,0.057,0.486,0.099l-0.152,0.952
	c-0.076-0.017-0.168-0.032-0.276-0.044c-0.108-0.014-0.221-0.02-0.34-0.02c-0.364,0-0.635,0.109-0.813,0.327
	s-0.267,0.534-0.267,0.948v0.87h1.244v0.927h-1.244v5.941H51.234z"/>
<path fill="#404040" d="M59.353,200.315c-0.216,0.368-0.493,0.651-0.832,0.851s-0.73,0.298-1.174,0.298
	c-0.749,0-1.333-0.238-1.752-0.717s-0.628-1.223-0.628-2.234v-4.05h1.25v4.063c0,0.732,0.108,1.235,0.324,1.511
	s0.552,0.412,1.009,0.412c0.444,0,0.812-0.09,1.102-0.27c0.29-0.18,0.509-0.435,0.657-0.765v-4.951h1.25v6.868h-1.124
	L59.353,200.315z M56.972,193.32h-1.39v-1.27h1.39V193.32z M59.956,193.32h-1.39v-1.27h1.39V193.32z"/>
<path fill="#404040" d="M65.63,195.567l-0.641-0.038c-0.33,0-0.608,0.078-0.835,0.235c-0.226,0.156-0.401,0.376-0.523,0.66v4.906
	h-1.25v-6.868h1.117l0.121,1.003c0.195-0.355,0.435-0.633,0.721-0.832c0.285-0.198,0.614-0.298,0.987-0.298
	c0.093,0,0.182,0.008,0.267,0.022s0.154,0.03,0.209,0.047L65.63,195.567z"/>
<path fill="#404040" d="M69.877,198.024c0-1.105,0.236-1.996,0.708-2.673c0.472-0.677,1.133-1.016,1.983-1.016
	c0.402,0,0.759,0.074,1.069,0.222c0.312,0.148,0.577,0.364,0.797,0.648v-3.777h1.25v9.902h-0.958l-0.19-0.869
	c-0.224,0.33-0.501,0.579-0.832,0.748c-0.33,0.17-0.713,0.254-1.149,0.254c-0.838,0-1.494-0.303-1.968-0.91
	s-0.711-1.406-0.711-2.396V198.024z M71.127,198.157c0,0.694,0.142,1.249,0.425,1.666s0.724,0.625,1.32,0.625
	c0.373,0,0.686-0.084,0.939-0.254c0.254-0.169,0.461-0.406,0.622-0.711v-3.205c-0.161-0.283-0.369-0.509-0.625-0.676
	c-0.256-0.167-0.564-0.251-0.924-0.251c-0.601,0-1.044,0.247-1.33,0.743c-0.285,0.494-0.428,1.138-0.428,1.93V198.157z"/>
<path fill="#404040" d="M80.395,201.464c-0.986,0-1.755-0.314-2.307-0.945c-0.553-0.631-0.829-1.46-0.829-2.488v-0.279
	c0-0.986,0.285-1.802,0.854-2.447c0.569-0.646,1.264-0.968,2.085-0.968c0.918,0,1.607,0.286,2.066,0.856
	c0.459,0.572,0.688,1.331,0.688,2.279v0.66h-4.393l-0.019,0.031c0,0.69,0.152,1.25,0.457,1.68s0.77,0.645,1.396,0.645
	c0.423,0,0.794-0.061,1.114-0.182c0.32-0.12,0.594-0.286,0.822-0.498l0.489,0.813c-0.246,0.237-0.569,0.437-0.971,0.6
	S80.962,201.464,80.395,201.464z M80.198,195.319c-0.436,0-0.797,0.169-1.082,0.505c-0.286,0.337-0.46,0.768-0.524,1.292
	l0.013,0.031h3.098v-0.102c0-0.499-0.123-0.911-0.368-1.237S80.71,195.319,80.198,195.319z"/>
<path fill="#404040" d="M85.473,194.463l0.089,1.022c0.229-0.364,0.515-0.646,0.86-0.848c0.345-0.201,0.738-0.302,1.178-0.302
	c0.741,0,1.314,0.217,1.72,0.65s0.609,1.104,0.609,2.009v4.336h-1.25v-4.311c0-0.604-0.12-1.034-0.358-1.288
	c-0.239-0.254-0.604-0.381-1.095-0.381c-0.385,0-0.712,0.077-0.981,0.231c-0.269,0.154-0.481,0.371-0.638,0.65v5.098h-1.25v-6.868
	H85.473z"/>
<path fill="#404040" d="M102.136,201.331h-1.25l-4.45-7.059l-0.038,0.013v7.046h-1.25v-9.242h1.25l4.45,7.053l0.038-0.014v-7.039
	h1.25V201.331z"/>
<path fill="#404040" d="M106.973,201.464c-0.985,0-1.755-0.314-2.308-0.945c-0.552-0.631-0.828-1.46-0.828-2.488v-0.279
	c0-0.986,0.285-1.802,0.854-2.447c0.569-0.646,1.265-0.968,2.086-0.968c0.918,0,1.606,0.286,2.065,0.856
	c0.46,0.572,0.688,1.331,0.688,2.279v0.66h-4.393l-0.019,0.031c0,0.69,0.152,1.25,0.457,1.68s0.771,0.645,1.396,0.645
	c0.423,0,0.794-0.061,1.114-0.182c0.319-0.12,0.594-0.286,0.822-0.498l0.488,0.813c-0.246,0.237-0.569,0.437-0.971,0.6
	C108.024,201.383,107.54,201.464,106.973,201.464z M106.776,195.319c-0.437,0-0.797,0.169-1.083,0.505
	c-0.285,0.337-0.46,0.768-0.523,1.292l0.013,0.031h3.098v-0.102c0-0.499-0.123-0.911-0.368-1.237S107.288,195.319,106.776,195.319z"
	/>
<path fill="#404040" d="M112.692,198.83l0.158,0.882h0.038l0.165-0.882l1.371-4.367h1.003l1.378,4.367l0.178,0.983h0.037
	l0.203-0.983l1.016-4.367h1.309l-1.994,6.868h-1.009l-1.358-4.184l-0.26-1.092h-0.039l-0.24,1.092l-1.334,4.184h-1.009l-1.993-6.868
	h1.301L112.692,198.83z"/>
<path fill="#404040" d="M124.765,199.483c0-0.274-0.104-0.499-0.313-0.672c-0.21-0.174-0.606-0.326-1.19-0.457
	c-0.809-0.174-1.43-0.417-1.863-0.73s-0.65-0.732-0.65-1.257c0-0.559,0.238-1.037,0.714-1.435c0.477-0.397,1.093-0.597,1.851-0.597
	c0.779,0,1.409,0.212,1.892,0.635s0.713,0.916,0.692,1.479l-0.014,0.037h-1.193c0-0.296-0.13-0.564-0.39-0.806
	c-0.261-0.241-0.589-0.362-0.987-0.362c-0.439,0-0.77,0.1-0.987,0.299s-0.327,0.436-0.327,0.711c0,0.271,0.095,0.48,0.283,0.629
	c0.188,0.147,0.576,0.283,1.164,0.406c0.843,0.178,1.481,0.429,1.918,0.755c0.436,0.326,0.653,0.751,0.653,1.276
	c0,0.609-0.247,1.106-0.739,1.491c-0.493,0.385-1.138,0.577-1.934,0.577c-0.875,0-1.565-0.222-2.068-0.666
	c-0.504-0.444-0.743-0.963-0.718-1.555l0.013-0.039h1.193c0.021,0.445,0.186,0.77,0.495,0.975s0.671,0.309,1.085,0.309
	c0.445,0,0.793-0.095,1.045-0.283S124.765,199.776,124.765,199.483z"/>
<path fill="#404040" d="M128.923,201.331h-1.25v-9.902h1.25V201.331z"/>
<path fill="#404040" d="M133.69,201.464c-0.986,0-1.756-0.314-2.308-0.945c-0.553-0.631-0.829-1.46-0.829-2.488v-0.279
	c0-0.986,0.285-1.802,0.854-2.447s1.265-0.968,2.085-0.968c0.918,0,1.607,0.286,2.066,0.856c0.459,0.572,0.688,1.331,0.688,2.279
	v0.66h-4.393l-0.019,0.031c0,0.69,0.152,1.25,0.457,1.68s0.77,0.645,1.396,0.645c0.423,0,0.794-0.061,1.113-0.182
	c0.32-0.12,0.594-0.286,0.822-0.498l0.488,0.813c-0.245,0.237-0.568,0.437-0.971,0.6S134.257,201.464,133.69,201.464z
	 M133.493,195.319c-0.436,0-0.797,0.169-1.082,0.505c-0.286,0.337-0.461,0.768-0.523,1.292l0.012,0.031h3.098v-0.102
	c0-0.499-0.122-0.911-0.367-1.237C134.384,195.482,134.005,195.319,133.493,195.319z"/>
<path fill="#404040" d="M139.39,192.806v1.657h1.302v0.927h-1.302v4.17c0,0.322,0.067,0.549,0.2,0.68
	c0.134,0.131,0.31,0.197,0.53,0.197c0.072,0,0.152-0.01,0.241-0.029c0.089-0.019,0.163-0.039,0.222-0.061l0.172,0.857
	c-0.094,0.076-0.23,0.139-0.412,0.188c-0.183,0.049-0.362,0.072-0.54,0.072c-0.508,0-0.912-0.153-1.212-0.46
	c-0.301-0.307-0.451-0.788-0.451-1.444v-4.17h-1.092v-0.927h1.092v-1.657H139.39z"/>
<path fill="#404040" d="M143.771,192.806v1.657h1.301v0.927h-1.301v4.17c0,0.322,0.066,0.549,0.199,0.68
	c0.134,0.131,0.311,0.197,0.53,0.197c0.071,0,0.152-0.01,0.241-0.029c0.089-0.019,0.163-0.039,0.223-0.061l0.171,0.857
	c-0.093,0.076-0.23,0.139-0.413,0.188c-0.182,0.049-0.361,0.072-0.539,0.072c-0.508,0-0.912-0.153-1.213-0.46
	c-0.3-0.307-0.45-0.788-0.45-1.444v-4.17h-1.092v-0.927h1.092v-1.657H143.771z"/>
<path fill="#404040" d="M149.255,201.464c-0.986,0-1.756-0.314-2.308-0.945c-0.553-0.631-0.829-1.46-0.829-2.488v-0.279
	c0-0.986,0.285-1.802,0.854-2.447s1.265-0.968,2.085-0.968c0.918,0,1.607,0.286,2.066,0.856c0.459,0.572,0.688,1.331,0.688,2.279
	v0.66h-4.393l-0.019,0.031c0,0.69,0.152,1.25,0.457,1.68s0.77,0.645,1.396,0.645c0.423,0,0.794-0.061,1.113-0.182
	c0.32-0.12,0.594-0.286,0.822-0.498l0.488,0.813c-0.245,0.237-0.568,0.437-0.971,0.6S149.821,201.464,149.255,201.464z
	 M149.058,195.319c-0.436,0-0.797,0.169-1.082,0.505c-0.286,0.337-0.461,0.768-0.523,1.292l0.012,0.031h3.098v-0.102
	c0-0.499-0.122-0.911-0.367-1.237C149.948,195.482,149.569,195.319,149.058,195.319z"/>
<path fill="#404040" d="M156.466,195.567l-0.642-0.038c-0.33,0-0.608,0.078-0.835,0.235c-0.227,0.156-0.4,0.376-0.523,0.66v4.906
	h-1.25v-6.868h1.117l0.12,1.003c0.194-0.355,0.435-0.633,0.721-0.832c0.285-0.198,0.614-0.298,0.987-0.298
	c0.093,0,0.182,0.008,0.266,0.022c0.085,0.015,0.154,0.03,0.21,0.047L156.466,195.567z"/>
<path fill="#404040" d="M75.704,216.932c-0.042-0.207-0.075-0.391-0.099-0.549c-0.023-0.159-0.037-0.318-0.041-0.479
	c-0.233,0.33-0.536,0.606-0.911,0.828c-0.374,0.223-0.777,0.334-1.209,0.334c-0.715,0-1.26-0.184-1.635-0.55
	c-0.374-0.366-0.562-0.87-0.562-1.514c0-0.656,0.266-1.169,0.797-1.539c0.531-0.37,1.251-0.556,2.161-0.556h1.358v-0.68
	c0-0.401-0.123-0.72-0.368-0.955c-0.246-0.234-0.592-0.352-1.041-0.352c-0.406,0-0.734,0.102-0.984,0.305s-0.375,0.446-0.375,0.729
	l-1.187,0.013l-0.013-0.038c-0.03-0.499,0.204-0.956,0.702-1.371c0.497-0.415,1.139-0.622,1.926-0.622
	c0.779,0,1.405,0.198,1.879,0.594s0.711,0.966,0.711,1.711v3.307c0,0.245,0.013,0.482,0.038,0.711s0.072,0.453,0.14,0.673H75.704z
	 M73.628,216.018c0.453,0,0.861-0.116,1.225-0.349c0.364-0.233,0.601-0.5,0.711-0.801v-1.117h-1.403
	c-0.503,0-0.907,0.127-1.209,0.381c-0.302,0.254-0.454,0.553-0.454,0.896c0,0.305,0.095,0.546,0.286,0.724
	S73.256,216.018,73.628,216.018z"/>
<path fill="#404040" d="M79.748,210.063l0.089,1.021c0.229-0.363,0.515-0.646,0.86-0.847c0.345-0.201,0.738-0.302,1.178-0.302
	c0.741,0,1.314,0.217,1.72,0.65s0.609,1.104,0.609,2.01v4.335h-1.25v-4.31c0-0.605-0.12-1.035-0.358-1.289
	c-0.239-0.254-0.604-0.381-1.095-0.381c-0.385,0-0.712,0.077-0.981,0.231c-0.269,0.154-0.481,0.372-0.638,0.651v5.097h-1.25v-6.868
	H79.748z"/>
<path fill="#404040" d="M85.797,213.624c0-1.104,0.236-1.995,0.708-2.672c0.472-0.677,1.131-1.016,1.977-1.016
	c0.436,0,0.819,0.088,1.149,0.264s0.607,0.428,0.832,0.758l0.152-0.895h0.997v6.906c0,0.88-0.256,1.557-0.768,2.028
	s-1.25,0.708-2.215,0.708c-0.33,0-0.687-0.046-1.069-0.137c-0.383-0.091-0.721-0.215-1.013-0.371l0.19-0.972
	c0.241,0.127,0.532,0.229,0.873,0.308c0.34,0.078,0.676,0.117,1.006,0.117c0.609,0,1.053-0.138,1.33-0.415
	c0.277-0.277,0.416-0.699,0.416-1.267v-0.781c-0.224,0.288-0.493,0.506-0.806,0.654s-0.675,0.223-1.085,0.223
	c-0.838,0-1.493-0.304-1.964-0.911c-0.472-0.607-0.708-1.406-0.708-2.396V213.624z M87.047,213.758c0,0.689,0.142,1.244,0.425,1.663
	s0.722,0.629,1.314,0.629c0.376,0,0.692-0.086,0.946-0.258c0.254-0.171,0.463-0.413,0.628-0.727v-3.161
	c-0.161-0.292-0.37-0.523-0.628-0.695c-0.258-0.171-0.569-0.257-0.933-0.257c-0.597,0-1.038,0.248-1.324,0.742
	c-0.285,0.496-0.428,1.139-0.428,1.93V213.758z"/>
<path fill="#404040" d="M96.251,217.065c-0.986,0-1.755-0.315-2.307-0.946c-0.553-0.631-0.829-1.46-0.829-2.488v-0.279
	c0-0.986,0.285-1.802,0.854-2.447c0.569-0.646,1.264-0.968,2.085-0.968c0.918,0,1.607,0.285,2.066,0.857
	c0.459,0.57,0.688,1.33,0.688,2.278v0.66h-4.393l-0.019,0.032c0,0.689,0.152,1.249,0.457,1.679s0.77,0.644,1.396,0.644
	c0.423,0,0.794-0.06,1.114-0.181c0.32-0.12,0.594-0.286,0.822-0.498l0.489,0.813c-0.246,0.237-0.569,0.437-0.971,0.6
	S96.818,217.065,96.251,217.065z M96.055,210.921c-0.436,0-0.797,0.168-1.082,0.504c-0.286,0.337-0.46,0.768-0.524,1.292
	l0.013,0.032h3.098v-0.102c0-0.5-0.123-0.912-0.368-1.238S96.567,210.921,96.055,210.921z"/>
<path fill="#404040" d="M101.33,210.063l0.089,0.901c0.224-0.326,0.509-0.579,0.854-0.759c0.345-0.18,0.746-0.27,1.203-0.27
	s0.85,0.105,1.177,0.317c0.328,0.212,0.575,0.529,0.739,0.952c0.221-0.394,0.508-0.703,0.86-0.93c0.354-0.227,0.767-0.34,1.241-0.34
	c0.698,0,1.25,0.24,1.656,0.721s0.609,1.203,0.609,2.168v4.106h-1.25v-4.12c0-0.677-0.116-1.156-0.35-1.438
	c-0.232-0.281-0.579-0.422-1.041-0.422c-0.427,0-0.773,0.148-1.037,0.444c-0.265,0.296-0.42,0.671-0.467,1.124v0.051v4.36h-1.257
	v-4.12c0-0.643-0.12-1.113-0.358-1.412c-0.239-0.298-0.583-0.447-1.032-0.447c-0.381,0-0.694,0.078-0.939,0.234
	c-0.246,0.157-0.434,0.377-0.565,0.66v5.085h-1.25v-6.868H101.33z"/>
<path fill="#404040" d="M114.419,217.065c-0.986,0-1.756-0.315-2.308-0.946c-0.553-0.631-0.829-1.46-0.829-2.488v-0.279
	c0-0.986,0.285-1.802,0.854-2.447s1.265-0.968,2.085-0.968c0.918,0,1.607,0.285,2.066,0.857c0.459,0.57,0.688,1.33,0.688,2.278v0.66
	h-4.393l-0.019,0.032c0,0.689,0.152,1.249,0.457,1.679s0.77,0.644,1.396,0.644c0.423,0,0.794-0.06,1.113-0.181
	c0.32-0.12,0.594-0.286,0.822-0.498l0.488,0.813c-0.245,0.237-0.568,0.437-0.971,0.6S114.985,217.065,114.419,217.065z
	 M114.222,210.921c-0.436,0-0.797,0.168-1.082,0.504c-0.286,0.337-0.461,0.768-0.523,1.292l0.012,0.032h3.098v-0.102
	c0-0.5-0.122-0.912-0.367-1.238C115.112,211.083,114.733,210.921,114.222,210.921z"/>
<path fill="#404040" d="M119.731,216.932h-1.25v-9.902h1.25V216.932z"/>
<path fill="#404040" d="M121.369,213.624c0-1.104,0.235-1.995,0.708-2.672c0.472-0.677,1.133-1.016,1.983-1.016
	c0.401,0,0.759,0.074,1.069,0.223c0.312,0.147,0.576,0.363,0.797,0.646v-3.776h1.25v9.902h-0.958l-0.19-0.87
	c-0.225,0.33-0.502,0.58-0.832,0.75c-0.33,0.169-0.713,0.254-1.148,0.254c-0.838,0-1.494-0.304-1.968-0.911
	s-0.711-1.406-0.711-2.396V213.624z M122.62,213.758c0,0.694,0.141,1.249,0.425,1.666s0.724,0.626,1.32,0.626
	c0.372,0,0.686-0.085,0.939-0.254c0.254-0.17,0.462-0.406,0.622-0.711v-3.206c-0.16-0.283-0.369-0.509-0.625-0.676
	s-0.564-0.251-0.924-0.251c-0.602,0-1.044,0.248-1.33,0.742c-0.285,0.496-0.428,1.139-0.428,1.93V213.758z"/>
<path fill="#404040" d="M131.888,217.065c-0.986,0-1.756-0.315-2.308-0.946c-0.553-0.631-0.829-1.46-0.829-2.488v-0.279
	c0-0.986,0.285-1.802,0.854-2.447s1.265-0.968,2.085-0.968c0.918,0,1.607,0.285,2.066,0.857c0.459,0.57,0.688,1.33,0.688,2.278v0.66
	h-4.393l-0.019,0.032c0,0.689,0.152,1.249,0.457,1.679s0.77,0.644,1.396,0.644c0.423,0,0.794-0.06,1.113-0.181
	c0.32-0.12,0.594-0.286,0.822-0.498l0.488,0.813c-0.245,0.237-0.568,0.437-0.971,0.6S132.454,217.065,131.888,217.065z
	 M131.69,210.921c-0.436,0-0.797,0.168-1.082,0.504c-0.286,0.337-0.461,0.768-0.523,1.292l0.012,0.032h3.098v-0.102
	c0-0.5-0.122-0.912-0.367-1.238C132.581,211.083,132.202,210.921,131.69,210.921z"/>
<path fill="#404040" d="M137.587,208.407v1.656h1.302v0.927h-1.302v4.171c0,0.321,0.067,0.548,0.2,0.679
	c0.134,0.131,0.31,0.196,0.53,0.196c0.072,0,0.152-0.009,0.241-0.028c0.089-0.019,0.163-0.039,0.222-0.06l0.172,0.856
	c-0.094,0.076-0.23,0.139-0.412,0.188c-0.183,0.049-0.362,0.073-0.54,0.073c-0.508,0-0.912-0.154-1.212-0.461
	c-0.301-0.307-0.451-0.788-0.451-1.443v-4.171h-1.092v-0.927h1.092v-1.656H137.587z"/>
</svg>
