<?xml version="1.0" encoding="utf-8"?>
<!-- Generator: Adobe Illustrator 12.0.0, SVG Export Plug-In  -->
<!DOCTYPE svg PUBLIC "-//W3C//DTD SVG 1.1//EN" "http://www.w3.org/Graphics/SVG/1.1/DTD/svg11.dtd" [
	<!ENTITY ns_flows "http://ns.adobe.com/Flows/1.0/">
	<!ENTITY ns_svg "http://www.w3.org/2000/svg">
	<!ENTITY ns_xlink "http://www.w3.org/1999/xlink">
]>
<svg  version="1.1" xmlns="&ns_svg;" xmlns:xlink="&ns_xlink;" xmlns:a="http://ns.adobe.com/AdobeSVGViewerExtensions/3.0/"
	 width="229" height="31" viewBox="-0.01 -0.776 229 31" enable-background="new -0.01 -0.776 229 31" xml:space="preserve">
<defs>
</defs>
<rect fill="#FFFFFF" fill-opacity="0" width="228.912" height="30.001"/>
<path fill="none" stroke="#000000" stroke-width="0.25" d="M26.366,7.767c0,0-7.78-0.997-10.361,0.392c0,0-1.236,0.538-1.735,1.772
	l-0.005,0.905l0.254,11.965"/>
<path fill="none" stroke="#000000" stroke-width="0.25" d="M26.288,7.767c0,0,2.575,0.345,3.328,0.488
	c2.531,0.48,2.613,0.523,4.316,1.232c0,0,0.234,0.098,0.879,0.45c0,0,0.313,0.186,1.545,0.928c0,0,0.978,0.675,4.145,1.086
	c0,0,2.522,0.332,2.795,1.349l0.06,0.919c0,0,1.231,0.333,1.604,0.763l0.027,5.674"/>
<path fill="none" stroke="#000000" stroke-width="0.25" d="M14.256,10.865c0,0,0.771-2.687,5.384-2.745c0,0,3.969-0.293,10.46,0.86
	c0,0,2.639,0.391,5.259,1.779c0,0,1.192,0.898,3.733,1.427c0,0,3.168,0.274,4.203,1.369"/>
<path fill="none" stroke="#000000" stroke-width="0.25" d="M14.477,22.827l14.215-0.846c0,0,3.872-0.486,16.325-1.111"/>
<path fill="none" stroke="#000000" stroke-width="0.25" d="M14.355,15.433c0,0,0.417-1.586,6.439-1.546c0,0,2.561-0.06,8.992,0.313
	c0,0,2.776,0.059,6.101,1.212c0,0,1.485,0.586,4.065,0.605c0,0,0.255-0.02,1.936,0.216c0,0,0.517,0.021,1.455,0.567"/>
<path fill="none" stroke="#000000" stroke-width="0.25" d="M14.362,15.94c0,0,0.822-1.481,7.154-1.386c0,0,3.54-0.041,9.874,0.447
	c0,0,1.486-0.02,4.418,0.898c0,0,1.114,0.489,4.908,0.646c0,0,1.801-0.002,2.621,0.585"/>
<path fill="none" stroke="#000000" stroke-width="0.25" d="M14.489,20.983c0.183-1.465,12.064-0.767,10.516-0.861
	c0,0,3.375,0.139,10.12,0.041c0,0,5.454,0.078,5.709,0.059l2.51,0.078"/>
<path fill="none" stroke="#000000" stroke-width="0.25" d="M14.499,21.726c0,0,0.112-1.126,10.626-0.888c0,0,6.09-0.03,10.371-0.188
	c0,0,6.198-0.234,7.84-0.097"/>
<path fill="none" stroke="#000000" stroke-width="0.25" d="M43.355,17.269c0,0,0.802,0.313,1.604,0.392"/>
<path fill="none" stroke="#000000" stroke-width="0.25" d="M43.375,17.621c0,0,0.154,0.202,1.562,0.3"/>
<line fill="none" stroke="#000000" stroke-width="0.25" x1="43.335" y1="20.554" x2="44.978" y2="20.612"/>
<path fill="none" stroke="#000000" stroke-width="0.25" d="M43.375,14.59c0,0,0.67,0.196,1.589,0.568"/>
<line fill="none" stroke="#000000" stroke-width="0.25" x1="14.568" y1="10.264" x2="14.646" y2="15.04"/>
<line fill="none" stroke="#000000" stroke-width="0.25" x1="14.979" y1="9.747" x2="15.027" y2="14.805"/>
<line fill="none" stroke="#000000" stroke-width="0.25" x1="15.32" y1="9.431" x2="15.3" y2="14.668"/>
<line fill="none" stroke="#000000" stroke-width="0.25" x1="15.745" y1="9.134" x2="15.731" y2="14.473"/>
<line fill="none" stroke="#000000" stroke-width="0.25" x1="16.219" y1="8.843" x2="16.297" y2="14.317"/>
<line fill="none" stroke="#000000" stroke-width="0.25" x1="16.878" y1="8.582" x2="16.884" y2="14.18"/>
<line fill="none" stroke="#000000" stroke-width="0.25" x1="17.51" y1="8.393" x2="17.548" y2="14.083"/>
<line fill="none" stroke="#000000" stroke-width="0.25" x1="18.213" y1="8.237" x2="18.298" y2="13.989"/>
<line fill="none" stroke="#000000" stroke-width="0.25" x1="18.996" y1="8.139" x2="19.1" y2="13.933"/>
<line fill="none" stroke="#000000" stroke-width="0.25" x1="19.797" y1="8.139" x2="19.875" y2="13.887"/>
<line fill="none" stroke="#000000" stroke-width="0.25" x1="20.658" y1="8.081" x2="20.709" y2="13.906"/>
<line fill="none" stroke="#000000" stroke-width="0.25" x1="21.498" y1="8.061" x2="21.596" y2="13.887"/>
<line fill="none" stroke="#000000" stroke-width="0.25" x1="22.359" y1="8.1" x2="22.377" y2="13.847"/>
<line fill="none" stroke="#000000" stroke-width="0.25" x1="23.199" y1="8.139" x2="23.198" y2="13.922"/>
<line fill="none" stroke="#000000" stroke-width="0.25" x1="23.981" y1="8.198" x2="24" y2="13.964"/>
<line fill="none" stroke="#000000" stroke-width="0.25" x1="24.744" y1="8.256" x2="24.801" y2="13.964"/>
<line fill="none" stroke="#000000" stroke-width="0.25" x1="25.604" y1="8.334" x2="25.583" y2="13.985"/>
<line fill="none" stroke="#000000" stroke-width="0.25" x1="26.327" y1="8.452" x2="26.385" y2="14.024"/>
<line fill="none" stroke="#000000" stroke-width="0.25" x1="27.109" y1="8.51" x2="27.148" y2="14.043"/>
<line fill="none" stroke="#000000" stroke-width="0.25" x1="27.832" y1="8.589" x2="27.813" y2="14.083"/>
<line fill="none" stroke="#000000" stroke-width="0.25" x1="28.536" y1="8.707" x2="28.536" y2="14.141"/>
<line fill="none" stroke="#000000" stroke-width="0.25" x1="29.123" y1="8.784" x2="29.162" y2="14.18"/>
<line fill="none" stroke="#000000" stroke-width="0.25" x1="29.768" y1="8.941" x2="29.787" y2="14.2"/>
<line fill="none" stroke="#000000" stroke-width="0.25" x1="30.334" y1="9.019" x2="30.415" y2="14.252"/>
<line fill="none" stroke="#000000" stroke-width="0.25" x1="30.999" y1="9.156" x2="30.999" y2="14.279"/>
<line fill="none" stroke="#000000" stroke-width="0.25" x1="31.546" y1="9.312" x2="31.528" y2="14.317"/>
<line fill="none" stroke="#000000" stroke-width="0.25" x1="32.016" y1="9.449" x2="32.036" y2="14.434"/>
<line fill="none" stroke="#000000" stroke-width="0.25" x1="32.543" y1="9.566" x2="32.485" y2="14.532"/>
<line fill="none" stroke="#000000" stroke-width="0.25" x1="32.955" y1="9.742" x2="32.955" y2="14.63"/>
<line fill="none" stroke="#000000" stroke-width="0.25" x1="33.404" y1="9.879" x2="33.423" y2="14.708"/>
<line fill="none" stroke="#000000" stroke-width="0.25" x1="33.833" y1="10.075" x2="33.833" y2="14.805"/>
<line fill="none" stroke="#000000" stroke-width="0.25" x1="34.186" y1="10.192" x2="34.225" y2="14.923"/>
<line fill="none" stroke="#000000" stroke-width="0.25" x1="34.499" y1="10.348" x2="34.499" y2="14.982"/>
<line fill="none" stroke="#000000" stroke-width="0.25" x1="34.85" y1="10.525" x2="34.831" y2="15.041"/>
<line fill="none" stroke="#000000" stroke-width="0.25" x1="35.144" y1="10.661" x2="35.125" y2="15.158"/>
<line fill="none" stroke="#000000" stroke-width="0.25" x1="14.752" y1="20.68" x2="14.646" y2="15.675"/>
<line fill="none" stroke="#000000" stroke-width="0.25" x1="14.968" y1="15.48" x2="15.039" y2="20.543"/>
<line fill="none" stroke="#000000" stroke-width="0.25" x1="15.291" y1="15.333" x2="15.349" y2="20.456"/>
<line fill="none" stroke="#000000" stroke-width="0.25" x1="15.73" y1="15.167" x2="15.83" y2="20.344"/>
<line fill="none" stroke="#000000" stroke-width="0.25" x1="16.317" y1="15.02" x2="16.35" y2="20.262"/>
<line fill="none" stroke="#000000" stroke-width="0.25" x1="16.904" y1="14.893" x2="16.904" y2="20.231"/>
<line fill="none" stroke="#000000" stroke-width="0.25" x1="17.568" y1="14.776" x2="17.617" y2="20.172"/>
<line fill="none" stroke="#000000" stroke-width="0.25" x1="18.292" y1="14.678" x2="18.347" y2="20.105"/>
<line fill="none" stroke="#000000" stroke-width="0.25" x1="19.103" y1="14.63" x2="19.125" y2="20.075"/>
<line fill="none" stroke="#000000" stroke-width="0.25" x1="19.963" y1="14.581" x2="19.964" y2="20.061"/>
<line fill="none" stroke="#000000" stroke-width="0.25" x1="20.807" y1="20.049" x2="20.754" y2="14.571"/>
<line fill="none" stroke="#000000" stroke-width="0.25" x1="21.596" y1="14.561" x2="21.625" y2="20.075"/>
<line fill="none" stroke="#000000" stroke-width="0.25" x1="22.446" y1="14.6" x2="22.436" y2="20.075"/>
<line fill="none" stroke="#000000" stroke-width="0.25" x1="23.296" y1="14.6" x2="23.306" y2="20.103"/>
<line fill="none" stroke="#000000" stroke-width="0.25" x1="24.058" y1="14.63" x2="24.118" y2="20.123"/>
<line fill="none" stroke="#000000" stroke-width="0.25" x1="24.87" y1="14.59" x2="24.9" y2="20.133"/>
<line fill="none" stroke="#000000" stroke-width="0.25" x1="25.652" y1="14.668" x2="25.702" y2="20.163"/>
<line fill="none" stroke="#000000" stroke-width="0.25" x1="26.463" y1="14.659" x2="26.444" y2="20.172"/>
<line fill="none" stroke="#000000" stroke-width="0.25" x1="27.197" y1="14.688" x2="27.225" y2="20.187"/>
<line fill="none" stroke="#000000" stroke-width="0.25" x1="27.841" y1="14.805" x2="27.93" y2="20.202"/>
<line fill="none" stroke="#000000" stroke-width="0.25" x1="28.604" y1="14.834" x2="28.636" y2="20.194"/>
<line fill="none" stroke="#000000" stroke-width="0.25" x1="29.22" y1="14.834" x2="29.278" y2="20.172"/>
<line fill="none" stroke="#000000" stroke-width="0.25" x1="29.865" y1="14.893" x2="29.924" y2="20.202"/>
<line fill="none" stroke="#000000" stroke-width="0.25" x1="30.452" y1="14.922" x2="30.54" y2="20.202"/>
<line fill="none" stroke="#000000" stroke-width="0.25" x1="31.068" y1="14.953" x2="31.096" y2="20.172"/>
<line fill="none" stroke="#000000" stroke-width="0.25" x1="31.625" y1="15.011" x2="31.595" y2="20.202"/>
<line fill="none" stroke="#000000" stroke-width="0.25" x1="32.182" y1="15.099" x2="32.185" y2="20.201"/>
<line fill="none" stroke="#000000" stroke-width="0.25" x1="32.68" y1="15.157" x2="32.709" y2="20.202"/>
<line fill="none" stroke="#000000" stroke-width="0.25" x1="33.091" y1="15.216" x2="33.121" y2="20.172"/>
<line fill="none" stroke="#000000" stroke-width="0.25" x1="33.501" y1="15.274" x2="33.531" y2="20.143"/>
<line fill="none" stroke="#000000" stroke-width="0.25" x1="33.864" y1="15.361" x2="33.913" y2="20.172"/>
<line fill="none" stroke="#000000" stroke-width="0.25" x1="34.264" y1="15.48" x2="34.292" y2="20.157"/>
<line fill="none" stroke="#000000" stroke-width="0.25" x1="34.586" y1="15.509" x2="34.638" y2="20.167"/>
<line fill="none" stroke="#000000" stroke-width="0.25" x1="34.91" y1="15.656" x2="34.946" y2="20.184"/>
<line fill="none" stroke="#000000" stroke-width="0.25" x1="35.202" y1="15.714" x2="35.258" y2="20.167"/>
<line fill="none" stroke="#000000" stroke-width="0.25" x1="35.437" y1="15.803" x2="35.505" y2="20.162"/>
<line fill="none" stroke="#000000" stroke-width="0.25" x1="35.642" y1="15.832" x2="35.687" y2="20.167"/>
<line fill="none" stroke="#000000" stroke-width="0.25" x1="14.772" y1="21.531" x2="14.772" y2="22.782"/>
<line fill="none" stroke="#000000" stroke-width="0.25" x1="15.062" y1="21.389" x2="15.066" y2="22.762"/>
<line fill="none" stroke="#000000" stroke-width="0.25" x1="15.354" y1="21.311" x2="15.378" y2="22.782"/>
<line fill="none" stroke="#000000" stroke-width="0.25" x1="15.843" y1="21.208" x2="15.887" y2="22.704"/>
<line fill="none" stroke="#000000" stroke-width="0.25" x1="16.343" y1="21.128" x2="16.395" y2="22.744"/>
<line fill="none" stroke="#000000" stroke-width="0.25" x1="16.922" y1="21.047" x2="16.982" y2="22.684"/>
<line fill="none" stroke="#000000" stroke-width="0.25" x1="17.625" y1="20.985" x2="17.666" y2="22.665"/>
<line fill="none" stroke="#000000" stroke-width="0.25" x1="18.372" y1="20.923" x2="18.409" y2="22.607"/>
<line fill="none" stroke="#000000" stroke-width="0.25" x1="19.21" y1="20.875" x2="19.23" y2="22.528"/>
<line fill="none" stroke="#000000" stroke-width="0.25" x1="19.94" y1="20.848" x2="19.972" y2="22.489"/>
<line fill="none" stroke="#000000" stroke-width="0.25" x1="20.82" y1="20.834" x2="20.833" y2="22.45"/>
<line fill="none" stroke="#000000" stroke-width="0.25" x1="21.707" y1="20.814" x2="21.712" y2="22.352"/>
<line fill="none" stroke="#000000" stroke-width="0.25" x1="22.578" y1="20.807" x2="22.574" y2="22.352"/>
<line fill="none" stroke="#000000" stroke-width="0.25" x1="23.382" y1="20.821" x2="23.394" y2="22.293"/>
<line fill="none" stroke="#000000" stroke-width="0.25" x1="24.149" y1="20.824" x2="24.157" y2="22.274"/>
<line fill="none" stroke="#000000" stroke-width="0.25" x1="24.968" y1="20.841" x2="24.978" y2="22.196"/>
<line fill="none" stroke="#000000" stroke-width="0.25" x1="25.773" y1="20.841" x2="25.779" y2="22.118"/>
<line fill="none" stroke="#000000" stroke-width="0.25" x1="26.485" y1="20.834" x2="26.483" y2="22.137"/>
<line fill="none" stroke="#000000" stroke-width="0.25" x1="27.265" y1="20.847" x2="27.263" y2="22.071"/>
<line fill="none" stroke="#000000" stroke-width="0.25" x1="28.008" y1="20.828" x2="28.006" y2="22.016"/>
<line fill="none" stroke="#000000" stroke-width="0.25" x1="28.691" y1="20.814" x2="28.708" y2="21.971"/>
<line fill="none" stroke="#000000" stroke-width="0.25" x1="29.311" y1="20.796" x2="29.311" y2="21.923"/>
<line fill="none" stroke="#000000" stroke-width="0.25" x1="29.957" y1="20.816" x2="29.963" y2="21.844"/>
<line fill="none" stroke="#000000" stroke-width="0.25" x1="30.606" y1="20.78" x2="30.599" y2="21.807"/>
<line fill="none" stroke="#000000" stroke-width="0.25" x1="31.196" y1="20.769" x2="31.175" y2="21.747"/>
<line fill="none" stroke="#000000" stroke-width="0.25" x1="31.703" y1="20.789" x2="31.699" y2="21.722"/>
<line fill="none" stroke="#000000" stroke-width="0.25" x1="32.196" y1="20.752" x2="32.188" y2="21.67"/>
<line fill="none" stroke="#000000" stroke-width="0.25" x1="32.677" y1="20.75" x2="32.68" y2="21.609"/>
<line fill="none" stroke="#000000" stroke-width="0.25" x1="33.168" y1="20.729" x2="33.171" y2="21.612"/>
<line fill="none" stroke="#000000" stroke-width="0.25" x1="33.619" y1="20.729" x2="33.611" y2="21.555"/>
<line fill="none" stroke="#000000" stroke-width="0.25" x1="33.99" y1="20.69" x2="33.984" y2="21.541"/>
<line fill="none" stroke="#000000" stroke-width="0.25" x1="34.381" y1="20.729" x2="34.379" y2="21.497"/>
<line fill="none" stroke="#000000" stroke-width="0.25" x1="34.733" y1="20.671" x2="34.748" y2="21.491"/>
<line fill="none" stroke="#000000" stroke-width="0.25" x1="35.007" y1="20.671" x2="35.027" y2="21.433"/>
<line fill="none" stroke="#000000" stroke-width="0.25" x1="35.286" y1="20.694" x2="35.3" y2="21.414"/>
<line fill="none" stroke="#000000" stroke-width="0.25" x1="35.515" y1="20.676" x2="35.522" y2="21.419"/>
<line fill="none" stroke="#000000" stroke-width="0.25" x1="35.698" y1="20.667" x2="35.714" y2="21.415"/>
<line fill="none" stroke="#000000" stroke-width="0.25" x1="35.828" y1="20.163" x2="35.808" y2="15.9"/>
<line fill="none" stroke="#000000" stroke-width="0.25" x1="35.965" y1="15.959" x2="35.972" y2="20.178"/>
<line fill="none" stroke="#000000" stroke-width="0.25" x1="36.121" y1="20.178" x2="36.11" y2="16.026"/>
<line fill="none" stroke="#000000" stroke-width="0.25" x1="36.269" y1="16.053" x2="36.269" y2="20.173"/>
<line fill="none" stroke="#000000" stroke-width="0.25" x1="36.454" y1="16.077" x2="36.44" y2="20.178"/>
<line fill="none" stroke="#000000" stroke-width="0.25" x1="36.786" y1="16.174" x2="36.844" y2="20.182"/>
<line fill="none" stroke="#000000" stroke-width="0.25" x1="37.099" y1="20.182" x2="37.06" y2="16.213"/>
<line fill="none" stroke="#000000" stroke-width="0.25" x1="37.391" y1="16.233" x2="37.391" y2="20.182"/>
<line fill="none" stroke="#000000" stroke-width="0.25" x1="37.705" y1="16.292" x2="37.685" y2="20.202"/>
<line fill="none" stroke="#000000" stroke-width="0.25" x1="37.998" y1="16.35" x2="37.958" y2="20.202"/>
<line fill="none" stroke="#000000" stroke-width="0.25" x1="38.329" y1="16.394" x2="38.272" y2="20.182"/>
<line fill="none" stroke="#000000" stroke-width="0.25" x1="38.642" y1="16.421" x2="38.604" y2="20.182"/>
<line fill="none" stroke="#000000" stroke-width="0.25" x1="38.983" y1="16.444" x2="38.975" y2="20.163"/>
<line fill="none" stroke="#000000" stroke-width="0.25" x1="39.269" y1="16.448" x2="39.289" y2="20.182"/>
<line fill="none" stroke="#000000" stroke-width="0.25" x1="39.63" y1="20.208" x2="39.601" y2="16.448"/>
<line fill="none" stroke="#000000" stroke-width="0.25" x1="39.974" y1="16.532" x2="40.034" y2="20.222"/>
<line fill="none" stroke="#000000" stroke-width="0.25" x1="40.325" y1="16.506" x2="40.364" y2="20.182"/>
<line fill="none" stroke="#000000" stroke-width="0.25" x1="40.676" y1="16.506" x2="40.722" y2="20.193"/>
<line fill="none" stroke="#000000" stroke-width="0.25" x1="41.022" y1="20.208" x2="40.993" y2="16.568"/>
<line fill="none" stroke="#000000" stroke-width="0.25" x1="41.278" y1="16.583" x2="41.292" y2="20.229"/>
<line fill="none" stroke="#000000" stroke-width="0.25" x1="41.601" y1="20.229" x2="41.615" y2="16.566"/>
<line fill="none" stroke="#000000" stroke-width="0.25" x1="41.857" y1="16.656" x2="41.864" y2="20.245"/>
<line fill="none" stroke="#000000" stroke-width="0.25" x1="42.103" y1="16.643" x2="42.083" y2="20.221"/>
<line fill="none" stroke="#000000" stroke-width="0.25" x1="42.299" y1="16.683" x2="42.274" y2="20.274"/>
<line fill="none" stroke="#000000" stroke-width="0.25" x1="42.5" y1="16.765" x2="42.487" y2="20.259"/>
<line fill="none" stroke="#000000" stroke-width="0.25" x1="42.663" y1="16.817" x2="42.651" y2="20.26"/>
<line fill="none" stroke="#000000" stroke-width="0.25" x1="42.808" y1="16.859" x2="42.801" y2="20.266"/>
<line fill="none" stroke="#000000" stroke-width="0.25" x1="43.003" y1="16.917" x2="42.977" y2="20.281"/>
<line fill="none" stroke="#000000" stroke-width="0.25" x1="43.16" y1="16.995" x2="43.146" y2="20.281"/>
<line fill="none" stroke="#000000" stroke-width="0.25" x1="43.263" y1="17.095" x2="43.255" y2="20.289"/>
<line fill="none" stroke="#000000" stroke-width="0.25" x1="43.513" y1="17.674" x2="43.492" y2="20.28"/>
<line fill="none" stroke="#000000" stroke-width="0.25" x1="43.648" y1="20.319" x2="43.687" y2="17.739"/>
<line fill="none" stroke="#000000" stroke-width="0.25" x1="43.832" y1="17.778" x2="43.804" y2="20.299"/>
<line fill="none" stroke="#000000" stroke-width="0.25" x1="43.96" y1="20.358" x2="43.958" y2="17.811"/>
<line fill="none" stroke="#000000" stroke-width="0.25" x1="44.178" y1="17.844" x2="44.196" y2="20.319"/>
<line fill="none" stroke="#000000" stroke-width="0.25" x1="44.447" y1="17.866" x2="44.469" y2="20.319"/>
<line fill="none" stroke="#000000" stroke-width="0.25" x1="44.689" y1="17.893" x2="44.704" y2="20.338"/>
<line fill="none" stroke="#000000" stroke-width="0.25" x1="44.683" y1="17.629" x2="44.678" y2="15.042"/>
<line fill="none" stroke="#000000" stroke-width="0.25" x1="44.409" y1="17.586" x2="44.425" y2="14.965"/>
<line fill="none" stroke="#000000" stroke-width="0.25" x1="44.189" y1="17.525" x2="44.21" y2="14.873"/>
<line fill="none" stroke="#000000" stroke-width="0.25" x1="43.975" y1="17.465" x2="44.002" y2="14.79"/>
<line fill="none" stroke="#000000" stroke-width="0.25" x1="43.821" y1="17.443" x2="43.804" y2="14.746"/>
<line fill="none" stroke="#000000" stroke-width="0.25" x1="43.678" y1="17.388" x2="43.662" y2="14.675"/>
<line fill="none" stroke="#000000" stroke-width="0.25" x1="43.524" y1="17.333" x2="43.508" y2="14.653"/>
<polyline fill="none" stroke="#000000" stroke-width="0.25" points="43.355,14.219 43.355,20.299 44.958,20.358 "/>
<line fill="none" stroke="#000000" stroke-width="0.25" x1="36.615" y1="16.13" x2="36.631" y2="20.178"/>
<line fill="none" stroke="#000000" stroke-width="0.25" x1="35.844" y1="20.639" x2="35.866" y2="21.409"/>
<line fill="none" stroke="#000000" stroke-width="0.25" x1="35.984" y1="20.632" x2="35.999" y2="21.394"/>
<line fill="none" stroke="#000000" stroke-width="0.25" x1="36.116" y1="20.625" x2="36.116" y2="21.394"/>
<line fill="none" stroke="#000000" stroke-width="0.25" x1="36.254" y1="20.625" x2="36.254" y2="21.394"/>
<line fill="none" stroke="#000000" stroke-width="0.25" x1="36.438" y1="20.639" x2="36.445" y2="21.35"/>
<line fill="none" stroke="#000000" stroke-width="0.25" x1="36.65" y1="20.588" x2="36.642" y2="21.372"/>
<line fill="none" stroke="#000000" stroke-width="0.25" x1="36.833" y1="20.618" x2="36.84" y2="21.335"/>
<line fill="none" stroke="#000000" stroke-width="0.25" x1="37.089" y1="20.603" x2="37.089" y2="21.342"/>
<line fill="none" stroke="#000000" stroke-width="0.25" x1="37.39" y1="20.61" x2="37.397" y2="21.314"/>
<line fill="none" stroke="#000000" stroke-width="0.25" x1="37.69" y1="20.61" x2="37.698" y2="21.27"/>
<line fill="none" stroke="#000000" stroke-width="0.25" x1="37.961" y1="20.582" x2="37.954" y2="21.284"/>
<line fill="none" stroke="#000000" stroke-width="0.25" x1="38.261" y1="20.566" x2="38.253" y2="21.27"/>
<line fill="none" stroke="#000000" stroke-width="0.25" x1="38.613" y1="20.566" x2="38.627" y2="21.189"/>
<line fill="none" stroke="#000000" stroke-width="0.25" x1="38.971" y1="20.552" x2="38.986" y2="21.21"/>
<line fill="none" stroke="#000000" stroke-width="0.25" x1="39.293" y1="20.53" x2="39.301" y2="21.181"/>
<line fill="none" stroke="#000000" stroke-width="0.25" x1="39.638" y1="20.53" x2="39.667" y2="21.16"/>
<line fill="none" stroke="#000000" stroke-width="0.25" x1="40.011" y1="20.538" x2="40.034" y2="21.124"/>
<line fill="none" stroke="#000000" stroke-width="0.25" x1="40.377" y1="20.538" x2="40.392" y2="21.116"/>
<line fill="none" stroke="#000000" stroke-width="0.25" x1="40.729" y1="20.5" x2="40.729" y2="21.101"/>
<line fill="none" stroke="#000000" stroke-width="0.25" x1="41.022" y1="20.5" x2="41.022" y2="21.094"/>
<line fill="none" stroke="#000000" stroke-width="0.25" x1="41.293" y1="20.5" x2="41.3" y2="21.05"/>
<line fill="none" stroke="#000000" stroke-width="0.25" x1="41.572" y1="20.523" x2="41.564" y2="21.05"/>
<line fill="none" stroke="#000000" stroke-width="0.25" x1="41.835" y1="20.5" x2="41.82" y2="21.035"/>
<line fill="none" stroke="#000000" stroke-width="0.25" x1="42.083" y1="20.479" x2="42.054" y2="21.035"/>
<line fill="none" stroke="#000000" stroke-width="0.25" x1="42.282" y1="20.523" x2="42.259" y2="20.969"/>
<line fill="none" stroke="#000000" stroke-width="0.25" x1="42.479" y1="20.53" x2="42.471" y2="20.991"/>
<line fill="none" stroke="#000000" stroke-width="0.25" x1="42.633" y1="20.515" x2="42.618" y2="20.969"/>
<line fill="none" stroke="#000000" stroke-width="0.25" x1="42.809" y1="20.538" x2="42.809" y2="20.961"/>
<line fill="none" stroke="#000000" stroke-width="0.25" x1="42.977" y1="20.538" x2="42.977" y2="20.961"/>
<line fill="none" stroke="#000000" stroke-width="0.25" x1="43.131" y1="20.559" x2="43.124" y2="20.947"/>
<line fill="none" stroke="#000000" stroke-width="0.25" x1="43.255" y1="20.552" x2="43.241" y2="20.947"/>
<line fill="none" stroke="#000000" stroke-width="0.25" x1="43.358" y1="20.552" x2="43.355" y2="20.964"/>
<line fill="none" stroke="#000000" stroke-width="0.25" x1="43.497" y1="20.538" x2="43.497" y2="20.947"/>
<line fill="none" stroke="#000000" stroke-width="0.25" x1="43.636" y1="20.582" x2="43.644" y2="20.911"/>
<line fill="none" stroke="#000000" stroke-width="0.25" x1="43.804" y1="20.588" x2="43.797" y2="20.917"/>
<line fill="none" stroke="#000000" stroke-width="0.25" x1="43.973" y1="20.566" x2="43.973" y2="20.896"/>
<line fill="none" stroke="#000000" stroke-width="0.25" x1="44.193" y1="20.582" x2="44.185" y2="20.903"/>
<line fill="none" stroke="#000000" stroke-width="0.25" x1="44.471" y1="20.603" x2="44.471" y2="20.903"/>
<line fill="none" stroke="#000000" stroke-width="0.25" x1="44.698" y1="20.603" x2="44.706" y2="20.881"/>
<line fill="none" stroke="#000000" stroke-width="0.25" x1="44.985" y1="20.893" x2="44.984" y2="20.588"/>
<line fill="none" stroke="#000000" stroke-width="0.25" x1="35.457" y1="15.247" x2="35.511" y2="10.896"/>
<line fill="none" stroke="#000000" stroke-width="0.25" x1="35.665" y1="15.323" x2="35.706" y2="10.98"/>
<line fill="none" stroke="#000000" stroke-width="0.25" x1="35.808" y1="15.377" x2="35.874" y2="11.094"/>
<line fill="none" stroke="#000000" stroke-width="0.25" x1="35.984" y1="15.422" x2="36.049" y2="11.138"/>
<line fill="none" stroke="#000000" stroke-width="0.25" x1="36.137" y1="15.488" x2="36.214" y2="11.248"/>
<line fill="none" stroke="#000000" stroke-width="0.25" x1="36.302" y1="15.532" x2="36.368" y2="11.313"/>
<line fill="none" stroke="#000000" stroke-width="0.25" x1="36.467" y1="15.586" x2="36.547" y2="11.398"/>
<line fill="none" stroke="#000000" stroke-width="0.25" x1="36.654" y1="15.62" x2="36.719" y2="11.489"/>
<line fill="none" stroke="#000000" stroke-width="0.25" x1="36.807" y1="15.674" x2="36.884" y2="11.533"/>
<line fill="none" stroke="#000000" stroke-width="0.25" x1="37.083" y1="15.73" x2="37.148" y2="11.654"/>
<line fill="none" stroke="#000000" stroke-width="0.25" x1="37.401" y1="15.795" x2="37.448" y2="11.756"/>
<line fill="none" stroke="#000000" stroke-width="0.25" x1="37.719" y1="15.818" x2="37.73" y2="11.84"/>
<line fill="none" stroke="#000000" stroke-width="0.25" x1="38.005" y1="15.862" x2="38.048" y2="11.94"/>
<line fill="none" stroke="#000000" stroke-width="0.25" x1="38.312" y1="15.917" x2="38.356" y2="12.028"/>
<line fill="none" stroke="#000000" stroke-width="0.25" x1="38.664" y1="15.954" x2="38.657" y2="12.086"/>
<line fill="none" stroke="#000000" stroke-width="0.25" x1="38.994" y1="15.967" x2="39.015" y2="12.167"/>
<line fill="none" stroke="#000000" stroke-width="0.25" x1="39.264" y1="15.997" x2="39.315" y2="12.204"/>
<line fill="none" stroke="#000000" stroke-width="0.25" x1="39.601" y1="16.019" x2="39.616" y2="12.254"/>
<line fill="none" stroke="#000000" stroke-width="0.25" x1="39.974" y1="15.99" x2="39.982" y2="12.313"/>
<line fill="none" stroke="#000000" stroke-width="0.25" x1="40.333" y1="16.041" x2="40.348" y2="12.401"/>
<line fill="none" stroke="#000000" stroke-width="0.25" x1="40.648" y1="16.084" x2="40.678" y2="12.438"/>
<line fill="none" stroke="#000000" stroke-width="0.25" x1="40.993" y1="16.1" x2="40.993" y2="12.503"/>
<line fill="none" stroke="#000000" stroke-width="0.25" x1="41.315" y1="16.166" x2="41.315" y2="12.599"/>
<line fill="none" stroke="#000000" stroke-width="0.25" x1="41.623" y1="16.202" x2="41.629" y2="12.679"/>
<line fill="none" stroke="#000000" stroke-width="0.25" x1="41.872" y1="16.202" x2="41.893" y2="12.768"/>
<line fill="none" stroke="#000000" stroke-width="0.25" x1="42.121" y1="16.283" x2="42.135" y2="12.877"/>
<line fill="none" stroke="#000000" stroke-width="0.25" x1="42.318" y1="16.319" x2="42.355" y2="12.943"/>
<line fill="none" stroke="#000000" stroke-width="0.25" x1="42.516" y1="16.4" x2="42.5" y2="13.031"/>
<line fill="none" stroke="#000000" stroke-width="0.25" x1="42.669" y1="16.458" x2="42.677" y2="13.148"/>
<line fill="none" stroke="#000000" stroke-width="0.25" x1="42.824" y1="16.509" x2="42.838" y2="13.199"/>
<line fill="none" stroke="#000000" stroke-width="0.25" x1="42.992" y1="16.597" x2="43.022" y2="13.332"/>
<line fill="none" stroke="#000000" stroke-width="0.25" x1="43.182" y1="16.722" x2="43.197" y2="13.449"/>
<path fill="#1A171B" d="M56.492,21.833V10.415h3.593c1.49,0,2.688,0.459,3.596,1.376c0.907,0.918,1.361,2.104,1.361,3.557v1.561
	c0,1.459-0.454,2.645-1.361,3.558c-0.907,0.912-2.105,1.368-3.596,1.368H56.492z M58.038,11.629v8.996h2.047
	c1.056,0,1.889-0.348,2.498-1.043c0.608-0.695,0.913-1.587,0.913-2.675v-1.576c0-1.077-0.305-1.963-0.913-2.659
	c-0.609-0.695-1.442-1.043-2.498-1.043H58.038z"/>
<path fill="#1A171B" d="M73.271,18.892h-4.298l-1.02,2.941h-1.577l4.118-11.419h1.325l4.031,11.419h-1.576L73.271,18.892z
	 M69.42,17.598h3.411l-1.663-4.902h-0.047L69.42,17.598z"/>
<path fill="#1A171B" d="M83.618,18.956c0-0.518-0.187-0.952-0.558-1.303c-0.371-0.35-1.024-0.648-1.96-0.894
	c-1.161-0.288-2.067-0.711-2.719-1.271c-0.65-0.56-0.976-1.263-0.976-2.11c0-0.894,0.351-1.639,1.051-2.235
	c0.7-0.596,1.61-0.894,2.729-0.894c1.202,0,2.16,0.341,2.874,1.023s1.061,1.479,1.04,2.388l-0.023,0.047h-1.475
	c0-0.647-0.227-1.184-0.679-1.607c-0.452-0.423-1.032-0.635-1.737-0.635c-0.722,0-1.274,0.175-1.659,0.525
	c-0.384,0.35-0.576,0.805-0.576,1.364c0,0.497,0.21,0.911,0.632,1.243c0.42,0.332,1.104,0.624,2.051,0.875
	c1.15,0.298,2.025,0.737,2.627,1.317s0.902,1.297,0.902,2.149c0,0.92-0.362,1.66-1.087,2.219c-0.724,0.561-1.669,0.84-2.835,0.84
	c-1.104,0-2.077-0.309-2.922-0.926c-0.844-0.617-1.253-1.443-1.227-2.479l0.016-0.047h1.475c0,0.717,0.271,1.27,0.815,1.658
	c0.544,0.391,1.157,0.585,1.843,0.585c0.732,0,1.311-0.165,1.737-0.494C83.404,19.967,83.618,19.52,83.618,18.956z"/>
<path fill="#1A171B" d="M97.008,19.692h0.047l3.646-9.277h1.922v11.419h-1.545v-8.557l-0.047-0.008l-3.459,8.564h-1.074
	l-3.561-8.847l-0.047,0.008v8.839h-1.546V10.415h2.032L97.008,19.692z"/>
<path fill="#1A171B" d="M113.724,10.415v7.584c0,1.255-0.408,2.235-1.224,2.941c-0.815,0.705-1.867,1.059-3.152,1.059
	c-1.24,0-2.254-0.354-3.044-1.063c-0.789-0.709-1.185-1.688-1.185-2.938v-7.584h1.546v7.584c0,0.873,0.249,1.557,0.749,2.051
	c0.499,0.494,1.144,0.741,1.934,0.741c0.836,0,1.518-0.247,2.043-0.741s0.788-1.178,0.788-2.051v-7.584H113.724z"/>
<path fill="#1A171B" d="M122.261,18.956c0-0.518-0.187-0.952-0.558-1.303c-0.371-0.35-1.024-0.648-1.96-0.894
	c-1.161-0.288-2.067-0.711-2.719-1.271c-0.65-0.56-0.976-1.263-0.976-2.11c0-0.894,0.351-1.639,1.051-2.235
	c0.7-0.596,1.61-0.894,2.729-0.894c1.202,0,2.16,0.341,2.874,1.023s1.061,1.479,1.04,2.388l-0.023,0.047h-1.475
	c0-0.647-0.227-1.184-0.679-1.607c-0.452-0.423-1.032-0.635-1.737-0.635c-0.722,0-1.274,0.175-1.659,0.525
	c-0.384,0.35-0.576,0.805-0.576,1.364c0,0.497,0.21,0.911,0.632,1.243c0.42,0.332,1.104,0.624,2.051,0.875
	c1.15,0.298,2.025,0.737,2.627,1.317s0.902,1.297,0.902,2.149c0,0.92-0.362,1.66-1.087,2.219c-0.724,0.561-1.669,0.84-2.835,0.84
	c-1.104,0-2.077-0.309-2.922-0.926c-0.844-0.617-1.253-1.443-1.227-2.479l0.016-0.047h1.475c0,0.717,0.271,1.27,0.815,1.658
	c0.544,0.391,1.157,0.585,1.843,0.585c0.732,0,1.311-0.165,1.737-0.494C122.047,19.967,122.261,19.52,122.261,18.956z"/>
<path fill="#1A171B" d="M132.23,16.54h-4.69v4.086h5.49v1.208h-7.035V10.415h6.949v1.215h-5.404v3.694h4.69V16.54z"/>
<path fill="#1A171B" d="M143.283,10.415v7.584c0,1.255-0.408,2.235-1.224,2.941c-0.815,0.705-1.867,1.059-3.152,1.059
	c-1.24,0-2.254-0.354-3.044-1.063c-0.789-0.709-1.185-1.688-1.185-2.938v-7.584h1.546v7.584c0,0.873,0.249,1.557,0.749,2.051
	c0.499,0.494,1.144,0.741,1.934,0.741c0.836,0,1.518-0.247,2.043-0.741s0.788-1.178,0.788-2.051v-7.584H143.283z"/>
<path fill="#1A171B" d="M151.395,19.692h0.047l3.647-9.277h1.921v11.419h-1.545v-8.557l-0.047-0.008l-3.459,8.564h-1.074
	l-3.561-8.847l-0.048,0.008v8.839h-1.545V10.415h2.031L151.395,19.692z"/>
</svg>
