<?xml version="1.0" encoding="utf-8"?>
<!-- Generator: Adobe Illustrator 12.0.0, SVG Export Plug-In  -->
<!DOCTYPE svg PUBLIC "-//W3C//DTD SVG 1.1//EN" "http://www.w3.org/Graphics/SVG/1.1/DTD/svg11.dtd" [
	<!ENTITY ns_flows "http://ns.adobe.com/Flows/1.0/">
	<!ENTITY ns_svg "http://www.w3.org/2000/svg">
	<!ENTITY ns_xlink "http://www.w3.org/1999/xlink">
]>
<svg  version="1.1" xmlns="&ns_svg;" xmlns:xlink="&ns_xlink;" xmlns:a="http://ns.adobe.com/AdobeSVGViewerExtensions/3.0/"
	 width="229" height="31" viewBox="-0.01 -0.776 229 31" enable-background="new -0.01 -0.776 229 31" xml:space="preserve">
<defs>
</defs>
<rect fill="#FFFFFF" fill-opacity="0" width="228.912" height="30.001"/>
<path fill="#1A171B" d="M59.745,16.935l0.259,0.949h0.047l0.26-0.949l2.948-8.423h1.671l-4.243,11.419h-1.325L55.118,8.512h1.679
	L59.745,16.935z"/>
<path fill="#1A171B" d="M72.671,14.637h-4.689v4.086h5.489v1.208h-7.035V8.512h6.949v1.215h-5.403v3.694h4.689V14.637z"/>
<path fill="#1A171B" d="M76.847,14.982v4.949h-1.546V8.52h3.906c1.249,0,2.204,0.277,2.862,0.831
	c0.659,0.554,0.988,1.359,0.988,2.415c0,0.586-0.152,1.096-0.459,1.53c-0.306,0.434-0.752,0.778-1.337,1.035
	c0.628,0.204,1.078,0.534,1.353,0.993c0.274,0.457,0.412,1.022,0.412,1.697v1.074c0,0.355,0.039,0.674,0.117,0.957
	c0.079,0.281,0.215,0.512,0.408,0.689v0.188H81.96c-0.204-0.178-0.335-0.438-0.393-0.784s-0.086-0.701-0.086-1.065v-1.043
	c0-0.617-0.181-1.115-0.541-1.49c-0.361-0.377-0.845-0.565-1.451-0.565L76.847,14.982L76.847,14.982z M76.847,13.766h2.203
	c0.873,0,1.502-0.166,1.887-0.498c0.384-0.332,0.576-0.838,0.576-1.518c0-0.643-0.188-1.141-0.561-1.494
	c-0.374-0.353-0.956-0.529-1.745-0.529h-2.36V13.766z"/>
<path fill="#1A171B" d="M91.42,16.99h-4.298l-1.02,2.941h-1.577l4.118-11.419h1.325L94,19.931h-1.576L91.42,16.99z M87.57,15.696
	h3.411l-1.663-4.902h-0.047L87.57,15.696z"/>
<path fill="#1A171B" d="M104.317,19.931h-1.546l-5.497-8.722l-0.048,0.016v8.706h-1.545V8.512h1.545l5.498,8.713l0.047-0.017V8.512
	h1.546V19.931z"/>
<path fill="#1A171B" d="M113.08,17.052c0-0.518-0.187-0.951-0.558-1.303c-0.371-0.35-1.024-0.647-1.96-0.894
	c-1.161-0.288-2.067-0.711-2.719-1.271c-0.65-0.56-0.976-1.263-0.976-2.11c0-0.894,0.351-1.639,1.051-2.235
	c0.7-0.596,1.61-0.894,2.729-0.894c1.202,0,2.16,0.341,2.874,1.023c0.713,0.683,1.061,1.479,1.042,2.388l-0.023,0.047h-1.475
	c0-0.647-0.227-1.184-0.679-1.607c-0.452-0.423-1.032-0.635-1.737-0.635c-0.722,0-1.274,0.175-1.659,0.525
	c-0.384,0.35-0.576,0.805-0.576,1.364c0,0.497,0.21,0.911,0.632,1.243c0.42,0.332,1.104,0.624,2.051,0.875
	c1.15,0.298,2.025,0.737,2.627,1.317c0.602,0.581,0.903,1.297,0.903,2.149c0,0.92-0.362,1.66-1.087,2.219
	c-0.724,0.562-1.669,0.84-2.835,0.84c-1.104,0-2.077-0.309-2.922-0.926c-0.844-0.617-1.253-1.442-1.227-2.479l0.016-0.047h1.475
	c0,0.717,0.271,1.27,0.815,1.658c0.544,0.391,1.157,0.584,1.843,0.584c0.732,0,1.311-0.164,1.737-0.493
	C112.866,18.065,113.08,17.619,113.08,17.052z"/>
<path fill="#1A171B" d="M124.799,9.727h-3.765v10.204h-1.546V9.727h-3.717V8.512h9.026L124.799,9.727L124.799,9.727z"/>
<path fill="#1A171B" d="M132.322,16.99h-4.299l-1.02,2.941h-1.577l4.118-11.419h1.325l4.03,11.419h-1.575L132.322,16.99z
	 M128.471,15.696h3.412l-1.662-4.902h-0.048L128.471,15.696z"/>
<path fill="#1A171B" d="M138.129,18.723h5.568v1.208h-7.114V8.512h1.546V18.723z"/>
<path fill="#1A171B" d="M153.4,9.727h-3.766v10.204h-1.545V9.727h-3.718V8.512h9.026v1.215H153.4z"/>
<path fill="#1A171B" d="M163.449,8.512v7.584c0,1.255-0.408,2.235-1.225,2.94c-0.814,0.705-1.865,1.06-3.152,1.06
	c-1.238,0-2.254-0.354-3.043-1.063s-1.184-1.688-1.184-2.938V8.512h1.545v7.584c0,0.872,0.248,1.557,0.748,2.051
	s1.145,0.741,1.934,0.741c0.837,0,1.518-0.247,2.043-0.741s0.789-1.179,0.789-2.051V8.512H163.449z"/>
<path fill="#1A171B" d="M174.533,19.931h-1.545l-5.498-8.722l-0.047,0.016v8.706h-1.547V8.512h1.547l5.498,8.713l0.047-0.017V8.512
	h1.545V19.931z"/>
<path fill="#1A171B" d="M185.422,18.394c-0.271,0.424-0.744,0.813-1.416,1.169s-1.543,0.533-2.615,0.533
	c-1.318,0-2.408-0.437-3.271-1.312c-0.863-0.873-1.294-2.002-1.294-3.388v-2.353c0-1.386,0.415-2.516,1.246-3.389
	c0.832-0.873,1.904-1.311,3.217-1.311c1.27,0,2.273,0.339,3.012,1.016c0.736,0.677,1.096,1.538,1.074,2.584l-0.016,0.047h-1.482
	c0-0.695-0.225-1.274-0.675-1.737c-0.449-0.462-1.087-0.693-1.913-0.693c-0.874,0-1.577,0.326-2.109,0.98
	c-0.533,0.653-0.801,1.482-0.801,2.486v2.368c0,1.016,0.282,1.85,0.848,2.506c0.564,0.656,1.285,0.984,2.164,0.984
	c0.674,0,1.209-0.088,1.604-0.264s0.688-0.383,0.883-0.623v-2.572h-2.588v-1.208h4.133L185.422,18.394L185.422,18.394z"/>
<path fill="#1A171B" d="M194.325,14.637h-4.69v4.086h5.49v1.208h-7.035V8.512h6.949v1.215h-5.404v3.694h4.69V14.637z"/>
<path fill="#1A171B" d="M205.59,19.931h-1.545l-5.498-8.722l-0.047,0.016v8.706h-1.546V8.512h1.546l5.498,8.713l0.047-0.017V8.512
	h1.545V19.931z"/>
<ellipse fill="none" stroke="#000000" stroke-width="0.5" cx="25.471" cy="4.659" rx="2.139" ry="3.194"/>
<path fill="none" stroke="#000000" stroke-width="0.5" d="M38.918,4.784c0,1.762-0.957,3.191-2.138,3.191
	c-1.183,0-2.14-1.43-2.14-3.191c0-1.767,0.957-3.192,2.14-3.192C37.961,1.591,38.918,3.017,38.918,4.784z"/>
<path d="M29.25,20.798h-1.544V14.42H26.11v-1.184l3.141-0.275L29.25,20.798L29.25,20.798z"/>
<path d="M37.071,14.266c-0.874,1.022-1.469,1.942-1.783,2.762s-0.473,1.759-0.473,2.815v0.955h-1.549v-0.955
	c0-1.075,0.197-2.057,0.592-2.942c0.395-0.885,0.968-1.765,1.722-2.635h-3.942v-1.193h5.434L37.071,14.266L37.071,14.266z"/>
<line fill="none" stroke="#000000" stroke-width="3" x1="27.61" y1="4.659" x2="34.641" y2="4.659"/>
<polyline fill="none" stroke="#000000" points="23.267,4.504 20.791,4.504 20.791,23.101 41.62,23.101 41.606,4.747 38.918,4.784 
	"/>
<polygon points="20.533,4.412 20.476,10.279 41.463,10.333 41.801,4.692 39.037,4.975 38.417,7.004 37.231,7.853 35.708,7.908 
	35.086,6.667 34.581,5.482 34.467,4.692 27.811,4.692 27.415,6.273 26.513,7.511 25.61,7.964 24.142,7.511 23.637,6.443 
	23.241,5.145 23.016,4.58 "/>
</svg>
