<?xml version="1.0" encoding="utf-8"?>
<!-- Generator: Adobe Illustrator 13.0.0, SVG Export Plug-In  -->
<!DOCTYPE svg PUBLIC "-//W3C//DTD SVG 1.1//EN" "http://www.w3.org/Graphics/SVG/1.1/DTD/svg11.dtd" [
	<!ENTITY ns_flows "http://ns.adobe.com/Flows/1.0/">
]>
<svg version="1.1"
	 xmlns="http://www.w3.org/2000/svg" xmlns:xlink="http://www.w3.org/1999/xlink" xmlns:a="http://ns.adobe.com/AdobeSVGViewerExtensions/3.0/"
	 x="0px" y="0px" width="36px" height="38px" viewBox="0 0 36 38" enable-background="new 0 0 36 38" xml:space="preserve">
<defs>
</defs>
<rect fill="#FFFFFF" fill-opacity="0" width="35.143" height="37.678"/>
<path fill="#FFFFFF" d="M27.729,12.813c0,0.546-0.451,0.989-1.004,0.989H7.732c-0.555,0-1.004-0.443-1.004-0.989l0,0
	c0-0.547,0.45-0.99,1.004-0.99h18.993C27.277,11.824,27.729,12.267,27.729,12.813L27.729,12.813z"/>
<path fill="#FFFFFF" d="M27.729,18.813c0,0.546-0.451,0.988-1.004,0.988H7.732c-0.555,0-1.004-0.442-1.004-0.988l0,0
	c0-0.547,0.45-0.99,1.004-0.99h18.993C27.277,17.824,27.729,18.267,27.729,18.813L27.729,18.813z"/>
<path fill="#FFFFFF" d="M27.729,24.813c0,0.547-0.451,0.988-1.004,0.988H7.732c-0.555,0-1.004-0.441-1.004-0.988l0,0
	c0-0.547,0.45-0.987,1.004-0.987h18.993C27.277,23.825,27.729,24.268,27.729,24.813L27.729,24.813z"/>
</svg>
