<?xml version="1.0" encoding="utf-8"?>
<!-- Generator: Adobe Illustrator 13.0.0, SVG Export Plug-In  -->
<!DOCTYPE svg PUBLIC "-//W3C//DTD SVG 1.1//EN" "http://www.w3.org/Graphics/SVG/1.1/DTD/svg11.dtd" [
	<!ENTITY ns_flows "http://ns.adobe.com/Flows/1.0/">
]>
<svg version="1.1"
	 xmlns="http://www.w3.org/2000/svg" xmlns:xlink="http://www.w3.org/1999/xlink" xmlns:a="http://ns.adobe.com/AdobeSVGViewerExtensions/3.0/"
	 x="0px" y="0px" width="36px" height="38px" viewBox="0 0 36 38" enable-background="new 0 0 36 38" xml:space="preserve">
<defs>
</defs>
<rect fill="#FFFFFF" fill-opacity="0" width="35.143" height="37.678"/>
<path fill="none" stroke="#FFFFFF" d="M9.832,26.435c-0.234-2.848-0.024-3.318-0.024-3.318c0.41-3.988,4.238-4.127,4.238-4.127
	v10.574c-3.578-0.344-4.146-2.848-4.146-2.848H7.028v-8.959c0,0,0.434-9.137,10.892-8.933c0,0,9.32-0.387,10.461,8.614v9.321
	l-3.023-0.007c0,0-1.012,2.9-4.021,2.765V19.058c0,0,3.854,0,4.24,4.078c0,0,0.133,0.385-0.068,3.164"/>
<polygon fill="#FFFFFF" points="14.03,29.459 14.299,18.83 10.502,20.974 9.519,24.146 10.011,26.869 11.797,28.925 "/>
<polygon fill="#FFFFFF" points="21.309,29.416 24.258,28.433 25.643,25.218 25.15,21.33 23.008,19.591 21.086,18.964 "/>
</svg>
