<?xml version="1.0" encoding="utf-8"?>
<!-- Generator: Adobe Illustrator 13.0.0, SVG Export Plug-In  -->
<!DOCTYPE svg PUBLIC "-//W3C//DTD SVG 1.1//EN" "http://www.w3.org/Graphics/SVG/1.1/DTD/svg11.dtd" [
	<!ENTITY ns_flows "http://ns.adobe.com/Flows/1.0/">
]>
<svg version="1.1"
	 xmlns="http://www.w3.org/2000/svg" xmlns:xlink="http://www.w3.org/1999/xlink" xmlns:a="http://ns.adobe.com/AdobeSVGViewerExtensions/3.0/"
	 x="0px" y="0px" width="190px" height="35px" viewBox="0 0 190 35" enable-background="new 0 0 190 35" xml:space="preserve">
<defs>
</defs>
<rect fill="#74B628" width="190.167" height="35.333"/>
<path fill="#FFFFFF" d="M33.962,11.11h1.71v8.98c0,1.175-0.357,2.109-1.072,2.804c-0.715,0.696-1.644,1.044-2.783,1.044
	c-1.164,0-2.088-0.31-2.775-0.926c-0.686-0.616-1.015-1.513-0.986-2.688l0.018-0.053h1.642c0,0.787,0.183,1.373,0.547,1.754
	c0.365,0.383,0.883,0.573,1.554,0.573c0.631,0,1.146-0.229,1.545-0.686c0.399-0.458,0.6-1.065,0.6-1.823V11.11L33.962,11.11z"/>
<path fill="#FFFFFF" d="M42.255,23.938c-1.349,0-2.401-0.433-3.156-1.295c-0.756-0.862-1.133-1.998-1.133-3.404v-0.382
	c0-1.348,0.389-2.464,1.167-3.348c0.779-0.883,1.729-1.325,2.853-1.325c1.256,0,2.198,0.391,2.827,1.173
	c0.629,0.781,0.942,1.82,0.942,3.117v0.903h-6.009l-0.026,0.043c0,0.945,0.208,1.71,0.625,2.298
	c0.416,0.588,1.053,0.881,1.911,0.881c0.579,0,1.086-0.082,1.524-0.248c0.437-0.165,0.812-0.393,1.125-0.681l0.668,1.11
	c-0.336,0.325-0.778,0.599-1.329,0.821C43.695,23.825,43.031,23.938,42.255,23.938z M41.986,15.531c-0.597,0-1.089,0.229-1.48,0.689
	s-0.629,1.049-0.717,1.766l0.018,0.044h4.238v-0.139c0-0.683-0.168-1.248-0.503-1.693C43.204,15.753,42.687,15.531,41.986,15.531z"
	/>
<path fill="#FFFFFF" d="M50.053,12.091v2.268h1.78v1.268h-1.78v5.706c0,0.439,0.091,0.749,0.273,0.928
	c0.183,0.181,0.425,0.27,0.726,0.27c0.098,0,0.208-0.013,0.33-0.039c0.121-0.025,0.222-0.053,0.303-0.082l0.235,1.173
	c-0.127,0.104-0.316,0.188-0.564,0.256c-0.248,0.066-0.494,0.099-0.737,0.099c-0.694,0-1.248-0.21-1.659-0.63
	c-0.41-0.419-0.616-1.077-0.616-1.976v-5.705h-1.494v-1.268h1.494V12.09L50.053,12.091L50.053,12.091z"/>
<path fill="#FFFFFF" d="M55.281,22.417h5.428v1.338h-7.468v-1.198l5.08-6.844h-5.02v-1.354h7.112v1.164L55.281,22.417z"/>
<path fill="#FFFFFF" d="M64.989,12.091v2.268h1.78v1.268h-1.78v5.706c0,0.439,0.091,0.749,0.273,0.928
	c0.183,0.181,0.425,0.27,0.726,0.27c0.098,0,0.209-0.013,0.33-0.039c0.121-0.025,0.223-0.053,0.303-0.082l0.235,1.173
	c-0.128,0.104-0.316,0.188-0.565,0.256c-0.248,0.066-0.494,0.099-0.737,0.099c-0.694,0-1.248-0.21-1.659-0.63
	c-0.411-0.419-0.617-1.077-0.617-1.976v-5.705h-1.493v-1.268h1.493V12.09L64.989,12.091L64.989,12.091z"/>
<path fill="#FFFFFF" d="M78.797,23.754c-0.059-0.284-0.102-0.534-0.135-0.751c-0.032-0.219-0.051-0.437-0.057-0.656
	c-0.318,0.45-0.734,0.83-1.246,1.133c-0.512,0.304-1.064,0.456-1.654,0.456c-0.979,0-1.725-0.251-2.236-0.752
	c-0.512-0.5-0.768-1.19-0.768-2.07c0-0.898,0.363-1.601,1.089-2.105c0.727-0.508,1.712-0.761,2.958-0.761h1.858v-0.929
	c0-0.551-0.168-0.986-0.503-1.307c-0.336-0.322-0.811-0.482-1.424-0.482c-0.556,0-1.005,0.138-1.346,0.416
	c-0.342,0.278-0.513,0.61-0.513,0.998l-1.624,0.018l-0.018-0.052c-0.04-0.683,0.28-1.309,0.96-1.876
	c0.68-0.568,1.558-0.851,2.636-0.851c1.065,0,1.922,0.271,2.57,0.812c0.648,0.542,0.974,1.322,0.974,2.341v4.524
	c0,0.334,0.017,0.66,0.052,0.973c0.035,0.312,0.099,0.619,0.191,0.92h-1.763V23.754z M75.958,22.503
	c0.619,0,1.177-0.158,1.676-0.479c0.498-0.318,0.822-0.682,0.973-1.094v-1.528h-1.92c-0.688,0-1.24,0.174-1.654,0.521
	c-0.413,0.348-0.621,0.756-0.621,1.225c0,0.417,0.13,0.747,0.39,0.989C75.063,22.383,75.448,22.503,75.958,22.503z"/>
<path fill="#FFFFFF" d="M90.824,19.412c0,1.354-0.326,2.447-0.976,3.278c-0.651,0.832-1.548,1.247-2.689,1.247
	c-0.625,0-1.168-0.124-1.628-0.369c-0.46-0.247-0.84-0.609-1.143-1.09l-0.277,1.276h-1.312V10.207h1.711v5.262
	c0.295-0.417,0.661-0.735,1.098-0.955c0.438-0.22,0.949-0.33,1.532-0.33c1.158,0,2.062,0.464,2.709,1.389
	c0.649,0.927,0.973,2.145,0.973,3.656v0.183H90.824z M89.113,19.229c0-1.076-0.198-1.955-0.595-2.636
	c-0.396-0.68-1-1.021-1.81-1.021c-0.526,0-0.971,0.129-1.333,0.387c-0.362,0.258-0.65,0.603-0.864,1.038v4.072
	c0.219,0.464,0.508,0.826,0.864,1.086c0.356,0.26,0.806,0.391,1.35,0.391c0.804,0,1.404-0.287,1.798-0.859
	c0.393-0.573,0.589-1.331,0.589-2.274V19.229z"/>
<path fill="#FFFFFF" d="M98.371,21.227c0-0.376-0.145-0.683-0.431-0.921c-0.286-0.237-0.83-0.445-1.628-0.624
	c-1.106-0.237-1.955-0.57-2.548-1c-0.595-0.428-0.892-1-0.892-1.719c0-0.764,0.327-1.417,0.977-1.962
	c0.653-0.543,1.495-0.816,2.532-0.816c1.066,0,1.927,0.291,2.587,0.869c0.66,0.579,0.978,1.254,0.948,2.024l-0.019,0.052h-1.632
	c0-0.406-0.178-0.772-0.534-1.103c-0.356-0.33-0.806-0.494-1.351-0.494c-0.601,0-1.052,0.136-1.349,0.408
	c-0.298,0.272-0.447,0.596-0.447,0.973c0,0.371,0.129,0.658,0.386,0.86c0.258,0.203,0.789,0.388,1.593,0.556
	c1.153,0.243,2.028,0.588,2.624,1.032c0.595,0.446,0.894,1.028,0.894,1.746c0,0.834-0.337,1.515-1.012,2.04
	c-0.675,0.527-1.556,0.791-2.645,0.791c-1.198,0-2.143-0.304-2.831-0.911s-1.015-1.317-0.98-2.128l0.017-0.052h1.634
	c0.028,0.606,0.254,1.053,0.678,1.333c0.422,0.281,0.917,0.421,1.484,0.421c0.607,0,1.084-0.129,1.43-0.386
	C98.198,21.955,98.371,21.626,98.371,21.227z"/>
<path fill="#FFFFFF" d="M104.588,12.091v2.268h1.78v1.268h-1.78v5.706c0,0.439,0.092,0.749,0.273,0.928
	c0.183,0.181,0.425,0.27,0.726,0.27c0.098,0,0.209-0.013,0.329-0.039c0.121-0.025,0.224-0.053,0.304-0.082l0.234,1.173
	c-0.128,0.104-0.314,0.188-0.563,0.256c-0.25,0.066-0.495,0.099-0.739,0.099c-0.694,0-1.247-0.21-1.658-0.63
	c-0.411-0.419-0.616-1.077-0.616-1.976v-5.705h-1.493v-1.268h1.493V12.09L104.588,12.091L104.588,12.091z"/>
<path fill="#FFFFFF" d="M110.05,11.952h-1.71v-1.746h1.71V11.952z M110.05,23.754h-1.71v-9.396h1.71V23.754z"/>
<path fill="#FFFFFF" d="M114.21,14.357l0.122,1.233c0.307-0.446,0.696-0.792,1.167-1.038c0.474-0.246,1.021-0.369,1.646-0.369
	c0.626,0,1.162,0.145,1.61,0.435c0.449,0.29,0.786,0.723,1.011,1.302c0.303-0.539,0.693-0.962,1.178-1.272
	c0.484-0.309,1.05-0.464,1.698-0.464c0.954,0,1.712,0.33,2.267,0.986c0.557,0.658,0.833,1.646,0.833,2.967v5.618h-1.711v-5.636
	c0-0.927-0.16-1.582-0.479-1.967c-0.317-0.385-0.792-0.578-1.424-0.578c-0.583,0-1.058,0.203-1.419,0.608s-0.574,0.917-0.64,1.536
	v0.07v5.966h-1.718v-5.636c0-0.88-0.164-1.525-0.491-1.933c-0.327-0.408-0.796-0.612-1.411-0.612c-0.522,0-0.949,0.107-1.286,0.322
	c-0.334,0.213-0.593,0.515-0.772,0.903v6.957h-1.71v-9.397H114.21z"/>
<path fill="#FFFFFF" d="M129.754,14.357l0.12,1.233c0.308-0.446,0.696-0.792,1.17-1.038c0.471-0.246,1.02-0.369,1.646-0.369
	c0.623,0,1.161,0.145,1.61,0.435c0.448,0.29,0.787,0.723,1.013,1.302c0.299-0.539,0.692-0.962,1.177-1.272
	c0.483-0.309,1.049-0.464,1.696-0.464c0.956,0,1.711,0.33,2.268,0.986c0.555,0.658,0.833,1.646,0.833,2.967v5.618h-1.711v-5.636
	c0-0.927-0.158-1.582-0.477-1.967c-0.318-0.385-0.793-0.578-1.424-0.578c-0.586,0-1.059,0.203-1.421,0.608
	c-0.359,0.405-0.573,0.917-0.638,1.536v0.07v5.966h-1.721v-5.636c0-0.88-0.163-1.525-0.489-1.933
	c-0.327-0.408-0.798-0.612-1.411-0.612c-0.521,0-0.951,0.107-1.285,0.322c-0.337,0.213-0.593,0.515-0.773,0.903v6.957h-1.711v-9.397
	H129.754z"/>
<path fill="#FFFFFF" d="M147.659,23.938c-1.348,0-2.4-0.433-3.155-1.295c-0.758-0.862-1.136-1.998-1.136-3.404v-0.382
	c0-1.348,0.392-2.464,1.169-3.348c0.778-0.883,1.729-1.325,2.853-1.325c1.257,0,2.199,0.391,2.828,1.173
	c0.627,0.781,0.941,1.82,0.941,3.117v0.903h-6.01l-0.025,0.043c0,0.945,0.209,1.71,0.626,2.298c0.416,0.588,1.053,0.881,1.909,0.881
	c0.58,0,1.087-0.082,1.526-0.248c0.437-0.165,0.812-0.393,1.124-0.681l0.669,1.11c-0.335,0.325-0.78,0.599-1.329,0.821
	S148.436,23.938,147.659,23.938z M147.39,15.531c-0.595,0-1.089,0.229-1.48,0.689c-0.391,0.46-0.629,1.049-0.717,1.766l0.019,0.044
	h4.237v-0.139c0-0.683-0.167-1.248-0.504-1.693C148.61,15.753,148.092,15.531,147.39,15.531z"/>
<path fill="#FFFFFF" d="M154.607,14.357l0.12,1.398c0.313-0.498,0.705-0.884,1.177-1.16c0.473-0.274,1.009-0.412,1.611-0.412
	c1.013,0,1.798,0.297,2.353,0.89c0.557,0.594,0.834,1.509,0.834,2.749v5.931h-1.712v-5.896c0-0.828-0.164-1.417-0.49-1.764
	s-0.825-0.521-1.496-0.521c-0.527,0-0.975,0.106-1.342,0.317s-0.658,0.508-0.873,0.89v6.973h-1.711v-9.396H154.607z"/>
</svg>
